<svg width="26" height="36" viewBox="0 0 26 36" fill="none" xmlns="http://www.w3.org/2000/svg">
<g style="mix-blend-mode:difference" clip-path="url(#clip0_165_5908)">
<path d="M12.9855 27.4765C10.3648 27.4489 8.75132 27.1933 8.14505 26.7097C7.60549 26.2792 7.44461 25.543 7.24805 24.606" stroke="#C0C0C0" stroke-linecap="round" stroke-linejoin="round"/>
<path d="M6.41145 21.8695C5.44877 19.9498 3.1958 17.3804 2.44077 14.9831C2.26227 14.4163 2.12096 13.8318 2.01758 13.2424" stroke="#C0C0C0" stroke-linecap="round" stroke-linejoin="round"/>
<path d="M1.81836 10.3627C1.86456 9.21116 2.0701 8.12585 2.441 7.21273C3.2969 5.10556 5.38606 0.418701 12.9863 0.418701" stroke="#C0C0C0" stroke-linecap="round" stroke-linejoin="round"/>
<path d="M18.1098 26.6293V28.2961C18.1098 28.8836 17.4842 29.3599 16.7125 29.3599H9.26053C8.48885 29.3599 7.86328 28.8836 7.86328 28.2961V27.2323V26.5117" stroke="#C0C0C0" stroke-linecap="round" stroke-linejoin="round"/>
<path d="M18.1098 28.5282V30.195C18.1098 30.7825 17.4842 31.2588 16.7125 31.2588H9.26053C8.48885 31.2588 7.86328 30.7825 7.86328 30.195V29.1312V28.4106" stroke="#C0C0C0" stroke-linecap="round" stroke-linejoin="round"/>
<path d="M18.1098 30.4269V32.0937C18.1098 32.6812 17.4842 33.1575 16.7125 33.1575H9.26053C8.48885 33.1575 7.86328 32.6812 7.86328 32.0937V31.0299V30.3093" stroke="#C0C0C0" stroke-linecap="round" stroke-linejoin="round"/>
<path d="M12.9863 27.4763C15.5776 27.567 17.1764 27.3706 17.7827 26.8869C18.3278 26.452 18.5023 25.6413 18.7144 24.6394" stroke="#C0C0C0" stroke-linecap="round" stroke-linejoin="round"/>
<path d="M19.5742 21.844C20.544 19.927 22.7803 17.3699 23.532 14.9833C23.7096 14.4193 23.8503 13.8378 23.9536 13.2515" stroke="#C0C0C0" stroke-linecap="round" stroke-linejoin="round"/>
<path d="M24.1541 10.3599C24.1077 9.20937 23.9022 8.12509 23.5316 7.21273L23.3935 6.87822C22.453 4.64859 20.2065 0.418701 12.9863 0.418701" stroke="#C0C0C0" stroke-linecap="round" stroke-linejoin="round"/>
<path d="M9.33984 33.1729C9.91922 34.7552 11.1405 35.5463 13.0036 35.5463C14.8667 35.5463 16.1294 34.7552 16.7918 33.1729" stroke="#C0C0C0" stroke-linecap="round" stroke-linejoin="round"/>
<path d="M1.80741 13.2354C2.57909 13.2354 3.20466 12.5978 3.20466 11.8113C3.20466 11.0248 2.57909 10.3872 1.80741 10.3872C1.03573 10.3872 0.410156 11.0248 0.410156 11.8113C0.410156 12.5978 1.03573 13.2354 1.80741 13.2354Z" stroke="#C0C0C0" stroke-linecap="round" stroke-linejoin="round"/>
<path d="M7.39725 13.2354C8.16893 13.2354 8.7945 12.5978 8.7945 11.8113C8.7945 11.0248 8.16893 10.3872 7.39725 10.3872C6.62557 10.3872 6 11.0248 6 11.8113C6 12.5978 6.62557 13.2354 7.39725 13.2354Z" stroke="#C0C0C0" stroke-linecap="round" stroke-linejoin="round"/>
<path d="M7.39725 18.9319C8.16893 18.9319 8.7945 18.2943 8.7945 17.5078C8.7945 16.7213 8.16893 16.0837 7.39725 16.0837C6.62557 16.0837 6 16.7213 6 17.5078C6 18.2943 6.62557 18.9319 7.39725 18.9319Z" stroke="#C0C0C0" stroke-linecap="round" stroke-linejoin="round"/>
<path d="M12.9851 10.3872C13.7568 10.3872 14.3824 9.74966 14.3824 8.96316C14.3824 8.17665 13.7568 7.53906 12.9851 7.53906C12.2135 7.53906 11.5879 8.17665 11.5879 8.96316C11.5879 9.74966 12.2135 10.3872 12.9851 10.3872Z" stroke="#C0C0C0" stroke-linecap="round" stroke-linejoin="round"/>
<path d="M12.9851 4.69096C13.7568 4.69096 14.3824 4.05337 14.3824 3.26687C14.3824 2.48036 13.7568 1.84277 12.9851 1.84277C12.2135 1.84277 11.5879 2.48036 11.5879 3.26687C11.5879 4.05337 12.2135 4.69096 12.9851 4.69096Z" stroke="#C0C0C0" stroke-linecap="round" stroke-linejoin="round"/>
<path d="M12.9851 21.7801C13.7568 21.7801 14.3824 21.1425 14.3824 20.356C14.3824 19.5695 13.7568 18.9319 12.9851 18.9319C12.2135 18.9319 11.5879 19.5695 11.5879 20.356C11.5879 21.1425 12.2135 21.7801 12.9851 21.7801Z" stroke="#C0C0C0" stroke-linecap="round" stroke-linejoin="round"/>
<path d="M2.56055 10.6226L6.4018 7.12988" stroke="#C0C0C0" stroke-linecap="round" stroke-linejoin="round"/>
<path d="M3.20508 11.8113H5.99958" stroke="#C0C0C0" stroke-linecap="round" stroke-linejoin="round"/>
<path d="M2.68945 13.002L6.40653 16.4986" stroke="#C0C0C0" stroke-linecap="round" stroke-linejoin="round"/>
<path d="M8.6582 5.47239L11.7286 3.90771" stroke="#C0C0C0" stroke-linecap="round" stroke-linejoin="round"/>
<path d="M12.2069 4.45679L8.17383 10.6226" stroke="#C0C0C0" stroke-linecap="round" stroke-linejoin="round"/>
<path d="M11.7351 8.32612L8.65234 6.75513" stroke="#C0C0C0" stroke-linecap="round" stroke-linejoin="round"/>
<path d="M11.7327 9.60229L8.65234 11.1721" stroke="#C0C0C0" stroke-linecap="round" stroke-linejoin="round"/>
<path d="M11.7342 14.0212L8.65625 12.4526" stroke="#C0C0C0" stroke-linecap="round" stroke-linejoin="round"/>
<path d="M11.737 19.7189L8.6543 18.1479" stroke="#C0C0C0" stroke-linecap="round" stroke-linejoin="round"/>
<path d="M12.2076 19.1658L8.17578 13.002" stroke="#C0C0C0" stroke-linecap="round" stroke-linejoin="round"/>
<path fill-rule="evenodd" clip-rule="evenodd" d="M19.0398 24.6282C18.2681 24.6282 17.6426 23.9906 17.6426 23.2041C17.6426 22.4176 18.2681 21.78 19.0398 21.78C19.8115 21.78 20.4371 22.4176 20.4371 23.2041C20.4371 23.9906 19.8115 24.6282 19.0398 24.6282Z" stroke="#C0C0C0" stroke-linecap="round" stroke-linejoin="round"/>
<path fill-rule="evenodd" clip-rule="evenodd" d="M18.575 13.2354C17.8033 13.2354 17.1777 12.5978 17.1777 11.8113C17.1777 11.0248 17.8033 10.3872 18.575 10.3872C19.3467 10.3872 19.9722 11.0248 19.9722 11.8113C19.9722 12.5978 19.3467 13.2354 18.575 13.2354Z" stroke="#C0C0C0" stroke-linecap="round" stroke-linejoin="round"/>
<path fill-rule="evenodd" clip-rule="evenodd" d="M18.575 7.5391C17.8033 7.5391 17.1777 6.90152 17.1777 6.11501C17.1777 5.32851 17.8033 4.69092 18.575 4.69092C19.3467 4.69092 19.9722 5.32851 19.9722 6.11501C19.9722 6.90152 19.3467 7.5391 18.575 7.5391Z" stroke="#C0C0C0" stroke-linecap="round" stroke-linejoin="round"/>
<path fill-rule="evenodd" clip-rule="evenodd" d="M18.575 18.9319C17.8033 18.9319 17.1777 18.2943 17.1777 17.5078C17.1777 16.7213 17.8033 16.0837 18.575 16.0837C19.3467 16.0837 19.9722 16.7213 19.9722 17.5078C19.9722 18.2943 19.3467 18.9319 18.575 18.9319Z" stroke="#C0C0C0" stroke-linecap="round" stroke-linejoin="round"/>
<path d="M23.1809 10.6226L19.5703 7.12988" stroke="#C0C0C0" stroke-linecap="round" stroke-linejoin="round"/>
<path d="M22.7663 11.8113H20.0117" stroke="#C0C0C0" stroke-linecap="round" stroke-linejoin="round"/>
<path d="M23.1806 12.8599L19.5645 16.4986" stroke="#C0C0C0" stroke-linecap="round" stroke-linejoin="round"/>
<path d="M17.3145 5.47239L14.2441 3.90771" stroke="#C0C0C0" stroke-linecap="round" stroke-linejoin="round"/>
<path d="M13.7637 4.45679L17.7967 10.6226" stroke="#C0C0C0" stroke-linecap="round" stroke-linejoin="round"/>
<path d="M14.2363 8.32612L17.3191 6.75513" stroke="#C0C0C0" stroke-linecap="round" stroke-linejoin="round"/>
<path d="M14.2402 9.60229L17.3206 11.1721" stroke="#C0C0C0" stroke-linecap="round" stroke-linejoin="round"/>
<path d="M14.2383 14.0212L17.3162 12.4526" stroke="#C0C0C0" stroke-linecap="round" stroke-linejoin="round"/>
<path d="M14.2363 19.7189L17.319 18.1479" stroke="#C0C0C0" stroke-linecap="round" stroke-linejoin="round"/>
<path d="M13.7637 19.1658L17.7955 13.002" stroke="#C0C0C0" stroke-linecap="round" stroke-linejoin="round"/>
<path d="M14.2363 21.0034L17.7147 22.5715" stroke="#C0C0C0" stroke-linecap="round" stroke-linejoin="round"/>
<path d="M11.7322 21.0034L8.24805 22.5759" stroke="#C0C0C0" stroke-linecap="round" stroke-linejoin="round"/>
<path d="M18.7148 18.9336L18.9565 21.7801" stroke="#C0C0C0" stroke-linecap="round" stroke-linejoin="round"/>
<path d="M7.24847 18.9319L7.08984 21.7801" stroke="#C0C0C0" stroke-linecap="round" stroke-linejoin="round"/>
<path d="M7.88532 23.2122C7.88532 22.692 7.47159 22.2703 6.96122 22.2703C6.45085 22.2703 6.03711 22.692 6.03711 23.2122C6.03711 23.7324 6.45085 24.1541 6.96122 24.1541C7.47159 24.1541 7.88532 23.7324 7.88532 23.2122Z" fill="#292929" stroke="white" stroke-width="1.5"/>
<path d="M8.1928 23.2122C8.1928 22.5186 7.64115 21.9564 6.96066 21.9564C6.28016 21.9564 5.72852 22.5186 5.72852 23.2122C5.72852 23.9058 6.28016 24.468 6.96066 24.468C7.64115 24.468 8.1928 23.9058 8.1928 23.2122Z" stroke="white"/>
<path d="M8.31696 6.08622C8.31696 5.56604 7.90323 5.14436 7.39286 5.14436C6.88249 5.14436 6.46875 5.56604 6.46875 6.08622C6.46875 6.60639 6.88249 7.02808 7.39286 7.02808C7.90323 7.02808 8.31696 6.60639 8.31696 6.08622Z" fill="#292929" stroke="white" stroke-width="1.5"/>
<path d="M8.62444 6.08623C8.62444 5.39266 8.07279 4.83041 7.3923 4.83041C6.71181 4.83041 6.16016 5.39266 6.16016 6.08623C6.16016 6.77979 6.71181 7.34204 7.3923 7.34204C8.07279 7.34204 8.62444 6.77979 8.62444 6.08623Z" stroke="white"/>
<path d="M13.9205 14.5987C13.9205 14.0785 13.5067 13.6568 12.9964 13.6568C12.486 13.6568 12.0723 14.0785 12.0723 14.5987C12.0723 15.1188 12.486 15.5405 12.9964 15.5405C13.5067 15.5405 13.9205 15.1188 13.9205 14.5987Z" fill="#292929" stroke="white" stroke-width="1.5"/>
<path d="M14.228 14.5987C14.228 13.9051 13.6763 13.3429 12.9958 13.3429C12.3153 13.3429 11.7637 13.9051 11.7637 14.5987C11.7637 15.2922 12.3153 15.8545 12.9958 15.8545C13.6763 15.8545 14.228 15.2922 14.228 14.5987Z" stroke="white"/>
<path d="M25.0943 11.7693C25.0943 11.2491 24.6806 10.8275 24.1702 10.8275C23.6598 10.8275 23.2461 11.2491 23.2461 11.7693C23.2461 12.2895 23.6598 12.7112 24.1702 12.7112C24.6806 12.7112 25.0943 12.2895 25.0943 11.7693Z" fill="#292929" stroke="white" stroke-width="1.5"/>
<path d="M25.4018 11.7693C25.4018 11.0758 24.8501 10.5135 24.1696 10.5135C23.4891 10.5135 22.9375 11.0758 22.9375 11.7693C22.9375 12.4629 23.4891 13.0251 24.1696 13.0251C24.8501 13.0251 25.4018 12.4629 25.4018 11.7693Z" stroke="white"/>
</g>
<defs>
<clipPath id="clip0_165_5908">
<rect width="25.875" height="36" fill="white"/>
</clipPath>
</defs>
</svg>
