<svg width="36" height="36" viewBox="0 0 36 36" fill="none" xmlns="http://www.w3.org/2000/svg">
<g style="mix-blend-mode:difference" clip-path="url(#clip0_165_7003)">
<path fill-rule="evenodd" clip-rule="evenodd" d="M18.0522 19.9999C18.0522 19.9999 28.1417 13.2549 28.1417 6.39846C28.1417 -0.457954 19.2049 -1.64158 18.0522 5.21573C16.8996 -1.64158 7.69727 -0.985644 7.69727 6.39846C7.69727 13.7826 18.0522 19.9999 18.0522 19.9999Z" stroke="#C0C0C0" stroke-linecap="round" stroke-linejoin="round"/>
<path d="M9.03125 10.6365H13.6202L15.3078 6.66675L18.3447 14.2223L21.085 8.65355L22.2818 10.6365H26.809" stroke="#C0C0C0" stroke-linecap="round" stroke-linejoin="round"/>
<path d="M20.2164 30.2767C15.6092 30.3483 13.0116 30.3483 12.4236 30.2767C11.5416 30.1693 10.9416 29.8339 10.9416 28.7674C10.9416 28.0564 11.4356 27.5629 12.4236 27.2869C15.1014 27.0564 16.9625 26.7968 18.007 26.5081C19.5736 26.0752 20.3582 24.8889 22.8315 24.8889C25.3047 24.8889 25.555 25.8162 27.9088 26.0752C30.2626 26.3342 31.407 25.8005 32.7134 26.2826C34.0198 26.7646 34.809 28.2338 34.809 29.7921C34.809 31.3504 33.731 32.4804 32.7134 32.9013C31.6958 33.3223 27.9622 32.8704 26.7084 33.2022C25.4547 33.534 18.8438 35.5556 16.7014 35.5556C15.2732 35.5556 10.3088 33.6344 1.80821 29.7921C1.12132 29.3403 0.889879 28.7726 1.11387 28.089C1.33787 27.4054 1.93617 27.138 2.90877 27.2869L11.1401 29.6412" stroke="#C0C0C0" stroke-linecap="round" stroke-linejoin="round"/>
<path d="M9.58594 32.4446C9.58594 31.8923 9.13822 31.4446 8.58594 31.4446C8.03365 31.4446 7.58594 31.8923 7.58594 32.4446C7.58594 32.9969 8.03365 33.4446 8.58594 33.4446C9.13822 33.4446 9.58594 32.9969 9.58594 32.4446Z" fill="#292929" stroke="white" stroke-width="1.5"/>
<path d="M9.91862 32.4445C9.91862 31.7081 9.32167 31.1112 8.58529 31.1112C7.84891 31.1112 7.25195 31.7081 7.25195 32.4445C7.25195 33.1809 7.84891 33.7778 8.58529 33.7778C9.32167 33.7778 9.91862 33.1809 9.91862 32.4445Z" stroke="white"/>
<path d="M33.5859 26.2224C33.5859 25.6701 33.1382 25.2224 32.5859 25.2224C32.0337 25.2224 31.5859 25.6701 31.5859 26.2224C31.5859 26.7747 32.0337 27.2224 32.5859 27.2224C33.1382 27.2224 33.5859 26.7747 33.5859 26.2224Z" fill="#292929" stroke="white" stroke-width="1.5"/>
<path d="M33.9186 26.2223C33.9186 25.486 33.3217 24.889 32.5853 24.889C31.8489 24.889 31.252 25.486 31.252 26.2223C31.252 26.9587 31.8489 27.5557 32.5853 27.5557C33.3217 27.5557 33.9186 26.9587 33.9186 26.2223Z" stroke="white"/>
<path d="M9.58594 10.6667C9.58594 10.1145 9.13822 9.66675 8.58594 9.66675C8.03365 9.66675 7.58594 10.1145 7.58594 10.6667C7.58594 11.219 8.03365 11.6667 8.58594 11.6667C9.13822 11.6667 9.58594 11.219 9.58594 10.6667Z" fill="#292929" stroke="white" stroke-width="1.5"/>
<path d="M9.91862 10.6667C9.91862 9.93029 9.32167 9.33333 8.58529 9.33333C7.84891 9.33333 7.25195 9.93029 7.25195 10.6667C7.25195 11.403 7.84891 12 8.58529 12C9.32167 12 9.91862 11.403 9.91862 10.6667Z" stroke="white"/>
<path d="M27.8086 10.6667C27.8086 10.1145 27.3609 9.66675 26.8086 9.66675C26.2563 9.66675 25.8086 10.1145 25.8086 10.6667C25.8086 11.219 26.2563 11.6667 26.8086 11.6667C27.3609 11.6667 27.8086 11.219 27.8086 10.6667Z" fill="#292929" stroke="white" stroke-width="1.5"/>
<path d="M28.1413 10.6667C28.1413 9.93029 27.5443 9.33333 26.8079 9.33333C26.0716 9.33333 25.4746 9.93029 25.4746 10.6667C25.4746 11.403 26.0716 12 26.8079 12C27.5443 12 28.1413 11.403 28.1413 10.6667Z" stroke="white"/>
<path d="M27.8086 33.3335C27.8086 32.7812 27.3609 32.3335 26.8086 32.3335C26.2563 32.3335 25.8086 32.7812 25.8086 33.3335C25.8086 33.8858 26.2563 34.3335 26.8086 34.3335C27.3609 34.3335 27.8086 33.8858 27.8086 33.3335Z" fill="#292929" stroke="white" stroke-width="1.5"/>
<path d="M28.1413 33.3334C28.1413 32.597 27.5443 32.0001 26.8079 32.0001C26.0716 32.0001 25.4746 32.597 25.4746 33.3334C25.4746 34.0698 26.0716 34.6667 26.8079 34.6667C27.5443 34.6667 28.1413 34.0698 28.1413 33.3334Z" stroke="white"/>
</g>
<defs>
<clipPath id="clip0_165_7003">
<rect width="34.6667" height="36" fill="white" transform="translate(0.585938)"/>
</clipPath>
</defs>
</svg>
