<svg width="33" height="36" viewBox="0 0 33 36" fill="none" xmlns="http://www.w3.org/2000/svg">
<g style="mix-blend-mode:difference" clip-path="url(#clip0_165_6923)">
<path d="M14.637 24.8224C14.5966 22.9879 14.5588 21.5106 14.5237 20.3774C14.4675 18.5627 14.3743 16.2406 14.2441 13.4111" stroke="#C0C0C0" stroke-linecap="round" stroke-linejoin="round"/>
<path d="M14.6374 24.9057C14.5421 25.2273 14.2545 25.3881 13.7748 25.3881C13.0551 25.3881 12.9121 24.9057 12.9121 24.9057C12.9121 23.0069 12.9918 21.5214 13.0275 20.3697C13.0837 18.557 13.1769 16.2375 13.3071 13.4111" stroke="#C0C0C0" stroke-linecap="round" stroke-linejoin="round"/>
<path d="M13.8471 11.3432C13.7324 6.95418 12.0691 3.29813 8.85742 0.375" stroke="#C0C0C0" stroke-linecap="round" stroke-linejoin="round"/>
<path fill-rule="evenodd" clip-rule="evenodd" d="M9.08154 4.23068C8.70374 3.49187 8.62918 2.20665 8.85785 0.375C10.539 0.553333 11.6581 1.02425 12.2152 1.78774C12.7723 2.55123 13.0348 4.14322 13.0027 6.5637C10.7664 5.74716 9.45934 4.96948 9.08154 4.23068Z" stroke="#C0C0C0" stroke-linecap="round" stroke-linejoin="round"/>
<path d="M12.8284 12.594C8.61867 13.8407 5.51766 16.3936 3.52539 20.2524" stroke="#C0C0C0" stroke-linecap="round" stroke-linejoin="round"/>
<path fill-rule="evenodd" clip-rule="evenodd" d="M7.19175 19.0383C6.5759 19.5945 5.35376 19.9991 3.52534 20.2523C3.2625 18.5823 3.42772 17.3795 4.02101 16.6438C4.61429 15.908 6.08409 15.2424 8.43041 14.647C8.22048 17.0184 7.8076 18.4822 7.19175 19.0383Z" stroke="#C0C0C0" stroke-linecap="round" stroke-linejoin="round"/>
<path d="M14.4941 13.2212C18.3525 15.3163 22.3503 15.704 26.4877 14.3841" stroke="#C0C0C0" stroke-linecap="round" stroke-linejoin="round"/>
<path fill-rule="evenodd" clip-rule="evenodd" d="M23.0357 12.6499C23.8644 12.6921 25.0148 13.2702 26.4867 14.384C25.4917 15.7507 24.5243 16.4844 23.5845 16.5852C22.6448 16.6859 21.1348 16.1172 19.0547 14.8792L19.3247 14.6558C21.0114 13.2784 22.2484 12.6098 23.0357 12.6499Z" stroke="#C0C0C0" stroke-linecap="round" stroke-linejoin="round"/>
<path d="M18.745 29.6747C14.4484 29.7402 12.026 29.7402 11.4776 29.6747C10.6551 29.5766 10.0955 29.27 10.0955 28.2951C10.0955 27.6452 10.5562 27.1942 11.4776 26.9419C13.9749 26.7312 15.7105 26.4939 16.6845 26.2301C18.1455 25.8343 18.8772 24.75 21.1836 24.75C23.4901 24.75 23.7235 25.5976 25.9186 25.8343C28.1137 26.071 29.1809 25.5832 30.3992 26.0239C31.6175 26.4645 32.3535 27.8074 32.3535 29.2318C32.3535 30.6562 31.3482 31.6891 30.3992 32.0738C29.4502 32.4586 25.9684 32.0456 24.7992 32.3489C23.63 32.6522 17.4648 34.5 15.467 34.5C14.135 34.5 9.50542 32.7439 1.57808 29.2318C0.937516 28.8189 0.721678 28.2999 0.930568 27.6751C1.13946 27.0502 1.69741 26.8058 2.60443 26.9419L10.2806 29.0939" stroke="#C0C0C0" stroke-linecap="round" stroke-linejoin="round"/>
<path d="M14.5879 12.3511C14.5879 11.8851 14.2101 11.5073 13.7441 11.5073C13.2782 11.5073 12.9004 11.8851 12.9004 12.3511C12.9004 12.8171 13.2782 13.1948 13.7441 13.1948C14.2101 13.1948 14.5879 12.8171 14.5879 12.3511Z" fill="#292929" stroke="white" stroke-width="1.5"/>
<path d="M14.8691 12.3511C14.8691 11.7298 14.3655 11.2261 13.7441 11.2261C13.1228 11.2261 12.6191 11.7298 12.6191 12.3511C12.6191 12.9724 13.1228 13.4761 13.7441 13.4761C14.3655 13.4761 14.8691 12.9724 14.8691 12.3511Z" stroke="white"/>
<path d="M8.44727 18.75C8.44727 18.284 8.06951 17.9062 7.60352 17.9062C7.13753 17.9062 6.75977 18.284 6.75977 18.75C6.75977 19.216 7.13753 19.5938 7.60352 19.5938C8.06951 19.5938 8.44727 19.216 8.44727 18.75Z" fill="#292929" stroke="white" stroke-width="1.5"/>
<path d="M8.72852 18.75C8.72852 18.1287 8.22484 17.625 7.60352 17.625C6.9822 17.625 6.47852 18.1287 6.47852 18.75C6.47852 19.3713 6.9822 19.875 7.60352 19.875C8.22484 19.875 8.72852 19.3713 8.72852 18.75Z" stroke="white"/>
<path d="M9.94727 4.125C9.94727 3.65901 9.56951 3.28125 9.10352 3.28125C8.63753 3.28125 8.25977 3.65901 8.25977 4.125C8.25977 4.59099 8.63753 4.96875 9.10352 4.96875C9.56951 4.96875 9.94727 4.59099 9.94727 4.125Z" fill="#292929" stroke="white" stroke-width="1.5"/>
<path d="M10.2285 4.125C10.2285 3.50368 9.72484 3 9.10352 3C8.4822 3 7.97852 3.50368 7.97852 4.125C7.97852 4.74632 8.4822 5.25 9.10352 5.25C9.72484 5.25 10.2285 4.74632 10.2285 4.125Z" stroke="white"/>
<path d="M23.8223 12.75C23.8223 12.284 23.4445 11.9062 22.9785 11.9062C22.5125 11.9062 22.1348 12.284 22.1348 12.75C22.1348 13.216 22.5125 13.5938 22.9785 13.5938C23.4445 13.5938 23.8223 13.216 23.8223 12.75Z" fill="#292929" stroke="white" stroke-width="1.5"/>
<path d="M24.1035 12.75C24.1035 12.1287 23.5998 11.625 22.9785 11.625C22.3572 11.625 21.8535 12.1287 21.8535 12.75C21.8535 13.3713 22.3572 13.875 22.9785 13.875C23.5998 13.875 24.1035 13.3713 24.1035 12.75Z" stroke="white"/>
<path d="M30.9473 32.25C30.9473 31.784 30.5695 31.4062 30.1035 31.4062C29.6375 31.4062 29.2598 31.784 29.2598 32.25C29.2598 32.716 29.6375 33.0938 30.1035 33.0938C30.5695 33.0938 30.9473 32.716 30.9473 32.25Z" fill="#292929" stroke="white" stroke-width="1.5"/>
<path d="M31.2285 32.25C31.2285 31.6287 30.7248 31.125 30.1035 31.125C29.4822 31.125 28.9785 31.6287 28.9785 32.25C28.9785 32.8713 29.4822 33.375 30.1035 33.375C30.7248 33.375 31.2285 32.8713 31.2285 32.25Z" stroke="white"/>
<path d="M16.6973 34.5C16.6973 34.034 16.3195 33.6562 15.8535 33.6562C15.3875 33.6562 15.0098 34.034 15.0098 34.5C15.0098 34.966 15.3875 35.3438 15.8535 35.3438C16.3195 35.3438 16.6973 34.966 16.6973 34.5Z" fill="#292929" stroke="white" stroke-width="1.5"/>
<path d="M16.9785 34.5C16.9785 33.8787 16.4748 33.375 15.8535 33.375C15.2322 33.375 14.7285 33.8787 14.7285 34.5C14.7285 35.1213 15.2322 35.625 15.8535 35.625C16.4748 35.625 16.9785 35.1213 16.9785 34.5Z" stroke="white"/>
</g>
<defs>
<clipPath id="clip0_165_6923">
<rect width="32.25" height="36" fill="white" transform="translate(0.478516)"/>
</clipPath>
</defs>
</svg>
