<svg width="47" height="36" viewBox="0 0 47 36" fill="none" xmlns="http://www.w3.org/2000/svg">
<g style="mix-blend-mode:difference" clip-path="url(#clip0_165_7738)">
<path d="M46.4862 30.909C45.6706 29.1059 45.1589 27.9736 44.951 27.512C44.6391 26.8196 41.9638 24.5707 40.9627 23.2851C40.184 22.2849 38.2707 19.1287 37 17.3325" stroke="#C0C0C0" stroke-linecap="round" stroke-linejoin="round"/>
<path d="M36.1797 16.2084C35.2039 15.266 32.8037 15.8029 31.5077 15.9022C30.2117 16.0015 28.6732 15.8665 27.9759 16.2084C27.2787 16.5502 24.7168 18.6622 24.5573 19.0946C24.3979 19.5269 23.7111 21.8096 23.635 22.3197C23.5842 22.6598 23.6648 23.0159 24.0124 23.2845" stroke="#C0C0C0" stroke-linecap="round" stroke-linejoin="round"/>
<path d="M46.4871 30.909C45.9934 32.8456 45.2322 34.1294 44.2037 34.7605C42.6609 35.7071 40.8888 35.6499 40.8888 35.6499C40.8888 35.6499 39.3339 31.1557 38.7859 30.6265C38.238 30.0973 36.9116 29.6178 35.124 29.1167C33.3364 28.6157 32.4003 27.7604 31.5994 27.2459C30.7984 26.7314 27.5281 26.5038 26.408 26.2003C25.2878 25.8968 24.4302 25.2369 24.3277 24.6589C24.2253 24.0808 24.8161 23.3198 26.1088 23.3897C27.4015 23.4595 27.9538 23.6371 29.8899 23.6371C31.826 23.6371 32.3927 22.6667 32.5217 22.3791C32.6506 22.0915 32.6506 21.5414 32.5217 21.1267C32.4513 20.9002 32.3506 20.5164 32.182 20.1665" stroke="#C0C0C0" stroke-linecap="round" stroke-linejoin="round"/>
<path d="M30.9715 19.2295C30.203 18.9795 29.1299 18.7285 28.9725 18.7285C28.3964 18.7285 26.4845 20.4383 26.4106 20.5147C26.3368 20.5912 25.5067 22.1804 25.457 22.4658" stroke="#C0C0C0" stroke-linecap="round" stroke-linejoin="round"/>
<path d="M24.3247 24.6392L19.9386 27.1715L17.875 27.6147L19.2906 26.0492L37.4949 15.5389C38.1567 15.1692 38.5974 15.1561 38.8172 15.4998C39.0369 15.8435 38.8122 16.2307 38.1429 16.6613L26.5027 23.3817" stroke="#C0C0C0" stroke-linecap="round" stroke-linejoin="round"/>
<path d="M20.7457 26.7054L20.0977 25.583" stroke="#C0C0C0" stroke-linecap="round" stroke-linejoin="round"/>
<path d="M28.4766 22.2722C28.6456 22.4848 28.9203 22.7357 29.3007 23.0249C29.6811 23.3141 30.0387 23.504 30.3733 23.5946" stroke="#C0C0C0" stroke-linecap="round" stroke-linejoin="round"/>
<path d="M29.7779 18.9314L29.7188 19.9957" stroke="#C0C0C0" stroke-linecap="round" stroke-linejoin="round"/>
<path d="M29.9922 21.4441C30.2025 21.6372 30.4944 21.8767 30.8678 22.1626C31.2413 22.4485 31.662 22.7055 32.1299 22.9335" stroke="#C0C0C0" stroke-linecap="round" stroke-linejoin="round"/>
<path d="M1.37891 13.2615C2.65983 11.7531 3.46384 10.8056 3.79094 10.4192C4.28158 9.83963 7.47314 8.41526 8.78982 7.45536C9.8141 6.70863 12.5232 4.20201 14.2398 2.82568" stroke="#C0C0C0" stroke-linecap="round" stroke-linejoin="round"/>
<path d="M15.3398 1.97189C16.5376 1.33504 18.6969 2.51267 19.9153 2.96535C21.1337 3.41802 22.6498 3.71236 23.2258 4.23315C23.8018 4.75394 25.6824 7.4903 25.7165 7.94986C25.7505 8.40943 25.7815 10.7929 25.7141 11.3043C25.6692 11.6452 25.4935 11.9653 25.0854 12.1277" stroke="#C0C0C0" stroke-linecap="round" stroke-linejoin="round"/>
<path d="M1.38102 13.2615C1.3218 15.2591 1.69957 16.703 2.51432 17.5932C3.73645 18.9284 5.45565 19.3618 5.45565 19.3618C5.45565 19.3618 8.18905 15.4703 8.86167 15.1127C9.53429 14.7551 10.9414 14.6597 12.7979 14.6707C14.6543 14.6818 15.7899 14.1177 16.7017 13.8439C17.6134 13.5701 20.8198 14.2528 21.9802 14.2698C23.1406 14.2868 24.1469 13.8889 24.4047 13.3614C24.6625 12.834 24.3043 11.9397 23.0425 11.6505C21.7806 11.3613 21.2008 11.3798 19.3397 10.8461C17.4786 10.3124 17.2013 9.2234 17.1566 8.91143C17.1119 8.59946 17.2635 8.07067 17.5018 7.70755C17.6319 7.50926 17.8345 7.16803 18.093 6.87817" stroke="#C0C0C0" stroke-linecap="round" stroke-linejoin="round"/>
<path d="M19.5156 6.31185C20.3233 6.28337 21.424 6.33787 21.5753 6.38127C22.1291 6.54006 23.4956 8.71056 23.5456 8.80444C23.5955 8.89831 23.9554 10.6547 23.9244 10.9427" stroke="#C0C0C0" stroke-linecap="round" stroke-linejoin="round"/>
<path d="M24.413 13.3437L27.2906 16.3236L28.8249 16.0192L14.2614 0.96572C13.7272 0.427875 13.3071 0.293858 13.0011 0.56367C12.6951 0.833482 12.8045 1.26759 13.3291 1.866L22.6659 11.5346" stroke="#C0C0C0" stroke-linecap="round" stroke-linejoin="round"/>
<path d="M27.2852 16.3163L28.2174 15.416" stroke="#C0C0C0" stroke-linecap="round" stroke-linejoin="round"/>
<path d="M22.3995 7.19482L21.9492 8.76521" stroke="#C0C0C0" stroke-linecap="round" stroke-linejoin="round"/>
<path d="M21.0745 9.92407C20.8535 10.0818 20.5202 10.2473 20.0748 10.4204C19.6294 10.5935 19.2334 10.6775 18.8867 10.6724" stroke="#C0C0C0" stroke-linecap="round" stroke-linejoin="round"/>
<path d="M20.7443 6.35425L20.5078 7.39365" stroke="#C0C0C0" stroke-linecap="round" stroke-linejoin="round"/>
<path d="M19.8482 8.71021C19.5929 8.83785 19.2463 8.98763 18.8085 9.15953C18.3707 9.33144 17.8955 9.4625 17.3828 9.55273" stroke="#C0C0C0" stroke-linecap="round" stroke-linejoin="round"/>
<path d="M27.957 19.2834V20.9171" stroke="#C0C0C0" stroke-linecap="round" stroke-linejoin="round"/>
<path d="M29.6719 14.7025C30.0375 13.9851 31.7315 9.92399 33.3682 10.2982C35.0049 10.6725 34.8337 12.5249 33.5473 13.12C32.2608 13.7151 30.2915 10.5709 32.6112 7.81396" stroke="#C0C0C0" stroke-linecap="round" stroke-linejoin="round"/>
<path d="M17.0441 27.3923C15.4126 26.8678 13.881 26.0221 13.0665 24.6674C10.4684 20.3464 16.5056 19.2833 15.3004 22.3206C13.9983 25.602 7.18187 17.3451 15.4126 18.7629C16.8933 19.018 18.0952 20.4365 19.5977 20.4367C20.4441 20.4368 21.3889 19.6017 21.5079 18.7637C21.8043 16.6778 19.8243 15.2109 18.6142 15.8659C16.6466 16.9311 17.2265 21.6068 24.432 16.9311" stroke="#C0C0C0" stroke-linecap="round" stroke-linejoin="round"/>
<path d="M33.1942 7.71418C33.1942 7.18162 32.7625 6.7499 32.2299 6.7499C31.6974 6.7499 31.2656 7.18162 31.2656 7.71418C31.2656 8.24674 31.6974 8.67847 32.2299 8.67847C32.7625 8.67847 33.1942 8.24674 33.1942 7.71418Z" fill="#292929" stroke="white" stroke-width="1.5"/>
<path d="M33.5167 7.71429C33.5167 7.00421 32.9411 6.42857 32.231 6.42857C31.5209 6.42857 30.9453 7.00421 30.9453 7.71429C30.9453 8.42437 31.5209 9 32.231 9C32.9411 9 33.5167 8.42437 33.5167 7.71429Z" stroke="white"/>
<path d="M14.7645 18.4285C14.7645 17.896 14.3328 17.4643 13.8002 17.4643C13.2677 17.4643 12.8359 17.896 12.8359 18.4285C12.8359 18.9611 13.2677 19.3928 13.8002 19.3928C14.3328 19.3928 14.7645 18.9611 14.7645 18.4285Z" fill="#292929" stroke="white" stroke-width="1.5"/>
<path d="M15.0871 18.4286C15.0871 17.7186 14.5114 17.1429 13.8013 17.1429C13.0913 17.1429 12.5156 17.7186 12.5156 18.4286C12.5156 19.1387 13.0913 19.7144 13.8013 19.7144C14.5114 19.7144 15.0871 19.1387 15.0871 18.4286Z" stroke="white"/>
<path d="M25.0497 16.7142C25.0497 16.1816 24.6179 15.7499 24.0854 15.7499C23.5528 15.7499 23.1211 16.1816 23.1211 16.7142C23.1211 17.2467 23.5528 17.6785 24.0854 17.6785C24.6179 17.6785 25.0497 17.2467 25.0497 16.7142Z" fill="#292929" stroke="white" stroke-width="1.5"/>
<path d="M25.3722 16.7143C25.3722 16.0042 24.7966 15.4286 24.0865 15.4286C23.3764 15.4286 22.8008 16.0042 22.8008 16.7143C22.8008 17.4244 23.3764 18 24.0865 18C24.7966 18 25.3722 17.4244 25.3722 16.7143Z" stroke="white"/>
<path d="M16.0497 26.5714C16.0497 26.0388 15.6179 25.6071 15.0854 25.6071C14.5528 25.6071 14.1211 26.0388 14.1211 26.5714C14.1211 27.1039 14.5528 27.5356 15.0854 27.5356C15.6179 27.5356 16.0497 27.1039 16.0497 26.5714Z" fill="#292929" stroke="white" stroke-width="1.5"/>
<path d="M16.3722 26.5715C16.3722 25.8614 15.7966 25.2857 15.0865 25.2857C14.3764 25.2857 13.8008 25.8614 13.8008 26.5715C13.8008 27.2815 14.3764 27.8572 15.0865 27.8572C15.7966 27.8572 16.3722 27.2815 16.3722 26.5715Z" stroke="white"/>
</g>
<defs>
<clipPath id="clip0_165_7738">
<rect width="45.8571" height="36" fill="white" transform="translate(0.945312)"/>
</clipPath>
</defs>
</svg>
