<svg width="35" height="36" viewBox="0 0 35 36" fill="none" xmlns="http://www.w3.org/2000/svg">
<g style="mix-blend-mode:difference" clip-path="url(#clip0_165_5910)">
<path fill-rule="evenodd" clip-rule="evenodd" d="M22.6559 32.7318C24.3237 33.2571 28.91 35.1194 30.0247 33.6073C31.1394 32.0951 29.9687 30.1859 30.0247 29.9384C30.0807 29.691 31.1451 28.5911 31.2161 28.344C31.2634 28.1793 31.1711 27.7621 30.9391 27.0924C31.5972 26.5073 31.8852 26.1076 31.803 25.8932C31.7209 25.6789 31.631 25.0651 31.5336 24.0518C33.458 23.1037 34.4202 22.3402 34.4202 21.7613C34.4202 21.3364 33.502 20.4005 32.6769 19.2694C31.816 18.0893 31.0446 16.7157 30.9391 16.4241C30.7326 15.853 32.6928 9.96801 28.2279 4.80558C23.7629 -0.356842 14.3883 -0.0983769 10.6475 1.22808C6.90681 2.55454 3.62438 4.68585 1.85063 10.0258C0.0768809 15.3658 2.82614 21.2571 5.62494 23.7355C8.42374 26.2139 8.42374 28.9097 7.6933 31.0534C9.19777 33.0124 15.9069 35.7946 19.561 35.607C19.9269 34.9431 20.3237 34.3479 20.7515 33.8215C21.5217 32.8738 22.3464 32.6344 22.6559 32.7318Z" stroke="#C0C0C0" stroke-linecap="round" stroke-linejoin="round"/>
<path d="M12.9581 25.738V19.671C12.9581 19.1226 13.4027 18.6779 13.9512 18.6779H24.7818H26.3415C27.2028 18.6779 27.9011 17.9796 27.9011 17.1183V10.3879C27.9011 9.33793 27.05 8.48679 26.0001 8.48679H10.9176C10.1397 8.48679 9.50914 7.85622 9.50914 7.07836C9.50914 6.30051 10.1397 5.66993 10.9176 5.66993H22.8934C23.4419 5.66993 23.8865 6.11456 23.8865 6.66304V11.7288C23.8865 12.5515 23.2196 13.2184 22.3968 13.2184H10.9988C10.1761 13.2184 9.50914 13.8854 9.50914 14.7081V20.0276C9.50914 20.5761 9.06452 21.0207 8.51604 21.0207H7.77934C7.23087 21.0207 6.78624 20.5761 6.78624 20.0276V8.59225C6.78624 7.94367 6.26046 7.41789 5.61187 7.41789C4.96328 7.41789 4.4375 7.94367 4.4375 8.59225V10.5824C4.4375 11.1309 4.88213 11.5755 5.4306 11.5755H15.1925C15.741 11.5755 16.1856 12.0201 16.1856 12.5686V15.4335C16.1856 15.982 16.6303 16.4266 17.1787 16.4266H22.1594C22.7078 16.4266 23.1525 16.8713 23.1525 17.4197V20.0276C23.1525 20.5761 22.7078 21.0207 22.1594 21.0207H18.257C17.7086 21.0207 17.2639 20.5761 17.2639 20.0276V11.381C17.2639 10.8325 17.7086 10.3879 18.257 10.3879H25.0491C25.5976 10.3879 26.0423 10.8325 26.0423 11.381V13.0528C26.0423 13.9816 26.7952 14.7345 27.724 14.7345C28.6528 14.7345 29.4057 13.9816 29.4057 13.0528V11.1684V9.51901H20.2261V13.7414C20.2261 14.2899 19.7815 14.7345 19.233 14.7345H15.097C14.5485 14.7345 14.1038 14.2899 14.1038 13.7414V4.61908C14.1038 4.0706 13.6592 3.62598 13.1107 3.62598H9.71896C9.17048 3.62598 8.72586 4.0706 8.72586 4.61908V15.0171C8.72586 15.5656 9.17048 16.0102 9.71896 16.0102H10.7236C11.272 16.0102 11.7167 16.4548 11.7167 17.0033V22.3489C11.7167 22.8973 12.1613 23.342 12.7098 23.342H15.3719C15.9204 23.342 16.365 23.7866 16.365 24.3351V28.7173" stroke="#C0C0C0" stroke-linecap="round" stroke-linejoin="round"/>
<path d="M12.9577 27.2277C13.3691 27.2277 13.7025 26.8942 13.7025 26.4829C13.7025 26.0715 13.3691 25.738 12.9577 25.738C12.5464 25.738 12.2129 26.0715 12.2129 26.4829C12.2129 26.8942 12.5464 27.2277 12.9577 27.2277Z" stroke="#C0C0C0" stroke-linecap="round" stroke-linejoin="round"/>
<path d="M16.4343 30.2069C16.8456 30.2069 17.1791 29.8735 17.1791 29.4621C17.1791 29.0508 16.8456 28.7173 16.4343 28.7173C16.0229 28.7173 15.6895 29.0508 15.6895 29.4621C15.6895 29.8735 16.0229 30.2069 16.4343 30.2069Z" stroke="#C0C0C0" stroke-linecap="round" stroke-linejoin="round"/>
<path d="M7.73121 15.1952C7.73121 14.681 7.31437 14.2642 6.80018 14.2642C6.28598 14.2642 5.86914 14.681 5.86914 15.1952C5.86914 15.7094 6.28598 16.1262 6.80018 16.1262C7.31437 16.1262 7.73121 15.7094 7.73121 15.1952Z" fill="#292929" stroke="white" stroke-width="1.5"/>
<path d="M8.04135 15.1951C8.04135 14.5095 7.48557 13.9538 6.79997 13.9538C6.11438 13.9538 5.55859 14.5095 5.55859 15.1951C5.55859 15.8807 6.11438 16.4365 6.79997 16.4365C7.48557 16.4365 8.04135 15.8807 8.04135 15.1951Z" stroke="white"/>
<path d="M13.8894 26.4672C13.8894 25.953 13.4726 25.5361 12.9584 25.5361C12.4442 25.5361 12.0273 25.953 12.0273 26.4672C12.0273 26.9814 12.4442 27.3982 12.9584 27.3982C13.4726 27.3982 13.8894 26.9814 13.8894 26.4672Z" fill="#292929" stroke="white" stroke-width="1.5"/>
<path d="M14.1996 26.4671C14.1996 25.7815 13.6438 25.2257 12.9582 25.2257C12.2726 25.2257 11.7168 25.7815 11.7168 26.4671C11.7168 27.1527 12.2726 27.7085 12.9582 27.7085C13.6438 27.7085 14.1996 27.1527 14.1996 26.4671Z" stroke="white"/>
<path d="M21.2546 21.1034C21.2546 20.5892 20.8378 20.1724 20.3236 20.1724C19.8094 20.1724 19.3926 20.5892 19.3926 21.1034C19.3926 21.6176 19.8094 22.0344 20.3236 22.0344C20.8378 22.0344 21.2546 21.6176 21.2546 21.1034Z" fill="#292929" stroke="white" stroke-width="1.5"/>
<path d="M21.5648 21.1033C21.5648 20.4178 21.009 19.862 20.3234 19.862C19.6378 19.862 19.082 20.4178 19.082 21.1033C19.082 21.7889 19.6378 22.3447 20.3234 22.3447C21.009 22.3447 21.5648 21.7889 21.5648 21.1033Z" stroke="white"/>
<path d="M18.8914 5.66125C18.8914 5.14705 18.4745 4.73022 17.9603 4.73022C17.4461 4.73022 17.0293 5.14705 17.0293 5.66125C17.0293 6.17545 17.4461 6.59229 17.9603 6.59229C18.4745 6.59229 18.8914 6.17545 18.8914 5.66125Z" fill="#292929" stroke="white" stroke-width="1.5"/>
<path d="M19.2015 5.66121C19.2015 4.97561 18.6457 4.41983 17.9601 4.41983C17.2745 4.41983 16.7188 4.97561 16.7188 5.66121C16.7188 6.3468 17.2745 6.90259 17.9601 6.90259C18.6457 6.90259 19.2015 6.3468 19.2015 5.66121Z" stroke="white"/>
<path d="M23.7371 16.5519C23.7371 16.0377 23.3202 15.6208 22.806 15.6208C22.2918 15.6208 21.875 16.0377 21.875 16.5519C21.875 17.0661 22.2918 17.4829 22.806 17.4829C23.3202 17.4829 23.7371 17.0661 23.7371 16.5519Z" fill="#292929" stroke="white" stroke-width="1.5"/>
<path d="M24.0472 16.5518C24.0472 15.8662 23.4914 15.3105 22.8058 15.3105C22.1202 15.3105 21.5645 15.8662 21.5645 16.5518C21.5645 17.2374 22.1202 17.7932 22.8058 17.7932C23.4914 17.7932 24.0472 17.2374 24.0472 16.5518Z" stroke="white"/>
</g>
<defs>
<clipPath id="clip0_165_5910">
<rect width="33.931" height="36" fill="white" transform="translate(0.875)"/>
</clipPath>
</defs>
</svg>
