<svg width="38" height="36" viewBox="0 0 38 36" fill="none" xmlns="http://www.w3.org/2000/svg">
<g style="mix-blend-mode:difference" clip-path="url(#clip0_165_7802)">
<path d="M23.043 18.6195C23.2092 18.231 23.4114 17.7697 23.6612 17.2285M24.3314 18.7125C24.309 22.1378 24.2756 27.2459 24.2312 34.0366C24.2265 34.7558 24.7848 35.3473 25.4934 35.3931L25.5816 35.3959C26.3482 35.3959 26.9851 34.8048 27.0422 34.0403L27.8473 23.2556H28.6197L29.5437 34.0415C29.6093 34.8075 30.2503 35.3959 31.0191 35.3959C31.7699 35.3959 32.3785 34.7873 32.3785 34.0366L32.379 15.9111L32.5616 16.2852C33.5963 18.4237 34.0081 19.5944 34.255 20.0778C34.515 20.5867 35.3183 21.2341 36.052 20.9445C36.7596 20.6653 36.7866 19.7646 36.699 19.24L36.6888 19.1833C36.5899 18.6696 36.1199 17.3679 34.8769 14.839C34.2173 13.4969 33.4661 12.1979 32.6234 10.9418C32.5534 10.8374 32.4709 10.7457 32.3792 10.6675C31.0191 9.60582 29.6598 9.07593 28.3004 9.07593C26.941 9.07593 25.5816 9.60582 24.2223 10.6656L24.2224 10.6777C24.1396 10.7536 24.0652 10.8411 24.0017 10.9394C23.8925 11.1085 23.7847 11.2782 23.6783 11.4485" stroke="#C0C0C0" stroke-linecap="round" stroke-linejoin="round"/>
<path d="M28.1466 7.9559C26.4455 7.9559 25.0666 6.57694 25.0666 4.8759C25.0666 3.17486 26.4455 1.7959 28.1466 1.7959C29.8476 1.7959 31.2266 3.17486 31.2266 4.8759C31.2266 6.57694 29.8476 7.9559 28.1466 7.9559Z" stroke="#C0C0C0" stroke-linecap="round" stroke-linejoin="round"/>
<path fill-rule="evenodd" clip-rule="evenodd" d="M18.9675 9.07593C17.6081 9.07593 16.2488 9.60582 14.8894 10.6656L14.8896 10.6777C14.8068 10.7536 14.7324 10.8411 14.6689 10.9394C13.8518 12.2042 13.1152 13.504 12.4591 14.839L12.2155 15.3393C11.1537 17.5417 10.7393 18.7046 10.6472 19.1833C10.5483 19.697 10.5502 20.6549 11.2839 20.9445C12.0177 21.2341 12.821 20.5867 13.081 20.0778L13.1428 19.9504C13.3968 19.4035 13.8214 18.2549 14.7744 16.2852L15.0177 15.7886L14.8984 34.0366C14.8936 34.7558 15.4519 35.3473 16.1605 35.3931L16.2488 35.3959C17.0154 35.3959 17.6523 34.8048 17.7093 34.0403L18.5144 23.2556H19.2868L20.2109 34.0415C20.2765 34.8075 20.9174 35.3959 21.6863 35.3959C22.437 35.3959 23.0456 34.7873 23.0456 34.0366L23.0461 15.9111L23.2287 16.2852C24.2634 18.4237 24.6752 19.5944 24.9222 20.0778C25.1821 20.5867 25.9854 21.2341 26.7192 20.9445C27.4267 20.6653 27.4537 19.7646 27.3661 19.24L27.3559 19.1833C27.257 18.6696 26.787 17.3679 25.544 14.839C24.8844 13.4969 24.1332 12.1979 23.2905 10.9418C23.2205 10.8374 23.138 10.7457 23.0463 10.6675L23.0456 10.6656C21.6863 9.60582 20.3269 9.07593 18.9675 9.07593Z" stroke="#C0C0C0" stroke-linecap="round" stroke-linejoin="round"/>
<path d="M18.8145 7.9559C17.1135 7.9559 15.7345 6.57694 15.7345 4.8759C15.7345 3.17486 17.1135 1.7959 18.8145 1.7959C20.5156 1.7959 21.8945 3.17486 21.8945 4.8759C21.8945 6.57694 20.5156 7.9559 18.8145 7.9559Z" stroke="#C0C0C0" stroke-linecap="round" stroke-linejoin="round"/>
<path d="M10.0598 24.7524C10.0483 26.5152 10.031 29.1594 10.0078 32.685C10.0043 33.2355 10.3305 33.7112 10.8015 33.9246M13.7028 21.904C13.8569 21.904 14.0881 21.904 14.3964 21.904C14.6291 24.621 14.8037 26.6588 14.9201 28.0173M17.7803 33.6223C18.0126 33.3784 18.1552 33.0484 18.1552 32.685C18.1552 30.6268 18.1553 29.0832 18.1553 28.0541M17.9541 9.16118C16.6618 8.2033 15.3694 7.72437 14.0771 7.72437C12.8144 7.72437 11.5518 8.18151 10.2892 9.09579" stroke="#C0C0C0" stroke-linecap="round" stroke-linejoin="round"/>
<path d="M11.1253 2.237C11.6128 1.17885 12.6827 0.444336 13.9242 0.444336C15.2562 0.444336 16.3908 1.28994 16.8203 2.47364M15.895 5.89137C15.3609 6.33653 14.6738 6.60434 13.9242 6.60434C13.3187 6.60434 12.7541 6.42965 12.2779 6.12792" stroke="#C0C0C0" stroke-linecap="round" stroke-linejoin="round"/>
<path d="M23.0792 21.904C23.2191 21.904 23.429 21.904 23.7088 21.904C23.9593 24.8283 24.1472 27.0215 24.2725 28.4836M27.0456 33.6695C27.3056 33.4219 27.4676 33.0724 27.4676 32.685C27.4677 30.6583 27.4677 29.1383 27.4677 28.125M27.2972 9.184C25.9947 8.21091 24.6921 7.72437 23.3895 7.72437C22.1327 7.72437 20.8759 8.17732 19.6191 9.08323M19.3736 24.5403C19.3618 26.3503 19.344 29.0652 19.3203 32.685C19.3165 33.27 19.6852 33.7706 20.2043 33.9616" stroke="#C0C0C0" stroke-linecap="round" stroke-linejoin="round"/>
<path d="M20.4478 2.21805C20.9393 1.17009 22.0038 0.444336 23.2379 0.444336C24.5893 0.444336 25.7375 1.3148 26.1523 2.52567M25.2134 5.88738C24.6787 6.33493 23.9897 6.60434 23.2379 6.60434C22.6531 6.60434 22.1065 6.44139 21.6408 6.15844" stroke="#C0C0C0" stroke-linecap="round" stroke-linejoin="round"/>
<path d="M14.3248 17.2404C14.5958 17.8279 14.8105 18.3208 14.984 18.7284M14.2996 11.4967C14.18 11.3108 14.0585 11.1258 13.935 10.9418C13.865 10.8374 13.7826 10.7457 13.6909 10.6675C12.3308 9.60582 10.9714 9.07593 9.61205 9.07593C8.25267 9.07593 6.8933 9.60582 5.53393 10.6656L5.53411 10.6777C5.4513 10.7536 5.37688 10.8411 5.31338 10.9394C4.49634 12.2042 3.75975 13.504 3.10361 14.839L2.93887 15.1763C1.84536 17.4296 1.40711 18.6348 1.29906 19.1471L1.29174 19.1833C1.19286 19.697 1.19472 20.6549 1.92848 20.9445C2.66224 21.2341 3.46557 20.5867 3.7255 20.0778L3.78729 19.9504C4.04134 19.4035 4.46595 18.2549 5.41896 16.2852L5.66224 15.7886L5.54289 34.0366C5.53815 34.7558 6.09646 35.3473 6.80507 35.3931L6.8933 35.3959C7.6599 35.3959 8.2968 34.8048 8.35387 34.0403L9.15892 23.2556H9.93135L10.8554 34.0415C10.921 34.8075 11.562 35.3959 12.3308 35.3959C13.0815 35.3959 13.6902 34.7873 13.6902 34.0366C13.6903 27.2052 13.6905 22.0817 13.6906 18.6661" stroke="#C0C0C0" stroke-linecap="round" stroke-linejoin="round"/>
<path d="M9.45906 7.9559C7.75803 7.9559 6.37906 6.57694 6.37906 4.8759C6.37906 3.17486 7.75803 1.7959 9.45906 1.7959C11.1601 1.7959 12.5391 3.17486 12.5391 4.8759C12.5391 6.57694 11.1601 7.9559 9.45906 7.9559Z" stroke="#C0C0C0" stroke-linecap="round" stroke-linejoin="round"/>
<path d="M6.6875 10.6667C6.6875 10.1145 6.23978 9.66675 5.6875 9.66675C5.13522 9.66675 4.6875 10.1145 4.6875 10.6667C4.6875 11.219 5.13522 11.6667 5.6875 11.6667C6.23978 11.6667 6.6875 11.219 6.6875 10.6667Z" fill="#292929" stroke="white" stroke-width="1.5"/>
<path d="M7.02214 10.6667C7.02214 9.93029 6.42518 9.33333 5.6888 9.33333C4.95242 9.33333 4.35547 9.93029 4.35547 10.6667C4.35547 11.403 4.95242 12 5.6888 12C6.42518 12 7.02214 11.403 7.02214 10.6667Z" stroke="white"/>
<path d="M6.6875 24.8889C6.6875 24.3366 6.23978 23.8889 5.6875 23.8889C5.13522 23.8889 4.6875 24.3366 4.6875 24.8889C4.6875 25.4412 5.13522 25.8889 5.6875 25.8889C6.23978 25.8889 6.6875 25.4412 6.6875 24.8889Z" fill="#292929" stroke="white" stroke-width="1.5"/>
<path d="M7.02214 24.8888C7.02214 24.1525 6.42518 23.5555 5.6888 23.5555C4.95242 23.5555 4.35547 24.1525 4.35547 24.8888C4.35547 25.6252 4.95242 26.2222 5.6888 26.2222C6.42518 26.2222 7.02214 25.6252 7.02214 24.8888Z" stroke="white"/>
<path d="M33.3555 21.3335C33.3555 20.7812 32.9078 20.3335 32.3555 20.3335C31.8032 20.3335 31.3555 20.7812 31.3555 21.3335C31.3555 21.8858 31.8032 22.3335 32.3555 22.3335C32.9078 22.3335 33.3555 21.8858 33.3555 21.3335Z" fill="#292929" stroke="white" stroke-width="1.5"/>
<path d="M33.6901 21.3334C33.6901 20.597 33.0931 20.0001 32.3568 20.0001C31.6204 20.0001 31.0234 20.597 31.0234 21.3334C31.0234 22.0698 31.6204 22.6667 32.3568 22.6667C33.0931 22.6667 33.6901 22.0698 33.6901 21.3334Z" stroke="white"/>
<path d="M23.1328 10.2224C23.1328 9.67013 22.6851 9.22241 22.1328 9.22241C21.5805 9.22241 21.1328 9.67013 21.1328 10.2224C21.1328 10.7747 21.5805 11.2224 22.1328 11.2224C22.6851 11.2224 23.1328 10.7747 23.1328 10.2224Z" fill="#292929" stroke="white" stroke-width="1.5"/>
<path d="M23.4674 10.2223C23.4674 9.48595 22.8705 8.889 22.1341 8.889C21.3977 8.889 20.8008 9.48595 20.8008 10.2223C20.8008 10.9587 21.3977 11.5557 22.1341 11.5557C22.8705 11.5557 23.4674 10.9587 23.4674 10.2223Z" stroke="white"/>
<path d="M13.8008 14.2224C13.8008 13.6701 13.3531 13.2224 12.8008 13.2224C12.2485 13.2224 11.8008 13.6701 11.8008 14.2224C11.8008 14.7747 12.2485 15.2224 12.8008 15.2224C13.3531 15.2224 13.8008 14.7747 13.8008 14.2224Z" fill="#292929" stroke="white" stroke-width="1.5"/>
<path d="M14.1354 14.2223C14.1354 13.486 13.5385 12.889 12.8021 12.889C12.0657 12.889 11.4688 13.486 11.4688 14.2223C11.4688 14.9587 12.0657 15.5557 12.8021 15.5557C13.5385 15.5557 14.1354 14.9587 14.1354 14.2223Z" stroke="white"/>
<path d="M33.3555 10.6667C33.3555 10.1145 32.9078 9.66675 32.3555 9.66675C31.8032 9.66675 31.3555 10.1145 31.3555 10.6667C31.3555 11.219 31.8032 11.6667 32.3555 11.6667C32.9078 11.6667 33.3555 11.219 33.3555 10.6667Z" fill="#292929" stroke="white" stroke-width="1.5"/>
<path d="M33.6901 10.6667C33.6901 9.93029 33.0931 9.33333 32.3568 9.33333C31.6204 9.33333 31.0234 9.93029 31.0234 10.6667C31.0234 11.403 31.6204 12 32.3568 12C33.0931 12 33.6901 11.403 33.6901 10.6667Z" stroke="white"/>
</g>
<defs>
<clipPath id="clip0_165_7802">
<rect width="36.4444" height="36" fill="white" transform="translate(0.800781)"/>
</clipPath>
</defs>
</svg>
