<svg width="29" height="36" viewBox="0 0 29 36" fill="none" xmlns="http://www.w3.org/2000/svg">
<g style="mix-blend-mode:difference" clip-path="url(#clip0_165_7062)">
<path d="M25.6941 25.6947L23.1135 34.3851H6.76197L4.13086 25.5288" stroke="#C0C0C0" stroke-linecap="round" stroke-linejoin="round"/>
<path d="M18.7712 12.1154C24.0245 13.3311 28.3902 16.656 28.3902 20.7908C28.3902 23.717 26.278 25.9138 23.2593 25.9138C21.4635 25.9138 19.8834 24.9738 18.8864 23.6775C17.8894 24.9738 16.3093 25.7809 14.5135 25.7809C12.7177 25.7809 11.1376 24.9073 10.1406 23.6096C9.1436 24.9073 7.56352 25.7484 5.76772 25.7484C2.75043 25.7484 0.666016 23.7241 0.666016 20.7951C0.666016 16.6263 4.91938 13.3283 10.1071 12.1168L10.3068 12.0518" stroke="#C0C0C0" stroke-linecap="round" stroke-linejoin="round"/>
<path fill-rule="evenodd" clip-rule="evenodd" d="M18.7626 10.319C18.7626 12.7634 16.7788 14.7472 14.3344 14.7472C11.8901 14.7472 9.90625 12.7634 9.90625 10.319C9.90625 7.87321 11.8901 5.89087 14.3344 5.89087C16.7788 5.89087 18.7626 7.87321 18.7626 10.319Z" stroke="#C0C0C0" stroke-linecap="round" stroke-linejoin="round"/>
<path d="M14.1426 5.89091C14.1426 3.55142 16.0401 1.65527 18.3782 1.65527" stroke="#C0C0C0" stroke-linecap="round" stroke-linejoin="round"/>
<path d="M20.6316 1.65515C20.6316 1.14095 20.2148 0.724113 19.7006 0.724113C19.1864 0.724113 18.7695 1.14095 18.7695 1.65515C18.7695 2.16934 19.1864 2.58618 19.7006 2.58618C20.2148 2.58618 20.6316 2.16934 20.6316 1.65515Z" fill="#292929" stroke="white" stroke-width="1.5"/>
<path d="M20.9417 1.65511C20.9417 0.96951 20.386 0.413726 19.7004 0.413726C19.0148 0.413726 18.459 0.96951 18.459 1.65511C18.459 2.3407 19.0148 2.89648 19.7004 2.89648C20.386 2.89648 20.9417 2.3407 20.9417 1.65511Z" stroke="white"/>
<path d="M23.9421 34.3448C23.9421 33.8306 23.5253 33.4138 23.0111 33.4138C22.4969 33.4138 22.0801 33.8306 22.0801 34.3448C22.0801 34.859 22.4969 35.2759 23.0111 35.2759C23.5253 35.2759 23.9421 34.859 23.9421 34.3448Z" fill="#292929" stroke="white" stroke-width="1.5"/>
<path d="M24.2523 34.3448C24.2523 33.6592 23.6965 33.1034 23.0109 33.1034C22.3253 33.1034 21.7695 33.6592 21.7695 34.3448C21.7695 35.0304 22.3253 35.5862 23.0109 35.5862C23.6965 35.5862 24.2523 35.0304 24.2523 34.3448Z" stroke="white"/>
<path d="M19.8035 23.5863C19.8035 23.0721 19.3866 22.6553 18.8724 22.6553C18.3582 22.6553 17.9414 23.0721 17.9414 23.5863C17.9414 24.1005 18.3582 24.5173 18.8724 24.5173C19.3866 24.5173 19.8035 24.1005 19.8035 23.5863Z" fill="#292929" stroke="white" stroke-width="1.5"/>
<path d="M20.1136 23.5863C20.1136 22.9007 19.5578 22.3449 18.8722 22.3449C18.1866 22.3449 17.6309 22.9007 17.6309 23.5863C17.6309 24.2719 18.1866 24.8276 18.8722 24.8276C19.5578 24.8276 20.1136 24.2719 20.1136 23.5863Z" stroke="white"/>
<path d="M10.7 23.5863C10.7 23.0721 10.2831 22.6553 9.76893 22.6553C9.25473 22.6553 8.83789 23.0721 8.83789 23.5863C8.83789 24.1005 9.25473 24.5173 9.76893 24.5173C10.2831 24.5173 10.7 24.1005 10.7 23.5863Z" fill="#292929" stroke="white" stroke-width="1.5"/>
<path d="M11.0101 23.5863C11.0101 22.9007 10.4543 22.3449 9.76872 22.3449C9.08313 22.3449 8.52734 22.9007 8.52734 23.5863C8.52734 24.2719 9.08313 24.8276 9.76872 24.8276C10.4543 24.8276 11.0101 24.2719 11.0101 23.5863Z" stroke="white"/>
<path d="M7.80348 34.3448C7.80348 33.8306 7.38664 33.4138 6.87244 33.4138C6.35824 33.4138 5.94141 33.8306 5.94141 34.3448C5.94141 34.859 6.35824 35.2759 6.87244 35.2759C7.38664 35.2759 7.80348 34.859 7.80348 34.3448Z" fill="#292929" stroke="white" stroke-width="1.5"/>
<path d="M8.11362 34.3448C8.11362 33.6592 7.55783 33.1034 6.87224 33.1034C6.18664 33.1034 5.63086 33.6592 5.63086 34.3448C5.63086 35.0304 6.18664 35.5862 6.87224 35.5862C7.55783 35.5862 8.11362 35.0304 8.11362 34.3448Z" stroke="white"/>
</g>
<defs>
<clipPath id="clip0_165_7062">
<rect width="28.5517" height="36" fill="white" transform="translate(0.251953)"/>
</clipPath>
</defs>
</svg>
