<svg width="35" height="36" viewBox="0 0 35 36" fill="none" xmlns="http://www.w3.org/2000/svg">
<g style="mix-blend-mode:difference" clip-path="url(#clip0_165_6711)">
<path fill-rule="evenodd" clip-rule="evenodd" d="M17.7727 6.42847L28.7777 14.4241L24.5742 27.3614H10.9711L6.76758 14.4241L17.7727 6.42847Z" stroke="#C0C0C0" stroke-linecap="round" stroke-linejoin="round"/>
<path fill-rule="evenodd" clip-rule="evenodd" d="M17.7727 29.5713L6.76758 21.5757L10.9711 8.63843H24.5742L28.7777 21.5757L17.7727 29.5713Z" stroke="#C0C0C0" stroke-linecap="round" stroke-linejoin="round"/>
<path fill-rule="evenodd" clip-rule="evenodd" d="M17.772 35.5713L7.44374 32.2155L1.06055 23.4298V12.57L7.44374 3.78431L17.772 0.428467L28.1002 3.78431L34.4834 12.57V23.4298L28.1002 32.2155L17.772 35.5713Z" stroke="#C0C0C0" stroke-linecap="round" stroke-linejoin="round"/>
<path d="M17.7715 6.42847L17.794 0.428467" stroke="#C0C0C0" stroke-linecap="round" stroke-linejoin="round"/>
<path d="M28.7773 14.4242L34.4837 12.5701" stroke="#C0C0C0" stroke-linecap="round" stroke-linejoin="round"/>
<path d="M24.5742 27.3616L28.1009 32.2157" stroke="#C0C0C0" stroke-linecap="round" stroke-linejoin="round"/>
<path d="M10.9701 27.3616L7.44336 32.2157" stroke="#C0C0C0" stroke-linecap="round" stroke-linejoin="round"/>
<path d="M6.76689 14.4242L1.06055 12.5701" stroke="#C0C0C0" stroke-linecap="round" stroke-linejoin="round"/>
<path d="M7.44336 3.78442L10.9701 8.63853" stroke="#C0C0C0" stroke-linecap="round" stroke-linejoin="round"/>
<path d="M24.5742 8.63853L28.1009 3.78442" stroke="#C0C0C0" stroke-linecap="round" stroke-linejoin="round"/>
<path d="M28.7773 21.5757L34.4837 23.4298" stroke="#C0C0C0" stroke-linecap="round" stroke-linejoin="round"/>
<path d="M17.7949 29.5715V35.5715" stroke="#C0C0C0" stroke-linecap="round" stroke-linejoin="round"/>
<path d="M6.76689 21.5757L1.06055 23.4298" stroke="#C0C0C0" stroke-linecap="round" stroke-linejoin="round"/>
<path d="M7.59459 21.857C7.59459 21.3244 7.16286 20.8927 6.6303 20.8927C6.09774 20.8927 5.66602 21.3244 5.66602 21.857C5.66602 22.3896 6.09774 22.8213 6.6303 22.8213C7.16286 22.8213 7.59459 22.3896 7.59459 21.857Z" fill="#292929" stroke="white" stroke-width="1.5"/>
<path d="M7.91518 21.8571C7.91518 21.147 7.33954 20.5714 6.62946 20.5714C5.91938 20.5714 5.34375 21.147 5.34375 21.8571C5.34375 22.5672 5.91938 23.1428 6.62946 23.1428C7.33954 23.1428 7.91518 22.5672 7.91518 21.8571Z" stroke="white"/>
<path d="M29.452 21.857C29.452 21.3244 29.0203 20.8927 28.4877 20.8927C27.9552 20.8927 27.5234 21.3244 27.5234 21.857C27.5234 22.3896 27.9552 22.8213 28.4877 22.8213C29.0203 22.8213 29.452 22.3896 29.452 21.857Z" fill="#292929" stroke="white" stroke-width="1.5"/>
<path d="M29.7726 21.8571C29.7726 21.147 29.197 20.5714 28.4869 20.5714C27.7768 20.5714 27.2012 21.147 27.2012 21.8571C27.2012 22.5672 27.7768 23.1428 28.4869 23.1428C29.197 23.1428 29.7726 22.5672 29.7726 21.8571Z" stroke="white"/>
<path d="M29.452 14.5714C29.452 14.0388 29.0203 13.6071 28.4877 13.6071C27.9552 13.6071 27.5234 14.0388 27.5234 14.5714C27.5234 15.1039 27.9552 15.5356 28.4877 15.5356C29.0203 15.5356 29.452 15.1039 29.452 14.5714Z" fill="#292929" stroke="white" stroke-width="1.5"/>
<path d="M29.7726 14.5715C29.7726 13.8614 29.197 13.2857 28.4869 13.2857C27.7768 13.2857 27.2012 13.8614 27.2012 14.5715C27.2012 15.2815 27.7768 15.8572 28.4869 15.8572C29.197 15.8572 29.7726 15.2815 29.7726 14.5715Z" stroke="white"/>
<path d="M25.5946 8.57136C25.5946 8.0388 25.1629 7.60707 24.6303 7.60707C24.0977 7.60707 23.666 8.0388 23.666 8.57136C23.666 9.10392 24.0977 9.53564 24.6303 9.53564C25.1629 9.53564 25.5946 9.10392 25.5946 8.57136Z" fill="#292929" stroke="white" stroke-width="1.5"/>
<path d="M25.9152 8.57146C25.9152 7.86138 25.3395 7.28575 24.6295 7.28575C23.9194 7.28575 23.3438 7.86138 23.3438 8.57146C23.3438 9.28154 23.9194 9.85718 24.6295 9.85718C25.3395 9.85718 25.9152 9.28154 25.9152 8.57146Z" stroke="white"/>
<path d="M25.5946 27.4285C25.5946 26.896 25.1629 26.4643 24.6303 26.4643C24.0977 26.4643 23.666 26.896 23.666 27.4285C23.666 27.9611 24.0977 28.3928 24.6303 28.3928C25.1629 28.3928 25.5946 27.9611 25.5946 27.4285Z" fill="#292929" stroke="white" stroke-width="1.5"/>
<path d="M25.9152 27.4286C25.9152 26.7186 25.3395 26.1429 24.6295 26.1429C23.9194 26.1429 23.3438 26.7186 23.3438 27.4286C23.3438 28.1387 23.9194 28.7144 24.6295 28.7144C25.3395 28.7144 25.9152 28.1387 25.9152 27.4286Z" stroke="white"/>
<path d="M11.8797 8.57136C11.8797 8.0388 11.448 7.60707 10.9155 7.60707C10.3829 7.60707 9.95117 8.0388 9.95117 8.57136C9.95117 9.10392 10.3829 9.53564 10.9155 9.53564C11.448 9.53564 11.8797 9.10392 11.8797 8.57136Z" fill="#292929" stroke="white" stroke-width="1.5"/>
<path d="M12.2003 8.57146C12.2003 7.86138 11.6247 7.28575 10.9146 7.28575C10.2045 7.28575 9.62891 7.86138 9.62891 8.57146C9.62891 9.28154 10.2045 9.85718 10.9146 9.85718C11.6247 9.85718 12.2003 9.28154 12.2003 8.57146Z" stroke="white"/>
<path d="M11.8797 27.4285C11.8797 26.896 11.448 26.4643 10.9155 26.4643C10.3829 26.4643 9.95117 26.896 9.95117 27.4285C9.95117 27.9611 10.3829 28.3928 10.9155 28.3928C11.448 28.3928 11.8797 27.9611 11.8797 27.4285Z" fill="#292929" stroke="white" stroke-width="1.5"/>
<path d="M12.2003 27.4286C12.2003 26.7186 11.6247 26.1429 10.9146 26.1429C10.2045 26.1429 9.62891 26.7186 9.62891 27.4286C9.62891 28.1387 10.2045 28.7144 10.9146 28.7144C11.6247 28.7144 12.2003 28.1387 12.2003 27.4286Z" stroke="white"/>
<path d="M7.59459 14.5714C7.59459 14.0388 7.16286 13.6071 6.6303 13.6071C6.09774 13.6071 5.66602 14.0388 5.66602 14.5714C5.66602 15.1039 6.09774 15.5356 6.6303 15.5356C7.16286 15.5356 7.59459 15.1039 7.59459 14.5714Z" fill="#292929" stroke="white" stroke-width="1.5"/>
<path d="M7.91518 14.5715C7.91518 13.8614 7.33954 13.2857 6.62946 13.2857C5.91938 13.2857 5.34375 13.8614 5.34375 14.5715C5.34375 15.2815 5.91938 15.8572 6.62946 15.8572C7.33954 15.8572 7.91518 15.2815 7.91518 14.5715Z" stroke="white"/>
<path d="M18.7372 6.42854C18.7372 5.89598 18.3054 5.46425 17.7729 5.46425C17.2403 5.46425 16.8086 5.89598 16.8086 6.42854C16.8086 6.9611 17.2403 7.39282 17.7729 7.39282C18.3054 7.39282 18.7372 6.9611 18.7372 6.42854Z" fill="#292929" stroke="white" stroke-width="1.5"/>
<path d="M19.0578 6.42864C19.0578 5.71856 18.4821 5.14293 17.772 5.14293C17.062 5.14293 16.4863 5.71856 16.4863 6.42864C16.4863 7.13872 17.062 7.71436 17.772 7.71436C18.4821 7.71436 19.0578 7.13872 19.0578 6.42864Z" stroke="white"/>
<path d="M18.7372 29.9998C18.7372 29.4673 18.3054 29.0355 17.7729 29.0355C17.2403 29.0355 16.8086 29.4673 16.8086 29.9998C16.8086 30.5324 17.2403 30.9641 17.7729 30.9641C18.3054 30.9641 18.7372 30.5324 18.7372 29.9998Z" fill="#292929" stroke="white" stroke-width="1.5"/>
<path d="M19.0578 29.9999C19.0578 29.2898 18.4821 28.7142 17.772 28.7142C17.062 28.7142 16.4863 29.2898 16.4863 29.9999C16.4863 30.71 17.062 31.2856 17.772 31.2856C18.4821 31.2856 19.0578 30.71 19.0578 29.9999Z" stroke="white"/>
</g>
<defs>
<clipPath id="clip0_165_6711">
<rect width="34.2857" height="36" fill="white" transform="translate(0.628906)"/>
</clipPath>
</defs>
</svg>
