<svg width="32" height="36" viewBox="0 0 32 36" fill="none" xmlns="http://www.w3.org/2000/svg">
<g style="mix-blend-mode:difference" clip-path="url(#clip0_165_5914)">
<path d="M5.15181 29.1932C3.48616 26.1743 2.52949 23.1972 2.28179 20.2621C1.91025 15.8594 1.16406 13.2465 1.16406 11.5768C1.16406 9.9071 1.94165 7.88778 3.84466 7.57246C4.55706 7.45442 5.69896 7.66508 6.44083 7.80244C7.68069 8.032 8.74097 8.28918 8.94539 8.60119C9.27212 9.09988 10.6636 12.6404 10.2933 13.903C9.92301 15.1655 7.49701 15.4368 6.72621 15.062C5.9554 14.6872 5.38848 13.5917 5.15181 12.2484" stroke="#C0C0C0" stroke-linecap="round" stroke-linejoin="round"/>
<path d="M5.15104 13.0047C3.9192 12.7815 3.06156 12.5403 2.57812 12.281" stroke="#C0C0C0" stroke-linecap="round" stroke-linejoin="round"/>
<path d="M5.40234 7.53786C5.64033 6.9456 6.23947 6.37011 7.19979 5.81138C8.39934 5.11346 9.17089 5.08691 10.0952 5.08691C12.6453 5.08691 12.9051 6.44692 13.3448 8.96265C13.7845 11.4784 13.8686 13.0483 13.3448 13.6351C12.821 14.2218 10.6005 14.7797 10.0952 14.3433" stroke="#C0C0C0" stroke-linecap="round" stroke-linejoin="round"/>
<path d="M5.15234 29.1932C5.72015 30.3671 6.04417 31.1938 6.12441 31.6734C6.35855 33.073 6.47895 34.0423 6.96566 34.3947C7.57171 34.8336 10.6306 35.4211 13.5786 35.4293C16.0072 35.4359 18.3764 34.9328 19.099 34.6424C20.1656 34.2138 20.9253 32.8288 21.3782 30.4875C21.4571 29.6348 21.901 28.8546 22.7101 28.147C23.9236 27.0857 27.3126 22.0836 27.9617 19.7435C28.6108 17.4033 29.7442 16.3872 29.615 13.2602C29.4858 10.1332 29.3938 8.29206 28.2547 7.16311C27.1156 6.03416 26.5333 5.58911 25.0362 5.58911C23.5392 5.58911 18.6644 6.04891 17.4513 6.41856C16.2381 6.7882 15.6224 8.24262 16.9058 9.79309C18.1892 11.3436 20.0314 11.5768 22.2516 11.5768C22.8835 11.5768 23.8117 11.46 25.0362 11.2263" stroke="#C0C0C0" stroke-linecap="round" stroke-linejoin="round"/>
<path d="M22.7977 11.5574C22.555 12.1537 22.4336 12.6361 22.4336 13.0047" stroke="#C0C0C0" stroke-linecap="round" stroke-linejoin="round"/>
<path d="M11.5176 5.10268C11.921 3.93263 12.6506 3.25396 13.7066 3.06666C15.2905 2.78571 16.3949 2.92821 17.2761 3.59761C17.8635 4.04388 18.2773 4.88034 18.5174 6.10702" stroke="#C0C0C0" stroke-linecap="round" stroke-linejoin="round"/>
<path d="M18.7795 11.2261C18.728 11.7109 18.5663 12.1088 18.2946 12.4197C17.8127 12.9709 15.7816 13.9014 13.5781 13.2408" stroke="#C0C0C0" stroke-linecap="round" stroke-linejoin="round"/>
<path d="M17.5668 3.81301C17.5506 2.16088 18.0103 1.16633 18.9459 0.829384C20.3493 0.323959 22.1304 0.380613 22.8356 1.1357C23.5408 1.89078 23.7671 4.71648 23.7671 5.58903" stroke="#C0C0C0" stroke-linecap="round" stroke-linejoin="round"/>
<path d="M17.7218 12.8594C17.7218 12.8594 15.9423 15.4693 15.2159 17.7177C14.5897 19.656 14.8277 22.0525 15.0177 23.6278" stroke="#C0C0C0" stroke-linecap="round" stroke-linejoin="round"/>
<path d="M18.5156 12.281C19.4049 12.6101 20.6993 12.7746 22.3988 12.7746" stroke="#C0C0C0" stroke-linecap="round" stroke-linejoin="round"/>
<path d="M3.55273 18.1567C3.55273 17.5354 3.04905 17.0317 2.42773 17.0317C1.80641 17.0317 1.30273 17.5354 1.30273 18.1567C1.30273 18.7781 1.80641 19.2817 2.42773 19.2817C3.04905 19.2817 3.55273 18.7781 3.55273 18.1567Z" fill="#292929" stroke="white" stroke-width="1.5"/>
<path d="M3.92773 18.1567C3.92773 17.3283 3.25616 16.6567 2.42773 16.6567C1.59931 16.6567 0.927734 17.3283 0.927734 18.1567C0.927734 18.9852 1.59931 19.6567 2.42773 19.6567C3.25616 19.6567 3.92773 18.9852 3.92773 18.1567Z" stroke="white"/>
<path d="M21.7891 33C21.7891 32.3787 21.2854 31.875 20.6641 31.875C20.0427 31.875 19.5391 32.3787 19.5391 33C19.5391 33.6213 20.0427 34.125 20.6641 34.125C21.2854 34.125 21.7891 33.6213 21.7891 33Z" fill="#292929" stroke="white" stroke-width="1.5"/>
<path d="M22.1641 33C22.1641 32.1716 21.4925 31.5 20.6641 31.5C19.8356 31.5 19.1641 32.1716 19.1641 33C19.1641 33.8284 19.8356 34.5 20.6641 34.5C21.4925 34.5 22.1641 33.8284 22.1641 33Z" stroke="white"/>
<path d="M30.2891 15.5C30.2891 14.8787 29.7854 14.375 29.1641 14.375C28.5427 14.375 28.0391 14.8787 28.0391 15.5C28.0391 16.1213 28.5427 16.625 29.1641 16.625C29.7854 16.625 30.2891 16.1213 30.2891 15.5Z" fill="#292929" stroke="white" stroke-width="1.5"/>
<path d="M30.6641 15.5C30.6641 14.6716 29.9925 14 29.1641 14C28.3356 14 27.6641 14.6716 27.6641 15.5C27.6641 16.3284 28.3356 17 29.1641 17C29.9925 17 30.6641 16.3284 30.6641 15.5Z" stroke="white"/>
</g>
<defs>
<clipPath id="clip0_165_5914">
<rect width="30.5" height="36" fill="white" transform="translate(0.664062)"/>
</clipPath>
</defs>
</svg>
