<svg width="37" height="36" viewBox="0 0 37 36" fill="none" xmlns="http://www.w3.org/2000/svg">
<g style="mix-blend-mode:difference" clip-path="url(#clip0_165_7887)">
<path fill-rule="evenodd" clip-rule="evenodd" d="M30.63 0.428467C32.7176 0.428467 34.41 2.12083 34.41 4.20847V6.90847C34.41 8.95348 32.786 10.6192 30.7574 10.6864L29.8592 12.3085L28.9617 10.688L22.53 10.6885C20.4424 10.6885 18.75 8.9961 18.75 6.90847V4.20847C18.75 2.12083 20.4424 0.428467 22.53 0.428467H30.63Z" stroke="#C0C0C0" stroke-linecap="round" stroke-linejoin="round"/>
<path fill-rule="evenodd" clip-rule="evenodd" d="M12.5558 1.97144C14.6434 1.97144 16.3358 3.6638 16.3358 5.75144V8.45144C16.3358 9.91462 15.5044 11.1836 14.2883 11.8119L14.1594 13.6583L12.1968 12.2309L4.45578 12.2314C2.36814 12.2314 0.675781 10.5391 0.675781 8.45144V5.75144C0.675781 3.6638 2.36814 1.97144 4.45578 1.97144H12.5558Z" stroke="#C0C0C0" stroke-linecap="round" stroke-linejoin="round"/>
<path fill-rule="evenodd" clip-rule="evenodd" d="M11.4759 15.8572C13.4641 15.8572 15.0759 17.469 15.0759 19.4572V20.4858C15.0759 22.474 13.4641 24.0858 11.4759 24.0858H6.84269L4.7058 25.6637L4.7188 23.9146C3.26855 23.4498 2.21875 22.0904 2.21875 20.4858V19.4572C2.21875 17.469 3.83052 15.8572 5.81875 15.8572H11.4759Z" stroke="#C0C0C0" stroke-linecap="round" stroke-linejoin="round"/>
<path fill-rule="evenodd" clip-rule="evenodd" d="M25.513 15.4199C23.7429 15.4199 22.3044 16.8393 22.2735 18.602L20.5195 19.5742L22.2735 20.5448L22.273 20.8199C22.273 22.6093 23.7236 24.0599 25.513 24.0599H31.993C33.7824 24.0599 35.233 22.6093 35.233 20.8199V18.6599C35.233 16.8705 33.7824 15.4199 31.993 15.4199H25.513Z" stroke="#C0C0C0" stroke-linecap="round" stroke-linejoin="round"/>
<path fill-rule="evenodd" clip-rule="evenodd" d="M17.0547 24.0857L16.1579 25.7052L16.1039 25.7057C14.1157 25.7057 12.5039 27.3175 12.5039 29.3057V31.8771C12.5039 33.8653 14.1157 35.4771 16.1039 35.4771H23.8182C25.8064 35.4771 27.4182 33.8653 27.4182 31.8771V29.3057C27.4182 27.3175 25.8064 25.7057 23.8182 25.7057L17.9517 25.7052L17.0547 24.0857Z" stroke="#C0C0C0" stroke-linecap="round" stroke-linejoin="round"/>
<path d="M28.7232 21.1378C28.7232 20.5143 28.7232 20.2026 28.7232 20.2026C29.5846 20.1224 30.0731 19.4489 30.1014 18.8081C30.131 18.1381 29.7234 17.354 28.748 17.354C27.7726 17.354 27.4219 18.0752 27.4219 18.8081" stroke="#C0C0C0" stroke-linecap="round" stroke-linejoin="round"/>
<path d="M28.7461 22.0752V22.1232" stroke="#C0C0C0" stroke-linecap="round" stroke-linejoin="round"/>
<path d="M19.9263 31.9906C19.9263 31.3671 19.9263 31.0554 19.9263 31.0554C20.7877 30.9752 21.2762 30.3016 21.3045 29.6609C21.3342 28.9909 20.9265 28.2068 19.9511 28.2068C18.9757 28.2068 18.625 28.928 18.625 29.6609" stroke="#C0C0C0" stroke-linecap="round" stroke-linejoin="round"/>
<path d="M19.9492 32.928V32.976" stroke="#C0C0C0" stroke-linecap="round" stroke-linejoin="round"/>
<path d="M8.67242 21.4078C8.67242 20.7843 8.67242 20.4726 8.67242 20.4726C9.53379 20.3924 10.0223 19.7189 10.0506 19.0781C10.0803 18.4081 9.67259 17.624 8.69719 17.624C7.72179 17.624 7.37109 18.3452 7.37109 19.0781" stroke="#C0C0C0" stroke-linecap="round" stroke-linejoin="round"/>
<path d="M8.69531 22.345V22.393" stroke="#C0C0C0" stroke-linecap="round" stroke-linejoin="round"/>
<path d="M8.49273 8.5726C8.49273 7.94913 8.49273 7.63739 8.49273 7.63739C9.3541 7.55723 9.84261 6.88367 9.87095 6.24291C9.90058 5.57289 9.4929 4.78882 8.5175 4.78882C7.5421 4.78882 7.19141 5.50999 7.19141 6.24291" stroke="#C0C0C0" stroke-linecap="round" stroke-linejoin="round"/>
<path d="M8.51953 9.51001V9.55801" stroke="#C0C0C0" stroke-linecap="round" stroke-linejoin="round"/>
<path d="M26.5552 7.16098C26.5552 6.53751 26.5552 6.22577 26.5552 6.22577C27.4166 6.14561 27.9051 5.47205 27.9334 4.83129C27.9631 4.16127 27.5554 3.3772 26.58 3.3772C25.6046 3.3772 25.2539 4.09837 25.2539 4.83129" stroke="#C0C0C0" stroke-linecap="round" stroke-linejoin="round"/>
<path d="M26.5781 8.09839V8.14639" stroke="#C0C0C0" stroke-linecap="round" stroke-linejoin="round"/>
<path d="M35.3661 5.50617C35.3661 4.97361 34.9343 4.54189 34.4018 4.54189C33.8692 4.54189 33.4375 4.97361 33.4375 5.50617C33.4375 6.03873 33.8692 6.47046 34.4018 6.47046C34.9343 6.47046 35.3661 6.03873 35.3661 5.50617Z" fill="#292929" stroke="white" stroke-width="1.5"/>
<path d="M35.6886 5.50628C35.6886 4.7962 35.113 4.22056 34.4029 4.22056C33.6928 4.22056 33.1172 4.7962 33.1172 5.50628C33.1172 6.21636 33.6928 6.79199 34.4029 6.79199C35.113 6.79199 35.6886 6.21636 35.6886 5.50628Z" stroke="white"/>
<path d="M13.4442 31.0108C13.4442 30.4783 13.0125 30.0465 12.4799 30.0465C11.9474 30.0465 11.5156 30.4783 11.5156 31.0108C11.5156 31.5434 11.9474 31.9751 12.4799 31.9751C13.0125 31.9751 13.4442 31.5434 13.4442 31.0108Z" fill="#292929" stroke="white" stroke-width="1.5"/>
<path d="M13.7667 31.0109C13.7667 30.3008 13.1911 29.7252 12.481 29.7252C11.7709 29.7252 11.1953 30.3008 11.1953 31.0109C11.1953 31.721 11.7709 32.2966 12.481 32.2966C13.1911 32.2966 13.7667 31.721 13.7667 31.0109Z" stroke="white"/>
<path d="M34.9325 23.0396C34.9325 22.5071 34.5008 22.0753 33.9682 22.0753C33.4356 22.0753 33.0039 22.5071 33.0039 23.0396C33.0039 23.5722 33.4356 24.0039 33.9682 24.0039C34.5008 24.0039 34.9325 23.5722 34.9325 23.0396Z" fill="#292929" stroke="white" stroke-width="1.5"/>
<path d="M35.255 23.0397C35.255 22.3296 34.6794 21.754 33.9693 21.754C33.2592 21.754 32.6836 22.3296 32.6836 23.0397C32.6836 23.7498 33.2592 24.3254 33.9693 24.3254C34.6794 24.3254 35.255 23.7498 35.255 23.0397Z" stroke="white"/>
<path d="M6.78013 12.4285C6.78013 11.896 6.34841 11.4643 5.81585 11.4643C5.28329 11.4643 4.85156 11.896 4.85156 12.4285C4.85156 12.9611 5.28329 13.3928 5.81585 13.3928C6.34841 13.3928 6.78013 12.9611 6.78013 12.4285Z" fill="#292929" stroke="white" stroke-width="1.5"/>
<path d="M7.10268 12.4286C7.10268 11.7186 6.52704 11.1429 5.81696 11.1429C5.10688 11.1429 4.53125 11.7186 4.53125 12.4286C4.53125 13.1387 5.10688 13.7144 5.81696 13.7144C6.52704 13.7144 7.10268 13.1387 7.10268 12.4286Z" stroke="white"/>
</g>
<defs>
<clipPath id="clip0_165_7887">
<rect width="36" height="36" fill="white" transform="translate(0.246094)"/>
</clipPath>
</defs>
</svg>
