<svg width="32" height="36" viewBox="0 0 32 36" fill="none" xmlns="http://www.w3.org/2000/svg">
<g style="mix-blend-mode:difference" clip-path="url(#clip0_165_5912)">
<path fill-rule="evenodd" clip-rule="evenodd" d="M23.073 22.4346L29.9313 28.491L23.073 34.5475H9.35636L2.49805 28.491L9.35636 22.4346H23.073Z" stroke="#C0C0C0" stroke-linecap="round" stroke-linejoin="round"/>
<path d="M9.35547 22.4345L16.2138 1.27051L23.0721 22.4345" stroke="#C0C0C0" stroke-linecap="round" stroke-linejoin="round"/>
<path d="M29.9313 28.491L16.2147 1.27051L2.49805 28.491" stroke="#C0C0C0" stroke-linecap="round" stroke-linejoin="round"/>
<path d="M9.35547 34.5475L16.2138 1.27051L23.0721 34.5475" stroke="#C0C0C0" stroke-linecap="round" stroke-linejoin="round"/>
<path d="M3.44707 28.3764C3.44707 27.8501 3.02126 27.4235 2.496 27.4235C1.97073 27.4235 1.54492 27.8501 1.54492 28.3764C1.54492 28.9027 1.97073 29.3293 2.496 29.3293C3.02126 29.3293 3.44707 28.9027 3.44707 28.3764Z" fill="#292929" stroke="white" stroke-width="1.5"/>
<path d="M3.76472 28.3764C3.76472 27.6747 3.19697 27.1058 2.49662 27.1058C1.79626 27.1058 1.22852 27.6747 1.22852 28.3764C1.22852 29.0781 1.79626 29.647 2.49662 29.647C3.19697 29.647 3.76472 29.0781 3.76472 28.3764Z" stroke="white"/>
<path d="M30.9236 28.3764C30.9236 27.8501 30.4978 27.4235 29.9726 27.4235C29.4473 27.4235 29.0215 27.8501 29.0215 28.3764C29.0215 28.9027 29.4473 29.3293 29.9726 29.3293C30.4978 29.3293 30.9236 28.9027 30.9236 28.3764Z" fill="#292929" stroke="white" stroke-width="1.5"/>
<path d="M31.2413 28.3764C31.2413 27.6747 30.6735 27.1058 29.9732 27.1058C29.2728 27.1058 28.7051 27.6747 28.7051 28.3764C28.7051 29.0781 29.2728 29.647 29.9732 29.647C30.6735 29.647 31.2413 29.0781 31.2413 28.3764Z" stroke="white"/>
<path d="M10.2107 34.3058C10.2107 33.7796 9.78494 33.3529 9.25967 33.3529C8.73441 33.3529 8.30859 33.7796 8.30859 34.3058C8.30859 34.8321 8.73441 35.2588 9.25967 35.2588C9.78494 35.2588 10.2107 34.8321 10.2107 34.3058Z" fill="#292929" stroke="white" stroke-width="1.5"/>
<path d="M10.5284 34.3058C10.5284 33.6041 9.96064 33.0352 9.26029 33.0352C8.55994 33.0352 7.99219 33.6041 7.99219 34.3058C7.99219 35.0076 8.55994 35.5764 9.26029 35.5764C9.96064 35.5764 10.5284 35.0076 10.5284 34.3058Z" stroke="white"/>
<path d="M24.16 34.3058C24.16 33.7796 23.7342 33.3529 23.2089 33.3529C22.6836 33.3529 22.2578 33.7796 22.2578 34.3058C22.2578 34.8321 22.6836 35.2588 23.2089 35.2588C23.7342 35.2588 24.16 34.8321 24.16 34.3058Z" fill="#292929" stroke="white" stroke-width="1.5"/>
<path d="M24.4776 34.3058C24.4776 33.6041 23.9099 33.0352 23.2095 33.0352C22.5092 33.0352 21.9414 33.6041 21.9414 34.3058C21.9414 35.0076 22.5092 35.5764 23.2095 35.5764C23.9099 35.5764 24.4776 35.0076 24.4776 34.3058Z" stroke="white"/>
<path d="M17.1639 1.75531C17.1639 1.22902 16.7381 0.80237 16.2128 0.80237C15.6875 0.80237 15.2617 1.22902 15.2617 1.75531C15.2617 2.28161 15.6875 2.70825 16.2128 2.70825C16.7381 2.70825 17.1639 2.28161 17.1639 1.75531Z" fill="#292929" stroke="white" stroke-width="1.5"/>
<path d="M17.4815 1.75529C17.4815 1.05356 16.9138 0.484702 16.2134 0.484702C15.5131 0.484702 14.9453 1.05356 14.9453 1.75529C14.9453 2.45702 15.5131 3.02588 16.2134 3.02588C16.9138 3.02588 17.4815 2.45702 17.4815 1.75529Z" stroke="white"/>
</g>
<defs>
<clipPath id="clip0_165_5912">
<rect width="30.8571" height="36" fill="white" transform="translate(0.806641)"/>
</clipPath>
</defs>
</svg>
