<svg width="63" height="36" viewBox="0 0 63 36" fill="none" xmlns="http://www.w3.org/2000/svg">
<g style="mix-blend-mode:difference" clip-path="url(#clip0_165_6689)">
<path d="M29.3775 23.0319C20.0592 23.0319 4.95561 23.0319 3.83356 23.0319C2.23386 23.0319 1.08008 22.0347 1.08008 20.5679C1.08008 19.101 1.08008 8.41737 1.08008 6.97884C1.08008 5.54031 2.31146 4.44629 3.83356 4.44629C5.35567 4.44629 35.1832 4.44629 36.7781 4.44629C38.373 4.44629 39.1158 5.66479 39.1158 6.71945C39.1158 7.77412 39.1158 19.3946 39.1158 20.7455C39.1158 21.5487 38.76 22.1521 38.1346 22.5523" stroke="#C0C0C0" stroke-linecap="round" stroke-linejoin="round"/>
<path d="M37.6789 13.7319C37.6789 16.6881 37.6789 18.7747 37.6789 19.9915C37.6789 21.2084 37.0989 21.7883 35.939 21.7314H19.0123C9.88808 21.7314 4.85785 21.7314 3.92157 21.7314C2.98529 21.7314 2.47042 21.2165 2.37695 20.1867V17.947C3.09977 17.9283 3.46118 17.5669 3.46118 16.8628C3.46118 16.1587 3.46118 15.1088 3.46118 13.7131" stroke="#C0C0C0" stroke-linecap="round" stroke-linejoin="round"/>
<path d="M37.6789 13.9364C37.6789 10.9802 37.6789 8.89362 37.6789 7.67677C37.6789 6.45993 37.0989 5.87998 35.939 5.93692H19.0123C9.88808 5.93692 4.85785 5.93692 3.92157 5.93692C2.98529 5.93692 2.47042 6.4518 2.37695 7.48154V9.72126C3.09977 9.73997 3.46118 10.1014 3.46118 10.8055C3.46118 11.5096 3.46118 12.5595 3.46118 13.9551" stroke="#C0C0C0" stroke-linecap="round" stroke-linejoin="round"/>
<path d="M39.0112 6.01754C40.1011 7.74572 40.9169 8.99822 41.25 9.94405C41.7496 11.3628 43.9616 18.7912 41.5386 20.9115C39.1156 23.0318 38.3367 22.5334 34.9482 22.5334C31.5597 22.5334 29.5881 22.5101 28.2446 23.7353C26.901 24.9605 27.0458 26.7104 28.8219 27.254C30.5979 27.7976 38.8865 26.8961 41.5386 28.5113C44.1906 30.1266 46.827 32.3349 49.3744 33.112C51.9219 33.889 52.761 33.3193 54.1001 35.2775C55.4392 37.2358 61.813 28.464 60.3285 26.7404C58.844 25.0168 58.7556 25.8167 56.5378 23.7353C54.32 21.654 51.1236 13.2642 50.1407 11.3557C48.122 8.37728 44.5136 5.1855 42.5428 3.01659C40.5719 0.847672 39.9472 0.396607 35.8687 0.639818C33.251 0.874192 29.3992 1.427 28.8219 2.27723C28.2446 3.12746 29.2515 4.64292 33.3709 4.44614" stroke="#C0C0C0" stroke-linecap="round" stroke-linejoin="round"/>
<path d="M32.8086 27.4995C33.0502 28.7834 33.6034 29.4254 34.4683 29.4254C35.3332 29.4254 35.9495 28.8072 36.3171 27.5707" stroke="#C0C0C0" stroke-linecap="round" stroke-linejoin="round"/>
<path d="M39.1158 27.8352C38.8218 28.5902 38.3213 28.9677 37.6145 28.9677C36.9077 28.9677 36.4073 28.6843 36.1133 28.1174" stroke="#C0C0C0" stroke-linecap="round" stroke-linejoin="round"/>
<path d="M41.4629 10.6196C40.8898 13.8842 40.7592 16.4157 41.0712 18.2141C41.3832 20.0125 41.5392 20.9116 41.5392 20.9116" stroke="#C0C0C0" stroke-linecap="round" stroke-linejoin="round"/>
<path d="M41.2237 10.3594C40.0428 10.3594 39.3406 10.3594 39.1172 10.3594" stroke="#C0C0C0" stroke-linecap="round" stroke-linejoin="round"/>
<path d="M41.2237 12.0386C40.5351 13.1602 39.8329 13.9774 39.1172 14.4901" stroke="#C0C0C0" stroke-linecap="round" stroke-linejoin="round"/>
<path d="M51.1617 11.0322C51.1617 10.3106 50.5768 9.72572 49.8553 9.72572C49.1337 9.72572 48.5488 10.3106 48.5488 11.0322C48.5488 11.7537 49.1337 12.3386 49.8553 12.3386C50.5768 12.3386 51.1617 11.7537 51.1617 11.0322Z" fill="#292929" stroke="white" stroke-width="1.5"/>
<path d="M51.5972 11.0322C51.5972 10.0702 50.8173 9.2903 49.8552 9.2903C48.8932 9.2903 48.1133 10.0702 48.1133 11.0322C48.1133 11.9943 48.8932 12.7742 49.8552 12.7742C50.8173 12.7742 51.5972 11.9943 51.5972 11.0322Z" stroke="white"/>
<path d="M45.9352 30.7741C45.9352 30.0526 45.3502 29.4677 44.6287 29.4677C43.9072 29.4677 43.3223 30.0526 43.3223 30.7741C43.3223 31.4956 43.9072 32.0806 44.6287 32.0806C45.3502 32.0806 45.9352 31.4956 45.9352 30.7741Z" fill="#292929" stroke="white" stroke-width="1.5"/>
<path d="M46.3706 30.7742C46.3706 29.8121 45.5907 29.0322 44.6287 29.0322C43.6666 29.0322 42.8867 29.8121 42.8867 30.7742C42.8867 31.7362 43.6666 32.5161 44.6287 32.5161C45.5907 32.5161 46.3706 31.7362 46.3706 30.7742Z" stroke="white"/>
<path d="M61.6129 27.2902C61.6129 26.5687 61.028 25.9838 60.3065 25.9838C59.5849 25.9838 59 26.5687 59 27.2902C59 28.0118 59.5849 28.5967 60.3065 28.5967C61.028 28.5967 61.6129 28.0118 61.6129 27.2902Z" fill="#292929" stroke="white" stroke-width="1.5"/>
<path d="M62.0483 27.2903C62.0483 26.3282 61.2684 25.5484 60.3064 25.5484C59.3443 25.5484 58.5645 26.3282 58.5645 27.2903C58.5645 28.2523 59.3443 29.0322 60.3064 29.0322C61.2684 29.0322 62.0483 28.2523 62.0483 27.2903Z" stroke="white"/>
<path d="M4.734 13.8129C4.734 13.0914 4.14908 12.5065 3.42755 12.5065C2.70601 12.5065 2.12109 13.0914 2.12109 13.8129C2.12109 14.5345 2.70601 15.1194 3.42755 15.1194C4.14908 15.1194 4.734 14.5345 4.734 13.8129Z" fill="#292929" stroke="white" stroke-width="1.5"/>
<path d="M5.16942 13.813C5.16942 12.851 4.38953 12.0711 3.42748 12.0711C2.46544 12.0711 1.68555 12.851 1.68555 13.813C1.68555 14.775 2.46544 15.5549 3.42748 15.5549C4.38953 15.5549 5.16942 14.775 5.16942 13.813Z" stroke="white"/>
</g>
<defs>
<clipPath id="clip0_165_6689">
<rect width="62.129" height="36" fill="white" transform="translate(0.5)"/>
</clipPath>
</defs>
</svg>
