<svg width="42" height="36" viewBox="0 0 42 36" fill="none" xmlns="http://www.w3.org/2000/svg">
<g style="mix-blend-mode:difference" clip-path="url(#clip0_165_6811)">
<path d="M21.1973 35.7382C31.965 35.7382 37.4697 35.7382 37.7114 35.7382C38.0739 35.7382 38.3542 35.6511 38.7033 35.2858C39.0525 34.9206 40.2424 33.8012 40.4622 33.5908C40.6819 33.3803 40.7827 33.0517 40.7827 32.8824C40.7827 32.7132 40.7827 32.4247 40.7827 32.264C40.7827 32.1033 40.6281 31.9436 40.3216 31.9436C40.0151 31.9436 26.0593 31.9436 25.8564 31.9436C25.6536 31.9436 25.463 32.1509 25.3369 32.264C25.2107 32.3771 24.5987 32.9203 24.4843 33.0278C24.3699 33.1352 24.2577 33.1883 24.0645 33.1883C23.9357 33.1883 22.9861 33.1883 21.2158 33.1883" stroke="#C0C0C0" stroke-linecap="round" stroke-linejoin="round"/>
<path d="M38.2166 31.924C38.2166 19.1215 38.2166 12.275 38.2166 11.3844C38.2166 10.0486 37.3692 9.12671 36.1371 9.12671C35.3158 9.12671 32.5324 9.12671 27.7871 9.12671" stroke="#C0C0C0" stroke-linecap="round" stroke-linejoin="round"/>
<path d="M21.0078 35.7382C10.2401 35.7382 4.73536 35.7382 4.49369 35.7382C4.13119 35.7382 3.85092 35.6511 3.50174 35.2858C3.15256 34.9206 1.96263 33.8012 1.74289 33.5908C1.52315 33.3803 1.42238 33.0517 1.42238 32.8824C1.42238 32.7132 1.42238 32.4247 1.42238 32.264C1.42238 32.1033 1.57695 31.9436 1.88346 31.9436C2.18996 31.9436 16.1458 31.9436 16.3486 31.9436C16.5514 31.9436 16.742 32.1509 16.8682 32.264C16.9943 32.3771 17.6064 32.9203 17.7208 33.0278C17.8352 33.1352 17.9473 33.1883 18.1406 33.1883C18.2694 33.1883 19.219 33.1883 20.9893 33.1883" stroke="#C0C0C0" stroke-linecap="round" stroke-linejoin="round"/>
<path d="M3.9572 31.924C3.9572 19.1215 3.9572 12.275 3.9572 11.3844C3.9572 10.0486 4.80455 9.12671 6.03662 9.12671C6.858 9.12671 9.66155 9.12671 14.4473 9.12671" stroke="#C0C0C0" stroke-linecap="round" stroke-linejoin="round"/>
<path d="M26.6102 11.6621C32.0997 11.6621 35.0194 11.6621 35.3693 11.6621C35.8942 11.6621 36.0247 12.0239 36.0247 12.3752C36.0247 12.7266 36.0247 29.0539 36.0247 29.3722C36.0247 29.6904 35.8026 29.9156 35.4605 29.9156C35.2324 29.9156 30.478 29.9156 21.1973 29.9156" stroke="#C0C0C0" stroke-linecap="round" stroke-linejoin="round"/>
<path d="M15.862 11.6621C10.4022 11.6621 7.49739 11.6621 7.1475 11.6621C6.62266 11.6621 6.4921 12.0239 6.4921 12.3752C6.4921 12.7266 6.4921 29.0539 6.4921 29.3722C6.4921 29.6904 6.71418 29.9156 7.05634 29.9156C7.28445 29.9156 11.9655 29.9156 21.0996 29.9156" stroke="#C0C0C0" stroke-linecap="round" stroke-linejoin="round"/>
<path d="M21.1958 14.1409C24.9607 14.1409 28.0127 11.0889 28.0127 7.32398C28.0127 3.55911 24.9607 0.50708 21.1958 0.50708C17.4309 0.50708 14.3789 3.55911 14.3789 7.32398C14.3789 11.0889 17.4309 14.1409 21.1958 14.1409Z" stroke="#C0C0C0" stroke-linecap="round" stroke-linejoin="round"/>
<path d="M25.5352 12.9014C27.8578 14.3208 31.6949 17.9583 31.688 24.8103" stroke="#C0C0C0" stroke-linecap="round" stroke-linejoin="round"/>
<path d="M31.4475 25.0604C27.2324 28.55 15.5164 27.9853 11.1491 25.8232C9.61685 25.0647 11.5774 15.287 16.8085 12.9014" stroke="#C0C0C0" stroke-linecap="round" stroke-linejoin="round"/>
<path d="M26.395 12.676C26.395 12.046 25.8842 11.5352 25.2541 11.5352C24.6241 11.5352 24.1133 12.046 24.1133 12.676C24.1133 13.3061 24.6241 13.8169 25.2541 13.8169C25.8842 13.8169 26.395 13.3061 26.395 12.676Z" fill="#292929" stroke="white" stroke-width="1.5"/>
<path d="M26.7747 12.6761C26.7747 11.836 26.0936 11.155 25.2535 11.155C24.4135 11.155 23.7324 11.836 23.7324 12.6761C23.7324 13.5162 24.4135 14.1973 25.2535 14.1973C26.0936 14.1973 26.7747 13.5162 26.7747 12.6761Z" stroke="white"/>
<path d="M18.2817 12.676C18.2817 12.046 17.7709 11.5352 17.1408 11.5352C16.5108 11.5352 16 12.046 16 12.676C16 13.3061 16.5108 13.8169 17.1408 13.8169C17.7709 13.8169 18.2817 13.3061 18.2817 12.676Z" fill="#292929" stroke="white" stroke-width="1.5"/>
<path d="M18.6614 12.6761C18.6614 11.836 17.9804 11.155 17.1403 11.155C16.3002 11.155 15.6191 11.836 15.6191 12.6761C15.6191 13.5162 16.3002 14.1973 17.1403 14.1973C17.9804 14.1973 18.6614 13.5162 18.6614 12.6761Z" stroke="white"/>
<path d="M7.63325 21.2957C7.63325 20.6656 7.12248 20.1548 6.49241 20.1548C5.86234 20.1548 5.35156 20.6656 5.35156 21.2957C5.35156 21.9258 5.86234 22.4365 6.49241 22.4365C7.12248 22.4365 7.63325 21.9258 7.63325 21.2957Z" fill="#292929" stroke="white" stroke-width="1.5"/>
<path d="M8.01296 21.2958C8.01296 20.4557 7.33192 19.7746 6.49183 19.7746C5.65173 19.7746 4.9707 20.4557 4.9707 21.2958C4.9707 22.1359 5.65173 22.8169 6.49183 22.8169C7.33192 22.8169 8.01296 22.1359 8.01296 21.2958Z" stroke="white"/>
<path d="M37.0415 21.2957C37.0415 20.6656 36.5307 20.1548 35.9006 20.1548C35.2705 20.1548 34.7598 20.6656 34.7598 21.2957C34.7598 21.9258 35.2705 22.4365 35.9006 22.4365C36.5307 22.4365 37.0415 21.9258 37.0415 21.2957Z" fill="#292929" stroke="white" stroke-width="1.5"/>
<path d="M37.4212 21.2958C37.4212 20.4557 36.7401 19.7746 35.9 19.7746C35.0599 19.7746 34.3789 20.4557 34.3789 21.2958C34.3789 22.1359 35.0599 22.8169 35.9 22.8169C36.7401 22.8169 37.4212 22.1359 37.4212 21.2958Z" stroke="white"/>
<path d="M22.3383 33.4646C22.3383 32.8346 21.8276 32.3238 21.1975 32.3238C20.5674 32.3238 20.0566 32.8346 20.0566 33.4646C20.0566 34.0947 20.5674 34.6055 21.1975 34.6055C21.8276 34.6055 22.3383 34.0947 22.3383 33.4646Z" fill="#292929" stroke="white" stroke-width="1.5"/>
<path d="M22.718 33.4647C22.718 32.6246 22.037 31.9436 21.1969 31.9436C20.3568 31.9436 19.6758 32.6246 19.6758 33.4647C19.6758 34.3048 20.3568 34.9858 21.1969 34.9858C22.037 34.9858 22.718 34.3048 22.718 33.4647Z" stroke="white"/>
</g>
<defs>
<clipPath id="clip0_165_6811">
<rect width="40.5634" height="36" fill="white" transform="translate(0.914062)"/>
</clipPath>
</defs>
</svg>
