<svg width="40" height="36" viewBox="0 0 40 36" fill="none" xmlns="http://www.w3.org/2000/svg">
<g style="mix-blend-mode:difference" clip-path="url(#clip0_165_7645)">
<path d="M20.2668 8.69331C22.5349 8.69331 24.3735 6.8547 24.3735 4.58665C24.3735 2.3186 22.5349 0.47998 20.2668 0.47998C17.9988 0.47998 16.1602 2.3186 16.1602 4.58665C16.1602 6.8547 17.9988 8.69331 20.2668 8.69331Z" stroke="#C0C0C0" stroke-linecap="round" stroke-linejoin="round"/>
<path d="M22.8789 7.94678C24.2781 8.80189 26.5897 10.9932 26.5855 15.121" stroke="#C0C0C0" stroke-linecap="round" stroke-linejoin="round"/>
<path d="M26.4397 15.2717C23.9003 17.3739 16.8423 17.0337 14.2114 15.7312C13.2883 15.2743 14.4694 9.38391 17.6207 7.94678" stroke="#C0C0C0" stroke-linecap="round" stroke-linejoin="round"/>
<path d="M5.86729 24.2133C7.64933 24.2133 9.09396 22.7687 9.09396 20.9867C9.09396 19.2046 7.64933 17.76 5.86729 17.76C4.08525 17.76 2.64062 19.2046 2.64062 20.9867C2.64062 22.7687 4.08525 24.2133 5.86729 24.2133Z" stroke="#C0C0C0" stroke-linecap="round" stroke-linejoin="round"/>
<path d="M7.91797 23.6267C9.01733 24.2986 10.8336 26.0203 10.8303 29.2636" stroke="#C0C0C0" stroke-linecap="round" stroke-linejoin="round"/>
<path d="M10.7188 29.382C8.72359 31.0337 3.17803 30.7664 1.11083 29.7431C0.385582 29.384 1.31358 24.7559 3.78962 23.6267" stroke="#C0C0C0" stroke-linecap="round" stroke-linejoin="round"/>
<path d="M20.2657 29.0134C22.0478 29.0134 23.4924 27.5688 23.4924 25.7867C23.4924 24.0047 22.0478 22.5601 20.2657 22.5601C18.4837 22.5601 17.0391 24.0047 17.0391 25.7867C17.0391 27.5688 18.4837 29.0134 20.2657 29.0134Z" stroke="#C0C0C0" stroke-linecap="round" stroke-linejoin="round"/>
<path d="M22.3203 28.4268C23.4197 29.0986 25.2359 30.8204 25.2326 34.0636" stroke="#C0C0C0" stroke-linecap="round" stroke-linejoin="round"/>
<path d="M25.1172 34.182C23.122 35.8338 17.5765 35.5665 15.5093 34.5431C14.784 34.1841 15.712 29.5559 18.1881 28.4268" stroke="#C0C0C0" stroke-linecap="round" stroke-linejoin="round"/>
<path d="M34.6642 24.2133C36.4462 24.2133 37.8908 22.7687 37.8908 20.9867C37.8908 19.2046 36.4462 17.76 34.6642 17.76C32.8821 17.76 31.4375 19.2046 31.4375 20.9867C31.4375 22.7687 32.8821 24.2133 34.6642 24.2133Z" stroke="#C0C0C0" stroke-linecap="round" stroke-linejoin="round"/>
<path d="M36.7188 23.6267C37.8181 24.2986 39.6344 26.0203 39.6311 29.2636" stroke="#C0C0C0" stroke-linecap="round" stroke-linejoin="round"/>
<path d="M39.5196 29.382C37.5244 31.0337 31.9788 30.7664 29.9116 29.7431C29.1864 29.384 30.1144 24.7559 32.5904 23.6267" stroke="#C0C0C0" stroke-linecap="round" stroke-linejoin="round"/>
<path d="M10.6641 15.8401C10.6641 17.9609 14.8547 19.6801 20.0241 19.6801C25.1934 19.6801 29.3841 17.9609 29.3841 15.8401" stroke="#C0C0C0" stroke-linecap="round" stroke-linejoin="round"/>
<path d="M21.3436 19.68C21.3436 19.0835 20.8601 18.6 20.2636 18.6C19.6671 18.6 19.1836 19.0835 19.1836 19.68C19.1836 20.2765 19.6671 20.76 20.2636 20.76C20.8601 20.76 21.3436 20.2765 21.3436 19.68Z" fill="#292929" stroke="white" stroke-width="1.5"/>
<path d="M21.7042 19.6801C21.7042 18.8848 21.0595 18.2401 20.2642 18.2401C19.4689 18.2401 18.8242 18.8848 18.8242 19.6801C18.8242 20.4754 19.4689 21.1201 20.2642 21.1201C21.0595 21.1201 21.7042 20.4754 21.7042 19.6801Z" stroke="white"/>
<path d="M28.0662 18.2398C28.0662 17.6434 27.5827 17.1598 26.9862 17.1598C26.3898 17.1598 25.9062 17.6434 25.9062 18.2398C25.9062 18.8363 26.3898 19.3198 26.9862 19.3198C27.5827 19.3198 28.0662 18.8363 28.0662 18.2398Z" fill="#292929" stroke="white" stroke-width="1.5"/>
<path d="M28.4269 18.2399C28.4269 17.4446 27.7822 16.7999 26.9869 16.7999C26.1916 16.7999 25.5469 17.4446 25.5469 18.2399C25.5469 19.0352 26.1916 19.6799 26.9869 19.6799C27.7822 19.6799 28.4269 19.0352 28.4269 18.2399Z" stroke="white"/>
<path d="M14.1444 18.2398C14.1444 17.6434 13.6608 17.1598 13.0644 17.1598C12.4679 17.1598 11.9844 17.6434 11.9844 18.2398C11.9844 18.8363 12.4679 19.3198 13.0644 19.3198C13.6608 19.3198 14.1444 18.8363 14.1444 18.2398Z" fill="#292929" stroke="white" stroke-width="1.5"/>
<path d="M14.505 18.2399C14.505 17.4446 13.8603 16.7999 13.065 16.7999C12.2697 16.7999 11.625 17.4446 11.625 18.2399C11.625 19.0352 12.2697 19.6799 13.065 19.6799C13.8603 19.6799 14.505 19.0352 14.505 18.2399Z" stroke="white"/>
</g>
<defs>
<clipPath id="clip0_165_7645">
<rect width="39.36" height="36" fill="white" transform="translate(0.585938)"/>
</clipPath>
</defs>
</svg>
