<svg width="37" height="36" viewBox="0 0 37 36" fill="none" xmlns="http://www.w3.org/2000/svg">
<g style="mix-blend-mode:difference" clip-path="url(#clip0_165_7246)">
<path d="M15.8627 18.4857C17.7695 18.4857 19.3153 16.9399 19.3153 15.0331C19.3153 13.1263 17.7695 11.5806 15.8627 11.5806C13.9559 11.5806 12.4102 13.1263 12.4102 15.0331C12.4102 16.9399 13.9559 18.4857 15.8627 18.4857Z" stroke="#C0C0C0" stroke-linecap="round" stroke-linejoin="round"/>
<path d="M15.03 8.79761C14.8813 9.29684 14.8112 9.99467 14.7624 10.8075M14.7539 19.2356C14.8008 20.0779 14.8696 20.7638 15.0247 21.2725M16.6936 21.2776C16.8496 20.7635 16.9237 20.0675 16.9707 19.2142M16.9623 10.8075C16.9129 9.98441 16.8423 9.30494 16.69 8.80412" stroke="#C0C0C0" stroke-linecap="round" stroke-linejoin="round"/>
<path d="M16.6838 8.78687C16.4154 8.73193 16.14 8.70337 15.8592 8.70337C15.5772 8.70337 15.3007 8.73218 15.0312 8.78756M15.0366 21.2796C15.3043 21.3343 15.5791 21.3627 15.8592 21.3627C16.1421 21.3627 16.4196 21.3337 16.6899 21.278" stroke="#C0C0C0" stroke-linecap="round" stroke-linejoin="round"/>
<path d="M10.8632 11.2122C11.111 11.6704 11.555 12.2134 12.0952 12.8227M18.0488 18.7883C18.6775 19.3507 19.2112 19.787 19.6806 20.0371M20.8642 18.8606C20.611 18.3867 20.1713 17.8422 19.6012 17.2056M13.6507 11.2672C13.0338 10.72 12.5035 10.2895 12.0416 10.043" stroke="#C0C0C0" stroke-linecap="round" stroke-linejoin="round"/>
<path d="M12.0283 10.0334C11.7997 10.1843 11.5848 10.3588 11.3862 10.5574C11.1869 10.7567 11.0117 10.9727 10.8603 11.2024M19.6973 20.0318C19.9253 19.8811 20.1397 19.7069 20.3377 19.5089C20.5378 19.3088 20.7135 19.0921 20.8652 18.8616" stroke="#C0C0C0" stroke-linecap="round" stroke-linejoin="round"/>
<path d="M9.625 15.8652C10.1242 16.014 10.8221 16.084 11.6349 16.1328M20.063 16.1414C20.9053 16.0945 21.5912 16.0256 22.0999 15.8705M22.105 14.2017C21.5909 14.0457 20.8949 13.9715 20.0416 13.9246M11.6349 13.933C10.8118 13.9823 10.1323 14.0529 9.63151 14.2052" stroke="#C0C0C0" stroke-linecap="round" stroke-linejoin="round"/>
<path d="M9.61475 14.2086C9.55981 14.4769 9.53125 14.7523 9.53125 15.0331C9.53125 15.3151 9.56006 15.5917 9.61544 15.8611M22.1075 15.8557C22.1622 15.588 22.1906 15.3132 22.1906 15.0331C22.1906 14.7502 22.1616 14.4727 22.1058 14.2025" stroke="#C0C0C0" stroke-linecap="round" stroke-linejoin="round"/>
<path d="M12.0391 20.0306C12.4973 19.7828 13.0403 19.3388 13.6496 18.7986M19.6152 12.845C20.1776 12.2163 20.6139 11.6826 20.864 11.2132M19.6875 10.0296C19.2136 10.2828 18.6691 10.7225 18.0325 11.2926M12.0941 17.2431C11.5469 17.86 11.1164 18.3903 10.8699 18.8522" stroke="#C0C0C0" stroke-linecap="round" stroke-linejoin="round"/>
<path d="M10.8632 18.8667C11.0141 19.0953 11.1887 19.3102 11.3872 19.5088C11.5866 19.7082 11.8025 19.8834 12.0322 20.0347M20.8616 11.1977C20.711 10.9697 20.5368 10.7553 20.3387 10.5573C20.1387 10.3572 19.9219 10.1815 19.6914 10.0298" stroke="#C0C0C0" stroke-linecap="round" stroke-linejoin="round"/>
<path d="M13.6836 18.7604C14.0149 18.9544 14.3745 19.1054 14.7546 19.2058M18.0326 11.3032C17.7035 11.1111 17.3467 10.9613 16.9696 10.8613" stroke="#C0C0C0" stroke-linecap="round" stroke-linejoin="round"/>
<path d="M16.9566 19.2064C17.328 19.1092 17.689 18.9617 18.0288 18.764M14.7587 10.8581C14.3902 10.9549 14.032 11.1014 13.6947 11.2973" stroke="#C0C0C0" stroke-linecap="round" stroke-linejoin="round"/>
<path d="M19.5866 17.208C19.7805 16.8767 19.9315 16.5171 20.032 16.137M12.1293 12.859C11.9373 13.1881 11.7875 13.5449 11.6875 13.922" stroke="#C0C0C0" stroke-linecap="round" stroke-linejoin="round"/>
<path d="M20.0308 13.9357C19.9336 13.5643 19.7862 13.2033 19.5885 12.8635M11.6825 16.1336C11.7794 16.5021 11.9258 16.8603 12.1217 17.1977" stroke="#C0C0C0" stroke-linecap="round" stroke-linejoin="round"/>
<path d="M29.6849 5.58569C29.6106 5.83531 29.5755 6.18423 29.5511 6.59066M29.5469 10.8047C29.5703 11.2258 29.6047 11.5688 29.6823 11.8232M30.5167 11.8257C30.5947 11.5686 30.6318 11.2206 30.6553 10.794M30.6511 6.59066C30.6264 6.17909 30.5911 5.83936 30.5149 5.58895" stroke="#C0C0C0" stroke-linecap="round" stroke-linejoin="round"/>
<path d="M30.5138 5.58032C30.3796 5.55286 30.2419 5.53857 30.1015 5.53857C29.9605 5.53857 29.8222 5.55298 29.6875 5.58067M29.6902 11.8267C29.824 11.854 29.9614 11.8682 30.1015 11.8682C30.2429 11.8682 30.3817 11.8537 30.5168 11.8259" stroke="#C0C0C0" stroke-linecap="round" stroke-linejoin="round"/>
<path d="M27.6054 6.793C27.7293 7.0221 27.9513 7.29358 28.2214 7.59822M31.1982 10.581C31.5126 10.8622 31.7794 11.0804 32.0141 11.2054M32.6059 10.6172C32.4793 10.3803 32.2595 10.108 31.9744 9.7897M28.9992 6.82047C28.6907 6.54689 28.4256 6.33162 28.1946 6.20841" stroke="#C0C0C0" stroke-linecap="round" stroke-linejoin="round"/>
<path d="M28.1841 6.20357C28.0698 6.27902 27.9623 6.3663 27.863 6.46557C27.7634 6.56526 27.6758 6.67323 27.6001 6.78807M32.0186 11.2028C32.1326 11.1275 32.2398 11.0404 32.3388 10.9413C32.4388 10.8413 32.5267 10.7329 32.6025 10.6177" stroke="#C0C0C0" stroke-linecap="round" stroke-linejoin="round"/>
<path d="M26.9844 9.11951C27.234 9.19388 27.5829 9.2289 27.9893 9.2533M32.2034 9.25757C32.6245 9.23412 32.9675 9.1997 33.2218 9.12215M33.2244 8.28774C32.9673 8.20973 32.6193 8.17266 32.1927 8.14917M27.9893 8.15339C27.5778 8.17805 27.238 8.21335 26.9876 8.28951" stroke="#C0C0C0" stroke-linecap="round" stroke-linejoin="round"/>
<path d="M26.9792 8.29118C26.9518 8.42535 26.9375 8.56307 26.9375 8.70345C26.9375 8.84443 26.9519 8.98272 26.9796 9.11743M33.2256 9.11476C33.253 8.98089 33.2672 8.8435 33.2672 8.70345C33.2672 8.562 33.2527 8.42325 33.2248 8.28812" stroke="#C0C0C0" stroke-linecap="round" stroke-linejoin="round"/>
<path d="M28.1914 11.2022C28.4205 11.0783 28.692 10.8563 28.9967 10.5862M31.9795 7.6094C32.2607 7.29503 32.4788 7.02819 32.6039 6.79349M32.0156 6.20168C31.7787 6.3283 31.5064 6.54814 31.1881 6.83321M28.2189 9.80841C27.9453 10.1169 27.7301 10.3821 27.6068 10.613" stroke="#C0C0C0" stroke-linecap="round" stroke-linejoin="round"/>
<path d="M27.6015 10.6201C27.677 10.7344 27.7643 10.8419 27.8635 10.9412C27.9632 11.0408 28.0712 11.1284 28.186 11.2041M32.6007 6.78562C32.5254 6.67164 32.4383 6.56444 32.3393 6.46541C32.2393 6.36538 32.1309 6.27753 32.0156 6.20168" stroke="#C0C0C0" stroke-linecap="round" stroke-linejoin="round"/>
<path d="M29.0156 10.567C29.1813 10.6639 29.3611 10.7395 29.5511 10.7897M31.1901 6.83835C31.0256 6.74231 30.8472 6.66743 30.6586 6.61743" stroke="#C0C0C0" stroke-linecap="round" stroke-linejoin="round"/>
<path d="M30.6521 10.7901C30.8378 10.7415 31.0183 10.6678 31.1882 10.5689M29.5532 6.61592C29.3689 6.66436 29.1898 6.73757 29.0212 6.83553" stroke="#C0C0C0" stroke-linecap="round" stroke-linejoin="round"/>
<path d="M31.9652 9.79077C32.0621 9.62509 32.1376 9.44533 32.1879 9.25529M28.2365 7.61626C28.1405 7.78082 28.0656 7.95923 28.0156 8.14777" stroke="#C0C0C0" stroke-linecap="round" stroke-linejoin="round"/>
<path d="M32.1873 8.15476C32.1387 7.96904 32.065 7.78854 31.9661 7.61864M28.0131 9.25369C28.0616 9.43795 28.1348 9.61706 28.2328 9.78573" stroke="#C0C0C0" stroke-linecap="round" stroke-linejoin="round"/>
<path d="M5.15759 26.157C5.08322 26.4066 5.0482 26.7555 5.0238 27.1619M5.01953 31.376C5.04298 31.7971 5.0774 32.1401 5.15495 32.3944M5.98936 32.397C6.06737 32.1399 6.10444 31.7919 6.12793 31.3653M6.12371 27.1619C6.09904 26.7504 6.06375 26.4106 5.98759 26.1602" stroke="#C0C0C0" stroke-linecap="round" stroke-linejoin="round"/>
<path d="M5.98641 26.1516C5.85224 26.1241 5.71452 26.1099 5.57414 26.1099C5.43315 26.1099 5.29486 26.1243 5.16016 26.152M5.16283 32.398C5.29669 32.4253 5.43409 32.4395 5.57414 32.4395C5.71559 32.4395 5.85434 32.425 5.98947 32.3972" stroke="#C0C0C0" stroke-linecap="round" stroke-linejoin="round"/>
<path d="M3.07809 27.3643C3.20201 27.5934 3.42397 27.8649 3.69411 28.1695M6.67087 31.1523C6.98524 31.4335 7.25208 31.6517 7.48678 31.7767M8.0786 31.1885C7.95197 30.9515 7.73213 30.6793 7.44706 30.361M4.47186 27.3918C4.1634 27.1182 3.89821 26.9029 3.66729 26.7797" stroke="#C0C0C0" stroke-linecap="round" stroke-linejoin="round"/>
<path d="M3.65674 26.7749C3.54245 26.8503 3.43497 26.9376 3.3357 27.0369C3.23601 27.1366 3.14841 27.2445 3.07274 27.3594M7.49123 31.7741C7.60522 31.6987 7.71242 31.6116 7.81145 31.5126C7.91147 31.4126 7.99933 31.3042 8.07517 31.189" stroke="#C0C0C0" stroke-linecap="round" stroke-linejoin="round"/>
<path d="M2.45703 29.6908C2.70665 29.7652 3.05556 29.8002 3.46199 29.8246M7.67605 29.8289C8.09718 29.8054 8.44014 29.771 8.6945 29.6934M8.69705 28.859C8.43996 28.781 8.09198 28.7439 7.66535 28.7205M3.46199 28.7247C3.05043 28.7493 2.7107 28.7846 2.46028 28.8608" stroke="#C0C0C0" stroke-linecap="round" stroke-linejoin="round"/>
<path d="M2.4519 28.8625C2.42444 28.9966 2.41016 29.1344 2.41016 29.2747C2.41016 29.4157 2.42456 29.554 2.45225 29.6887M8.69828 29.686C8.72561 29.5522 8.73983 29.4148 8.73983 29.2747C8.73983 29.1333 8.72533 28.9945 8.69745 28.8594" stroke="#C0C0C0" stroke-linecap="round" stroke-linejoin="round"/>
<path d="M3.66409 31.7735C3.89319 31.6496 4.16467 31.4276 4.46931 31.1575M7.45212 28.1807C7.73333 27.8663 7.9515 27.5995 8.07652 27.3648M7.4883 26.773C7.25135 26.8996 6.97909 27.1194 6.6608 27.4045M3.69156 30.3797C3.41798 30.6882 3.20272 30.9534 3.0795 31.1843" stroke="#C0C0C0" stroke-linecap="round" stroke-linejoin="round"/>
<path d="M3.07418 31.1916C3.14963 31.3059 3.23691 31.4134 3.33618 31.5127C3.43587 31.6124 3.54384 31.7 3.65867 31.7757M8.07339 27.3572C7.99806 27.2432 7.91096 27.136 7.81193 27.0369C7.71191 26.9369 7.60355 26.8491 7.48828 26.7732" stroke="#C0C0C0" stroke-linecap="round" stroke-linejoin="round"/>
<path d="M4.48828 31.1385C4.65396 31.2355 4.83372 31.311 5.02376 31.3612M6.66279 27.4099C6.49824 27.3138 6.31983 27.239 6.13129 27.189" stroke="#C0C0C0" stroke-linecap="round" stroke-linejoin="round"/>
<path d="M6.12478 31.3614C6.3105 31.3128 6.491 31.239 6.6609 31.1402M5.02585 27.1872C4.84159 27.2357 4.66248 27.3089 4.49381 27.4068" stroke="#C0C0C0" stroke-linecap="round" stroke-linejoin="round"/>
<path d="M7.43783 30.3623C7.53479 30.1966 7.6103 30.0169 7.66053 29.8268M3.7092 28.1878C3.61316 28.3523 3.53828 28.5308 3.48828 28.7193" stroke="#C0C0C0" stroke-linecap="round" stroke-linejoin="round"/>
<path d="M7.65994 28.726C7.61135 28.5403 7.53763 28.3598 7.43877 28.1899M3.48579 29.825C3.53424 30.0092 3.60744 30.1883 3.70541 30.357" stroke="#C0C0C0" stroke-linecap="round" stroke-linejoin="round"/>
<path fill-rule="evenodd" clip-rule="evenodd" d="M23.2029 7.69848C27.2484 11.744 27.2484 18.3039 23.2029 22.3494C19.1574 26.3949 12.5975 26.3949 8.55201 22.3494C4.50653 18.3039 4.50653 11.744 8.55201 7.69848C12.5975 3.653 19.1574 3.653 23.2029 7.69848Z" stroke="#C0C0C0" stroke-linecap="round" stroke-linejoin="round"/>
<path fill-rule="evenodd" clip-rule="evenodd" d="M22.3611 8.53768C25.9431 12.1197 25.9431 17.9281 22.3611 21.5102C18.7791 25.0922 12.9706 25.0922 9.38859 21.5102C5.80656 17.9281 5.80656 12.1197 9.38859 8.53768C12.9706 4.95565 18.7791 4.95565 22.3611 8.53768Z" stroke="#C0C0C0" stroke-linecap="round" stroke-linejoin="round"/>
<path d="M22.2327 23.1594L23.4119 24.3387C23.5664 24.4932 23.8169 24.4932 23.9714 24.3387L23.98 24.3302C24.1345 24.1757 24.3849 24.1757 24.5394 24.3302L24.8624 24.6531C25.0169 24.8076 25.0169 25.0581 24.8624 25.2126L24.293 25.7819C24.1385 25.9364 24.1385 26.1869 24.293 26.3414L32.9136 34.9619C33.2226 35.2709 33.7235 35.2709 34.0325 34.9619L35.1053 33.8891" stroke="#C0C0C0" stroke-linecap="round" stroke-linejoin="round"/>
<path d="M24.1423 21.2502L25.3216 22.4295C25.4761 22.584 25.4761 22.8345 25.3216 22.989L25.3131 22.9975C25.1586 23.152 25.1586 23.4025 25.3131 23.557L25.636 23.8799C25.7905 24.0344 26.041 24.0344 26.1955 23.8799L26.7648 23.3106C26.9193 23.1561 27.1698 23.1561 27.3243 23.3106L35.9448 31.9312C36.2538 32.2402 36.2538 32.7411 35.9448 33.0501L34.8174 34.1775" stroke="#C0C0C0" stroke-linecap="round" stroke-linejoin="round"/>
<path d="M35.7412 34.022C35.7412 33.5304 35.3426 33.1319 34.851 33.1319C34.3595 33.1319 33.9609 33.5304 33.9609 34.022C33.9609 34.5136 34.3595 34.9121 34.851 34.9121C35.3426 34.9121 35.7412 34.5136 35.7412 34.022Z" fill="#292929" stroke="white" stroke-width="1.5"/>
<path d="M36.0377 34.0219C36.0377 33.3665 35.5063 32.8351 34.8509 32.8351C34.1954 32.8351 33.6641 33.3665 33.6641 34.0219C33.6641 34.6774 34.1954 35.2087 34.8509 35.2087C35.5063 35.2087 36.0377 34.6774 36.0377 34.0219Z" stroke="white"/>
<path d="M6.46381 29.2749C6.46381 28.7833 6.0653 28.3848 5.5737 28.3848C5.08211 28.3848 4.68359 28.7833 4.68359 29.2749C4.68359 29.7665 5.08211 30.165 5.5737 30.165C6.0653 30.165 6.46381 29.7665 6.46381 29.2749Z" fill="#292929" stroke="white" stroke-width="1.5"/>
<path d="M6.76035 29.2749C6.76035 28.6194 6.22899 28.088 5.57353 28.088C4.91807 28.088 4.38672 28.6194 4.38672 29.2749C4.38672 29.9303 4.91807 30.4617 5.57353 30.4617C6.22899 30.4617 6.76035 29.9303 6.76035 29.2749Z" stroke="white"/>
<path d="M30.9951 8.7034C30.9951 8.2118 30.5965 7.81329 30.105 7.81329C29.6134 7.81329 29.2148 8.2118 29.2148 8.7034C29.2148 9.19499 29.6134 9.59351 30.105 9.59351C30.5965 9.59351 30.9951 9.19499 30.9951 8.7034Z" fill="#292929" stroke="white" stroke-width="1.5"/>
<path d="M31.2916 8.70332C31.2916 8.04786 30.7602 7.51651 30.1048 7.51651C29.4493 7.51651 28.918 8.04786 28.918 8.70332C28.918 9.35878 29.4493 9.89014 30.1048 9.89014C30.7602 9.89014 31.2916 9.35878 31.2916 8.70332Z" stroke="white"/>
<path d="M16.7529 15.033C16.7529 14.5414 16.3544 14.1429 15.8628 14.1429C15.3712 14.1429 14.9727 14.5414 14.9727 15.033C14.9727 15.5246 15.3712 15.9231 15.8628 15.9231C16.3544 15.9231 16.7529 15.5246 16.7529 15.033Z" fill="#292929" stroke="white" stroke-width="1.5"/>
<path d="M17.0494 15.0329C17.0494 14.3775 16.5181 13.8461 15.8626 13.8461C15.2071 13.8461 14.6758 14.3775 14.6758 15.0329C14.6758 15.6884 15.2071 16.2197 15.8626 16.2197C16.5181 16.2197 17.0494 15.6884 17.0494 15.0329Z" stroke="white"/>
</g>
<defs>
<clipPath id="clip0_165_7246">
<rect width="36" height="36" fill="white" transform="translate(0.828125)"/>
</clipPath>
</defs>
</svg>
