<svg width="35" height="36" viewBox="0 0 35 36" fill="none" xmlns="http://www.w3.org/2000/svg">
<g style="mix-blend-mode:difference" clip-path="url(#clip0_165_7352)">
<path d="M21.5379 28.852C20.5729 30.0739 19.3491 30.6849 17.8664 30.6849C16.3837 30.6849 15.1079 30.0512 14.0391 28.7839" stroke="#C0C0C0" stroke-linecap="round" stroke-linejoin="round"/>
<path d="M14.0391 28.7839C14.5457 29.0956 15.1147 29.1934 15.7458 29.0773C16.377 28.9611 17.0713 28.9628 17.8288 29.0821" stroke="#C0C0C0" stroke-linecap="round" stroke-linejoin="round"/>
<path d="M21.5372 28.8521C21.0306 29.1184 20.4616 29.1935 19.8305 29.0773C19.1993 28.9612 18.5319 28.9629 17.8281 29.0822" stroke="#C0C0C0" stroke-linecap="round" stroke-linejoin="round"/>
<path d="M14.0391 28.7773C15.1201 28.2284 15.6606 27.9539 15.6606 27.9539C15.6606 27.9539 16.3537 27.3654 17.4583 27.9539C17.4583 27.9539 17.7464 28.0847 18.0285 27.9539" stroke="#C0C0C0" stroke-linecap="round" stroke-linejoin="round"/>
<path d="M21.5407 28.852C20.4396 28.2533 19.889 27.9539 19.889 27.9539C19.889 27.9539 19.1358 27.3654 18.0312 27.9539" stroke="#C0C0C0" stroke-linecap="round" stroke-linejoin="round"/>
<path d="M29.3695 18.4049C29.8994 17.6045 30.6686 17.83 31.2671 18.4049C32.0215 19.2081 31.5919 21.1512 31.3991 21.7711C31.2063 22.3909 30.5875 23.1064 30.2748 23.5237C29.9621 23.9409 29.9621 25.1934 29.3695 25.3882C28.9744 25.518 28.6069 25.4814 28.2672 25.2781C27.6117 28.1325 26.3491 30.4186 24.4794 32.1365C21.6748 34.7133 21.0265 35.4528 17.7188 35.4528" stroke="#C0C0C0" stroke-linecap="round" stroke-linejoin="round"/>
<path d="M29.3717 18.4049C30.2684 15.8732 30.5535 13.5285 30.227 11.3708C29.8065 8.59249 29.2709 6.83224 27.1066 4.18571C25.3157 1.99581 22.6723 0.449951 17.6719 0.449951" stroke="#C0C0C0" stroke-linecap="round" stroke-linejoin="round"/>
<path d="M6.23718 18.4049C5.70727 17.6045 4.93807 17.83 4.33957 18.4049C3.58515 19.2081 4.01469 21.1512 4.20751 21.7711C4.40033 22.3909 5.0191 23.1064 5.33182 23.5237C5.64454 23.9409 5.64454 25.1934 6.23718 25.3882C6.63227 25.518 6.9997 25.4814 7.33946 25.2781C7.99492 28.1325 9.25751 30.4186 11.1272 32.1365C13.9318 34.7133 14.363 35.4528 17.6708 35.4528" stroke="#C0C0C0" stroke-linecap="round" stroke-linejoin="round"/>
<path d="M6.23598 18.405C5.33929 15.8732 5.05422 13.5285 5.38075 11.3708C5.80119 8.59249 6.3368 6.83224 8.50113 4.18571C10.292 1.99581 12.6692 0.449951 17.6696 0.449951" stroke="#C0C0C0" stroke-linecap="round" stroke-linejoin="round"/>
<path fill-rule="evenodd" clip-rule="evenodd" d="M12.4609 26.1001H23.1484V32.0851H12.4609V26.1001Z" stroke="#C0C0C0" stroke-linecap="round" stroke-linejoin="round"/>
<path fill-rule="evenodd" clip-rule="evenodd" d="M9.03906 14.5576H26.1391V20.9701H9.03906V14.5576Z" stroke="#C0C0C0" stroke-linecap="round" stroke-linejoin="round"/>
<path fill-rule="evenodd" clip-rule="evenodd" d="M15.4531 18.405H19.7281V24.8175H15.4531V18.405Z" stroke="#C0C0C0" stroke-linecap="round" stroke-linejoin="round"/>
<path fill-rule="evenodd" clip-rule="evenodd" d="M2.62891 6.43506H32.9814V33.7951H2.62891V6.43506Z" stroke="#C0C0C0" stroke-linecap="round" stroke-linejoin="round"/>
<path d="M27.0406 20.7001C27.0406 20.141 26.5873 19.6876 26.0281 19.6876C25.4689 19.6876 25.0156 20.141 25.0156 20.7001C25.0156 21.2593 25.4689 21.7126 26.0281 21.7126C26.5873 21.7126 27.0406 21.2593 27.0406 20.7001Z" fill="#292929" stroke="white" stroke-width="1.5"/>
<path d="M27.3797 20.7C27.3797 19.9545 26.7753 19.35 26.0297 19.35C25.2841 19.35 24.6797 19.9545 24.6797 20.7C24.6797 21.4456 25.2841 22.05 26.0297 22.05C26.7753 22.05 27.3797 21.4456 27.3797 20.7Z" stroke="white"/>
<path d="M16.6891 18.4501C16.6891 17.891 16.2358 17.4376 15.6766 17.4376C15.1174 17.4376 14.6641 17.891 14.6641 18.4501C14.6641 19.0093 15.1174 19.4626 15.6766 19.4626C16.2358 19.4626 16.6891 19.0093 16.6891 18.4501Z" fill="#292929" stroke="white" stroke-width="1.5"/>
<path d="M17.0281 18.45C17.0281 17.7045 16.4237 17.1 15.6781 17.1C14.9325 17.1 14.3281 17.7045 14.3281 18.45C14.3281 19.1956 14.9325 19.8 15.6781 19.8C16.4237 19.8 17.0281 19.1956 17.0281 18.45Z" stroke="white"/>
<path d="M33.7906 33.7502C33.7906 33.191 33.3373 32.7377 32.7781 32.7377C32.2189 32.7377 31.7656 33.191 31.7656 33.7502C31.7656 34.3094 32.2189 34.7627 32.7781 34.7627C33.3373 34.7627 33.7906 34.3094 33.7906 33.7502Z" fill="#292929" stroke="white" stroke-width="1.5"/>
<path d="M34.1297 33.7501C34.1297 33.0045 33.5253 32.4001 32.7797 32.4001C32.0341 32.4001 31.4297 33.0045 31.4297 33.7501C31.4297 34.4957 32.0341 35.1001 32.7797 35.1001C33.5253 35.1001 34.1297 34.4957 34.1297 33.7501Z" stroke="white"/>
<path d="M3.63828 6.3C3.63828 5.74081 3.18497 5.2875 2.62578 5.2875C2.06659 5.2875 1.61328 5.74081 1.61328 6.3C1.61328 6.85919 2.06659 7.3125 2.62578 7.3125C3.18497 7.3125 3.63828 6.85919 3.63828 6.3Z" fill="#292929" stroke="white" stroke-width="1.5"/>
<path d="M3.97734 6.2999C3.97734 5.55432 3.37293 4.9499 2.62734 4.9499C1.88176 4.9499 1.27734 5.55432 1.27734 6.2999C1.27734 7.04549 1.88176 7.6499 2.62734 7.6499C3.37293 7.6499 3.97734 7.04549 3.97734 6.2999Z" stroke="white"/>
</g>
<defs>
<clipPath id="clip0_165_7352">
<rect width="33.75" height="36" fill="white" transform="translate(0.828125)"/>
</clipPath>
</defs>
</svg>
