<svg width="39" height="36" viewBox="0 0 39 36" fill="none" xmlns="http://www.w3.org/2000/svg">
<g style="mix-blend-mode:difference" clip-path="url(#clip0_165_7110)">
<path d="M12.3418 9.4944C12.8808 9.4944 17.3032 7.04738 17.3032 4.17682C17.3032 2.50928 16.205 1.15747 14.713 1.15747C13.8018 1.15747 13.0802 1.63146 12.5909 2.40384" stroke="#C0C0C0" stroke-linecap="round" stroke-linejoin="round"/>
<path d="M12.4289 9.4944C11.8898 9.4944 7.46745 7.04738 7.46745 4.17682C7.46745 2.50928 8.67697 1.15747 10.169 1.15747C11.0802 1.15747 12.0576 1.59824 12.5469 2.37062" stroke="#C0C0C0" stroke-linecap="round" stroke-linejoin="round"/>
<path fill-rule="evenodd" clip-rule="evenodd" d="M20.2374 34.5427H30.2373C30.2373 34.5427 30.3071 32.7175 29.3677 31.0149C28.7042 29.8123 27.837 29.2686 26.7026 28.8637C25.5632 28.457 24.1542 28.1903 22.4113 27.5367V24.9281C22.4113 24.9281 23.7156 24.0585 23.7156 22.3194C24.1504 22.3194 24.5852 20.5803 23.7156 20.1455C23.7156 19.8873 24.8808 17.7099 24.5852 16.2325C24.1504 14.0586 18.0635 14.0586 17.6288 15.7977C15.0201 15.7977 16.7592 19.7925 16.7592 20.1455C15.8896 20.5803 16.3244 22.3194 16.7592 22.3194C16.7592 24.0585 18.0635 24.9281 18.0635 24.9281V27.5367C16.3454 28.181 15.0894 28.4623 14.0299 28.8662C12.9445 29.2799 12.0654 29.8221 11.1071 31.0149C9.88917 32.5309 10.2375 34.5427 10.2375 34.5427H20.2374Z" stroke="#C0C0C0" stroke-linecap="round" stroke-linejoin="round"/>
<path d="M36.9248 23.5257C37.7516 23.5257 38.4219 22.8554 38.4219 22.0286C38.4219 21.2018 37.7516 20.5315 36.9248 20.5315C36.098 20.5315 35.4277 21.2018 35.4277 22.0286C35.4277 22.8554 36.098 23.5257 36.9248 23.5257Z" stroke="#C0C0C0" stroke-linecap="round" stroke-linejoin="round"/>
<path d="M36.9248 17.5374C37.7516 17.5374 38.4219 16.8671 38.4219 16.0403C38.4219 15.2135 37.7516 14.5432 36.9248 14.5432C36.098 14.5432 35.4277 15.2135 35.4277 16.0403C35.4277 16.8671 36.098 17.5374 36.9248 17.5374Z" stroke="#C0C0C0" stroke-linecap="round" stroke-linejoin="round"/>
<path d="M35.6275 16.7388L32.6925 18.3398M32.627 19.8313L35.5879 21.4663" stroke="#C0C0C0" stroke-linecap="round" stroke-linejoin="round"/>
<path d="M6.12801 23.9535C8.84471 23.9535 11.047 21.7512 11.047 19.0345C11.047 16.3178 8.84471 14.1155 6.12801 14.1155C3.41131 14.1155 1.20898 16.3178 1.20898 19.0345C1.20898 21.7512 3.41131 23.9535 6.12801 23.9535Z" stroke="#C0C0C0" stroke-linecap="round" stroke-linejoin="round"/>
<path d="M6.19336 16.6357V21.1622" stroke="#C0C0C0" stroke-linecap="round" stroke-linejoin="round"/>
<path d="M3.92969 18.8989H8.4561" stroke="#C0C0C0" stroke-linecap="round" stroke-linejoin="round"/>
<path d="M6.12801 23.9535C8.84471 23.9535 11.047 21.7512 11.047 19.0345C11.047 16.3178 8.84471 14.1155 6.12801 14.1155C3.41131 14.1155 1.20898 16.3178 1.20898 19.0345C1.20898 21.7512 3.41131 23.9535 6.12801 23.9535Z" stroke="#C0C0C0" stroke-linecap="round" stroke-linejoin="round"/>
<path d="M28.5859 3.7288C29.0431 3.7288 29.401 3.7288 29.6597 3.7288C30.0478 3.7288 30.3461 3.55011 30.4766 3.04662C30.6071 2.54312 30.9512 1.42303 31.0725 0.904409C31.1938 0.38579 31.6551 0.226074 31.9133 0.226074C32.1715 0.226074 32.7665 0.370967 32.7665 1.48196C32.7665 2.09049 32.7665 2.70461 32.7665 3.32432C32.7665 3.54771 32.9476 3.7288 33.1709 3.7288H33.8908C34.5118 3.7288 35.0152 4.23221 35.0152 4.85319V7.91466C35.0152 8.58485 34.4719 9.12814 33.8018 9.12814C32.6934 9.12814 31.585 9.12814 30.4766 9.12814C30.085 9.12814 29.7979 8.45632 29.3351 8.45632C29.0266 8.45632 28.7768 8.45632 28.5859 8.45632" stroke="#C0C0C0" stroke-linecap="round" stroke-linejoin="round"/>
<path fill-rule="evenodd" clip-rule="evenodd" d="M25.1797 2.99414H28.5844V9.11861H25.1797V2.99414Z" stroke="#C0C0C0" stroke-linecap="round" stroke-linejoin="round"/>
<path d="M13.4452 9.30327C13.4452 8.80063 13.0378 8.39315 12.5351 8.39315C12.0325 8.39315 11.625 8.80063 11.625 9.30327C11.625 9.80591 12.0325 10.2134 12.5351 10.2134C13.0378 10.2134 13.4452 9.80591 13.4452 9.30327Z" fill="#292929" stroke="white" stroke-width="1.5"/>
<path d="M13.7492 9.30336C13.7492 8.63317 13.2059 8.08988 12.5357 8.08988C11.8656 8.08988 11.3223 8.63317 11.3223 9.30336C11.3223 9.97355 11.8656 10.5168 12.5357 10.5168C13.2059 10.5168 13.7492 9.97355 13.7492 9.30336Z" stroke="white"/>
<path d="M36.0956 6.47172C36.0956 5.96908 35.6881 5.56161 35.1855 5.56161C34.6829 5.56161 34.2754 5.96908 34.2754 6.47172C34.2754 6.97436 34.6829 7.38184 35.1855 7.38184C35.6881 7.38184 36.0956 6.97436 36.0956 6.47172Z" fill="#292929" stroke="white" stroke-width="1.5"/>
<path d="M36.3996 6.47182C36.3996 5.80163 35.8563 5.25834 35.1861 5.25834C34.516 5.25834 33.9727 5.80163 33.9727 6.47182C33.9727 7.14201 34.516 7.6853 35.1861 7.6853C35.8563 7.6853 36.3996 7.14201 36.3996 6.47182Z" stroke="white"/>
<path d="M32.455 19.011C32.455 18.5084 32.0475 18.1009 31.5449 18.1009C31.0422 18.1009 30.6348 18.5084 30.6348 19.011C30.6348 19.5137 31.0422 19.9211 31.5449 19.9211C32.0475 19.9211 32.455 19.5137 32.455 19.011Z" fill="#292929" stroke="white" stroke-width="1.5"/>
<path d="M32.759 19.0111C32.759 18.3409 32.2157 17.7976 31.5455 17.7976C30.8753 17.7976 30.332 18.3409 30.332 19.0111C30.332 19.6813 30.8753 20.2246 31.5455 20.2246C32.2157 20.2246 32.759 19.6813 32.759 19.0111Z" stroke="white"/>
<path d="M3.73624 22.6517C3.73624 22.149 3.32877 21.7415 2.82613 21.7415C2.32349 21.7415 1.91602 22.149 1.91602 22.6517C1.91602 23.1543 2.32349 23.5618 2.82613 23.5618C3.32877 23.5618 3.73624 23.1543 3.73624 22.6517Z" fill="#292929" stroke="white" stroke-width="1.5"/>
<path d="M4.04025 22.6518C4.04025 21.9816 3.49695 21.4383 2.82676 21.4383C2.15658 21.4383 1.61328 21.9816 1.61328 22.6518C1.61328 23.3219 2.15658 23.8652 2.82676 23.8652C3.49695 23.8652 4.04025 23.3219 4.04025 22.6518Z" stroke="white"/>
<path d="M21.1308 34.5843C21.1308 34.0816 20.7233 33.6742 20.2207 33.6742C19.718 33.6742 19.3105 34.0816 19.3105 34.5843C19.3105 35.0869 19.718 35.4944 20.2207 35.4944C20.7233 35.4944 21.1308 35.0869 21.1308 34.5843Z" fill="#292929" stroke="white" stroke-width="1.5"/>
<path d="M21.4348 34.5844C21.4348 33.9142 20.8915 33.3709 20.2213 33.3709C19.5511 33.3709 19.0078 33.9142 19.0078 34.5844C19.0078 35.2546 19.5511 35.7979 20.2213 35.7979C20.8915 35.7979 21.4348 35.2546 21.4348 34.5844Z" stroke="white"/>
</g>
<defs>
<clipPath id="clip0_165_7110">
<rect width="38.0225" height="36" fill="white" transform="translate(0.804688)"/>
</clipPath>
</defs>
</svg>
