<svg width="27" height="36" viewBox="0 0 27 36" fill="none" xmlns="http://www.w3.org/2000/svg">
<g style="mix-blend-mode:difference" clip-path="url(#clip0_165_7428)">
<path fill-rule="evenodd" clip-rule="evenodd" d="M8.52055 17.0206C7.61821 17.0206 6.88672 16.2891 6.88672 15.3868C6.88672 14.4844 7.61821 13.7529 8.52055 13.7529C9.42289 13.7529 10.1544 14.4844 10.1544 15.3868C10.1544 16.2891 9.42289 17.0206 8.52055 17.0206Z" stroke="#C0C0C0" stroke-linecap="round" stroke-linejoin="round"/>
<path fill-rule="evenodd" clip-rule="evenodd" d="M4.08325 23.2485C4.02983 23.5248 4.03084 24.0402 4.42728 24.196C4.82372 24.3518 5.25775 24.0035 5.39819 23.7297L6.38785 21.5684L6.37607 31.2362C6.37565 31.6212 6.67174 31.9372 7.04875 31.9682L7.10972 31.9707C7.52343 31.9707 7.8667 31.6507 7.89576 31.238L8.30406 25.4393H8.78615L9.25402 31.2386C9.28738 31.6521 9.63269 31.9707 10.0475 31.9707C10.4532 31.9707 10.782 31.6419 10.782 31.2362L10.782 21.4876C11.3707 22.8124 11.7087 23.5598 11.7959 23.7297C11.9363 24.0035 12.3703 24.3518 12.7668 24.196C13.1632 24.0402 13.1642 23.5248 13.1108 23.2485C12.0204 20.618 11.2232 19.0745 10.7192 18.6179C9.96311 17.933 9.31308 17.8108 8.57863 17.8108C7.91292 17.8108 7.32847 17.9307 6.5815 18.5134C5.83452 19.0961 4.13312 22.9905 4.08325 23.2485Z" stroke="#C0C0C0" stroke-linecap="round" stroke-linejoin="round"/>
<path fill-rule="evenodd" clip-rule="evenodd" d="M25.9668 3.9285C25.9668 3.9285 22.9552 7.45245 19.2393 7.45245C15.5233 7.45245 12.5117 3.9285 12.5117 3.9285C12.5117 3.9285 15.5233 0.404541 19.2393 0.404541C22.9552 0.404541 25.9668 3.9285 25.9668 3.9285Z" stroke="#C0C0C0" stroke-linecap="round" stroke-linejoin="round"/>
<path fill-rule="evenodd" clip-rule="evenodd" d="M21.6413 3.76818C21.6413 5.09567 20.5655 6.17087 19.2386 6.17087C17.9117 6.17087 16.8359 5.09567 16.8359 3.76818C16.8359 2.44069 17.9117 1.36548 19.2386 1.36548C20.5655 1.36548 21.6413 2.44069 21.6413 3.76818Z" stroke="#C0C0C0" stroke-linecap="round" stroke-linejoin="round"/>
<path d="M2.18762 11.7952C2.62994 11.7952 2.98852 11.4366 2.98852 10.9943C2.98852 10.5519 2.62994 10.1934 2.18762 10.1934C1.74529 10.1934 1.38672 10.5519 1.38672 10.9943C1.38672 11.4366 1.74529 11.7952 2.18762 11.7952Z" stroke="#C0C0C0" stroke-linecap="round" stroke-linejoin="round"/>
<path d="M14.9142 11.7952C15.3565 11.7952 15.7151 11.4366 15.7151 10.9943C15.7151 10.5519 15.3565 10.1934 14.9142 10.1934C14.4719 10.1934 14.1133 10.5519 14.1133 10.9943C14.1133 11.4366 14.4719 11.7952 14.9142 11.7952Z" stroke="#C0C0C0" stroke-linecap="round" stroke-linejoin="round"/>
<path d="M2.18762 35.2881C2.62994 35.2881 2.98852 34.9295 2.98852 34.4872C2.98852 34.0449 2.62994 33.6863 2.18762 33.6863C1.74529 33.6863 1.38672 34.0449 1.38672 34.4872C1.38672 34.9295 1.74529 35.2881 2.18762 35.2881Z" stroke="#C0C0C0" stroke-linecap="round" stroke-linejoin="round"/>
<path d="M14.9142 35.2881C15.3565 35.2881 15.7151 34.9295 15.7151 34.4872C15.7151 34.0449 15.3565 33.6863 14.9142 33.6863C14.4719 33.6863 14.1133 34.0449 14.1133 34.4872C14.1133 34.9295 14.4719 35.2881 14.9142 35.2881Z" stroke="#C0C0C0" stroke-linecap="round" stroke-linejoin="round"/>
<path d="M2.98828 10.9941H14.1119" stroke="#C0C0C0" stroke-linecap="round" stroke-linejoin="round"/>
<path d="M14.1119 34.4873H2.98828" stroke="#C0C0C0" stroke-linecap="round" stroke-linejoin="round"/>
<path d="M2.1875 11.7952V33.6864" stroke="#C0C0C0" stroke-linecap="round" stroke-linejoin="round"/>
<path d="M14.9141 11.7952V33.6864" stroke="#C0C0C0" stroke-linecap="round" stroke-linejoin="round"/>
<path d="M17.2266 22.8741H19.4691V9.15063" stroke="#C0C0C0" stroke-linecap="round" stroke-linejoin="round"/>
<path d="M18.5625 10.1999L19.4958 8.70215L20.3857 10.1999" stroke="#C0C0C0" stroke-linecap="round" stroke-linejoin="round"/>
<path d="M18.0993 23.8502L16.6016 22.8839L18.0993 21.959" stroke="#C0C0C0" stroke-linecap="round" stroke-linejoin="round"/>
<path d="M3.10929 10.9212C3.10929 10.4185 2.70182 10.0111 2.19917 10.0111C1.69653 10.0111 1.28906 10.4185 1.28906 10.9212C1.28906 11.4238 1.69653 11.8313 2.19917 11.8313C2.70182 11.8313 3.10929 11.4238 3.10929 10.9212Z" fill="#292929" stroke="white" stroke-width="1.5"/>
<path d="M3.41134 10.9213C3.41134 10.2511 2.86805 9.7078 2.19786 9.7078C1.52767 9.7078 0.984375 10.2511 0.984375 10.9213C0.984375 11.5915 1.52767 12.1348 2.19786 12.1348C2.86805 12.1348 3.41134 11.5915 3.41134 10.9213Z" stroke="white"/>
<path d="M16.0507 34.3819C16.0507 33.8792 15.6432 33.4718 15.1406 33.4718C14.6379 33.4718 14.2305 33.8792 14.2305 34.3819C14.2305 34.8845 14.6379 35.292 15.1406 35.292C15.6432 35.292 16.0507 34.8845 16.0507 34.3819Z" fill="#292929" stroke="white" stroke-width="1.5"/>
<path d="M16.3527 34.382C16.3527 33.7118 15.8095 33.1685 15.1393 33.1685C14.4691 33.1685 13.9258 33.7118 13.9258 34.382C13.9258 35.0522 14.4691 35.5955 15.1393 35.5955C15.8095 35.5955 16.3527 35.0522 16.3527 34.382Z" stroke="white"/>
<path d="M20.1601 3.68828C20.1601 3.18564 19.7526 2.77816 19.25 2.77816C18.7473 2.77816 18.3398 3.18564 18.3398 3.68828C18.3398 4.19092 18.7473 4.59839 19.25 4.59839C19.7526 4.59839 20.1601 4.19092 20.1601 3.68828Z" fill="#292929" stroke="white" stroke-width="1.5"/>
<path d="M20.4621 3.68837C20.4621 3.01818 19.9188 2.47489 19.2486 2.47489C18.5785 2.47489 18.0352 3.01818 18.0352 3.68837C18.0352 4.35856 18.5785 4.90186 19.2486 4.90186C19.9188 4.90186 20.4621 4.35856 20.4621 3.68837Z" stroke="white"/>
</g>
<defs>
<clipPath id="clip0_165_7428">
<rect width="25.8876" height="36" fill="white" transform="translate(0.578125)"/>
</clipPath>
</defs>
</svg>
