<svg width="31" height="36" viewBox="0 0 31 36" fill="none" xmlns="http://www.w3.org/2000/svg">
<g style="mix-blend-mode:difference" clip-path="url(#clip0_165_5916)">
<path d="M27.215 7.94884C27.1732 7.84046 27.1297 7.73203 27.0844 7.62356C24.751 2.03402 17.3756 -1.98958 9.87643 2.03402C8.52107 2.76123 7.3529 3.61594 6.37192 4.59816M1.9782 16.8549C0.724101 20.6119 0.306674 22.8274 0.725916 23.5014C1.20053 24.2644 2.20096 24.4785 3.72721 24.1437V27.2538C3.75047 29.4864 4.89883 30.6027 7.17228 30.6027C10.5825 30.6027 10.3695 30.6384 10.8044 30.6436C12.2724 30.6609 13.0527 31.2903 13.4638 33.2437C13.558 33.6916 13.9176 34.0583 14.5427 34.3439L26.176 34.3424L24.6354 25.0012C24.3432 23.173 24.6783 21.6703 25.6407 20.4933C26.7042 19.1928 28.2504 15.858 28.0585 11.9574" stroke="#C0C0C0" stroke-linecap="round" stroke-linejoin="round"/>
<path d="M19.2753 34.3819C19.2753 33.8792 18.8678 33.4718 18.3652 33.4718C17.8625 33.4718 17.4551 33.8792 17.4551 34.3819C17.4551 34.8845 17.8625 35.292 18.3652 35.292C18.8678 35.292 19.2753 34.8845 19.2753 34.3819Z" fill="#292929" stroke="white" stroke-width="1.5"/>
<path d="M19.5793 34.382C19.5793 33.7118 19.036 33.1685 18.3658 33.1685C17.6956 33.1685 17.1523 33.7118 17.1523 34.382C17.1523 35.0522 17.6956 35.5955 18.3658 35.5955C19.036 35.5955 19.5793 35.0522 19.5793 34.382Z" stroke="white"/>
<path d="M4.45117 16.826L10.0416 13.2158V6.89128L4.45117 3.41724" stroke="#C0C0C0" stroke-linecap="round" stroke-linejoin="round"/>
<path d="M13.2676 8.19434C23.0243 8.19434 28.0212 8.19434 28.2582 8.19434C28.6138 8.19434 28.9019 8.49028 28.9019 8.86208C28.9019 9.10995 28.9019 9.4712 28.9019 9.94583" stroke="#C0C0C0" stroke-linecap="round" stroke-linejoin="round"/>
<path d="M13.2969 11.9294C23.0338 11.9294 28.0208 11.9294 28.2579 11.9294C28.6135 11.9294 28.9016 11.6335 28.9016 11.2617C28.9016 11.0138 28.9016 10.5715 28.9016 9.93456" stroke="#C0C0C0" stroke-linecap="round" stroke-linejoin="round"/>
<path d="M22.0075 10.6414C22.2996 10.6414 22.5364 10.4046 22.5364 10.1125C22.5364 9.82032 22.2996 9.5835 22.0075 9.5835C21.7153 9.5835 21.4785 9.82032 21.4785 10.1125C21.4785 10.4046 21.7153 10.6414 22.0075 10.6414Z" stroke="#C0C0C0" stroke-linecap="round" stroke-linejoin="round"/>
<path d="M24.1227 10.6414C24.4148 10.6414 24.6517 10.4046 24.6517 10.1125C24.6517 9.82032 24.4148 9.5835 24.1227 9.5835C23.8306 9.5835 23.5938 9.82032 23.5938 10.1125C23.5938 10.4046 23.8306 10.6414 24.1227 10.6414Z" stroke="#C0C0C0" stroke-linecap="round" stroke-linejoin="round"/>
<path d="M26.2379 10.6414C26.5301 10.6414 26.7669 10.4046 26.7669 10.1125C26.7669 9.82032 26.5301 9.5835 26.2379 9.5835C25.9458 9.5835 25.709 9.82032 25.709 10.1125C25.709 10.4046 25.9458 10.6414 26.2379 10.6414Z" stroke="#C0C0C0" stroke-linecap="round" stroke-linejoin="round"/>
<path d="M4.39413 3.39233C3.19272 3.39233 2.39178 3.39233 1.99132 3.39233C1.39063 3.39233 1.39062 3.78108 1.39062 4.18348C1.39062 4.58589 1.39062 15.6551 1.39062 16.1825C1.39062 16.7099 1.72552 16.8462 2.09897 16.8462C2.34794 16.8462 3.10116 16.8462 4.35863 16.8462" stroke="#C0C0C0" stroke-linecap="round" stroke-linejoin="round"/>
<path d="M10.0566 6.90527C10.7485 6.90527 12.2024 7.21808 13.2298 8.2068C13.2557 9.66457 13.2298 11.5171 13.2298 12.0483C12.831 12.4583 11.6522 13.2542 10.0566 13.221" stroke="#C0C0C0" stroke-linecap="round" stroke-linejoin="round"/>
<path d="M7.14054 4.8538C7.14054 4.35116 6.73307 3.94369 6.23042 3.94369C5.72778 3.94369 5.32031 4.35116 5.32031 4.8538C5.32031 5.35644 5.72778 5.76392 6.23042 5.76392C6.73307 5.76392 7.14054 5.35644 7.14054 4.8538Z" fill="#292929" stroke="white" stroke-width="1.5"/>
<path d="M7.44454 4.8539C7.44454 4.18371 6.90125 3.64042 6.23106 3.64042C5.56087 3.64042 5.01758 4.18371 5.01758 4.8539C5.01758 5.52409 5.56087 6.06738 6.23106 6.06738C6.90125 6.06738 7.44454 5.52409 7.44454 4.8539Z" stroke="white"/>
<path d="M29.7929 10.1123C29.7929 9.60971 29.3854 9.20224 28.8828 9.20224C28.3801 9.20224 27.9727 9.60971 27.9727 10.1123C27.9727 10.615 28.3801 11.0225 28.8828 11.0225C29.3854 11.0225 29.7929 10.615 29.7929 10.1123Z" fill="#292929" stroke="white" stroke-width="1.5"/>
<path d="M30.0969 10.1124C30.0969 9.44226 29.5536 8.89896 28.8834 8.89896C28.2132 8.89896 27.6699 9.44226 27.6699 10.1124C27.6699 10.7826 28.2132 11.3259 28.8834 11.3259C29.5536 11.3259 30.0969 10.7826 30.0969 10.1124Z" stroke="white"/>
<path d="M7.14054 15.7752C7.14054 15.2725 6.73307 14.8651 6.23042 14.8651C5.72778 14.8651 5.32031 15.2725 5.32031 15.7752C5.32031 16.2778 5.72778 16.6853 6.23042 16.6853C6.73307 16.6853 7.14054 16.2778 7.14054 15.7752Z" fill="#292929" stroke="white" stroke-width="1.5"/>
<path d="M7.44454 15.7753C7.44454 15.1051 6.90125 14.5618 6.23106 14.5618C5.56087 14.5618 5.01758 15.1051 5.01758 15.7753C5.01758 16.4455 5.56087 16.9888 6.23106 16.9888C6.90125 16.9888 7.44454 16.4455 7.44454 15.7753Z" stroke="white"/>
</g>
<defs>
<clipPath id="clip0_165_5916">
<rect width="30.3371" height="36" fill="white" transform="translate(0.164062)"/>
</clipPath>
</defs>
</svg>
