<svg width="93" height="93" viewBox="0 0 93 93" fill="none" xmlns="http://www.w3.org/2000/svg">
<g id="Page-1">
<g id="Light-Previews-3">
<g id="technology-/-native-advertising">
<path id="Rectangle-4" d="M29.2287 5.31445H5.31445V29.2287H29.2287V5.31445Z" stroke="#FFC052" stroke-width="2" stroke-linecap="round" stroke-linejoin="round"/>
<path id="Rectangle-4-Copy" d="M29.2287 34.543H5.31445V87.6858H29.2287V34.543Z" stroke="#FFC052" stroke-width="2" stroke-linecap="round" stroke-linejoin="round"/>
<path id="Rectangle-4-Copy-2" d="M58.4573 63.7715H34.543V87.6858H58.4573V63.7715Z" stroke="#FFC052" stroke-width="2" stroke-linecap="round" stroke-linejoin="round"/>
<path id="Rectangle-4-Copy-4" d="M87.6858 63.7715H63.7715V87.6858H87.6858V63.7715Z" stroke="#FFC052" stroke-width="2" stroke-linecap="round" stroke-linejoin="round"/>
<path id="Rectangle-4-Copy-3" d="M87.6858 5.31445H34.543V29.2287H87.6858V5.31445Z" stroke="#FFC052" stroke-width="2" stroke-linecap="round" stroke-linejoin="round"/>
<path id="Rectangle-4-Copy-5" d="M87.6858 34.543H63.7715V58.4573H87.6858V34.543Z" stroke="#FFC052" stroke-width="2" stroke-linecap="round" stroke-linejoin="round"/>
<path id="Star-2" fill-rule="evenodd" clip-rule="evenodd" d="M47.243 53.8073L40.2148 57.5023L41.5571 49.6762L35.8711 44.1338L43.7289 42.992L47.243 35.8716L50.7571 42.992L58.6149 44.1338L52.929 49.6762L54.2712 57.5023L47.243 53.8073Z" stroke="#FFC052" stroke-linecap="round" stroke-linejoin="round"/>
<g id="Oval-Copy-486">
<path id="Vector" d="M90.6739 5.31394C90.6739 3.663 89.3355 2.32465 87.6846 2.32465C86.0337 2.32465 84.6953 3.663 84.6953 5.31394C84.6953 6.96487 86.0337 8.30322 87.6846 8.30322C89.3355 8.30322 90.6739 6.96487 90.6739 5.31394Z" fill="#281F2C" stroke="#FFC052" stroke-width="1.5"/>
<path id="Vector_2" d="M91.6706 5.31409C91.6706 3.11284 89.8862 1.32838 87.6849 1.32838C85.4837 1.32838 83.6992 3.11284 83.6992 5.31409C83.6992 7.51534 85.4837 9.2998 87.6849 9.2998C89.8862 9.2998 91.6706 7.51534 91.6706 5.31409Z" stroke="#FFC052"/>
</g>
<g id="Oval-Copy-495">
<path id="Vector_3" d="M90.6739 87.6855C90.6739 86.0346 89.3355 84.6962 87.6846 84.6962C86.0337 84.6962 84.6953 86.0346 84.6953 87.6855C84.6953 89.3365 86.0337 90.6748 87.6846 90.6748C89.3355 90.6748 90.6739 89.3365 90.6739 87.6855Z" fill="#281F2C" stroke="#FFC052" stroke-width="1.5"/>
<path id="Vector_4" d="M91.6706 87.6857C91.6706 85.4844 89.8862 83.7 87.6849 83.7C85.4837 83.7 83.6992 85.4844 83.6992 87.6857C83.6992 89.8869 85.4837 91.6714 87.6849 91.6714C89.8862 91.6714 91.6706 89.8869 91.6706 87.6857Z" stroke="#FFC052"/>
</g>
<g id="Oval-Copy-497">
<path id="Vector_5" d="M50.1524 47.8286C50.1524 46.1777 48.8141 44.8393 47.1631 44.8393C45.5122 44.8393 44.1738 46.1777 44.1738 47.8286C44.1738 49.4795 45.5122 50.8179 47.1631 50.8179C48.8141 50.8179 50.1524 49.4795 50.1524 47.8286Z" fill="#281F2C" stroke="#FFC052" stroke-width="1.5"/>
<path id="Vector_6" d="M51.1492 47.8287C51.1492 45.6275 49.3647 43.843 47.1635 43.843C44.9622 43.843 43.1777 45.6275 43.1777 47.8287C43.1777 50.03 44.9622 51.8145 47.1635 51.8145C49.3647 51.8145 51.1492 50.03 51.1492 47.8287Z" stroke="#FFC052"/>
</g>
<g id="Oval-Copy-498">
<path id="Vector_7" d="M8.30279 87.6855C8.30279 86.0346 6.96444 84.6962 5.3135 84.6962C3.66257 84.6962 2.32422 86.0346 2.32422 87.6855C2.32422 89.3365 3.66257 90.6748 5.3135 90.6748C6.96444 90.6748 8.30279 89.3365 8.30279 87.6855Z" fill="#281F2C" stroke="#FFC052" stroke-width="1.5"/>
<path id="Vector_8" d="M9.29955 87.6857C9.29955 85.4844 7.51509 83.7 5.31384 83.7C3.11259 83.7 1.32813 85.4844 1.32813 87.6857C1.32812 89.8869 3.11259 91.6714 5.31384 91.6714C7.51509 91.6714 9.29955 89.8869 9.29955 87.6857Z" stroke="#FFC052"/>
</g>
<g id="Oval-Copy-517">
<path id="Vector_9" d="M8.30279 5.31394C8.30279 3.663 6.96444 2.32465 5.3135 2.32465C3.66257 2.32465 2.32422 3.663 2.32422 5.31394C2.32422 6.96487 3.66257 8.30322 5.3135 8.30322C6.96444 8.30322 8.30279 6.96487 8.30279 5.31394Z" fill="#281F2C" stroke="#FFC052" stroke-width="1.5"/>
<path id="Vector_10" d="M9.29955 5.31409C9.29955 3.11284 7.51509 1.32838 5.31384 1.32838C3.11259 1.32838 1.32813 3.11284 1.32813 5.31409C1.32812 7.51534 3.11259 9.2998 5.31384 9.2998C7.51509 9.2998 9.29955 7.51534 9.29955 5.31409Z" stroke="#FFC052"/>
</g>
</g>
</g>
</g>
</svg>
