<svg width="664" height="450" viewBox="0 0 664 450" fill="none" xmlns="http://www.w3.org/2000/svg">
<path d="M29.4946 383.776C57.4313 383.776 108.942 380.188 172.182 246.202C235.421 112.217 265.539 29.5078 328.078 29.5078" stroke="#F5F5F5" stroke-width="3" stroke-linecap="round" stroke-linejoin="round"/>
<path d="M202.777 179.367V420.355" stroke="#F5F5F5" stroke-width="3" stroke-linecap="round" stroke-linejoin="round"/>
<path d="M332.038 30.0264V421.523" stroke="#F5F5F5" stroke-width="3" stroke-linecap="round" stroke-linejoin="round"/>
<path d="M634.141 383.776C606.204 383.776 554.693 380.188 491.454 246.202C428.214 112.217 398.097 29.5078 335.558 29.5078" stroke="#F5F5F5" stroke-width="3" stroke-linecap="round" stroke-linejoin="round"/>
<path d="M634.141 420.492H336.188" stroke="#F5F5F5" stroke-width="3" stroke-linecap="round" stroke-linejoin="round"/>
<path d="M199.886 184.426H24.8979" stroke="#F5F5F5" stroke-width="3" stroke-linecap="round" stroke-linejoin="round"/>
<path d="M36.8687 420.492H334.822" stroke="#F5F5F5" stroke-width="3" stroke-linecap="round" stroke-linejoin="round"/>
<path d="M331.535 29.2852H624.105" stroke="#F5F5F5" stroke-linecap="round" stroke-linejoin="round"/>
<path d="M348.409 29.5081C348.409 20.3411 340.981 12.9097 331.818 12.9097C322.655 12.9097 315.227 20.3411 315.227 29.5081C315.227 38.6751 322.655 46.1064 331.818 46.1064C340.981 46.1064 348.409 38.6751 348.409 29.5081Z" fill="#281F2C" stroke="white" stroke-width="1.5"/>
<path d="M353.939 29.5085C353.939 17.2858 344.035 7.37735 331.818 7.37735C319.601 7.37735 309.697 17.2858 309.697 29.5085C309.697 41.7312 319.601 51.6396 331.818 51.6396C344.035 51.6396 353.939 41.7312 353.939 29.5085Z" stroke="white"/>
<path d="M650.732 29.5081C650.732 20.3411 643.304 12.9097 634.141 12.9097C624.978 12.9097 617.55 20.3411 617.55 29.5081C617.55 38.6751 624.978 46.1064 634.141 46.1064C643.304 46.1064 650.732 38.6751 650.732 29.5081Z" fill="#281F2C" stroke="white" stroke-width="1.5"/>
<path d="M656.262 29.5085C656.262 17.2858 646.358 7.37735 634.141 7.37735C621.924 7.37735 612.02 17.2858 612.02 29.5085C612.02 41.7312 621.924 51.6396 634.141 51.6396C646.358 51.6396 656.262 41.7312 656.262 29.5085Z" stroke="white"/>
<path d="M219.368 184.426C219.368 175.259 211.94 167.828 202.777 167.828C193.615 167.828 186.187 175.259 186.187 184.426C186.187 193.593 193.615 201.024 202.777 201.024C211.94 201.024 219.368 193.593 219.368 184.426Z" fill="#281F2C" stroke="white" stroke-width="1.5"/>
<path d="M224.899 184.426C224.899 172.204 214.995 162.295 202.777 162.295C190.56 162.295 180.656 172.204 180.656 184.426C180.656 196.649 190.56 206.558 202.777 206.558C214.995 206.558 224.899 196.649 224.899 184.426Z" stroke="white"/>
<path d="M46.0856 184.426C46.0856 175.259 38.6576 167.828 29.4947 167.828C20.3318 167.828 12.9038 175.259 12.9038 184.426C12.9038 193.593 20.3318 201.024 29.4947 201.024C38.6576 201.024 46.0856 193.593 46.0856 184.426Z" fill="#281F2C" stroke="white" stroke-width="1.5"/>
<path d="M51.616 184.426C51.616 172.204 41.712 162.295 29.4947 162.295C17.2775 162.295 7.37354 172.204 7.37354 184.426C7.37354 196.649 17.2775 206.558 29.4947 206.558C41.712 206.558 51.616 196.649 51.616 184.426Z" stroke="white"/>
<path d="M650.732 420.491C650.732 411.324 643.304 403.893 634.141 403.893C624.978 403.893 617.55 411.324 617.55 420.491C617.55 429.659 624.978 437.09 634.141 437.09C643.304 437.09 650.732 429.659 650.732 420.491Z" fill="#281F2C" stroke="white" stroke-width="1.5"/>
<path d="M656.262 420.492C656.262 408.269 646.358 398.361 634.141 398.361C621.924 398.361 612.02 408.269 612.02 420.492C612.02 432.715 621.924 442.623 634.141 442.623C646.358 442.623 656.262 432.715 656.262 420.492Z" stroke="white"/>
<path d="M46.0856 420.491C46.0856 411.324 38.6576 403.893 29.4947 403.893C20.3318 403.893 12.9038 411.324 12.9038 420.491C12.9038 429.659 20.3318 437.09 29.4947 437.09C38.6576 437.09 46.0856 429.659 46.0856 420.491Z" fill="#281F2C" stroke="white" stroke-width="1.5"/>
<path d="M51.616 420.492C51.616 408.269 41.712 398.361 29.4947 398.361C17.2775 398.361 7.37354 408.269 7.37354 420.492C7.37354 432.715 17.2775 442.623 29.4947 442.623C41.712 442.623 51.616 432.715 51.616 420.492Z" stroke="white"/>
</svg>
