<svg width="383" height="450" viewBox="0 0 383 450" fill="none" xmlns="http://www.w3.org/2000/svg">
<path fill-rule="evenodd" clip-rule="evenodd" d="M344.545 22.2227V92.3722C357.502 92.3722 366.208 92.3722 370.662 92.3722C377.342 92.3722 380.205 96.135 380.205 102.748C380.205 109.361 380.205 291.925 380.205 298.07C380.205 304.215 375.596 310.519 369.24 310.519C362.884 310.519 105.207 310.519 97.9757 310.519C90.7442 310.519 86.0269 307.573 86.0269 298.844C86.0269 290.114 86.0269 113.733 86.0269 105.327C86.0269 96.9214 92.6105 91.0393 100.301 91.0393C107.991 91.0393 266.281 91.0393 271.591 91.0393C276.902 91.0393 279.86 88.7012 284.896 83.0743C288.254 79.3229 308.137 59.0391 344.545 22.2227Z" stroke="#F5F5F5" stroke-width="3" stroke-linecap="round" stroke-linejoin="round"/>
<path fill-rule="evenodd" clip-rule="evenodd" d="M41.2095 432.567V362.418C28.2525 362.418 19.5471 362.418 15.0933 362.418C8.41266 362.418 5.55026 358.655 5.55026 352.042C5.55026 345.429 5.55026 162.865 5.55026 156.72C5.55026 150.575 10.1593 144.271 16.5151 144.271C22.8708 144.271 280.548 144.271 287.779 144.271C295.011 144.271 299.728 147.217 299.728 155.946C299.728 164.676 299.728 341.057 299.728 349.463C299.728 357.869 293.144 363.751 285.454 363.751C277.764 363.751 119.474 363.751 114.164 363.751C108.853 363.751 105.895 366.089 100.859 371.716C97.501 375.467 77.618 395.751 41.2095 432.567Z" stroke="#F5F5F5" stroke-width="3" stroke-linecap="round" stroke-linejoin="round"/>
<path fill-rule="evenodd" clip-rule="evenodd" d="M234.214 225L160.953 258.334V191.667L234.214 225Z" stroke="#F5F5F5" stroke-width="3" stroke-linecap="round" stroke-linejoin="round"/>
<path d="M245.592 225C245.592 218.096 240.001 212.5 233.104 212.5C226.208 212.5 220.617 218.096 220.617 225C220.617 231.904 226.208 237.5 233.104 237.5C240.001 237.5 245.592 231.904 245.592 225Z" fill="#281F2C" stroke="white" stroke-width="1.5"/>
<path d="M249.755 225C249.755 215.796 242.3 208.334 233.104 208.334C223.909 208.334 216.454 215.796 216.454 225C216.454 234.205 223.909 241.667 233.104 241.667C242.3 241.667 249.755 234.205 249.755 225Z" stroke="white"/>
<path d="M173.441 258.333C173.441 251.429 167.85 245.833 160.953 245.833C154.056 245.833 148.465 251.429 148.465 258.333C148.465 265.237 154.056 270.833 160.953 270.833C167.85 270.833 173.441 265.237 173.441 258.333Z" fill="#281F2C" stroke="white" stroke-width="1.5"/>
<path d="M177.603 258.333C177.603 249.129 170.149 241.667 160.953 241.667C151.757 241.667 144.303 249.129 144.303 258.333C144.303 267.538 151.757 275 160.953 275C170.149 275 177.603 267.538 177.603 258.333Z" stroke="white"/>
<path d="M173.441 191.666C173.441 184.762 167.85 179.166 160.953 179.166C154.056 179.166 148.465 184.762 148.465 191.666C148.465 198.57 154.056 204.166 160.953 204.166C167.85 204.166 173.441 198.57 173.441 191.666Z" fill="#281F2C" stroke="white" stroke-width="1.5"/>
<path d="M177.603 191.666C177.603 182.462 170.149 175 160.953 175C151.757 175 144.303 182.462 144.303 191.666C144.303 200.871 151.757 208.333 160.953 208.333C170.149 208.333 177.603 200.871 177.603 191.666Z" stroke="white"/>
<path d="M356.594 22.2217C356.594 15.3181 351.003 9.72168 344.106 9.72168C337.21 9.72168 331.619 15.3181 331.619 22.2217C331.619 29.1252 337.21 34.7217 344.106 34.7217C351.003 34.7217 356.594 29.1252 356.594 22.2217Z" fill="#281F2C" stroke="white" stroke-width="1.5"/>
<path d="M360.757 22.222C360.757 13.0173 353.302 5.55534 344.106 5.55534C334.911 5.55534 327.456 13.0173 327.456 22.222C327.456 31.4268 334.911 38.8887 344.106 38.8887C353.302 38.8887 360.757 31.4268 360.757 22.222Z" stroke="white"/>
<path d="M54.1136 427.777C54.1136 420.874 48.5227 415.277 41.6259 415.277C34.7291 415.277 29.1382 420.874 29.1382 427.777C29.1382 434.681 34.7291 440.277 41.6259 440.277C48.5227 440.277 54.1136 434.681 54.1136 427.777Z" fill="#281F2C" stroke="white" stroke-width="1.5"/>
<path d="M58.2762 427.778C58.2762 418.573 50.8216 411.111 41.6259 411.111C32.4302 411.111 24.9756 418.573 24.9756 427.778C24.9756 436.982 32.4302 444.444 41.6259 444.444C50.8216 444.444 58.2762 436.982 58.2762 427.778Z" stroke="white"/>
</svg>
