<svg width="492" height="450" viewBox="0 0 492 450" fill="none" xmlns="http://www.w3.org/2000/svg">
<path d="M239.803 306H29.9755C26.6646 306 23.9805 308.686 23.9805 312V420C23.9805 423.314 26.6646 426 29.9755 426H239.803C243.114 426 245.798 423.314 245.798 420V312C245.798 308.686 243.114 306 239.803 306Z" stroke="#F5F5F5" stroke-width="3" stroke-linecap="round" stroke-linejoin="round"/>
<path d="M107.911 270H53.9556V306H107.911V270Z" stroke="#F5F5F5" stroke-width="3" stroke-linecap="round" stroke-linejoin="round"/>
<path d="M215.823 270H161.867V306H215.823V270Z" stroke="#F5F5F5" stroke-width="3" stroke-linecap="round" stroke-linejoin="round"/>
<path d="M461.621 306H251.793C248.482 306 245.798 308.686 245.798 312V420C245.798 423.314 248.482 426 251.793 426H461.621C464.932 426 467.616 423.314 467.616 420V312C467.616 308.686 464.932 306 461.621 306Z" stroke="#F5F5F5" stroke-width="3" stroke-linecap="round" stroke-linejoin="round"/>
<path d="M461.621 186H251.793C248.482 186 245.798 188.686 245.798 192V300C245.798 303.314 248.482 306 251.793 306H461.621C464.932 306 467.616 303.314 467.616 300V192C467.616 188.686 464.932 186 461.621 186Z" stroke="#F5F5F5" stroke-width="3" stroke-linecap="round" stroke-linejoin="round"/>
<path d="M329.73 150H275.774V186H329.73V150Z" stroke="#F5F5F5" stroke-width="3" stroke-linecap="round" stroke-linejoin="round"/>
<path d="M437.641 150H383.685V186H437.641V150Z" stroke="#F5F5F5" stroke-width="3" stroke-linecap="round" stroke-linejoin="round"/>
<path d="M239.803 42H29.9755C26.6646 42 23.9805 44.6863 23.9805 48V156C23.9805 159.314 26.6646 162 29.9755 162H239.803C243.114 162 245.798 159.314 245.798 156V48C245.798 44.6863 243.114 42 239.803 42Z" stroke="#F5F5F5" stroke-width="3" stroke-linecap="round" stroke-linejoin="round"/>
<path d="M107.911 6H53.9556V42H107.911V6Z" stroke="#F5F5F5" stroke-width="3" stroke-linecap="round" stroke-linejoin="round"/>
<path d="M215.823 6H161.867V42H215.823V6Z" stroke="#F5F5F5" stroke-width="3" stroke-linecap="round" stroke-linejoin="round"/>
<path d="M91.4246 426C91.4246 418.544 85.3854 412.5 77.9357 412.5C70.486 412.5 64.4468 418.544 64.4468 426C64.4468 433.456 70.486 439.5 77.9357 439.5C85.3854 439.5 91.4246 433.456 91.4246 426Z" fill="#281F2C" stroke="white" stroke-width="1.5"/>
<path d="M95.9212 426C95.9212 416.059 87.8689 408 77.9359 408C68.003 408 59.9507 416.059 59.9507 426C59.9507 435.941 68.003 444 77.9359 444C87.8689 444 95.9212 435.941 95.9212 426Z" stroke="white"/>
<path d="M37.4691 114C37.4691 106.544 31.4299 100.5 23.9801 100.5C16.5304 100.5 10.4912 106.544 10.4912 114C10.4912 121.456 16.5304 127.5 23.9801 127.5C31.4299 127.5 37.4691 121.456 37.4691 114Z" fill="#281F2C" stroke="white" stroke-width="1.5"/>
<path d="M41.9656 114C41.9656 104.059 33.9133 96 23.9804 96C14.0474 96 5.99512 104.059 5.99512 114C5.99512 123.941 14.0474 132 23.9804 132C33.9133 132 41.9656 123.941 41.9656 114Z" stroke="white"/>
<path d="M391.179 306C391.179 298.544 385.14 292.5 377.69 292.5C370.24 292.5 364.201 298.544 364.201 306C364.201 313.456 370.24 319.5 377.69 319.5C385.14 319.5 391.179 313.456 391.179 306Z" fill="#281F2C" stroke="white" stroke-width="1.5"/>
<path d="M395.676 306C395.676 296.059 387.623 288 377.69 288C367.757 288 359.705 296.059 359.705 306C359.705 315.941 367.757 324 377.69 324C387.623 324 395.676 315.941 395.676 306Z" stroke="white"/>
<path d="M259.287 72C259.287 64.5442 253.248 58.5 245.798 58.5C238.348 58.5 232.309 64.5442 232.309 72C232.309 79.4558 238.348 85.5 245.798 85.5C253.248 85.5 259.287 79.4558 259.287 72Z" fill="#281F2C" stroke="white" stroke-width="1.5"/>
<path d="M263.783 72C263.783 62.0589 255.731 54 245.798 54C235.865 54 227.813 62.0589 227.813 72C227.813 81.9411 235.865 90 245.798 90C255.731 90 263.783 81.9411 263.783 72Z" stroke="white"/>
<path d="M481.105 378C481.105 370.544 475.066 364.5 467.616 364.5C460.166 364.5 454.127 370.544 454.127 378C454.127 385.456 460.166 391.5 467.616 391.5C475.066 391.5 481.105 385.456 481.105 378Z" fill="#281F2C" stroke="white" stroke-width="1.5"/>
<path d="M485.601 378C485.601 368.059 477.549 360 467.616 360C457.683 360 449.631 368.059 449.631 378C449.631 387.941 457.683 396 467.616 396C477.549 396 485.601 387.941 485.601 378Z" stroke="white"/>
<path d="M259.287 342C259.287 334.544 253.248 328.5 245.798 328.5C238.348 328.5 232.309 334.544 232.309 342C232.309 349.456 238.348 355.5 245.798 355.5C253.248 355.5 259.287 349.456 259.287 342Z" fill="#281F2C" stroke="white" stroke-width="1.5"/>
<path d="M263.783 342C263.783 332.059 255.731 324 245.798 324C235.865 324 227.813 332.059 227.813 342C227.813 351.941 235.865 360 245.798 360C255.731 360 263.783 351.941 263.783 342Z" stroke="white"/>
</svg>
