<svg width="515" height="450" viewBox="0 0 515 450" fill="none" xmlns="http://www.w3.org/2000/svg">
<path d="M221.881 135.543H135.293C123.338 135.543 113.646 145.252 113.646 157.23C113.646 169.207 123.338 178.916 135.293 178.916H221.881C233.837 178.916 243.528 169.207 243.528 157.23C243.528 145.252 233.837 135.543 221.881 135.543Z" stroke="#F5F5F5" stroke-width="3" stroke-linecap="round" stroke-linejoin="round"/>
<path d="M389.646 243.977H303.058C291.103 243.977 281.411 253.686 281.411 265.663C281.411 277.641 291.103 287.35 303.058 287.35H389.646C401.601 287.35 411.293 277.641 411.293 265.663C411.293 253.686 401.601 243.977 389.646 243.977Z" stroke="#F5F5F5" stroke-width="3" stroke-linecap="round" stroke-linejoin="round"/>
<path d="M443.763 314.457H357.175C345.22 314.457 335.528 324.167 335.528 336.144C335.528 348.121 345.22 357.831 357.175 357.831H443.763C455.719 357.831 465.41 348.121 465.41 336.144C465.41 324.167 455.719 314.457 443.763 314.457Z" stroke="#F5F5F5" stroke-width="3" stroke-linecap="round" stroke-linejoin="round"/>
<path d="M173.176 363.254H86.5879C74.6326 363.254 64.9409 372.963 64.9409 384.941C64.9409 396.918 74.6326 406.627 86.5879 406.627H173.176C185.131 406.627 194.823 396.918 194.823 384.941C194.823 372.963 185.131 363.254 173.176 363.254Z" stroke="#F5F5F5" stroke-width="3" stroke-linecap="round" stroke-linejoin="round"/>
<path d="M432.94 178.916H346.352C334.397 178.916 324.705 188.626 324.705 200.603C324.705 212.58 334.397 222.29 346.352 222.29H432.94C444.895 222.29 454.587 212.58 454.587 200.603C454.587 188.626 444.895 178.916 432.94 178.916Z" stroke="#F5F5F5" stroke-width="3" stroke-linecap="round" stroke-linejoin="round"/>
<path d="M487.057 119.277H400.469C388.514 119.277 378.822 128.987 378.822 140.964C378.822 152.941 388.514 162.651 400.469 162.651H487.057C499.013 162.651 508.704 152.941 508.704 140.964C508.704 128.987 499.013 119.277 487.057 119.277Z" stroke="#F5F5F5" stroke-width="3" stroke-linecap="round" stroke-linejoin="round"/>
<path d="M113.647 206.023H27.0586C15.1033 206.023 5.41162 215.733 5.41162 227.71C5.41162 239.687 15.1033 249.397 27.0586 249.397H113.647C125.602 249.397 135.294 239.687 135.294 227.71C135.294 215.733 125.602 206.023 113.647 206.023Z" stroke="#F5F5F5" stroke-width="3" stroke-linecap="round" stroke-linejoin="round"/>
<path d="M162.352 65.0605H70.3526C58.3973 65.0605 48.7056 74.77 48.7056 86.7473C48.7056 98.7246 58.3973 108.434 70.3526 108.434H162.352C174.308 108.434 183.999 98.7246 183.999 86.7473C183.999 74.77 174.308 65.0605 162.352 65.0605Z" stroke="#F5F5F5" stroke-width="3" stroke-linecap="round" stroke-linejoin="round"/>
<path d="M444.984 118.825C409.502 54.4526 341.074 10.8438 262.47 10.8438C208.626 10.8438 159.551 31.3125 122.571 64.9036" stroke="#F5F5F5" stroke-width="3" stroke-linecap="round" stroke-linejoin="round"/>
<path d="M85.8636 108.787C67.9971 137.309 56.8233 170.463 54.5488 206.039" stroke="#F5F5F5" stroke-width="3" stroke-linecap="round" stroke-linejoin="round"/>
<path d="M56.2559 249.604C62.5348 293.287 82.3115 332.592 111.213 363.143" stroke="#F5F5F5" stroke-width="3" stroke-linecap="round" stroke-linejoin="round"/>
<path d="M169.95 406.66C197.826 420.521 229.24 428.312 262.47 428.312C324.544 428.312 380.271 401.133 418.439 357.998" stroke="#F5F5F5" stroke-width="3" stroke-linecap="round" stroke-linejoin="round"/>
<path d="M448.062 314.558C462.614 286.069 470.822 253.787 470.822 219.577C470.822 199.958 468.12 180.97 463.067 162.967" stroke="#F5F5F5" stroke-width="3" stroke-linecap="round" stroke-linejoin="round"/>
<path d="M164.62 179.918C159.668 192.166 156.941 205.554 156.941 219.579C156.941 277.984 204.19 325.302 262.47 325.302C295.053 325.302 324.184 310.516 343.541 287.273" stroke="#F5F5F5" stroke-width="3" stroke-linecap="round" stroke-linejoin="round"/>
<path d="M365.329 243.32C366.866 236.604 367.766 229.644 367.959 222.508" stroke="#F5F5F5" stroke-width="3" stroke-linecap="round" stroke-linejoin="round"/>
<path d="M359.765 178.568C343.779 140.552 306.239 113.855 262.47 113.855C238.651 113.855 216.674 121.764 199.012 135.102" stroke="#F5F5F5" stroke-width="3" stroke-linecap="round" stroke-linejoin="round"/>
<path d="M212.411 21.686C212.411 14.9488 206.959 9.48717 200.235 9.48717C193.51 9.48717 188.058 14.9488 188.058 21.686C188.058 28.4232 193.51 33.8848 200.235 33.8848C206.959 33.8848 212.411 28.4232 212.411 21.686Z" fill="#281F2C" stroke="white" stroke-width="1.5"/>
<path d="M216.47 21.6861C216.47 12.7032 209.201 5.42105 200.235 5.42105C191.268 5.42105 184 12.7032 184 21.6861C184 30.6691 191.268 37.9512 200.235 37.9512C209.201 37.9512 216.47 30.6691 216.47 21.6861Z" stroke="white"/>
<path d="M477.587 260.241C477.587 253.503 472.135 248.042 465.41 248.042C458.685 248.042 453.234 253.503 453.234 260.241C453.234 266.978 458.685 272.439 465.41 272.439C472.135 272.439 477.587 266.978 477.587 260.241Z" fill="#281F2C" stroke="white" stroke-width="1.5"/>
<path d="M481.646 260.241C481.646 251.258 474.377 243.976 465.411 243.976C456.444 243.976 449.175 251.258 449.175 260.241C449.175 269.224 456.444 276.506 465.411 276.506C474.377 276.506 481.646 269.224 481.646 260.241Z" stroke="white"/>
<path d="M336.881 135.541C336.881 128.804 331.43 123.343 324.705 123.343C317.98 123.343 312.528 128.804 312.528 135.541C312.528 142.279 317.98 147.74 324.705 147.74C331.43 147.74 336.881 142.279 336.881 135.541Z" fill="#281F2C" stroke="white" stroke-width="1.5"/>
<path d="M340.94 135.542C340.94 126.559 333.671 119.277 324.705 119.277C315.738 119.277 308.47 126.559 308.47 135.542C308.47 144.525 315.738 151.807 324.705 151.807C333.671 151.807 340.94 144.525 340.94 135.542Z" stroke="white"/>
<path d="M185.352 276.506C185.352 269.769 179.901 264.307 173.176 264.307C166.451 264.307 161 269.769 161 276.506C161 283.243 166.451 288.705 173.176 288.705C179.901 288.705 185.352 283.243 185.352 276.506Z" fill="#281F2C" stroke="white" stroke-width="1.5"/>
<path d="M189.411 276.506C189.411 267.523 182.143 260.241 173.176 260.241C164.21 260.241 156.941 267.523 156.941 276.506C156.941 285.489 164.21 292.771 173.176 292.771C182.143 292.771 189.411 285.489 189.411 276.506Z" stroke="white"/>
<path d="M304.41 428.313C304.41 421.576 298.959 416.114 292.234 416.114C285.509 416.114 280.058 421.576 280.058 428.313C280.058 435.05 285.509 440.512 292.234 440.512C298.959 440.512 304.41 435.05 304.41 428.313Z" fill="#281F2C" stroke="white" stroke-width="1.5"/>
<path d="M308.47 428.313C308.47 419.33 301.201 412.048 292.234 412.048C283.268 412.048 275.999 419.33 275.999 428.313C275.999 437.296 283.268 444.578 292.234 444.578C301.201 444.578 308.47 437.296 308.47 428.313Z" stroke="white"/>
</svg>
