<svg width="439" height="450" viewBox="0 0 439 450" fill="none" xmlns="http://www.w3.org/2000/svg">
<path fill-rule="evenodd" clip-rule="evenodd" d="M349.318 250.552C359.407 252.062 366.965 244.886 366.965 235.112C366.965 225.339 360.033 217.701 349.318 219.282C338.604 220.864 331.672 229.202 331.672 235.112C331.672 241.022 339.23 249.041 349.318 250.552Z" stroke="#F5F5F5" stroke-width="3" stroke-linecap="round" stroke-linejoin="round"/>
<path fill-rule="evenodd" clip-rule="evenodd" d="M87.1407 250.552C77.0521 252.062 69.4941 244.886 69.4941 235.112C69.4941 225.339 76.4258 217.701 87.1407 219.282C97.8556 220.864 104.787 229.202 104.787 235.112C104.787 241.022 97.2293 249.041 87.1407 250.552Z" stroke="#F5F5F5" stroke-width="3" stroke-linecap="round" stroke-linejoin="round"/>
<path d="M260.404 368.702C241.742 381.373 227.308 387.709 217.103 387.709C206.898 387.709 191.851 381.373 171.964 368.702" stroke="#F5F5F5" stroke-width="3" stroke-linecap="round" stroke-linejoin="round"/>
<path d="M171.964 368.695C177.94 370.068 184.649 370.068 192.093 368.695C199.537 367.321 207.725 367.34 216.659 368.752" stroke="#F5F5F5" stroke-linecap="round" stroke-linejoin="round"/>
<path d="M260.404 368.695C254.428 370.068 247.719 370.068 240.275 368.695C232.831 367.321 224.959 367.34 216.659 368.752" stroke="#F5F5F5" stroke-linecap="round" stroke-linejoin="round"/>
<path d="M171.964 368.702C184.713 359.84 191.088 355.409 191.088 355.409C191.088 355.409 199.263 348.448 212.29 355.409C212.29 355.409 215.688 356.956 219.014 355.409" stroke="#F5F5F5" stroke-linecap="round" stroke-linejoin="round"/>
<path d="M260.404 368.702C247.418 359.84 240.925 355.409 240.925 355.409C240.925 355.409 232.042 348.448 219.015 355.409" stroke="#F5F5F5" stroke-width="3" stroke-linecap="round" stroke-linejoin="round"/>
<path d="M339.31 333.209C331.091 362.705 316.979 386.67 296.973 405.104C263.897 435.581 255.67 444.326 216.659 444.326" stroke="#F5F5F5" stroke-width="3" stroke-linecap="round" stroke-linejoin="round"/>
<path d="M362.223 144.899C357.337 118.882 350.039 101.632 327.931 74.5216C311.749 54.6784 291.509 39.3061 256.408 33.2012" stroke="#F5F5F5" stroke-width="3" stroke-linecap="round" stroke-linejoin="round"/>
<path d="M97.1406 333.178C105.358 362.688 119.473 386.664 139.486 405.103C172.562 435.58 177.648 444.326 216.659 444.326" stroke="#F5F5F5" stroke-width="3" stroke-linecap="round" stroke-linejoin="round"/>
<path d="M74.2178 144.899C79.1274 119.882 86.9893 100.933 108.528 74.5209C124.756 54.621 145.066 39.2177 180.353 33.1484" stroke="#F5F5F5" stroke-width="3" stroke-linecap="round" stroke-linejoin="round"/>
<path fill-rule="evenodd" clip-rule="evenodd" d="M104.787 136.517H331.672C362.302 136.517 387.133 161.418 387.133 192.135V278.09C387.133 308.807 362.302 333.708 331.672 333.708H104.787C74.1572 333.708 49.3267 308.807 49.3267 278.09V192.135C49.3267 161.418 74.1572 136.517 104.787 136.517Z" stroke="#F5F5F5" stroke-width="3" stroke-linecap="round" stroke-linejoin="round"/>
<path fill-rule="evenodd" clip-rule="evenodd" d="M157.727 202.247H278.732C296.832 202.247 311.505 216.961 311.505 235.112C311.505 253.263 296.832 267.977 278.732 267.977H157.727C139.628 267.977 124.955 253.263 124.955 235.112C124.955 216.961 139.628 202.247 157.727 202.247Z" stroke="#F5F5F5" stroke-width="3" stroke-linecap="round" stroke-linejoin="round"/>
<path fill-rule="evenodd" clip-rule="evenodd" d="M263.171 176.877C270.799 178.18 281.253 164.836 281.253 157.583C281.253 150.329 274.263 146.629 265.64 146.629C257.017 146.629 251.002 151.16 251.002 160.186C251.002 164.187 255.543 175.574 263.171 176.877Z" stroke="#F5F5F5" stroke-width="3" stroke-linecap="round" stroke-linejoin="round"/>
<path fill-rule="evenodd" clip-rule="evenodd" d="M173.288 176.877C165.66 178.18 155.206 164.836 155.206 157.583C155.206 150.329 162.196 146.629 170.819 146.629C179.442 146.629 185.457 151.16 185.457 160.186C185.457 164.187 180.917 175.574 173.288 176.877Z" stroke="#F5F5F5" stroke-width="3" stroke-linecap="round" stroke-linejoin="round"/>
<path fill-rule="evenodd" clip-rule="evenodd" d="M263.171 293.348C270.799 292.045 281.253 305.389 281.253 312.642C281.253 319.896 274.263 323.596 265.64 323.596C257.017 323.596 251.002 319.065 251.002 310.039C251.002 306.038 255.543 294.651 263.171 293.348Z" stroke="#F5F5F5" stroke-width="3" stroke-linecap="round" stroke-linejoin="round"/>
<path fill-rule="evenodd" clip-rule="evenodd" d="M338.465 166.7C346.691 165.245 352.577 159.607 351.61 154.107C350.643 148.607 343.189 145.328 334.963 146.782C326.736 148.237 320.851 153.875 321.818 159.375C322.785 164.875 330.238 168.155 338.465 166.7Z" stroke="#F5F5F5" stroke-width="3" stroke-linecap="round" stroke-linejoin="round"/>
<path fill-rule="evenodd" clip-rule="evenodd" d="M97.9944 166.7C89.7677 165.245 83.8825 159.607 84.8496 154.107C85.8167 148.607 93.2697 145.328 101.496 146.782C109.723 148.237 115.608 153.875 114.641 159.375C113.674 164.875 106.221 168.155 97.9944 166.7Z" stroke="#F5F5F5" stroke-width="3" stroke-linecap="round" stroke-linejoin="round"/>
<path fill-rule="evenodd" clip-rule="evenodd" d="M338.465 303.525C346.691 304.979 352.577 310.617 351.61 316.117C350.643 321.617 343.189 324.897 334.963 323.442C326.736 321.987 320.851 316.349 321.818 310.849C322.785 305.349 330.238 302.07 338.465 303.525Z" stroke="#F5F5F5" stroke-width="3" stroke-linecap="round" stroke-linejoin="round"/>
<path fill-rule="evenodd" clip-rule="evenodd" d="M97.9944 303.525C89.7677 304.979 83.8825 310.617 84.8496 316.117C85.8167 321.617 93.2697 324.897 101.496 323.442C109.723 321.987 115.608 316.349 114.641 310.849C113.674 305.349 106.221 302.07 97.9944 303.525Z" stroke="#F5F5F5" stroke-width="3" stroke-linecap="round" stroke-linejoin="round"/>
<path fill-rule="evenodd" clip-rule="evenodd" d="M173.288 293.348C165.66 292.045 155.206 305.389 155.206 312.642C155.206 319.896 162.196 323.596 170.819 323.596C179.442 323.596 185.457 319.065 185.457 310.039C185.457 306.038 180.917 294.651 173.288 293.348Z" stroke="#F5F5F5" stroke-width="3" stroke-linecap="round" stroke-linejoin="round"/>
<path fill-rule="evenodd" clip-rule="evenodd" d="M180.416 96.0674H256.044C261.613 96.0674 266.128 100.595 266.128 106.18V136.517H170.332V106.18C170.332 100.595 174.847 96.0674 180.416 96.0674Z" stroke="#F5F5F5" stroke-width="3" stroke-linecap="round" stroke-linejoin="round"/>
<path fill-rule="evenodd" clip-rule="evenodd" d="M185.457 20.2246H251.002C253.786 20.2246 256.044 22.4883 256.044 25.2808V96.0673H180.416V25.2808C180.416 22.4883 182.673 20.2246 185.457 20.2246Z" stroke="#F5F5F5" stroke-width="3" stroke-linecap="round" stroke-linejoin="round"/>
<path fill-rule="evenodd" clip-rule="evenodd" d="M387.133 257.865H407.3V288.202H387.133V257.865Z" stroke="#F5F5F5" stroke-width="3" stroke-linecap="round" stroke-linejoin="round"/>
<path fill-rule="evenodd" clip-rule="evenodd" d="M414.863 166.854C410.686 166.854 407.3 170.249 407.3 174.438V290.73C407.3 294.919 410.686 298.314 414.863 298.314C419.039 298.314 422.425 294.919 422.425 290.73V174.438C422.425 170.249 419.039 166.854 414.863 166.854Z" stroke="#F5F5F5" stroke-width="3" stroke-linecap="round" stroke-linejoin="round"/>
<path d="M357.974 124.125C395.625 128.831 415.398 132.046 417.293 133.77C420.136 136.355 420.302 144.044 417.293 166.854" stroke="#F5F5F5" stroke-width="3" stroke-linecap="round" stroke-linejoin="round"/>
<path d="M407.3 173.789C395.858 180.101 389.136 183.257 387.133 183.257" stroke="#F5F5F5" stroke-width="3" stroke-linecap="round" stroke-linejoin="round"/>
<path fill-rule="evenodd" clip-rule="evenodd" d="M22.6883 164.077C26.8651 164.077 30.2511 167.473 30.2511 171.661V287.954C30.2511 292.142 26.8651 295.538 22.6883 295.538C18.5115 295.538 15.1255 292.142 15.1255 287.954V171.661C15.1255 167.473 18.5115 164.077 22.6883 164.077Z" stroke="#F5F5F5" stroke-width="3" stroke-linecap="round" stroke-linejoin="round"/>
<path d="M79.578 121.349C41.927 126.055 22.1538 129.27 20.2583 130.994C17.4152 133.579 17.2497 141.268 20.2583 164.078" stroke="#F5F5F5" stroke-width="3" stroke-linecap="round" stroke-linejoin="round"/>
<path d="M30.2515 171.013C41.6937 177.325 48.4162 180.481 50.419 180.481" stroke="#F5F5F5" stroke-width="3" stroke-linecap="round" stroke-linejoin="round"/>
<path d="M49.3269 257.865H30.2515" stroke="#F5F5F5" stroke-width="3" stroke-linecap="round" stroke-linejoin="round"/>
<path d="M49.3269 288.202H30.2515" stroke="#F5F5F5" stroke-width="3" stroke-linecap="round" stroke-linejoin="round"/>
<path d="M228.145 20.2252C228.145 13.9421 223.066 8.84875 216.801 8.84875C210.536 8.84875 205.457 13.9421 205.457 20.2252C205.457 26.5082 210.536 31.6016 216.801 31.6016C223.066 31.6016 228.145 26.5082 228.145 20.2252Z" fill="#281F2C" stroke="white" stroke-width="1.5"/>
<path d="M231.927 20.225C231.927 11.8477 225.155 5.05648 216.801 5.05648C208.447 5.05648 201.675 11.8477 201.675 20.225C201.675 28.6024 208.447 35.3936 216.801 35.3936C225.155 35.3936 231.927 28.6024 231.927 20.225Z" stroke="white"/>
<path d="M152.517 404.495C152.517 398.212 147.438 393.118 141.172 393.118C134.907 393.118 129.828 398.212 129.828 404.495C129.828 410.778 134.907 415.871 141.172 415.871C147.438 415.871 152.517 410.778 152.517 404.495Z" fill="#281F2C" stroke="white" stroke-width="1.5"/>
<path d="M156.298 404.495C156.298 396.117 149.526 389.326 141.173 389.326C132.819 389.326 126.047 396.117 126.047 404.495C126.047 412.872 132.819 419.663 141.173 419.663C149.526 419.663 156.298 412.872 156.298 404.495Z" stroke="white"/>
<path d="M31.5117 131.461C31.5117 125.177 26.4327 120.084 20.1675 120.084C13.9022 120.084 8.82324 125.177 8.82324 131.461C8.82324 137.744 13.9022 142.837 20.1675 142.837C26.4327 142.837 31.5117 137.744 31.5117 131.461Z" fill="#281F2C" stroke="white" stroke-width="1.5"/>
<path d="M35.2933 131.46C35.2933 123.083 28.5213 116.292 20.1676 116.292C11.814 116.292 5.04199 123.083 5.04199 131.46C5.04199 139.838 11.814 146.629 20.1676 146.629C28.5213 146.629 35.2933 139.838 35.2933 131.46Z" stroke="white"/>
<path d="M429.82 131.461C429.82 125.177 424.741 120.084 418.476 120.084C412.211 120.084 407.132 125.177 407.132 131.461C407.132 137.744 412.211 142.837 418.476 142.837C424.741 142.837 429.82 137.744 429.82 131.461Z" fill="#281F2C" stroke="white" stroke-width="1.5"/>
<path d="M433.602 131.46C433.602 123.083 426.83 116.292 418.476 116.292C410.123 116.292 403.351 123.083 403.351 131.46C403.351 139.838 410.123 146.629 418.476 146.629C426.83 146.629 433.602 139.838 433.602 131.46Z" stroke="white"/>
</svg>
