<svg width="374" height="450" viewBox="0 0 374 450" fill="none" xmlns="http://www.w3.org/2000/svg">
<path fill-rule="evenodd" clip-rule="evenodd" d="M12.9818 250.446C38.459 276.659 85.3756 338.562 108.21 377.866C131.045 417.17 166.059 446.747 223.787 446.747C281.514 446.747 320.987 418.143 330.117 377.866C339.246 337.589 348.662 225.533 366.427 147.391C373.3 117.161 358.168 112.439 350.954 112.439C343.739 112.439 336.799 117.161 328.167 150.962C319.535 184.763 307.141 225.893 303.259 226.342C299.377 226.791 297.812 226.576 303.259 158.127C307.071 110.225 308.71 89.8647 310.466 70.7999C312.222 51.7351 299.841 41.7105 288.888 41.7105C277.936 41.7105 268.93 47.887 266.987 70.6476C265.044 93.4081 249.482 197.991 249.361 208.102C249.241 218.212 245.612 217.782 242.166 216.188C238.72 214.595 237.926 202.589 238.72 194.162C239.515 185.736 237.429 75.0455 239.515 34.905C240.851 9.1817 221.243 5.23802 214.08 5.42824C206.917 5.61846 191.033 8.76189 190.785 33.2615C190.536 57.7611 188.436 177.458 186.864 192.678C185.293 207.897 184.433 208.102 179.757 208.102C175.081 208.102 174.153 201.304 173.42 194.499C172.687 187.694 166.732 84.1999 163.642 58.8336C160.552 33.4674 140.074 32.4322 132.829 34.905C125.583 37.3777 114.19 41.8902 116.562 73.3432C118.933 104.796 122.526 229.712 122.822 250.446C123.118 271.179 111.741 273.07 102.121 267.077C92.4996 261.084 72.9911 244.663 60.6747 233.531C45.755 220.046 21.9763 219.188 12.9818 226.07C0.837927 235.363 5.152 242.39 12.9818 250.446Z" stroke="#F5F5F5" stroke-width="3" stroke-linecap="round" stroke-linejoin="round"/>
<path d="M287.89 76.9882C292.816 76.9882 296.81 72.9831 296.81 68.0425C296.81 63.1018 292.816 59.0967 287.89 59.0967C282.963 59.0967 278.969 63.1018 278.969 68.0425C278.969 72.9831 282.963 76.9882 287.89 76.9882Z" stroke="#F5F5F5" stroke-linecap="round" stroke-linejoin="round"/>
<path d="M278.969 160.482C283.896 160.482 287.89 156.477 287.89 151.537C287.89 146.596 283.896 142.591 278.969 142.591C274.043 142.591 270.049 146.596 270.049 151.537C270.049 156.477 274.043 160.482 278.969 160.482Z" stroke="#F5F5F5" stroke-width="3" stroke-linecap="round" stroke-linejoin="round"/>
<path d="M270.049 249.939C274.976 249.939 278.969 245.934 278.969 240.994C278.969 236.053 274.976 232.048 270.049 232.048C265.122 232.048 261.128 236.053 261.128 240.994C261.128 245.934 265.122 249.939 270.049 249.939Z" stroke="#F5F5F5" stroke-width="3" stroke-linecap="round" stroke-linejoin="round"/>
<path d="M350.334 148.555C355.26 148.555 359.254 144.549 359.254 139.609C359.254 134.668 355.26 130.663 350.334 130.663C345.407 130.663 341.413 134.668 341.413 139.609C341.413 144.549 345.407 148.555 350.334 148.555Z" stroke="#F5F5F5" stroke-width="3" stroke-linecap="round" stroke-linejoin="round"/>
<path d="M335.466 208.192C340.393 208.192 344.386 204.187 344.386 199.247C344.386 194.306 340.393 190.301 335.466 190.301C330.539 190.301 326.545 194.306 326.545 199.247C326.545 204.187 330.539 208.192 335.466 208.192Z" stroke="#F5F5F5" stroke-width="3" stroke-linecap="round" stroke-linejoin="round"/>
<path d="M317.625 267.831C322.552 267.831 326.546 263.826 326.546 258.885C326.546 253.945 322.552 249.939 317.625 249.939C312.698 249.939 308.705 253.945 308.705 258.885C308.705 263.826 312.698 267.831 317.625 267.831Z" stroke="#F5F5F5" stroke-width="3" stroke-linecap="round" stroke-linejoin="round"/>
<path d="M213.552 41.205C218.479 41.205 222.472 37.1999 222.472 32.2593C222.472 27.3186 218.479 23.3135 213.552 23.3135C208.625 23.3135 204.631 27.3186 204.631 32.2593C204.631 37.1999 208.625 41.205 213.552 41.205Z" stroke="#F5F5F5" stroke-linecap="round" stroke-linejoin="round"/>
<path d="M213.552 124.699C218.479 124.699 222.472 120.694 222.472 115.753C222.472 110.813 218.479 106.808 213.552 106.808C208.625 106.808 204.631 110.813 204.631 115.753C204.631 120.694 208.625 124.699 213.552 124.699Z" stroke="#F5F5F5" stroke-width="3" stroke-linecap="round" stroke-linejoin="round"/>
<path d="M213.552 238.012C218.479 238.012 222.472 234.007 222.472 229.066C222.472 224.125 218.479 220.12 213.552 220.12C208.625 220.12 204.631 224.125 204.631 229.066C204.631 234.007 208.625 238.012 213.552 238.012Z" stroke="#F5F5F5" stroke-width="3" stroke-linecap="round" stroke-linejoin="round"/>
<path d="M139.214 71.0244C144.141 71.0244 148.135 67.0192 148.135 62.0786C148.135 57.138 144.141 53.1328 139.214 53.1328C134.288 53.1328 130.294 57.138 130.294 62.0786C130.294 67.0192 134.288 71.0244 139.214 71.0244Z" stroke="#F5F5F5" stroke-linecap="round" stroke-linejoin="round"/>
<path d="M142.188 154.519C147.114 154.519 151.108 150.513 151.108 145.573C151.108 140.632 147.114 136.627 142.188 136.627C137.261 136.627 133.267 140.632 133.267 145.573C133.267 150.513 137.261 154.519 142.188 154.519Z" stroke="#F5F5F5" stroke-width="3" stroke-linecap="round" stroke-linejoin="round"/>
<path d="M154.082 238.012C159.008 238.012 163.002 234.007 163.002 229.066C163.002 224.125 159.008 220.12 154.082 220.12C149.155 220.12 145.161 224.125 145.161 229.066C145.161 234.007 149.155 238.012 154.082 238.012Z" stroke="#F5F5F5" stroke-linecap="round" stroke-linejoin="round"/>
<path d="M38.1149 255.903C43.0415 255.903 47.0354 251.898 47.0354 246.957C47.0354 242.017 43.0415 238.012 38.1149 238.012C33.1882 238.012 29.1943 242.017 29.1943 246.957C29.1943 251.898 33.1882 255.903 38.1149 255.903Z" stroke="#F5F5F5" stroke-width="3" stroke-linecap="round" stroke-linejoin="round"/>
<path d="M97.5851 321.506C102.512 321.506 106.506 317.501 106.506 312.56C106.506 307.619 102.512 303.614 97.5851 303.614C92.6584 303.614 88.6646 307.619 88.6646 312.56C88.6646 317.501 92.6584 321.506 97.5851 321.506Z" stroke="#F5F5F5" stroke-width="3" stroke-linecap="round" stroke-linejoin="round"/>
<path d="M157.055 399.036C161.982 399.036 165.976 395.031 165.976 390.09C165.976 385.15 161.982 381.145 157.055 381.145C152.129 381.145 148.135 385.15 148.135 390.09C148.135 395.031 152.129 399.036 157.055 399.036Z" stroke="#F5F5F5" stroke-linecap="round" stroke-linejoin="round"/>
<path d="M275.996 405C280.922 405 284.916 400.995 284.916 396.054C284.916 391.114 280.922 387.108 275.996 387.108C271.069 387.108 267.075 391.114 267.075 396.054C267.075 400.995 271.069 405 275.996 405Z" stroke="#F5F5F5" stroke-linecap="round" stroke-linejoin="round"/>
<path d="M267.075 396.055L165.976 390.091" stroke="#F5F5F5" stroke-width="3" stroke-linecap="round" stroke-linejoin="round"/>
<path d="M278.969 387.108L317.625 267.831" stroke="#F5F5F5" stroke-width="3" stroke-linecap="round" stroke-linejoin="round"/>
<path d="M321.41 249.939L332.859 208.192" stroke="#F5F5F5" stroke-width="3" stroke-linecap="round" stroke-linejoin="round"/>
<path d="M338.379 191.934L348.688 148.555" stroke="#F5F5F5" stroke-width="3" stroke-linecap="round" stroke-linejoin="round"/>
<path d="M308.704 258.886L278.969 243.381" stroke="#F5F5F5" stroke-width="3" stroke-linecap="round" stroke-linejoin="round"/>
<path d="M261.128 238.012L222.473 229.066" stroke="#F5F5F5" stroke-width="3" stroke-linecap="round" stroke-linejoin="round"/>
<path d="M204.632 229.066H163.002" stroke="#F5F5F5" stroke-width="3" stroke-linecap="round" stroke-linejoin="round"/>
<path d="M148.135 238.012L106.506 312.56" stroke="#F5F5F5" stroke-width="3" stroke-linecap="round" stroke-linejoin="round"/>
<path d="M44.8315 253.298L88.6647 307.915" stroke="#F5F5F5" stroke-width="3" stroke-linecap="round" stroke-linejoin="round"/>
<path d="M100.263 321.506L148.135 390.09" stroke="#F5F5F5" stroke-width="3" stroke-linecap="round" stroke-linejoin="round"/>
<path d="M143.423 154.518L154.082 220.12" stroke="#F5F5F5" stroke-linecap="round" stroke-linejoin="round"/>
<path d="M142.188 136.627L139.214 71.0244" stroke="#F5F5F5" stroke-width="3" stroke-linecap="round" stroke-linejoin="round"/>
<path d="M213.552 41.2051V106.807" stroke="#F5F5F5" stroke-width="3" stroke-linecap="round" stroke-linejoin="round"/>
<path d="M213.552 124.699V220.121" stroke="#F5F5F5" stroke-width="3" stroke-linecap="round" stroke-linejoin="round"/>
<path d="M278.969 160.482L273.392 232.049" stroke="#F5F5F5" stroke-width="3" stroke-linecap="round" stroke-linejoin="round"/>
<path d="M280.459 142.591L287.89 76.9883" stroke="#F5F5F5" stroke-width="3" stroke-linecap="round" stroke-linejoin="round"/>
<path d="M168.949 227.71C168.949 220.973 163.503 215.512 156.785 215.512C150.067 215.512 144.621 220.973 144.621 227.71C144.621 234.448 150.067 239.909 156.785 239.909C163.503 239.909 168.949 234.448 168.949 227.71Z" fill="#281F2C" stroke="white" stroke-width="1.5"/>
<path d="M173.004 227.711C173.004 218.728 165.743 211.445 156.785 211.445C147.827 211.445 140.566 218.728 140.566 227.711C140.566 236.693 147.827 243.976 156.785 243.976C165.743 243.976 173.004 236.693 173.004 227.711Z" stroke="white"/>
<path d="M282.483 395.783C282.483 389.045 277.037 383.584 270.319 383.584C263.601 383.584 258.155 389.045 258.155 395.783C258.155 402.52 263.601 407.981 270.319 407.981C277.037 407.981 282.483 402.52 282.483 395.783Z" fill="#281F2C" stroke="white" stroke-width="1.5"/>
<path d="M286.538 395.783C286.538 386.8 279.277 379.518 270.319 379.518C261.362 379.518 254.1 386.8 254.1 395.783C254.1 404.766 261.362 412.048 270.319 412.048C279.277 412.048 286.538 404.766 286.538 395.783Z" stroke="white"/>
<path d="M152.73 59.6381C152.73 52.9009 147.284 47.4393 140.566 47.4393C133.848 47.4393 128.401 52.9009 128.401 59.6381C128.401 66.3753 133.848 71.8369 140.566 71.8369C147.284 71.8369 152.73 66.3753 152.73 59.6381Z" fill="#281F2C" stroke="white" stroke-width="1.5"/>
<path d="M156.785 59.6383C156.785 50.6553 149.523 43.3732 140.566 43.3732C131.608 43.3732 124.347 50.6553 124.347 59.6383C124.347 68.6212 131.608 75.9033 140.566 75.9033C149.523 75.9033 156.785 68.6212 156.785 59.6383Z" stroke="white"/>
<path d="M226.201 33.2944C226.201 26.5572 220.755 21.0956 214.036 21.0956C207.318 21.0956 201.872 26.5572 201.872 33.2944C201.872 40.0316 207.318 45.4932 214.036 45.4932C220.755 45.4932 226.201 40.0316 226.201 33.2944Z" fill="#281F2C" stroke="white" stroke-width="1.5"/>
<path d="M230.256 33.2945C230.256 24.3116 222.994 17.0294 214.037 17.0294C205.079 17.0294 197.817 24.3116 197.817 33.2945C197.817 42.2775 205.079 49.5596 214.037 49.5596C222.994 49.5596 230.256 42.2775 230.256 33.2945Z" stroke="white"/>
<path d="M168.949 390.362C168.949 383.625 163.503 378.163 156.785 378.163C150.067 378.163 144.621 383.625 144.621 390.362C144.621 397.099 150.067 402.561 156.785 402.561C163.503 402.561 168.949 397.099 168.949 390.362Z" fill="#281F2C" stroke="white" stroke-width="1.5"/>
<path d="M173.004 390.362C173.004 381.379 165.743 374.097 156.785 374.097C147.827 374.097 140.566 381.379 140.566 390.362C140.566 399.345 147.827 406.627 156.785 406.627C165.743 406.627 173.004 399.345 173.004 390.362Z" stroke="white"/>
<path d="M301.176 68.4701C301.176 61.7329 295.73 56.2714 289.012 56.2714C282.294 56.2714 276.848 61.7329 276.848 68.4701C276.848 75.2074 282.294 80.6689 289.012 80.6689C295.73 80.6689 301.176 75.2074 301.176 68.4701Z" fill="#281F2C" stroke="white" stroke-width="1.5"/>
<path d="M305.231 68.4703C305.231 59.4873 297.97 52.2052 289.012 52.2052C280.055 52.2052 272.793 59.4873 272.793 68.4703C272.793 77.4532 280.055 84.7354 289.012 84.7354C297.97 84.7354 305.231 77.4532 305.231 68.4703Z" stroke="white"/>
</svg>
