<svg width="418" height="450" viewBox="0 0 418 450" fill="none" xmlns="http://www.w3.org/2000/svg">
<path fill-rule="evenodd" clip-rule="evenodd" d="M294.303 225C308.422 225 319.867 236.635 319.867 250.988V269.55C319.867 278.492 315.425 286.379 308.661 291.055C309.271 292.483 309.607 294.059 309.607 295.714C309.607 302.223 304.416 307.5 298.013 307.5C291.804 307.5 286.735 302.538 286.433 296.303L286.421 295.528L283.02 295.534L239.522 295.537C225.404 295.537 213.958 283.903 213.958 269.55V250.988C213.958 236.635 225.404 225 239.522 225H294.303Z" stroke="#F5F5F5" stroke-width="3" stroke-linecap="round" stroke-linejoin="round"/>
<path d="M288.296 332.631C292.117 332.631 295.215 329.529 295.215 325.701C295.215 321.874 292.117 318.771 288.296 318.771C284.474 318.771 281.376 321.874 281.376 325.701C281.376 329.529 284.474 332.631 288.296 332.631Z" stroke="#F5F5F5" stroke-linecap="round" stroke-linejoin="round"/>
<path fill-rule="evenodd" clip-rule="evenodd" d="M267.521 408.651C287.984 415.206 344.259 438.445 357.936 419.576C371.613 400.706 357.249 376.88 357.936 373.792C358.623 370.705 371.684 356.979 372.554 353.896C373.135 351.841 372.002 346.634 369.156 338.277C377.231 330.975 380.764 325.987 379.756 323.313C378.748 320.638 377.646 312.979 376.45 300.334C400.063 288.503 411.87 278.975 411.87 271.751C411.87 266.448 400.603 254.769 390.479 240.655C379.916 225.928 370.45 208.788 369.156 205.149C366.622 198.022 390.674 124.583 335.889 60.1619C281.104 -4.25959 166.077 -1.03422 120.178 15.5185C74.279 32.0713 34.0035 58.6677 12.2396 125.305C-9.52439 191.942 24.2091 265.459 58.5505 296.386C92.8919 327.314 92.8918 360.955 83.9293 387.706C102.389 412.153 184.711 446.872 229.546 444.531C234.035 436.245 238.905 428.817 244.154 422.249C253.605 410.423 263.723 407.435 267.521 408.651Z" stroke="#F5F5F5" stroke-width="3" stroke-linecap="round" stroke-linejoin="round"/>
<path fill-rule="evenodd" clip-rule="evenodd" d="M91.3012 91.0713C76.3267 91.0713 64.1875 104.503 64.1875 121.071V142.5C64.1875 158.73 75.8361 171.95 90.3877 172.483L102.179 185.357L113.966 172.496L149.402 172.5C164.376 172.5 176.516 159.068 176.516 142.5V121.071C176.516 104.503 164.376 91.0713 149.402 91.0713H91.3012Z" stroke="#F5F5F5" stroke-width="3" stroke-linecap="round" stroke-linejoin="round"/>
<path fill-rule="evenodd" clip-rule="evenodd" d="M216.201 132.992C223.746 140.342 237.639 157.7 244.401 168.721C251.163 179.742 261.532 188.036 278.626 188.036C295.721 188.036 307.41 180.015 310.113 168.721C312.816 157.427 316.852 128.268 319.593 104.99C320.621 96.2636 318.68 93.6543 315.077 93.6543C311.474 93.6543 309.846 94.6171 307.29 104.095C304.734 113.573 302.417 123.256 301.267 123.382C300.118 123.508 301.125 109.999 301.267 102.783C301.409 95.5662 301.741 87.4435 301.95 81.8835C301.957 81.7048 301.96 81.5293 301.96 81.3568C301.949 76.161 298.772 73.7542 295.633 73.7542C292.39 73.7542 289.651 75.4586 289.075 81.8408C288.5 88.223 283.048 119.682 283.048 117.21C283.048 114.738 282.666 83.809 283.283 72.5534C283.679 65.3404 277.873 64.2346 275.752 64.2879C273.63 64.3413 268.927 65.2227 268.853 72.0925C268.78 78.9623 268.158 112.526 267.692 116.794C267.227 121.061 263.815 86.3003 262.9 79.1875C261.985 72.0747 256.483 71.3991 254.338 72.0925C252.192 72.7859 248.64 73.7542 248.728 82.9895C248.816 92.2249 248.64 127.178 248.728 132.992C248.816 138.806 245.447 139.336 242.598 137.656C239.749 135.975 233.972 131.371 230.324 128.249C225.906 124.468 218.865 124.227 216.201 126.157C212.605 128.763 213.883 130.733 216.201 132.992Z" stroke="#F5F5F5" stroke-width="3" stroke-linecap="round" stroke-linejoin="round"/>
<path fill-rule="evenodd" clip-rule="evenodd" d="M133.266 318.75C133.266 318.75 179.725 288.262 179.725 257.271C179.725 226.279 138.573 220.929 133.266 251.925C127.958 220.929 85.5835 223.894 85.5835 257.271C85.5835 290.647 133.266 318.75 133.266 318.75Z" stroke="#F5F5F5" stroke-width="3" stroke-linecap="round" stroke-linejoin="round"/>
<path d="M199.453 80.9297V334.843" stroke="#F5F5F5" stroke-width="3" stroke-linecap="round" stroke-linejoin="round"/>
<path d="M326.215 207.886H72.6899" stroke="#F5F5F5" stroke-width="3" stroke-linecap="round" stroke-linejoin="round"/>
<path d="M76.2226 133.929C76.2226 127.272 70.8343 121.875 64.1875 121.875C57.5407 121.875 52.1523 127.272 52.1523 133.929C52.1523 140.586 57.5407 145.982 64.1875 145.982C70.8343 145.982 76.2226 140.586 76.2226 133.929Z" fill="#281F2C" stroke="white" stroke-width="1.5"/>
<path d="M80.2344 133.929C80.2344 125.053 73.0499 117.857 64.1875 117.857C55.3251 117.857 48.1406 125.053 48.1406 133.929C48.1406 142.805 55.3251 150 64.1875 150C73.0499 150 80.2344 142.805 80.2344 133.929Z" stroke="white"/>
<path d="M295.53 332.143C295.53 325.486 290.141 320.089 283.495 320.089C276.848 320.089 271.459 325.486 271.459 332.143C271.459 338.8 276.848 344.196 283.495 344.196C290.141 344.196 295.53 338.8 295.53 332.143Z" fill="#281F2C" stroke="white" stroke-width="1.5"/>
<path d="M299.541 332.142C299.541 323.266 292.357 316.071 283.495 316.071C274.632 316.071 267.448 323.266 267.448 332.142C267.448 341.018 274.632 348.214 283.495 348.214C292.357 348.214 299.541 341.018 299.541 332.142Z" stroke="white"/>
<path d="M322.274 166.071C322.274 159.414 316.886 154.018 310.239 154.018C303.592 154.018 298.204 159.414 298.204 166.071C298.204 172.728 303.592 178.125 310.239 178.125C316.886 178.125 322.274 172.728 322.274 166.071Z" fill="#281F2C" stroke="white" stroke-width="1.5"/>
<path d="M326.286 166.071C326.286 157.195 319.102 150 310.239 150C301.377 150 294.192 157.195 294.192 166.071C294.192 174.947 301.377 182.143 310.239 182.143C319.102 182.143 326.286 174.947 326.286 166.071Z" stroke="white"/>
<path d="M97.6186 246.429C97.6186 239.772 92.2303 234.375 85.5835 234.375C78.9367 234.375 73.5483 239.772 73.5483 246.429C73.5483 253.086 78.9367 258.482 85.5835 258.482C92.2303 258.482 97.6186 253.086 97.6186 246.429Z" fill="#281F2C" stroke="white" stroke-width="1.5"/>
<path d="M101.63 246.429C101.63 237.553 94.4459 230.357 85.5835 230.357C76.721 230.357 69.5366 237.553 69.5366 246.429C69.5366 255.305 76.721 262.5 85.5835 262.5C94.4459 262.5 101.63 255.305 101.63 246.429Z" stroke="white"/>
</svg>
