<svg width="308" height="450" viewBox="0 0 308 450" fill="none" xmlns="http://www.w3.org/2000/svg">
<path d="M247.62 415.405C246.998 402.804 246.954 389.43 249.233 379.485C253.244 361.981 255.331 327.901 254.893 317.423C254.454 306.945 255.932 281.673 254.46 274.113C251.122 256.964 249.09 244.21 240.35 242.72C234.523 241.727 229.758 243.245 226.053 247.272" stroke="#F5F5F5" stroke-width="3" stroke-linecap="round" stroke-linejoin="round"/>
<path d="M247.628 79.1209C264.04 79.1209 277.344 65.8371 277.344 49.4506C277.344 33.0641 264.04 19.7803 247.628 19.7803C231.217 19.7803 217.913 33.0641 217.913 49.4506C217.913 65.8371 231.217 79.1209 247.628 79.1209Z" stroke="#F5F5F5" stroke-width="3" stroke-linecap="round" stroke-linejoin="round"/>
<path d="M34.6675 158.242C51.0789 158.242 64.3829 144.958 64.3829 128.572C64.3829 112.185 51.0789 98.9014 34.6675 98.9014C18.2562 98.9014 4.95215 112.185 4.95215 128.572C4.95215 144.958 18.2562 158.242 34.6675 158.242Z" stroke="#F5F5F5" stroke-width="3" stroke-linecap="round" stroke-linejoin="round"/>
<path d="M272.391 187.912C288.802 187.912 302.107 174.628 302.107 158.242C302.107 141.855 288.802 128.571 272.391 128.571C255.98 128.571 242.676 141.855 242.676 158.242C242.676 174.628 255.98 187.912 272.391 187.912Z" stroke="#F5F5F5" stroke-width="3" stroke-linecap="round" stroke-linejoin="round"/>
<path d="M118.862 79.1209C135.273 79.1209 148.577 65.8371 148.577 49.4506C148.577 33.0641 135.273 19.7803 118.862 19.7803C102.451 19.7803 89.1465 33.0641 89.1465 49.4506C89.1465 65.8371 102.451 79.1209 118.862 79.1209Z" stroke="#F5F5F5" stroke-width="3" stroke-linecap="round" stroke-linejoin="round"/>
<path d="M226.029 247.263C226.029 247.263 221.946 238.576 212.977 238.009C206.997 237.631 201.957 239.593 197.856 243.895C194.483 239.774 190.357 237.71 185.478 237.702C180.598 237.694 176.357 240.159 172.753 245.097" stroke="#F5F5F5" stroke-width="3" stroke-linecap="round" stroke-linejoin="round"/>
<path d="M172.753 245.097C166.708 176.964 162.666 140.273 160.627 135.023C157.57 127.148 146.552 127.473 143.844 136.488C141.135 145.503 139.523 170.618 138.736 195.074C137.949 219.531 141.435 256.849 137.366 268.425C133.297 280.002 128.839 287.909 126.69 292.573" stroke="#F5F5F5" stroke-width="3" stroke-linecap="round" stroke-linejoin="round"/>
<path d="M131.42 281.982C120.1 258.814 111.282 244.785 104.966 239.896C95.4912 232.562 81.0151 230.517 79.3594 237.852C77.7038 245.187 93.9569 271.033 95.6659 279.811C97.3749 288.59 105.748 333.724 117.466 349.013C129.185 364.302 149.414 380.568 151.675 386.031C153.937 391.494 159.478 408.211 156.247 424.253C153.016 440.296 193.514 446.314 208.832 443.341C219.044 441.359 242.455 426.405 244.974 423.079C246.653 420.862 247.535 418.305 247.62 415.406" stroke="#F5F5F5" stroke-width="3" stroke-linecap="round" stroke-linejoin="round"/>
<path d="M163.664 152.125C170.918 148.246 175.852 140.606 175.852 131.815C175.852 119.099 165.528 108.791 152.793 108.791C140.057 108.791 129.733 119.099 129.733 131.815C129.733 140.33 134.363 147.766 141.246 151.749" stroke="#F5F5F5" stroke-width="3" stroke-linecap="round" stroke-linejoin="round"/>
<path fill-rule="evenodd" clip-rule="evenodd" d="M225.184 68.1758L169.005 115.046L225.184 68.1758Z" stroke="#F5F5F5" stroke-width="3" stroke-linecap="round" stroke-linejoin="round"/>
<path fill-rule="evenodd" clip-rule="evenodd" d="M243.352 151.038L175.646 134.241L243.352 151.038Z" stroke="#F5F5F5" stroke-width="3" stroke-linecap="round" stroke-linejoin="round"/>
<path fill-rule="evenodd" clip-rule="evenodd" d="M130.691 77.3252L144.307 109.408L130.691 77.3252Z" stroke="#F5F5F5" stroke-width="3" stroke-linecap="round" stroke-linejoin="round"/>
<path fill-rule="evenodd" clip-rule="evenodd" d="M64.3721 128.571H129.502H64.3721Z" stroke="#F5F5F5" stroke-width="3" stroke-linecap="round" stroke-linejoin="round"/>
<path d="M283.535 187.912C283.535 181.767 278.546 176.785 272.391 176.785C266.237 176.785 261.248 181.767 261.248 187.912C261.248 194.057 266.237 199.038 272.391 199.038C278.546 199.038 283.535 194.057 283.535 187.912Z" fill="#292929" stroke="white" stroke-width="1.5"/>
<path d="M287.249 187.912C287.249 179.719 280.597 173.077 272.391 173.077C264.185 173.077 257.533 179.719 257.533 187.912C257.533 196.105 264.185 202.747 272.391 202.747C280.597 202.747 287.249 196.105 287.249 187.912Z" stroke="white"/>
<path d="M164.416 131.675C164.416 125.53 159.427 120.549 153.273 120.549C147.119 120.549 142.13 125.53 142.13 131.675C142.13 137.82 147.119 142.802 153.273 142.802C159.427 142.802 164.416 137.82 164.416 131.675Z" fill="#292929" stroke="white" stroke-width="1.5"/>
<path d="M168.13 131.676C168.13 123.482 161.478 116.84 153.273 116.84C145.067 116.84 138.415 123.482 138.415 131.676C138.415 139.869 145.067 146.511 153.273 146.511C161.478 146.511 168.13 139.869 168.13 131.676Z" stroke="white"/>
<path d="M263.724 19.7799C263.724 13.6349 258.735 8.6535 252.581 8.6535C246.427 8.6535 241.438 13.6349 241.438 19.7799C241.438 25.9248 246.427 30.9062 252.581 30.9062C258.735 30.9062 263.724 25.9248 263.724 19.7799Z" fill="#292929" stroke="white" stroke-width="1.5"/>
<path d="M267.438 19.7801C267.438 11.5868 260.786 4.94491 252.58 4.94491C244.375 4.94491 237.723 11.5868 237.723 19.7801C237.723 27.9733 244.375 34.6152 252.58 34.6152C260.786 34.6152 267.438 27.9733 267.438 19.7801Z" stroke="white"/>
<path d="M35.9066 98.901C35.9066 92.756 30.9176 87.7746 24.7634 87.7746C18.6091 87.7746 13.6201 92.756 13.6201 98.901C13.6201 105.046 18.6091 110.027 24.7634 110.027C30.9176 110.027 35.9066 105.046 35.9066 98.901Z" fill="#292929" stroke="white" stroke-width="1.5"/>
<path d="M39.6206 98.9012C39.6206 90.7079 32.9686 84.066 24.763 84.066C16.5573 84.066 9.90527 90.7079 9.90527 98.9012C9.90527 107.094 16.5573 113.736 24.763 113.736C32.9686 113.736 39.6206 107.094 39.6206 98.9012Z" stroke="white"/>
<path d="M154.768 54.3951C154.768 48.2502 149.779 43.2687 143.625 43.2687C137.47 43.2687 132.481 48.2502 132.481 54.3951C132.481 60.54 137.47 65.5215 143.625 65.5215C149.779 65.5215 154.768 60.54 154.768 54.3951Z" fill="#292929" stroke="white" stroke-width="1.5"/>
<path d="M158.482 54.3953C158.482 46.2021 151.83 39.5601 143.624 39.5601C135.419 39.5601 128.767 46.2021 128.767 54.3953C128.767 62.5885 135.419 69.2305 143.624 69.2305C151.83 69.2305 158.482 62.5885 158.482 54.3953Z" stroke="white"/>
</svg>
