<svg width="300" height="450" viewBox="0 0 300 450" fill="none" xmlns="http://www.w3.org/2000/svg">
<path d="M257.41 341.546C257.41 357.955 257.41 382.014 257.41 417.455C257.41 435.866 243.344 444.441 231.169 444.441H69.2517C53.6562 444.441 42.8574 430.681 42.8574 415.097C42.8574 382.434 42.8574 356.768 42.8574 341.546" stroke="#F5F5F5" stroke-width="3" stroke-linecap="round" stroke-linejoin="round"/>
<path d="M42.8574 97.1017C42.8574 83.7777 42.8574 63.7917 42.8574 37.1437C42.8574 18.6767 54.3691 5.35742 71.3027 5.35742H228.174C244.781 5.35742 257.41 19.5726 257.41 37.1437C257.41 64.7745 257.41 83.2863 257.41 97.1017" stroke="#F5F5F5" stroke-width="3" stroke-linecap="round" stroke-linejoin="round"/>
<path d="M240.201 341.546C240.201 356.114 240.201 376.537 240.201 407.767C240.835 420.678 234.633 427.365 221.593 427.826L220.117 427.851H77.9551C63.9078 427.851 57.2129 421.156 57.8703 407.767C57.8703 378.335 57.8703 356.262 57.8703 341.546" stroke="#F5F5F5" stroke-width="3" stroke-linecap="round" stroke-linejoin="round"/>
<path d="M57.8701 97.2396C57.8701 83.7655 57.8701 65.1054 57.8701 38.1573C57.8701 27.3488 63.8138 21.4051 75.7012 20.3262H101.557C101.773 28.6704 105.945 32.8425 114.073 32.8425H183.998C191.72 32.8425 195.872 29.0772 196.453 21.5465L196.515 20.3262H222.37C233.762 21.3602 239.696 26.862 240.17 36.8316L240.201 38.1573C240.201 65.4619 240.201 83.5872 240.201 97.2396" stroke="#F5F5F5" stroke-width="3" stroke-linecap="round" stroke-linejoin="round"/>
<path d="M21.4287 171.429V112.5H80.3573" stroke="#F5F5F5" stroke-width="3" stroke-linecap="round" stroke-linejoin="round"/>
<path d="M278.571 171.429V112.5H219.643" stroke="#F5F5F5" stroke-width="3" stroke-linecap="round" stroke-linejoin="round"/>
<path d="M21.4287 267.858V326.786H80.3573" stroke="#F5F5F5" stroke-width="3" stroke-linecap="round" stroke-linejoin="round"/>
<path d="M278.571 267.858V326.786H219.643" stroke="#F5F5F5" stroke-width="3" stroke-linecap="round" stroke-linejoin="round"/>
<path d="M156.566 210.885V178.557C156.566 177.579 157.359 176.786 158.338 176.786C158.613 176.786 158.884 176.85 159.13 176.973L234.792 220.161C235.667 220.599 236.021 221.663 235.584 222.538C235.413 222.881 235.135 223.158 234.792 223.33L159.13 266.518C158.255 266.955 157.191 266.601 156.753 265.726C156.63 265.48 156.566 265.209 156.566 264.934V233.006" stroke="#F5F5F5" stroke-width="3" stroke-linecap="round" stroke-linejoin="round"/>
<path d="M156.594 232.359L88.2773 266.518C87.4023 266.955 86.3384 266.601 85.9009 265.726C85.7779 265.48 85.7139 265.209 85.7139 264.934V178.557C85.7139 177.579 86.5069 176.786 87.4852 176.786C87.7602 176.786 88.0314 176.85 88.2773 176.973L155.992 210.831" stroke="#F5F5F5" stroke-width="3" stroke-linecap="round" stroke-linejoin="round"/>
<path d="M97.7673 219.643C97.7673 212.986 92.3707 207.589 85.7137 207.589C79.0567 207.589 73.6602 212.986 73.6602 219.643C73.6602 226.3 79.0567 231.696 85.7137 231.696C92.3707 231.696 97.7673 226.3 97.7673 219.643Z" fill="#281F2C" stroke="white" stroke-width="1.5"/>
<path d="M101.785 219.642C101.785 210.766 94.59 203.571 85.714 203.571C76.838 203.571 69.6426 210.766 69.6426 219.642C69.6426 228.518 76.838 235.714 85.714 235.714C94.59 235.714 101.785 228.518 101.785 219.642Z" stroke="white"/>
<path d="M33.4821 112.5C33.4821 105.843 28.0856 100.447 21.4286 100.447C14.7716 100.447 9.375 105.843 9.375 112.5C9.375 119.157 14.7716 124.554 21.4286 124.554C28.0856 124.554 33.4821 119.157 33.4821 112.5Z" fill="#281F2C" stroke="white" stroke-width="1.5"/>
<path d="M37.5003 112.5C37.5003 103.624 30.3049 96.4284 21.4289 96.4284C12.5528 96.4284 5.35742 103.624 5.35742 112.5C5.35742 121.376 12.5528 128.571 21.4289 128.571C30.3049 128.571 37.5003 121.376 37.5003 112.5Z" stroke="white"/>
<path d="M290.625 326.786C290.625 320.129 285.228 314.733 278.571 314.733C271.914 314.733 266.518 320.129 266.518 326.786C266.518 333.443 271.914 338.84 278.571 338.84C285.228 338.84 290.625 333.443 290.625 326.786Z" fill="#281F2C" stroke="white" stroke-width="1.5"/>
<path d="M294.643 326.786C294.643 317.91 287.447 310.715 278.571 310.715C269.695 310.715 262.5 317.91 262.5 326.786C262.5 335.662 269.695 342.857 278.571 342.857C287.447 342.857 294.643 335.662 294.643 326.786Z" stroke="white"/>
</svg>
