<svg width="564" height="450" viewBox="0 0 564 450" fill="none" xmlns="http://www.w3.org/2000/svg">
<path d="M33.3047 274.603C48.8685 274.603 61.4854 262.011 61.4854 246.478C61.4854 230.945 48.8685 218.353 33.3047 218.353C17.7409 218.353 5.12402 230.945 5.12402 246.478C5.12402 262.011 17.7409 274.603 33.3047 274.603Z" stroke="#C0C0C0" stroke-width="3" stroke-linecap="round" stroke-linejoin="round"/>
<path d="M117.847 274.603C133.41 274.603 146.027 262.011 146.027 246.478C146.027 230.945 133.41 218.353 117.847 218.353C102.283 218.353 89.666 230.945 89.666 246.478C89.666 262.011 102.283 274.603 117.847 274.603Z" stroke="#C0C0C0" stroke-width="3" stroke-linecap="round" stroke-linejoin="round"/>
<path d="M117.847 162.103C133.41 162.103 146.027 149.511 146.027 133.978C146.027 118.445 133.41 105.853 117.847 105.853C102.283 105.853 89.666 118.445 89.666 133.978C89.666 149.511 102.283 162.103 117.847 162.103Z" stroke="#C0C0C0" stroke-width="3" stroke-linecap="round" stroke-linejoin="round"/>
<path d="M117.847 387.103C133.41 387.103 146.027 374.511 146.027 358.978C146.027 343.445 133.41 330.853 117.847 330.853C102.283 330.853 89.666 343.445 89.666 358.978C89.666 374.511 102.283 387.103 117.847 387.103Z" stroke="#C0C0C0" stroke-width="3" stroke-linecap="round" stroke-linejoin="round"/>
<path d="M230.569 330.853C246.133 330.853 258.75 318.261 258.75 302.728C258.75 287.195 246.133 274.603 230.569 274.603C215.006 274.603 202.389 287.195 202.389 302.728C202.389 318.261 215.006 330.853 230.569 330.853Z" stroke="#C0C0C0" stroke-width="3" stroke-linecap="round" stroke-linejoin="round"/>
<path d="M230.569 218.353C246.133 218.353 258.75 205.761 258.75 190.228C258.75 174.695 246.133 162.103 230.569 162.103C215.006 162.103 202.389 174.695 202.389 190.228C202.389 205.761 215.006 218.353 230.569 218.353Z" stroke="#C0C0C0" stroke-width="3" stroke-linecap="round" stroke-linejoin="round"/>
<path d="M230.569 105.853C246.133 105.853 258.75 93.2605 258.75 77.7275C258.75 62.1945 246.133 49.6025 230.569 49.6025C215.006 49.6025 202.389 62.1945 202.389 77.7275C202.389 93.2605 215.006 105.853 230.569 105.853Z" stroke="#C0C0C0" stroke-width="3" stroke-linecap="round" stroke-linejoin="round"/>
<path d="M230.569 443.353C246.133 443.353 258.75 430.761 258.75 415.228C258.75 399.695 246.133 387.103 230.569 387.103C215.006 387.103 202.389 399.695 202.389 415.228C202.389 430.761 215.006 443.353 230.569 443.353Z" stroke="#C0C0C0" stroke-width="3" stroke-linecap="round" stroke-linejoin="round"/>
<path d="M49.6162 223.081L97.7653 154.02" stroke="#C0C0C0" stroke-width="3" stroke-linecap="round" stroke-linejoin="round"/>
<path d="M61.4854 246.478H89.8065" stroke="#C0C0C0" stroke-width="3" stroke-linecap="round" stroke-linejoin="round"/>
<path d="M49.6152 269.86L97.8776 339.048" stroke="#C0C0C0" stroke-width="3" stroke-linecap="round" stroke-linejoin="round"/>
<path d="M143.275 121.288L205.2 90.3867" stroke="#C0C0C0" stroke-width="3" stroke-linecap="round" stroke-linejoin="round"/>
<path d="M214.871 101.229L133.53 222.999" stroke="#C0C0C0" stroke-width="3" stroke-linecap="round" stroke-linejoin="round"/>
<path d="M220.087 103.882L128.429 332.575" stroke="#C0C0C0" stroke-width="3" stroke-linecap="round" stroke-linejoin="round"/>
<path d="M205.359 177.647L143.184 146.621" stroke="#C0C0C0" stroke-width="3" stroke-linecap="round" stroke-linejoin="round"/>
<path d="M205.277 202.849L143.15 233.851" stroke="#C0C0C0" stroke-width="3" stroke-linecap="round" stroke-linejoin="round"/>
<path d="M214.888 213.704L133.607 335.384" stroke="#C0C0C0" stroke-width="3" stroke-linecap="round" stroke-linejoin="round"/>
<path d="M214.874 279.23L133.553 157.489" stroke="#C0C0C0" stroke-width="3" stroke-linecap="round" stroke-linejoin="round"/>
<path d="M205.308 290.121L143.229 259.144" stroke="#C0C0C0" stroke-width="3" stroke-linecap="round" stroke-linejoin="round"/>
<path d="M205.33 315.322L143.126 346.363" stroke="#C0C0C0" stroke-width="3" stroke-linecap="round" stroke-linejoin="round"/>
<path d="M205.363 402.65L143.189 371.624" stroke="#C0C0C0" stroke-width="3" stroke-linecap="round" stroke-linejoin="round"/>
<path d="M214.87 391.724L133.554 269.991" stroke="#C0C0C0" stroke-width="3" stroke-linecap="round" stroke-linejoin="round"/>
<path d="M220.061 389.008L128.349 160.18" stroke="#C0C0C0" stroke-width="3" stroke-linecap="round" stroke-linejoin="round"/>
<path fill-rule="evenodd" clip-rule="evenodd" d="M529.284 274.603C513.72 274.603 501.104 262.011 501.104 246.478C501.104 230.945 513.72 218.353 529.284 218.353C544.848 218.353 557.465 230.945 557.465 246.478C557.465 262.011 544.848 274.603 529.284 274.603Z" stroke="#C0C0C0" stroke-width="3" stroke-linecap="round" stroke-linejoin="round"/>
<path fill-rule="evenodd" clip-rule="evenodd" d="M444.742 274.603C429.178 274.603 416.562 262.011 416.562 246.478C416.562 230.945 429.178 218.353 444.742 218.353C460.306 218.353 472.923 230.945 472.923 246.478C472.923 262.011 460.306 274.603 444.742 274.603Z" stroke="#C0C0C0" stroke-width="3" stroke-linecap="round" stroke-linejoin="round"/>
<path fill-rule="evenodd" clip-rule="evenodd" d="M444.742 162.103C429.178 162.103 416.562 149.511 416.562 133.978C416.562 118.445 429.178 105.853 444.742 105.853C460.306 105.853 472.923 118.445 472.923 133.978C472.923 149.511 460.306 162.103 444.742 162.103Z" stroke="#C0C0C0" stroke-width="3" stroke-linecap="round" stroke-linejoin="round"/>
<path fill-rule="evenodd" clip-rule="evenodd" d="M444.742 387.103C429.178 387.103 416.562 374.511 416.562 358.978C416.562 343.445 429.178 330.853 444.742 330.853C460.306 330.853 472.923 343.445 472.923 358.978C472.923 374.511 460.306 387.103 444.742 387.103Z" stroke="#C0C0C0" stroke-width="3" stroke-linecap="round" stroke-linejoin="round"/>
<path fill-rule="evenodd" clip-rule="evenodd" d="M332.02 330.853C316.456 330.853 303.839 318.261 303.839 302.728C303.839 287.195 316.456 274.603 332.02 274.603C347.583 274.603 360.2 287.195 360.2 302.728C360.2 318.261 347.583 330.853 332.02 330.853Z" stroke="#C0C0C0" stroke-width="3" stroke-linecap="round" stroke-linejoin="round"/>
<path fill-rule="evenodd" clip-rule="evenodd" d="M332.02 218.353C316.456 218.353 303.839 205.761 303.839 190.228C303.839 174.695 316.456 162.103 332.02 162.103C347.583 162.103 360.2 174.695 360.2 190.228C360.2 205.761 347.583 218.353 332.02 218.353Z" stroke="#C0C0C0" stroke-width="3" stroke-linecap="round" stroke-linejoin="round"/>
<path fill-rule="evenodd" clip-rule="evenodd" d="M332.02 105.853C316.456 105.853 303.839 93.2605 303.839 77.7275C303.839 62.1945 316.456 49.6025 332.02 49.6025C347.583 49.6025 360.2 62.1945 360.2 77.7275C360.2 93.2605 347.583 105.853 332.02 105.853Z" stroke="#C0C0C0" stroke-width="3" stroke-linecap="round" stroke-linejoin="round"/>
<path fill-rule="evenodd" clip-rule="evenodd" d="M332.02 443.353C316.456 443.353 303.839 430.761 303.839 415.228C303.839 399.695 316.456 387.103 332.02 387.103C347.583 387.103 360.2 399.695 360.2 415.228C360.2 430.761 347.583 443.353 332.02 443.353Z" stroke="#C0C0C0" stroke-width="3" stroke-linecap="round" stroke-linejoin="round"/>
<path d="M512.758 222.772L464.824 154.019" stroke="#C0C0C0" stroke-width="3" stroke-linecap="round" stroke-linejoin="round"/>
<path d="M501.104 246.478H472.923" stroke="#C0C0C0" stroke-width="3" stroke-linecap="round" stroke-linejoin="round"/>
<path d="M512.898 269.969L464.712 339.047" stroke="#C0C0C0" stroke-width="3" stroke-linecap="round" stroke-linejoin="round"/>
<path d="M419.314 121.288L357.389 90.3867" stroke="#C0C0C0" stroke-width="3" stroke-linecap="round" stroke-linejoin="round"/>
<path d="M347.718 101.229L429.059 222.999" stroke="#C0C0C0" stroke-width="3" stroke-linecap="round" stroke-linejoin="round"/>
<path d="M342.502 103.881L434.16 332.574" stroke="#C0C0C0" stroke-width="3" stroke-linecap="round" stroke-linejoin="round"/>
<path d="M357.23 177.647L419.406 146.621" stroke="#C0C0C0" stroke-width="3" stroke-linecap="round" stroke-linejoin="round"/>
<path d="M357.312 202.849L419.438 233.851" stroke="#C0C0C0" stroke-width="3" stroke-linecap="round" stroke-linejoin="round"/>
<path d="M347.702 213.704L428.983 335.384" stroke="#C0C0C0" stroke-width="3" stroke-linecap="round" stroke-linejoin="round"/>
<path d="M347.716 279.23L429.037 157.489" stroke="#C0C0C0" stroke-width="3" stroke-linecap="round" stroke-linejoin="round"/>
<path d="M357.281 290.121L419.36 259.144" stroke="#C0C0C0" stroke-width="3" stroke-linecap="round" stroke-linejoin="round"/>
<path d="M357.26 315.322L419.463 346.363" stroke="#C0C0C0" stroke-width="3" stroke-linecap="round" stroke-linejoin="round"/>
<path d="M357.226 402.65L419.4 371.624" stroke="#C0C0C0" stroke-width="3" stroke-linecap="round" stroke-linejoin="round"/>
<path d="M347.72 391.724L429.036 269.991" stroke="#C0C0C0" stroke-width="3" stroke-linecap="round" stroke-linejoin="round"/>
<path d="M342.528 389.008L434.241 160.18" stroke="#C0C0C0" stroke-width="3" stroke-linecap="round" stroke-linejoin="round"/>
<path d="M262.593 20.4553C262.593 14.1008 257.432 8.94957 251.065 8.94957C244.698 8.94957 239.536 14.1008 239.536 20.4553C239.536 26.8097 244.698 31.9609 251.065 31.9609C257.432 31.9609 262.593 26.8097 262.593 20.4553Z" fill="#292929" stroke="white" stroke-width="1.5"/>
<path d="M266.436 20.455C266.436 11.9824 259.554 5.11408 251.065 5.11408C242.575 5.11408 235.693 11.9824 235.693 20.455C235.693 28.9275 242.575 35.7959 251.065 35.7959C259.554 35.7959 266.436 28.9275 266.436 20.455Z" stroke="white"/>
<path d="M293.335 20.4553C293.335 14.1008 288.174 8.94957 281.807 8.94957C275.44 8.94957 270.278 14.1008 270.278 20.4553C270.278 26.8097 275.44 31.9609 281.807 31.9609C288.174 31.9609 293.335 26.8097 293.335 20.4553Z" fill="#292929" stroke="white" stroke-width="1.5"/>
<path d="M297.178 20.455C297.178 11.9824 290.296 5.11408 281.807 5.11408C273.318 5.11408 266.436 11.9824 266.436 20.455C266.436 28.9275 273.318 35.7959 281.807 35.7959C290.296 35.7959 297.178 28.9275 297.178 20.455Z" stroke="white"/>
<path d="M324.077 20.4553C324.077 14.1008 318.916 8.94957 312.549 8.94957C306.182 8.94957 301.021 14.1008 301.021 20.4553C301.021 26.8097 306.182 31.9609 312.549 31.9609C318.916 31.9609 324.077 26.8097 324.077 20.4553Z" fill="#292929" stroke="white" stroke-width="1.5"/>
<path d="M327.92 20.455C327.92 11.9824 321.038 5.11408 312.549 5.11408C304.06 5.11408 297.178 11.9824 297.178 20.455C297.178 28.9275 304.06 35.7959 312.549 35.7959C321.038 35.7959 327.92 28.9275 327.92 20.455Z" stroke="white"/>
</svg>
