<svg width="401" height="450" viewBox="0 0 401 450" fill="none" xmlns="http://www.w3.org/2000/svg">
<path fill-rule="evenodd" clip-rule="evenodd" d="M200.376 5.09766L239.194 43.9023L200.376 82.7069L161.558 43.9023L200.376 5.09766Z" stroke="#F5F5F5" stroke-width="3" stroke-linecap="round" stroke-linejoin="round"/>
<path fill-rule="evenodd" clip-rule="evenodd" d="M200.376 246.562L239.194 285.366L200.376 324.171L161.558 285.366L200.376 246.562Z" stroke="#F5F5F5" stroke-width="3" stroke-linecap="round" stroke-linejoin="round"/>
<path fill-rule="evenodd" clip-rule="evenodd" d="M354.089 367.293L392.907 406.098L354.089 444.902L315.271 406.098L354.089 367.293Z" stroke="#F5F5F5" stroke-width="3" stroke-linecap="round" stroke-linejoin="round"/>
<path fill-rule="evenodd" clip-rule="evenodd" d="M46.6631 246.562L85.4814 285.366L46.6631 324.171L7.84473 285.366L46.6631 246.562Z" stroke="#F5F5F5" stroke-width="3" stroke-linecap="round" stroke-linejoin="round"/>
<path fill-rule="evenodd" clip-rule="evenodd" d="M230.569 134.451V194.817H170.182V134.451H230.569Z" stroke="#F5F5F5" stroke-width="3" stroke-linecap="round" stroke-linejoin="round"/>
<path fill-rule="evenodd" clip-rule="evenodd" d="M230.569 375.915V436.281H170.182V375.915H230.569Z" stroke="#F5F5F5" stroke-width="3" stroke-linecap="round" stroke-linejoin="round"/>
<path fill-rule="evenodd" clip-rule="evenodd" d="M76.8569 375.915V436.281H16.4697V375.915H76.8569Z" stroke="#F5F5F5" stroke-width="3" stroke-linecap="round" stroke-linejoin="round"/>
<path d="M354.088 194.817C370.764 194.817 384.282 181.304 384.282 164.634C384.282 147.965 370.764 134.451 354.088 134.451C337.413 134.451 323.895 147.965 323.895 164.634C323.895 181.304 337.413 194.817 354.088 194.817Z" stroke="#F5F5F5" stroke-width="3" stroke-linecap="round" stroke-linejoin="round"/>
<path d="M46.6633 194.817C63.3387 194.817 76.8569 181.304 76.8569 164.634C76.8569 147.965 63.3387 134.451 46.6633 134.451C29.9878 134.451 16.4697 147.965 16.4697 164.634C16.4697 181.304 29.9878 194.817 46.6633 194.817Z" stroke="#F5F5F5" stroke-width="3" stroke-linecap="round" stroke-linejoin="round"/>
<path d="M200.376 82.707V133.929" stroke="#F5F5F5" stroke-width="3" stroke-linecap="round" stroke-linejoin="round"/>
<path d="M169.66 164.635H76.8564" stroke="#F5F5F5" stroke-width="3" stroke-linecap="round" stroke-linejoin="round"/>
<path d="M46.6631 195.34V246.562" stroke="#F5F5F5" stroke-width="3" stroke-linecap="round" stroke-linejoin="round"/>
<path d="M85.4814 285.366H161.558" stroke="#F5F5F5" stroke-width="3" stroke-linecap="round" stroke-linejoin="round"/>
<path d="M200.376 324.171V375.393" stroke="#F5F5F5" stroke-width="3" stroke-linecap="round" stroke-linejoin="round"/>
<path d="M323.895 164.635H231.092" stroke="#F5F5F5" stroke-width="3" stroke-linecap="round" stroke-linejoin="round"/>
<path d="M77.3789 406.098H170.182" stroke="#F5F5F5" stroke-width="3" stroke-linecap="round" stroke-linejoin="round"/>
<path d="M354.089 195.34V367.294" stroke="#F5F5F5" stroke-width="3" stroke-linecap="round" stroke-linejoin="round"/>
<path d="M239.194 285.366H350.564" stroke="#F5F5F5" stroke-width="3" stroke-linecap="round" stroke-linejoin="round"/>
<path d="M138.616 164.634C138.616 157.815 133.086 152.286 126.264 152.286C119.442 152.286 113.912 157.815 113.912 164.634C113.912 171.453 119.442 176.981 126.264 176.981C133.086 176.981 138.616 171.453 138.616 164.634Z" fill="#281F2C" stroke="white" stroke-width="1.5"/>
<path d="M142.733 164.634C142.733 155.542 135.36 148.171 126.264 148.171C117.168 148.171 109.795 155.542 109.795 164.634C109.795 173.727 117.168 181.098 126.264 181.098C135.36 181.098 142.733 173.727 142.733 164.634Z" stroke="white"/>
<path d="M292.329 164.634C292.329 157.815 286.799 152.286 279.977 152.286C273.155 152.286 267.625 157.815 267.625 164.634C267.625 171.453 273.155 176.981 279.977 176.981C286.799 176.981 292.329 171.453 292.329 164.634Z" fill="#281F2C" stroke="white" stroke-width="1.5"/>
<path d="M296.446 164.634C296.446 155.542 289.073 148.171 279.977 148.171C270.881 148.171 263.508 155.542 263.508 164.634C263.508 173.727 270.881 181.098 279.977 181.098C289.073 181.098 296.446 173.727 296.446 164.634Z" stroke="white"/>
<path d="M366.65 285.025C366.65 278.206 361.12 272.678 354.298 272.678C347.476 272.678 341.946 278.206 341.946 285.025C341.946 291.845 347.476 297.373 354.298 297.373C361.12 297.373 366.65 291.845 366.65 285.025Z" fill="#281F2C" stroke="white" stroke-width="1.5"/>
<path d="M370.768 285.026C370.768 275.933 363.394 268.562 354.298 268.562C345.203 268.562 337.829 275.933 337.829 285.026C337.829 294.118 345.203 301.489 354.298 301.489C363.394 301.489 370.768 294.118 370.768 285.026Z" stroke="white"/>
<path d="M138.616 406.098C138.616 399.278 133.086 393.75 126.264 393.75C119.442 393.75 113.912 399.278 113.912 406.098C113.912 412.917 119.442 418.445 126.264 418.445C133.086 418.445 138.616 412.917 138.616 406.098Z" fill="#281F2C" stroke="white" stroke-width="1.5"/>
<path d="M142.733 406.098C142.733 397.006 135.36 389.635 126.264 389.635C117.168 389.635 109.795 397.006 109.795 406.098C109.795 415.191 117.168 422.562 126.264 422.562C135.36 422.562 142.733 415.191 142.733 406.098Z" stroke="white"/>
</svg>
