<svg width="433" height="450" viewBox="0 0 433 450" fill="none" xmlns="http://www.w3.org/2000/svg">
<path d="M48.5088 91.0033V25.0512C48.5088 14.5295 57.0569 6 67.6016 6H366.723C377.268 6 385.816 14.5295 385.816 25.0512V91.0033" stroke="#F5F5F5" stroke-width="3" stroke-linecap="round" stroke-linejoin="round"/>
<path d="M385.816 362.789C385.816 376.117 385.816 396.896 385.816 425.126C385.816 435.648 377.268 444.177 366.723 444.177H67.6016C57.0569 444.177 48.5088 435.648 48.5088 425.126V362.789" stroke="#F5F5F5" stroke-width="3" stroke-linecap="round" stroke-linejoin="round"/>
<path d="M366.723 362.789C366.723 375.157 366.723 394.041 366.723 418.776C366.723 422.283 363.874 425.126 360.359 425.126H73.9658C70.4509 425.126 67.6016 422.283 67.6016 418.776V362.789" stroke="#F5F5F5" stroke-width="3" stroke-linecap="round" stroke-linejoin="round"/>
<path d="M67.6016 91.0029V31.4012C67.6016 27.894 70.4509 25.0508 73.9658 25.0508H360.359C363.874 25.0508 366.723 27.894 366.723 31.4012V91.0029" stroke="#F5F5F5" stroke-width="3" stroke-linecap="round" stroke-linejoin="round"/>
<path fill-rule="evenodd" clip-rule="evenodd" d="M220.663 119.585L316.723 174.924V285.603L220.663 340.942L124.604 285.603V174.924L220.663 119.585Z" stroke="#F5F5F5" stroke-width="3" stroke-linecap="round" stroke-linejoin="round"/>
<path d="M316.723 176.738L220.663 232.078L124.604 176.738" stroke="#F5F5F5" stroke-width="3" stroke-linecap="round" stroke-linejoin="round"/>
<path d="M220.663 233.893V340.942" stroke="#F5F5F5" stroke-width="3" stroke-linecap="round" stroke-linejoin="round"/>
<path d="M24.0527 173.203V107.203H90.1971" stroke="#F5F5F5" stroke-width="3" stroke-linecap="round" stroke-linejoin="round"/>
<path d="M408.892 173.203V107.203H342.748" stroke="#F5F5F5" stroke-width="3" stroke-linecap="round" stroke-linejoin="round"/>
<path d="M24.0527 281.203V347.203H90.1971" stroke="#F5F5F5" stroke-width="3" stroke-linecap="round" stroke-linejoin="round"/>
<path d="M408.892 281.203V347.203H342.748" stroke="#F5F5F5" stroke-width="3" stroke-linecap="round" stroke-linejoin="round"/>
<path d="M422.421 348C422.421 340.544 416.364 334.5 408.892 334.5C401.42 334.5 395.362 340.544 395.362 348C395.362 355.456 401.42 361.5 408.892 361.5C416.364 361.5 422.421 355.456 422.421 348Z" fill="#281F2C" stroke="white" stroke-width="1.5"/>
<path d="M426.931 348C426.931 338.059 418.855 330 408.892 330C398.929 330 390.853 338.059 390.853 348C390.853 357.941 398.929 366 408.892 366C418.855 366 426.931 357.941 426.931 348Z" stroke="white"/>
<path d="M234.153 340.985C234.153 333.53 228.095 327.485 220.623 327.485C213.151 327.485 207.094 333.53 207.094 340.985C207.094 348.441 213.151 354.485 220.623 354.485C228.095 354.485 234.153 348.441 234.153 340.985Z" fill="#281F2C" stroke="white" stroke-width="1.5"/>
<path d="M238.663 340.985C238.663 331.044 230.586 322.985 220.623 322.985C210.66 322.985 202.584 331.044 202.584 340.985C202.584 350.926 210.66 358.985 220.623 358.985C230.586 358.985 238.663 350.926 238.663 340.985Z" stroke="white"/>
<path d="M37.5815 108C37.5815 100.544 31.5241 94.5 24.052 94.5C16.5798 94.5 10.5225 100.544 10.5225 108C10.5225 115.456 16.5798 121.5 24.052 121.5C31.5241 121.5 37.5815 115.456 37.5815 108Z" fill="#281F2C" stroke="white" stroke-width="1.5"/>
<path d="M42.0914 108C42.0914 98.0589 34.0149 90 24.0521 90C14.0892 90 6.0127 98.0589 6.0127 108C6.0127 117.941 14.0892 126 24.0521 126C34.0149 126 42.0914 117.941 42.0914 108Z" stroke="white"/>
<path d="M326.211 180C326.211 172.544 320.154 166.5 312.682 166.5C305.21 166.5 299.152 172.544 299.152 180C299.152 187.456 305.21 193.5 312.682 193.5C320.154 193.5 326.211 187.456 326.211 180Z" fill="#281F2C" stroke="white" stroke-width="1.5"/>
<path d="M330.721 180C330.721 170.059 322.645 162 312.682 162C302.719 162 294.643 170.059 294.643 180C294.643 189.941 302.719 198 312.682 198C322.645 198 330.721 189.941 330.721 180Z" stroke="white"/>
</svg>
