<svg width="438" height="450" viewBox="0 0 438 450" fill="none" xmlns="http://www.w3.org/2000/svg">
<path fill-rule="evenodd" clip-rule="evenodd" d="M23.0526 42.5977V327.518L176.093 283.958V5.76953L23.0526 42.5977Z" stroke="#F5F5F5" stroke-width="3" stroke-linecap="round" stroke-linejoin="round"/>
<path fill-rule="evenodd" clip-rule="evenodd" d="M259.99 144.609V429.529L413.03 385.97V107.781L259.99 144.609Z" stroke="#F5F5F5" stroke-width="3" stroke-linecap="round" stroke-linejoin="round"/>
<path d="M413.03 107.782L176.093 5.76953" stroke="#F5F5F5" stroke-width="3" stroke-linecap="round" stroke-linejoin="round"/>
<path d="M23.0526 42.5977L259.99 144.61" stroke="#F5F5F5" stroke-width="3" stroke-linecap="round" stroke-linejoin="round"/>
<path d="M413.03 385.969L176.093 283.957" stroke="#F5F5F5" stroke-width="3" stroke-linecap="round" stroke-linejoin="round"/>
<path d="M259.99 429.53L23.0526 327.518" stroke="#F5F5F5" stroke-width="3" stroke-linecap="round" stroke-linejoin="round"/>
<path d="M332.894 222.013C338.146 222.013 342.403 217.751 342.403 212.494C342.403 207.236 338.146 202.975 332.894 202.975C327.642 202.975 323.385 207.236 323.385 212.494C323.385 217.751 327.642 222.013 332.894 222.013Z" stroke="#F5F5F5" stroke-width="3" stroke-linecap="round" stroke-linejoin="round"/>
<path d="M294.857 241.05C300.109 241.05 304.366 236.788 304.366 231.531C304.366 226.274 300.109 222.012 294.857 222.012C289.605 222.012 285.348 226.274 285.348 231.531C285.348 236.788 289.605 241.05 294.857 241.05Z" stroke="#F5F5F5" stroke-linecap="round" stroke-linejoin="round"/>
<path d="M307.536 380.665C312.788 380.665 317.045 376.404 317.045 371.146C317.045 365.889 312.788 361.627 307.536 361.627C302.284 361.627 298.027 365.889 298.027 371.146C298.027 376.404 302.284 380.665 307.536 380.665Z" stroke="#F5F5F5" stroke-width="3" stroke-linecap="round" stroke-linejoin="round"/>
<path d="M180.747 323.55C185.998 323.55 190.256 319.288 190.256 314.031C190.256 308.774 185.998 304.512 180.747 304.512C175.495 304.512 171.237 308.774 171.237 314.031C171.237 319.288 175.495 323.55 180.747 323.55Z" stroke="#F5F5F5" stroke-width="3" stroke-linecap="round" stroke-linejoin="round"/>
<path d="M79.3151 222.013C84.5668 222.013 88.8243 217.751 88.8243 212.494C88.8243 207.236 84.5668 202.975 79.3151 202.975C74.0633 202.975 69.8058 207.236 69.8058 212.494C69.8058 217.751 74.0633 222.013 79.3151 222.013Z" stroke="#F5F5F5" stroke-width="3" stroke-linecap="round" stroke-linejoin="round"/>
<path d="M123.691 247.398C128.943 247.398 133.201 243.136 133.201 237.879C133.201 232.621 128.943 228.359 123.691 228.359C118.44 228.359 114.182 232.621 114.182 237.879C114.182 243.136 118.44 247.398 123.691 247.398Z" stroke="#F5F5F5" stroke-width="3" stroke-linecap="round" stroke-linejoin="round"/>
<path d="M199.765 367.974C205.017 367.974 209.274 363.712 209.274 358.455C209.274 353.197 205.017 348.936 199.765 348.936C194.513 348.936 190.256 353.197 190.256 358.455C190.256 363.712 194.513 367.974 199.765 367.974Z" stroke="#F5F5F5" stroke-width="3" stroke-linecap="round" stroke-linejoin="round"/>
<path d="M231.462 348.935C236.714 348.935 240.972 344.673 240.972 339.416C240.972 334.158 236.714 329.896 231.462 329.896C226.211 329.896 221.953 334.158 221.953 339.416C221.953 344.673 226.211 348.935 231.462 348.935Z" stroke="#F5F5F5" stroke-width="3" stroke-linecap="round" stroke-linejoin="round"/>
<path d="M218.783 228.359C224.035 228.359 228.293 224.097 228.293 218.84C228.293 213.582 224.035 209.32 218.783 209.32C213.532 209.32 209.274 213.582 209.274 218.84C209.274 224.097 213.532 228.359 218.783 228.359Z" stroke="#F5F5F5" stroke-width="3" stroke-linecap="round" stroke-linejoin="round"/>
<path d="M130.031 164.898C135.283 164.898 139.54 160.636 139.54 155.379C139.54 150.121 135.283 145.859 130.031 145.859C124.779 145.859 120.522 150.121 120.522 155.379C120.522 160.636 124.779 164.898 130.031 164.898Z" stroke="#F5F5F5" stroke-linecap="round" stroke-linejoin="round"/>
<path d="M123.691 202.974C128.943 202.974 133.201 198.712 133.201 193.455C133.201 188.197 128.943 183.936 123.691 183.936C118.44 183.936 114.182 188.197 114.182 193.455C114.182 198.712 118.44 202.974 123.691 202.974Z" stroke="#F5F5F5" stroke-width="3" stroke-linecap="round" stroke-linejoin="round"/>
<path d="M139.757 150.002C139.757 142.833 133.951 137.021 126.789 137.021C119.628 137.021 113.822 142.833 113.822 150.002C113.822 157.171 119.628 162.982 126.789 162.982C133.951 162.982 139.757 157.171 139.757 150.002Z" fill="#281F2C" stroke="white" stroke-width="3"/>
<path d="M144.079 150.001C144.079 140.442 136.338 132.693 126.789 132.693C117.241 132.693 109.5 140.442 109.5 150.001C109.5 159.56 117.241 167.309 126.789 167.309C136.338 167.309 144.079 159.56 144.079 150.001Z" stroke="white" stroke-width="3"/>
<path d="M306.888 230.769C306.888 223.6 301.083 217.788 293.921 217.788C286.76 217.788 280.954 223.6 280.954 230.769C280.954 237.938 286.76 243.75 293.921 243.75C301.083 243.75 306.888 237.938 306.888 230.769Z" fill="#281F2C" stroke="white" stroke-width="3"/>
<path d="M311.211 230.768C311.211 221.21 303.47 213.461 293.921 213.461C284.372 213.461 276.632 221.21 276.632 230.768C276.632 240.327 284.372 248.076 293.921 248.076C303.47 248.076 311.211 240.327 311.211 230.768Z" stroke="white" stroke-width="3"/>
<path d="M272.309 426.924C272.309 419.754 266.504 413.943 259.342 413.943C252.181 413.943 246.375 419.754 246.375 426.924C246.375 434.093 252.181 439.904 259.342 439.904C266.504 439.904 272.309 434.093 272.309 426.924Z" fill="#281F2C" stroke="white" stroke-width="3"/>
<path d="M276.632 426.923C276.632 417.364 268.891 409.615 259.342 409.615C249.793 409.615 242.053 417.364 242.053 426.923C242.053 436.482 249.793 444.23 259.342 444.23C268.891 444.23 276.632 436.482 276.632 426.923Z" stroke="white" stroke-width="3"/>
<path d="M427.914 109.617C427.914 102.448 422.109 96.6361 414.947 96.6361C407.786 96.6361 401.98 102.448 401.98 109.617C401.98 116.786 407.786 122.598 414.947 122.598C422.109 122.598 427.914 116.786 427.914 109.617Z" fill="#281F2C" stroke="white" stroke-width="3"/>
<path d="M432.237 109.616C432.237 100.057 424.496 92.3084 414.947 92.3084C405.399 92.3084 397.658 100.057 397.658 109.616C397.658 119.175 405.399 126.924 414.947 126.924C424.496 126.924 432.237 119.175 432.237 109.616Z" stroke="white" stroke-width="3"/>
<path d="M36.0197 46.154C36.0197 38.9849 30.2142 33.1732 23.0526 33.1732C15.8911 33.1732 10.0855 38.9849 10.0855 46.154C10.0855 53.3231 15.8911 59.1348 23.0526 59.1348C30.2142 59.1348 36.0197 53.3231 36.0197 46.154Z" fill="#281F2C" stroke="white" stroke-width="3"/>
<path d="M40.3421 46.1532C40.3421 36.5945 32.6013 28.8456 23.0526 28.8456C13.5039 28.8456 5.76315 36.5945 5.76315 46.1532C5.76315 55.712 13.5039 63.4609 23.0526 63.4609C32.6013 63.4609 40.3421 55.712 40.3421 46.1532Z" stroke="white" stroke-width="3"/>
</svg>
