<svg width="529" height="450" viewBox="0 0 529 450" fill="none" xmlns="http://www.w3.org/2000/svg">
<path d="M303.43 317.854C286.121 329.549 272.735 335.396 263.27 335.396C253.805 335.396 239.85 329.549 221.405 317.854" stroke="#F5F5F5" stroke-width="3" stroke-linecap="round" stroke-linejoin="round"/>
<path d="M221.405 317.848C226.947 319.115 233.17 319.115 240.074 317.848C246.978 316.58 254.572 316.598 262.858 317.901" stroke="#F5F5F5" stroke-width="3" stroke-linecap="round" stroke-linejoin="round"/>
<path d="M303.43 317.848C297.888 319.115 291.665 319.115 284.761 317.848C277.857 316.58 270.556 316.598 262.858 317.901" stroke="#F5F5F5" stroke-width="3" stroke-linecap="round" stroke-linejoin="round"/>
<path d="M221.405 317.855C233.23 309.675 239.142 305.586 239.142 305.586C239.142 305.586 246.724 299.161 258.806 305.586C258.806 305.586 261.957 307.013 265.043 305.586" stroke="#F5F5F5" stroke-width="3" stroke-linecap="round" stroke-linejoin="round"/>
<path d="M303.43 317.855C291.386 309.675 285.363 305.586 285.363 305.586C285.363 305.586 277.125 299.161 265.043 305.586" stroke="#F5F5F5" stroke-width="3" stroke-linecap="round" stroke-linejoin="round"/>
<path d="M408.65 199.094C409.661 199.819 410.646 200.647 411.593 201.555C419.845 210.323 415.147 231.534 413.037 238.3C410.928 245.067 404.16 252.876 400.739 257.431C397.319 261.987 397.319 275.659 390.836 277.785C386.514 279.203 382.495 278.802 378.779 276.584C371.609 307.742 357.799 332.698 337.347 351.45C306.669 379.58 299.04 387.652 262.858 387.652" stroke="#F5F5F5" stroke-width="3" stroke-linecap="round" stroke-linejoin="round"/>
<path d="M401.538 148.842C401.823 140.594 401.374 132.569 400.191 124.768C395.592 94.4401 389.733 75.2249 366.059 46.3349C346.469 22.4296 317.555 5.55469 262.858 5.55469" stroke="#F5F5F5" stroke-width="3" stroke-linecap="round" stroke-linejoin="round"/>
<path d="M117.036 201.555C108.784 210.323 113.483 231.534 115.592 238.3C117.701 245.067 124.469 252.877 127.89 257.432C131.311 261.987 131.311 275.659 137.793 277.785C142.115 279.203 146.134 278.802 149.85 276.584C157.02 307.742 170.831 332.698 191.282 351.451C221.96 379.58 226.677 387.652 262.858 387.652" stroke="#F5F5F5" stroke-width="3" stroke-linecap="round" stroke-linejoin="round"/>
<path d="M127.061 147.864C126.843 139.959 127.302 132.26 128.438 124.768C133.037 94.4401 138.896 75.2249 162.57 46.3349C182.16 22.4296 208.162 5.55469 262.858 5.55469" stroke="#F5F5F5" stroke-width="3" stroke-linecap="round" stroke-linejoin="round"/>
<path d="M332.119 234.221C355.362 234.221 374.205 217.507 374.205 196.888C374.205 176.269 355.362 159.555 332.119 159.555C308.876 159.555 290.034 176.269 290.034 196.888C290.034 217.507 308.876 234.221 332.119 234.221Z" stroke="#F5F5F5" stroke-width="3" stroke-linecap="round" stroke-linejoin="round"/>
<path d="M191.834 234.221C215.077 234.221 233.92 217.507 233.92 196.888C233.92 176.269 215.077 159.555 191.834 159.555C168.591 159.555 149.749 176.269 149.749 196.888C149.749 217.507 168.591 234.221 191.834 234.221Z" stroke="#F5F5F5" stroke-width="3" stroke-linecap="round" stroke-linejoin="round"/>
<path fill-rule="evenodd" clip-rule="evenodd" d="M252.624 168.889H271.329C276.494 168.889 280.681 173.067 280.681 178.222C280.681 183.377 276.494 187.555 271.329 187.555H252.624C247.459 187.555 243.272 183.377 243.272 178.222C243.272 173.067 247.459 168.889 252.624 168.889Z" stroke="#F5F5F5" stroke-width="3" stroke-linecap="round" stroke-linejoin="round"/>
<path d="M388.233 182.889C393.398 182.889 397.585 178.711 397.585 173.556C397.585 168.401 393.398 164.223 388.233 164.223C383.068 164.223 378.881 168.401 378.881 173.556C378.881 178.711 383.068 182.889 388.233 182.889Z" stroke="#F5F5F5" stroke-width="3" stroke-linecap="round" stroke-linejoin="round"/>
<path d="M135.72 182.889C140.885 182.889 145.072 178.711 145.072 173.556C145.072 168.401 140.885 164.223 135.72 164.223C130.555 164.223 126.368 168.401 126.368 173.556C126.368 178.711 130.555 182.889 135.72 182.889Z" stroke="#F5F5F5" stroke-width="3" stroke-linecap="round" stroke-linejoin="round"/>
<path d="M133.382 206.223C137.256 206.223 140.396 203.089 140.396 199.223C140.396 195.357 137.256 192.223 133.382 192.223C129.508 192.223 126.368 195.357 126.368 199.223C126.368 203.089 129.508 206.223 133.382 206.223Z" stroke="#F5F5F5" stroke-width="3" stroke-linecap="round" stroke-linejoin="round"/>
<path d="M390.571 206.223C394.445 206.223 397.585 203.089 397.585 199.223C397.585 195.357 394.445 192.223 390.571 192.223C386.697 192.223 383.557 195.357 383.557 199.223C383.557 203.089 386.697 206.223 390.571 206.223Z" stroke="#F5F5F5" stroke-width="3" stroke-linecap="round" stroke-linejoin="round"/>
<path d="M117.015 151.029C111.659 162.936 108.981 172 108.981 178.222C108.981 187.555 127.086 245.247 194.933 245.247C206.199 245.247 236.21 242.017 246.696 200.212C248.191 195.553 251.111 194.014 261.977 194.014" stroke="#F5F5F5" stroke-width="3" stroke-linecap="round" stroke-linejoin="round"/>
<path d="M117.015 151.03C166.895 134.013 216.48 125.504 265.771 125.504C315.062 125.504 362.118 134.013 406.938 151.03C412.294 162.936 414.972 172 414.972 178.222C414.972 187.556 396.868 245.247 329.02 245.247C317.755 245.247 287.743 242.017 277.257 200.213C275.762 195.553 272.842 194.014 261.977 194.014" stroke="#F5F5F5" stroke-width="3" stroke-linecap="round" stroke-linejoin="round"/>
<path d="M406.938 151.029C414.405 153.146 418.579 155.159 419.458 157.069C420.776 159.934 425.642 173.555 416.29 178.222" stroke="#F5F5F5" stroke-width="3" stroke-linecap="round" stroke-linejoin="round"/>
<path d="M117.015 151.029C110.17 153.146 106.308 155.159 105.429 157.069C104.111 159.934 99.2443 173.555 108.597 178.222" stroke="#F5F5F5" stroke-width="3" stroke-linecap="round" stroke-linejoin="round"/>
<path d="M85.3965 12.0332C34.5467 20.1411 2.78342 31.6626 2.78342 44.4443C2.78342 68.9903 119.925 88.8888 264.426 88.8888C408.927 88.8888 526.068 68.9903 526.068 44.4443C526.068 32.0093 496.005 20.7671 447.551 12.7005" stroke="#F5F5F5" stroke-width="3" stroke-linecap="round" stroke-linejoin="round"/>
<path d="M85.1125 350.967C34.4285 359.072 2.78342 370.575 2.78342 383.333C2.78342 407.879 119.925 427.777 264.426 427.777C408.927 427.777 526.068 407.879 526.068 383.333C526.068 370.862 495.832 359.591 447.133 351.519" stroke="#F5F5F5" stroke-width="3" stroke-linecap="round" stroke-linejoin="round"/>
<path d="M85.1125 183.334C34.4285 191.439 2.78342 202.942 2.78342 215.7C2.78342 240.246 119.925 260.144 264.426 260.144C408.927 260.144 526.068 240.246 526.068 215.7C526.068 203.229 495.832 191.958 447.133 183.886" stroke="#F5F5F5" stroke-width="3" stroke-linecap="round" stroke-linejoin="round"/>
<path d="M526.069 44.4453V383.334" stroke="#F5F5F5" stroke-linecap="round" stroke-linejoin="round"/>
<path d="M2.78342 44.4453V383.334" stroke="#F5F5F5" stroke-linecap="round" stroke-linejoin="round"/>
<path d="M447.23 14.2949V350.967" stroke="#F5F5F5" stroke-width="3" stroke-linecap="round" stroke-linejoin="round"/>
<path d="M85.3836 14.2949V350.967" stroke="#F5F5F5" stroke-width="3" stroke-linecap="round" stroke-linejoin="round"/>
<path d="M457.874 250C457.874 243.096 452.267 237.5 445.349 237.5C438.431 237.5 432.824 243.096 432.824 250C432.824 256.904 438.431 262.5 445.349 262.5C452.267 262.5 457.874 256.904 457.874 250Z" fill="#281F2C" stroke="white" stroke-width="3"/>
<path d="M462.05 249.999C462.05 240.795 454.572 233.333 445.349 233.333C436.126 233.333 428.648 240.795 428.648 249.999C428.648 259.204 436.126 266.666 445.349 266.666C454.572 266.666 462.05 259.204 462.05 249.999Z" stroke="white" stroke-width="3"/>
<path d="M173.964 44.4453C173.964 37.5418 168.357 31.9453 161.439 31.9453C154.521 31.9453 148.914 37.5418 148.914 44.4453C148.914 51.3489 154.521 56.9453 161.439 56.9453C168.357 56.9453 173.964 51.3489 173.964 44.4453Z" fill="#281F2C" stroke="white" stroke-width="3"/>
<path d="M178.14 44.4447C178.14 35.2399 170.663 27.778 161.439 27.778C152.216 27.778 144.738 35.2399 144.738 44.4447C144.738 53.6494 152.216 61.1113 161.439 61.1113C170.663 61.1113 178.14 53.6494 178.14 44.4447Z" stroke="white" stroke-width="3"/>
<path d="M357.671 427.779C357.671 420.876 352.063 415.279 345.146 415.279C338.228 415.279 332.62 420.876 332.62 427.779C332.62 434.683 338.228 440.279 345.146 440.279C352.063 440.279 357.671 434.683 357.671 427.779Z" fill="#281F2C" stroke="white" stroke-width="3"/>
<path d="M361.846 427.779C361.846 418.574 354.369 411.112 345.146 411.112C335.922 411.112 328.445 418.574 328.445 427.779C328.445 436.983 335.922 444.445 345.146 444.445C354.369 444.445 361.846 436.983 361.846 427.779Z" stroke="white" stroke-width="3"/>
<path d="M96.0284 250C96.0284 243.096 90.4206 237.5 83.503 237.5C76.5853 237.5 70.9775 243.096 70.9775 250C70.9775 256.904 76.5853 262.5 83.503 262.5C90.4206 262.5 96.0284 256.904 96.0284 250Z" fill="#281F2C" stroke="white" stroke-width="3"/>
<path d="M100.204 249.999C100.204 240.795 92.7264 233.333 83.503 233.333C74.2795 233.333 66.8024 240.795 66.8024 249.999C66.8024 259.204 74.2795 266.666 83.503 266.666C92.7264 266.666 100.204 259.204 100.204 249.999Z" stroke="white" stroke-width="3"/>
</svg>
