<svg width="336" height="450" viewBox="0 0 336 450" fill="none" xmlns="http://www.w3.org/2000/svg">
<path d="M211.427 354.828C192.898 367.359 178.567 373.624 168.435 373.624C158.303 373.624 143.363 367.359 123.618 354.828" stroke="#F5F5F5" stroke-width="3" stroke-linecap="round" stroke-linejoin="round"/>
<path d="M123.618 354.821C129.551 356.179 136.213 356.179 143.603 354.821C150.994 353.463 159.124 353.482 167.994 354.878" stroke="#F5F5F5" stroke-width="3" stroke-linecap="round" stroke-linejoin="round"/>
<path d="M211.427 354.821C205.494 356.179 198.832 356.179 191.442 354.821C184.051 353.463 176.235 353.482 167.994 354.878" stroke="#F5F5F5" stroke-width="3" stroke-linecap="round" stroke-linejoin="round"/>
<path d="M123.618 354.828C136.276 346.065 142.606 341.683 142.606 341.683C142.606 341.683 150.722 334.8 163.657 341.683C163.657 341.683 167.03 343.213 170.333 341.683" stroke="#F5F5F5" stroke-width="3" stroke-linecap="round" stroke-linejoin="round"/>
<path d="M211.427 354.828C198.533 346.065 192.087 341.683 192.087 341.683C192.087 341.683 183.267 334.8 170.333 341.683" stroke="#F5F5F5" stroke-width="3" stroke-linecap="round" stroke-linejoin="round"/>
<path d="M303.142 230C309.348 220.638 318.355 223.276 325.363 230C334.197 239.394 329.167 262.12 326.909 269.37C324.652 276.62 317.406 284.988 313.744 289.868C310.082 294.749 310.082 309.398 303.142 311.676C298.516 313.194 294.214 312.765 290.235 310.388C282.56 343.772 267.775 370.511 245.881 390.603C213.04 420.741 205.448 429.39 166.715 429.39" stroke="#F5F5F5" stroke-width="3" stroke-linecap="round" stroke-linejoin="round"/>
<path d="M303.142 230C313.642 200.389 316.98 172.966 313.157 147.729C308.234 115.234 301.962 94.6466 276.618 63.6931C255.647 38.0802 224.693 20 166.139 20" stroke="#F5F5F5" stroke-width="3" stroke-linecap="round" stroke-linejoin="round"/>
<path d="M32.2548 230C26.0497 220.638 17.0424 223.276 10.0341 230C1.20011 239.394 6.22998 262.12 8.48784 269.37C10.7457 276.62 17.9913 284.988 21.6532 289.868C25.3151 294.749 25.3151 309.398 32.2548 311.676C36.8812 313.194 41.1837 312.765 45.1622 310.388C52.8375 343.772 67.6221 370.511 89.5161 390.603C122.357 420.741 127.407 429.39 166.139 429.39" stroke="#F5F5F5" stroke-width="3" stroke-linecap="round" stroke-linejoin="round"/>
<path d="M32.2548 230C21.7548 200.389 18.4166 172.966 22.2403 147.729C27.1636 115.234 33.4354 94.6466 58.7793 63.6931C79.7504 38.0802 107.586 20 166.14 20" stroke="#F5F5F5" stroke-width="3" stroke-linecap="round" stroke-linejoin="round"/>
<path d="M167.698 429.198V20" stroke="#F5F5F5" stroke-width="3" stroke-linecap="round" stroke-linejoin="round"/>
<path fill-rule="evenodd" clip-rule="evenodd" d="M167.994 429.198L289.493 310H46.3154L167.994 429.198Z" stroke="#F5F5F5" stroke-width="3" stroke-linecap="round" stroke-linejoin="round"/>
<path fill-rule="evenodd" clip-rule="evenodd" d="M167.994 259.197L289.493 309.197H46.3154L167.994 259.197Z" stroke="#F5F5F5" stroke-width="3" stroke-linecap="round" stroke-linejoin="round"/>
<path fill-rule="evenodd" clip-rule="evenodd" d="M167.904 19.9995L289.493 309.197H46.3154L167.904 19.9995Z" stroke="#F5F5F5" stroke-width="3" stroke-linecap="round" stroke-linejoin="round"/>
<path fill-rule="evenodd" clip-rule="evenodd" d="M303.142 230L168.671 309.198L32.2549 230H303.142Z" stroke="#F5F5F5" stroke-width="3" stroke-linecap="round" stroke-linejoin="round"/>
<path fill-rule="evenodd" clip-rule="evenodd" d="M300.684 104.197L168.671 309.197L34.8977 104.197L167.994 171.339L300.684 104.197Z" stroke="#F5F5F5" stroke-width="3" stroke-linecap="round" stroke-linejoin="round"/>
<path d="M34.8977 104.197H300.684" stroke="#F5F5F5" stroke-width="3" stroke-linecap="round" stroke-linejoin="round"/>
<path fill-rule="evenodd" clip-rule="evenodd" d="M46.3155 310L32.2549 230L34.8978 104.198L167.994 20L300.684 104.198L303.142 230L289.493 310L232.01 401.97H102.022L46.3155 310Z" stroke="#F5F5F5" stroke-width="3" stroke-linecap="round" stroke-linejoin="round"/>
<path d="M289.493 310L211.427 354.829" stroke="#F5F5F5" stroke-width="3" stroke-linecap="round" stroke-linejoin="round"/>
<path d="M123.618 354.829L46.3154 310" stroke="#F5F5F5" stroke-width="3" stroke-linecap="round" stroke-linejoin="round"/>
<path d="M177.956 431.056C177.956 424.842 172.914 419.806 166.693 419.806C160.472 419.806 155.43 424.842 155.43 431.056C155.43 437.269 160.472 442.306 166.693 442.306C172.914 442.306 177.956 437.269 177.956 431.056Z" fill="#281F2C" stroke="white" stroke-width="3"/>
<path d="M181.711 431.056C181.711 422.771 174.987 416.056 166.693 416.056C158.399 416.056 151.675 422.771 151.675 431.056C151.675 439.34 158.399 446.056 166.693 446.056C174.987 446.056 181.711 439.34 181.711 431.056Z" stroke="white" stroke-width="3"/>
<path d="M179.375 170.147C179.375 163.934 174.332 158.897 168.112 158.897C161.891 158.897 156.848 163.934 156.848 170.147C156.848 176.361 161.891 181.397 168.112 181.397C174.332 181.397 179.375 176.361 179.375 170.147Z" fill="#281F2C" stroke="white" stroke-width="3"/>
<path d="M183.13 170.147C183.13 161.863 176.406 155.147 168.112 155.147C159.818 155.147 153.094 161.863 153.094 170.147C153.094 178.432 159.818 185.147 168.112 185.147C176.406 185.147 183.13 178.432 183.13 170.147Z" stroke="white" stroke-width="3"/>
<path d="M46.3048 105C46.3048 98.7868 41.262 93.75 35.0414 93.75C28.8208 93.75 23.7781 98.7868 23.7781 105C23.7781 111.213 28.8208 116.25 35.0414 116.25C41.262 116.25 46.3048 111.213 46.3048 105Z" fill="#281F2C" stroke="white" stroke-width="3"/>
<path d="M50.0592 105C50.0592 96.7157 43.3356 90 35.0415 90C26.7474 90 20.0237 96.7157 20.0237 105C20.0237 113.284 26.7474 120 35.0415 120C43.3356 120 50.0592 113.284 50.0592 105Z" stroke="white" stroke-width="3"/>
<path d="M311.619 105C311.619 98.7868 306.576 93.75 300.356 93.75C294.135 93.75 289.092 98.7868 289.092 105C289.092 111.213 294.135 116.25 300.356 116.25C306.576 116.25 311.619 111.213 311.619 105Z" fill="#281F2C" stroke="white" stroke-width="3"/>
<path d="M315.373 105C315.373 96.7157 308.65 90 300.356 90C292.062 90 285.338 96.7157 285.338 105C285.338 113.284 292.062 120 300.356 120C308.65 120 315.373 113.284 315.373 105Z" stroke="white" stroke-width="3"/>
<path d="M178.595 18.8652C178.595 12.652 173.552 7.61523 167.331 7.61523C161.111 7.61523 156.068 12.652 156.068 18.8652C156.068 25.0784 161.111 30.1152 167.331 30.1152C173.552 30.1152 178.595 25.0784 178.595 18.8652Z" fill="#281F2C" stroke="white" stroke-width="3"/>
<path d="M182.349 18.8652C182.349 10.581 175.625 3.86523 167.331 3.86523C159.037 3.86523 152.313 10.581 152.313 18.8652C152.313 27.1495 159.037 33.8652 167.331 33.8652C175.625 33.8652 182.349 27.1495 182.349 18.8652Z" stroke="white" stroke-width="3"/>
</svg>
