<svg width="368" height="450" viewBox="0 0 368 450" fill="none" xmlns="http://www.w3.org/2000/svg">
<path d="M72.7284 399.31C58.0592 399.159 49.0279 397.753 45.6344 395.095C42.6143 392.728 41.7138 388.681 40.6135 383.53" stroke="#F5F5F5" stroke-width="3" stroke-linecap="round" stroke-linejoin="round"/>
<path d="M40.6134 383.531C38.9776 377.241 37.4157 372.227 35.9278 368.488C33.6959 362.879 17.9287 343.811 13.7025 330.632C12.7033 327.517 11.9124 324.303 11.3337 321.063" stroke="#F5F5F5" stroke-width="3" stroke-linecap="round" stroke-linejoin="round"/>
<path d="M11.3337 321.112C10.6192 317.099 10.2471 311.805 10.2173 305.232C10.4759 298.902 11.6264 292.936 13.7024 287.916C18.4932 276.333 30.187 250.568 72.7282 250.568" stroke="#F5F5F5" stroke-width="3" stroke-linecap="round" stroke-linejoin="round"/>
<path d="M73.0479 399.348C87.717 399.197 96.7483 397.792 100.142 395.133C103.162 392.767 104.062 388.719 105.163 383.568" stroke="#F5F5F5" stroke-width="3" stroke-linecap="round" stroke-linejoin="round"/>
<path d="M105.163 383.569C106.798 377.279 108.36 372.265 109.848 368.526C112.08 362.918 127.847 343.849 132.074 330.67C133.073 327.555 133.864 324.341 134.442 321.102" stroke="#F5F5F5" stroke-width="3" stroke-linecap="round" stroke-linejoin="round"/>
<path d="M134.442 321.151C135.157 317.137 135.529 311.844 135.559 305.27C135.3 298.94 134.15 292.974 132.074 287.954C127.283 276.371 115.589 250.606 73.0479 250.606" stroke="#F5F5F5" stroke-width="3" stroke-linecap="round" stroke-linejoin="round"/>
<path d="M101.405 394.653V403.816C101.405 407.046 97.9033 409.664 93.5839 409.664H51.8724C47.5531 409.664 44.0515 407.046 44.0515 403.816V397.968V394.007" stroke="#F5F5F5" stroke-width="3" stroke-linecap="round" stroke-linejoin="round"/>
<path d="M101.405 405.091V414.253C101.405 417.483 97.9033 420.101 93.5839 420.101H51.8724C47.5531 420.101 44.0515 417.483 44.0515 414.253V408.405V404.444" stroke="#F5F5F5" stroke-width="3" stroke-linecap="round" stroke-linejoin="round"/>
<path d="M101.405 415.529V424.692C101.405 427.921 97.9033 430.54 93.5839 430.54H51.8724C47.5531 430.54 44.0515 427.921 44.0515 424.692V418.844V414.883" stroke="#F5F5F5" stroke-width="3" stroke-linecap="round" stroke-linejoin="round"/>
<path d="M52.3167 430.623C55.5596 439.321 62.3953 443.671 72.8238 443.671C83.2524 443.671 90.3205 439.321 94.0281 430.623" stroke="#F5F5F5" stroke-width="3" stroke-linecap="round" stroke-linejoin="round"/>
<path d="M183.143 158.969C168.474 158.818 159.443 157.413 156.049 154.754C153.029 152.388 152.129 148.34 151.029 143.189" stroke="#F5F5F5" stroke-width="3" stroke-linecap="round" stroke-linejoin="round"/>
<path d="M151.029 143.19C149.393 136.9 147.831 131.886 146.343 128.147C144.111 122.539 128.344 103.47 124.118 90.2914C123.119 87.1758 122.328 83.9626 121.749 80.7227" stroke="#F5F5F5" stroke-width="3" stroke-linecap="round" stroke-linejoin="round"/>
<path d="M121.749 80.7716C121.035 76.758 120.662 71.4646 120.633 64.8915C120.891 58.5611 122.042 52.595 124.118 47.5754C128.908 35.9919 140.602 10.2275 183.143 10.2275" stroke="#F5F5F5" stroke-width="3" stroke-linecap="round" stroke-linejoin="round"/>
<path d="M183.463 159.007C198.132 158.856 207.164 157.451 210.557 154.792C213.577 152.426 214.478 148.378 215.578 143.228" stroke="#F5F5F5" stroke-width="3" stroke-linecap="round" stroke-linejoin="round"/>
<path d="M215.578 143.228C217.214 136.939 218.776 131.924 220.263 128.185C222.495 122.577 238.263 103.508 242.489 90.3295C243.488 87.2139 244.279 84.0007 244.858 80.7607" stroke="#F5F5F5" stroke-width="3" stroke-linecap="round" stroke-linejoin="round"/>
<path d="M244.858 80.8097C245.572 76.7961 245.944 71.5027 245.974 64.9295C245.715 58.5992 244.565 52.633 242.489 47.6135C237.698 36.03 226.004 10.2656 183.463 10.2656" stroke="#F5F5F5" stroke-width="3" stroke-linecap="round" stroke-linejoin="round"/>
<path d="M211.82 154.312V163.475C211.82 166.705 208.319 169.323 203.999 169.323H162.288C157.968 169.323 154.467 166.705 154.467 163.475V157.627V153.666" stroke="#F5F5F5" stroke-width="3" stroke-linecap="round" stroke-linejoin="round"/>
<path d="M211.82 164.75V173.912C211.82 177.142 208.319 179.76 203.999 179.76H162.288C157.968 179.76 154.467 177.142 154.467 173.912V168.064V164.104" stroke="#F5F5F5" stroke-width="3" stroke-linecap="round" stroke-linejoin="round"/>
<path d="M211.82 175.188V184.351C211.82 187.581 208.319 190.199 203.999 190.199H162.288C157.968 190.199 154.467 187.581 154.467 184.351V178.503V174.542" stroke="#F5F5F5" stroke-width="3" stroke-linecap="round" stroke-linejoin="round"/>
<path d="M162.732 190.282C165.975 198.981 172.81 203.33 183.239 203.33C193.667 203.33 200.735 198.981 204.443 190.282" stroke="#F5F5F5" stroke-width="3" stroke-linecap="round" stroke-linejoin="round"/>
<path d="M297.511 394.197C282.842 394.045 273.81 392.64 270.417 389.981C267.397 387.615 266.496 383.568 265.396 378.417" stroke="#F5F5F5" stroke-width="3" stroke-linecap="round" stroke-linejoin="round"/>
<path d="M265.396 378.417C263.76 372.128 262.198 367.114 260.71 363.375C258.479 357.766 242.711 338.697 238.485 325.519C237.486 322.403 236.695 319.19 236.116 315.95" stroke="#F5F5F5" stroke-width="3" stroke-linecap="round" stroke-linejoin="round"/>
<path d="M236.116 315.998C235.402 311.985 235.03 306.691 235 300.118C235.259 293.788 236.409 287.822 238.485 282.802C243.276 271.219 254.97 245.454 297.511 245.454" stroke="#F5F5F5" stroke-width="3" stroke-linecap="round" stroke-linejoin="round"/>
<path d="M297.831 394.235C312.5 394.083 321.531 392.678 324.925 390.019C327.945 387.653 328.845 383.606 329.945 378.455" stroke="#F5F5F5" stroke-width="3" stroke-linecap="round" stroke-linejoin="round"/>
<path d="M329.945 378.454C331.581 372.165 333.143 367.151 334.631 363.412C336.863 357.803 352.63 338.735 356.856 325.556C357.855 322.44 358.646 319.227 359.225 315.987" stroke="#F5F5F5" stroke-width="3" stroke-linecap="round" stroke-linejoin="round"/>
<path d="M359.225 316.036C359.939 312.023 360.312 306.729 360.341 300.156C360.083 293.826 358.932 287.86 356.856 282.84C352.066 271.257 340.372 245.492 297.831 245.492" stroke="#F5F5F5" stroke-width="3" stroke-linecap="round" stroke-linejoin="round"/>
<path d="M326.188 389.54V398.702C326.188 401.932 322.686 404.551 318.367 404.551H276.655C272.336 404.551 268.834 401.932 268.834 398.702V392.854V388.894" stroke="#F5F5F5" stroke-width="3" stroke-linecap="round" stroke-linejoin="round"/>
<path d="M326.188 399.978V409.14C326.188 412.37 322.686 414.988 318.367 414.988H276.655C272.336 414.988 268.834 412.37 268.834 409.14V403.292V399.331" stroke="#F5F5F5" stroke-width="3" stroke-linecap="round" stroke-linejoin="round"/>
<path d="M326.188 410.416V419.578C326.188 422.808 322.686 425.426 318.367 425.426H276.655C272.336 425.426 268.834 422.808 268.834 419.578V413.73V409.77" stroke="#F5F5F5" stroke-width="3" stroke-linecap="round" stroke-linejoin="round"/>
<path d="M277.099 425.51C280.342 434.208 287.178 438.557 297.606 438.557C308.035 438.557 315.103 434.208 318.811 425.51" stroke="#F5F5F5" stroke-width="3" stroke-linecap="round" stroke-linejoin="round"/>
<path d="M183.913 245.492V203.329" stroke="#F5F5F5" stroke-width="3" stroke-linecap="round" stroke-linejoin="round"/>
<path d="M199.33 264.978L240.017 275.89" stroke="#F5F5F5" stroke-width="3" stroke-linecap="round" stroke-linejoin="round"/>
<path d="M168.496 264.978L127.809 275.89" stroke="#F5F5F5" stroke-width="3" stroke-linecap="round" stroke-linejoin="round"/>
<path d="M348.669 357.955C348.669 351.601 343.522 346.45 337.174 346.45C330.826 346.45 325.679 351.601 325.679 357.955C325.679 364.31 330.826 369.461 337.174 369.461C343.522 369.461 348.669 364.31 348.669 357.955Z" fill="#281F2C" stroke="white" stroke-width="3"/>
<path d="M352.5 357.955C352.5 349.482 345.638 342.614 337.174 342.614C328.71 342.614 321.848 349.482 321.848 357.955C321.848 366.428 328.71 373.296 337.174 373.296C345.638 373.296 352.5 366.428 352.5 357.955Z" stroke="white" stroke-width="3"/>
<path d="M231.169 20.4553C231.169 14.1008 226.022 8.94957 219.674 8.94957C213.326 8.94957 208.179 14.1008 208.179 20.4553C208.179 26.8097 213.326 31.9609 219.674 31.9609C226.022 31.9609 231.169 26.8097 231.169 20.4553Z" fill="#281F2C" stroke="white" stroke-width="3"/>
<path d="M235 20.455C235 11.9824 228.138 5.11408 219.674 5.11408C211.21 5.11408 204.348 11.9824 204.348 20.455C204.348 28.9275 211.21 35.7959 219.674 35.7959C228.138 35.7959 235 28.9275 235 20.455Z" stroke="white" stroke-width="3"/>
<path d="M195.408 260.796C195.408 254.442 190.261 249.29 183.913 249.29C177.565 249.29 172.418 254.442 172.418 260.796C172.418 267.15 177.565 272.302 183.913 272.302C190.261 272.302 195.408 267.15 195.408 260.796Z" fill="#281F2C" stroke="white" stroke-width="3"/>
<path d="M199.239 260.796C199.239 252.323 192.377 245.455 183.913 245.455C175.449 245.455 168.587 252.323 168.587 260.796C168.587 269.268 175.449 276.137 183.913 276.137C192.377 276.137 199.239 269.268 199.239 260.796Z" stroke="white" stroke-width="3"/>
<path d="M31.9293 271.023C31.9293 264.668 26.783 259.517 20.4348 259.517C14.0865 259.517 8.94019 264.668 8.94019 271.023C8.94019 277.377 14.0865 282.528 20.4348 282.528C26.783 282.528 31.9293 277.377 31.9293 271.023Z" fill="#281F2C" stroke="white" stroke-width="3"/>
<path d="M35.7608 271.022C35.7608 262.55 28.8991 255.681 20.4347 255.681C11.9704 255.681 5.10864 262.55 5.10864 271.022C5.10864 279.495 11.9704 286.363 20.4347 286.363C28.8991 286.363 35.7608 279.495 35.7608 271.022Z" stroke="white" stroke-width="3"/>
</svg>
