<svg width="397" height="450" viewBox="0 0 397 450" fill="none" xmlns="http://www.w3.org/2000/svg">
<path d="M261.82 37.2444C242.526 26.7558 220.441 20.3164 196.856 19.627C171.608 18.8891 144.642 24.7411 117.542 39.2697C57.0388 71.7064 27.3585 125.121 28.501 199.513C8.2912 256.519 1.0582 289.635 6.80202 298.861C12.5458 308.088 24.6531 310.677 43.1238 306.629V344.237C43.4053 371.235 57.3028 384.734 84.8162 384.734C126.086 384.734 123.509 385.165 128.772 385.227C146.538 385.438 155.982 393.048 160.956 416.67C162.097 422.086 166.449 426.52 174.013 429.973L314.8 429.955L296.156 316.998C292.619 294.89 296.675 276.72 308.322 262.487C320.211 247.958 337.086 212.438 337.758 169.924" stroke="#F5F5F5" stroke-width="3" stroke-linecap="round" stroke-linejoin="round"/>
<path d="M195.808 112.501C206.623 112.501 215.389 103.741 215.389 92.9353C215.389 82.1298 206.623 73.3701 195.808 73.3701C184.994 73.3701 176.228 82.1298 176.228 92.9353C176.228 103.741 184.994 112.501 195.808 112.501Z" stroke="#F5F5F5" stroke-width="3" stroke-linecap="round" stroke-linejoin="round"/>
<path d="M195.808 176.087C206.623 176.087 215.389 167.328 215.389 156.522C215.389 145.717 206.623 136.957 195.808 136.957C184.994 136.957 176.228 145.717 176.228 156.522C176.228 167.328 184.994 176.087 195.808 176.087Z" stroke="#F5F5F5" stroke-width="3" stroke-linecap="round" stroke-linejoin="round"/>
<path d="M259.446 112.501C270.26 112.501 279.027 103.741 279.027 92.9353C279.027 82.1298 270.26 73.3701 259.446 73.3701C248.632 73.3701 239.865 82.1298 239.865 92.9353C239.865 103.741 248.632 112.501 259.446 112.501Z" stroke="#F5F5F5" stroke-width="3" stroke-linecap="round" stroke-linejoin="round"/>
<path d="M259.446 176.087C270.26 176.087 279.027 167.328 279.027 156.522C279.027 145.717 270.26 136.957 259.446 136.957C248.632 136.957 239.865 145.717 239.865 156.522C239.865 167.328 248.632 176.087 259.446 176.087Z" stroke="#F5F5F5" stroke-width="3" stroke-linecap="round" stroke-linejoin="round"/>
<path d="M323.084 112.501C333.898 112.501 342.664 103.741 342.664 92.9353C342.664 82.1298 333.898 73.3701 323.084 73.3701C312.269 73.3701 303.503 82.1298 303.503 92.9353C303.503 103.741 312.269 112.501 323.084 112.501Z" stroke="#F5F5F5" stroke-width="3" stroke-linecap="round" stroke-linejoin="round"/>
<path d="M323.084 176.087C333.898 176.087 342.664 167.328 342.664 156.522C342.664 145.717 333.898 136.957 323.084 136.957C312.269 136.957 303.503 145.717 303.503 156.522C303.503 167.328 312.269 176.087 323.084 176.087Z" stroke="#F5F5F5" stroke-width="3" stroke-linecap="round" stroke-linejoin="round"/>
<path d="M196.273 72.8442V20.7314" stroke="#F5F5F5" stroke-width="3" stroke-linecap="round" stroke-linejoin="round"/>
<path d="M176.881 156.522H107.695" stroke="#F5F5F5" stroke-width="3" stroke-linecap="round" stroke-linejoin="round"/>
<path d="M375.32 156.522H342.665" stroke="#F5F5F5" stroke-linecap="round" stroke-linejoin="round"/>
<path d="M374.577 92.9355H342.665" stroke="#F5F5F5" stroke-width="3" stroke-linecap="round" stroke-linejoin="round"/>
<path d="M261.359 73.0144V39.5898" stroke="#F5F5F5" stroke-width="3" stroke-linecap="round" stroke-linejoin="round"/>
<path d="M259.609 177.562C259.609 301.962 259.609 366.026 259.609 369.753C259.609 375.344 259.289 379.803 252.5 379.803C245.711 379.803 245.663 379.803 240.911 379.803C236.158 379.803 231.482 383.894 231.482 388.646C231.482 391.813 231.482 405.512 231.482 429.74" stroke="#F5F5F5" stroke-width="3" stroke-linecap="round" stroke-linejoin="round"/>
<path d="M177.002 92.4121C161.174 92.4121 151.456 92.4121 147.848 92.4121C142.436 92.4121 137.213 97.7183 137.213 101.469C137.213 103.969 137.213 110.248 137.213 120.304" stroke="#F5F5F5" stroke-width="3" stroke-linecap="round" stroke-linejoin="round"/>
<path d="M148.08 122.283C148.08 116.205 143.149 111.277 137.066 111.277C130.983 111.277 126.052 116.205 126.052 122.283C126.052 128.361 130.983 133.288 137.066 133.288C143.149 133.288 148.08 128.361 148.08 122.283Z" fill="#281F2C" stroke="white" stroke-width="3"/>
<path d="M151.751 122.283C151.751 114.179 145.176 107.609 137.066 107.609C128.955 107.609 122.38 114.179 122.38 122.283C122.38 130.387 128.955 136.957 137.066 136.957C145.176 136.957 151.751 130.387 151.751 122.283Z" stroke="white" stroke-width="3"/>
<path d="M118.709 156.522C118.709 150.444 113.778 145.516 107.695 145.516C101.612 145.516 96.6804 150.444 96.6804 156.522C96.6804 162.6 101.612 167.527 107.695 167.527C113.778 167.527 118.709 162.6 118.709 156.522Z" fill="#281F2C" stroke="white" stroke-width="3"/>
<path d="M122.38 156.522C122.38 148.418 115.805 141.848 107.695 141.848C99.584 141.848 93.009 148.418 93.009 156.522C93.009 164.627 99.584 171.196 107.695 171.196C115.805 171.196 122.38 164.627 122.38 156.522Z" stroke="white" stroke-width="3"/>
<path d="M387.945 156.522C387.945 150.444 383.014 145.516 376.931 145.516C370.848 145.516 365.917 150.444 365.917 156.522C365.917 162.6 370.848 167.527 376.931 167.527C383.014 167.527 387.945 162.6 387.945 156.522Z" fill="#281F2C" stroke="white" stroke-width="3"/>
<path d="M391.616 156.522C391.616 148.418 385.041 141.848 376.931 141.848C368.82 141.848 362.245 148.418 362.245 156.522C362.245 164.627 368.82 171.196 376.931 171.196C385.041 171.196 391.616 164.627 391.616 156.522Z" stroke="white" stroke-width="3"/>
<path d="M387.945 92.935C387.945 86.8569 383.014 81.9296 376.931 81.9296C370.848 81.9296 365.917 86.8569 365.917 92.935C365.917 99.0131 370.848 103.94 376.931 103.94C383.014 103.94 387.945 99.0131 387.945 92.935Z" fill="#281F2C" stroke="white" stroke-width="3"/>
<path d="M391.616 92.9355C391.616 84.8313 385.041 78.2616 376.931 78.2616C368.82 78.2616 362.245 84.8313 362.245 92.9355C362.245 101.04 368.82 107.609 376.931 107.609C385.041 107.609 391.616 101.04 391.616 92.9355Z" stroke="white" stroke-width="3"/>
<path d="M272.908 39.1303C272.908 33.0522 267.977 28.1249 261.894 28.1249C255.811 28.1249 250.879 33.0522 250.879 39.1303C250.879 45.2084 255.811 50.1357 261.894 50.1357C267.977 50.1357 272.908 45.2084 272.908 39.1303Z" fill="#281F2C" stroke="white" stroke-width="3"/>
<path d="M276.579 39.1308C276.579 31.0266 270.004 24.4569 261.894 24.4569C253.783 24.4569 247.208 31.0266 247.208 39.1308C247.208 47.235 253.783 53.8047 261.894 53.8047C270.004 53.8047 276.579 47.235 276.579 39.1308Z" stroke="white" stroke-width="3"/>
<path d="M241.089 430.435C241.089 424.357 236.158 419.43 230.075 419.43C223.992 419.43 219.061 424.357 219.061 430.435C219.061 436.513 223.992 441.44 230.075 441.44C236.158 441.44 241.089 436.513 241.089 430.435Z" fill="#281F2C" stroke="white" stroke-width="3"/>
<path d="M244.76 430.435C244.76 422.331 238.185 415.762 230.075 415.762C221.964 415.762 215.389 422.331 215.389 430.435C215.389 438.54 221.964 445.109 230.075 445.109C238.185 445.109 244.76 438.54 244.76 430.435Z" stroke="white" stroke-width="3"/>
<path d="M206.822 19.5649C206.822 13.4867 201.891 8.55944 195.808 8.55944C189.725 8.55944 184.794 13.4867 184.794 19.5649C184.794 25.643 189.725 30.5703 195.808 30.5703C201.891 30.5703 206.822 25.643 206.822 19.5649Z" fill="#281F2C" stroke="white" stroke-width="3"/>
<path d="M210.494 19.5653C210.494 11.4612 203.919 4.89143 195.808 4.89143C187.698 4.89143 181.123 11.4612 181.123 19.5653C181.123 27.6695 187.698 34.2393 195.808 34.2393C203.919 34.2393 210.494 27.6695 210.494 19.5653Z" stroke="white" stroke-width="3"/>
</svg>
