<svg width="106" height="26" viewBox="0 0 106 26" fill="none" xmlns="http://www.w3.org/2000/svg">
<path id="Vector" d="M32.1773 14.4225V21.8069H28.1304V15.2855C28.1304 13.3615 27.2497 12.7681 26.1138 12.7681C24.9129 12.7681 23.7356 13.6074 23.7356 15.3336V21.8069H19.6887V9.86708H23.5807V11.5213H23.6322C24.0238 10.7862 25.3908 9.53131 27.4788 9.53131C29.737 9.53131 32.1773 10.7754 32.1773 14.4225ZM42.3753 15.2617L47.5383 21.8069H42.5104L38.3027 16.0768H38.2251V21.8069H34.1782V4.19603H38.2251V14.7102H38.3027L42.4073 9.86708H47.3318L42.3753 15.2617ZM68.1488 18.8819C66.5118 18.8819 65.0098 17.7741 65.0098 15.7892C65.0098 13.8824 66.4475 12.744 68.1488 12.744C69.7863 12.744 71.3407 13.9258 71.3407 15.813C71.3407 17.6729 69.7541 18.8819 68.1488 18.8819ZM71.0668 11.1377H71.0152C70.2994 10.3811 68.9599 9.53131 67.0911 9.53131C63.8814 9.53131 61.0242 11.8713 61.0242 15.7892C61.0242 20.1757 64.3176 22.1427 67.1427 22.1427C69.4738 22.1427 70.8603 21.0437 71.3506 20.2486H71.4024V21.8069H75.1135V4.19603H71.0668V11.1377ZM50.5878 14.4704C50.6788 13.2023 51.7662 12.1926 53.4375 12.1926C55.1999 12.1926 56.0428 13.2023 56.0428 14.4704H50.5878ZM53.5425 9.4834C49.9692 9.4834 46.6674 11.7628 46.6674 15.885C46.6674 20.031 49.9516 22.1906 53.6705 22.1906C56.4709 22.1906 58.3948 20.9859 59.4464 19.6493L56.6255 17.9663C56.1461 18.5119 55.321 19.1696 53.777 19.1696C52.0746 19.1696 50.9525 18.2597 50.6575 17.2828C50.5883 17.0536 50.5878 16.9159 50.5878 16.9159H59.9065C59.9235 16.7722 59.9323 16.3848 59.9323 15.9808C59.9323 11.7628 57.1175 9.4834 53.5425 9.4834ZM4.28608 18.2345H11.6503V21.8069H0V4.19603H4.28608V18.2345ZM17.833 6.04622C17.833 7.29276 16.7883 8.20353 15.4996 8.20353C14.2111 8.20353 13.1664 7.29276 13.1664 6.04622C13.1664 4.79968 14.2111 3.88787 15.4996 3.88787C16.7883 3.88787 17.833 4.79968 17.833 6.04622ZM13.4763 9.85805H17.523V21.7979H13.4763V9.85805ZM102.025 21.8071H97.9791V15.2857C97.9791 13.3615 97.0985 12.7681 95.9631 12.7681C94.7626 12.7681 93.5858 13.6076 93.5858 15.3336V21.8071H89.54V9.86708H93.4308V11.5214H93.4824C93.8739 10.7864 95.2404 9.53149 97.3279 9.53149C99.5854 9.53149 102.025 10.7754 102.025 14.4225V21.8071ZM85.0867 8.20353C83.7985 8.20353 82.7542 7.29258 82.7542 6.04605C82.7542 4.79968 83.7985 3.8877 85.0867 3.8877C86.375 3.8877 87.4193 4.79968 87.4193 6.04605C87.4193 7.29258 86.375 8.20353 85.0867 8.20353ZM87.1095 21.7979H83.0639V9.85788H87.1095V21.7979ZM104.013 0.5H81.0751C79.9781 0.5 79.0886 1.32622 79.0886 2.3455V23.6545C79.0886 24.6738 79.9781 25.5 81.0751 25.5H104.013C105.111 25.5 106 24.6738 106 23.6545V2.3455C106 1.32622 105.111 0.5 104.013 0.5Z" fill="#FFC052"/>
</svg>
