<svg width="26" height="30" viewBox="0 0 26 30" fill="none" xmlns="http://www.w3.org/2000/svg">
<g id="Group">
<path id="Vector" d="M13.2191 29.493H13.2103C8.79203 29.464 5.39544 28.0379 3.1123 25.2552C1.08383 22.7769 0.0355353 19.3305 0 15.0116V14.9913C0.0355353 10.6695 1.08383 7.22601 3.11526 4.74772C5.39544 1.96217 8.79499 0.536066 13.2103 0.50708H13.2191H13.228C16.6157 0.530269 19.4497 1.38245 21.6499 3.04045C23.7198 4.59989 25.1768 6.82021 25.9793 9.64343L23.4622 10.3304C22.1 5.54773 18.6531 3.10422 13.2162 3.06653C9.62711 3.09262 6.91162 4.19698 5.1467 6.34774C3.49727 8.36226 2.64442 11.2724 2.61185 15C2.64442 18.7276 3.49727 21.6378 5.14966 23.6523C6.91458 25.806 9.63007 26.9103 13.2191 26.9335C16.4558 26.9103 18.5968 26.1712 20.3765 24.4639C22.408 22.5161 22.3724 20.1247 21.721 18.6696C21.339 17.8117 20.6431 17.0986 19.7043 16.5566C19.4674 18.1885 18.9374 19.5102 18.12 20.5073C17.0273 21.8378 15.4786 22.5653 13.5182 22.6697C12.0346 22.748 10.6043 22.4059 9.49681 21.7016C8.18497 20.8697 7.418 19.6001 7.33508 18.1218C7.25513 16.6841 7.8385 15.3623 8.97563 14.4C10.0624 13.4812 11.5904 12.942 13.3968 12.8406C14.7264 12.7681 15.9731 12.8261 17.1221 13.0116C16.9681 12.1159 16.6601 11.4029 16.1982 10.8898C15.5645 10.1826 14.5843 9.82315 13.2872 9.81445C13.2754 9.81445 13.2636 9.81445 13.2517 9.81445C12.2093 9.81445 10.7938 10.0956 9.89362 11.4087L7.72597 9.98547C8.93417 8.22892 10.8945 7.26079 13.2517 7.26079C13.2695 7.26079 13.2872 7.26079 13.305 7.26079C17.2465 7.28398 19.5948 9.64633 19.8287 13.7681C19.962 13.8232 20.0952 13.8812 20.2255 13.9391C22.0645 14.7855 23.4089 16.0667 24.1166 17.6464C25.0998 19.8465 25.1916 23.432 22.2066 26.2929C19.9235 28.4785 17.1547 29.4669 13.228 29.493H13.2191ZM14.4569 15.3739C14.1579 15.3739 13.8558 15.3826 13.5449 15.4C11.2795 15.5247 9.86697 16.5421 9.94693 17.9885C10.0298 19.5044 11.7385 20.2088 13.382 20.1218C14.8923 20.0436 16.8585 19.4668 17.1902 15.6406C16.3551 15.4638 15.4401 15.3739 14.4569 15.3739Z" fill="#FFC052"/>
</g>
</svg>
