<svg width="450" height="450" viewBox="0 0 450 450" fill="none" xmlns="http://www.w3.org/2000/svg">
<path d="M227.113 340.515C292.555 340.515 345.606 287.464 345.606 222.023C345.606 156.581 292.555 103.53 227.113 103.53C161.672 103.53 108.621 156.581 108.621 222.023C108.621 287.464 161.672 340.515 227.113 340.515Z" stroke="#F5F5F5" stroke-width="3" stroke-linecap="round" stroke-linejoin="round"/>
<path d="M424.138 243.592C435.564 243.592 444.828 234.329 444.828 222.902C444.828 211.476 435.564 202.213 424.138 202.213C412.711 202.213 403.448 211.476 403.448 222.902C403.448 234.329 412.711 243.592 424.138 243.592Z" stroke="#F5F5F5" stroke-width="3" stroke-linecap="round" stroke-linejoin="round"/>
<path d="M25.8621 243.592C37.2887 243.592 46.5517 234.329 46.5517 222.902C46.5517 211.476 37.2887 202.213 25.8621 202.213C14.4355 202.213 5.17242 211.476 5.17242 222.902C5.17242 234.329 14.4355 243.592 25.8621 243.592Z" stroke="#F5F5F5" stroke-width="3" stroke-linecap="round" stroke-linejoin="round"/>
<path fill-rule="evenodd" clip-rule="evenodd" d="M204.17 424.138C204.17 435.565 213.434 444.828 224.86 444.828C236.287 444.828 245.55 435.565 245.55 424.138C245.55 412.711 236.287 403.448 224.86 403.448C213.434 403.448 204.17 412.711 204.17 424.138Z" stroke="#F5F5F5" stroke-width="3" stroke-linecap="round" stroke-linejoin="round"/>
<path fill-rule="evenodd" clip-rule="evenodd" d="M204.17 25.8621C204.17 37.2887 213.434 46.5517 224.86 46.5517C236.287 46.5517 245.55 37.2887 245.55 25.8621C245.55 14.4355 236.287 5.17242 224.86 5.17242C213.434 5.17242 204.17 14.4355 204.17 25.8621Z" stroke="#F5F5F5" stroke-width="3" stroke-linecap="round" stroke-linejoin="round"/>
<path fill-rule="evenodd" clip-rule="evenodd" d="M351.182 378.344C359.262 386.424 372.362 386.424 380.442 378.344C388.521 370.264 388.521 357.164 380.442 349.084C372.362 341.004 359.262 341.004 351.182 349.084C343.102 357.164 343.102 370.264 351.182 378.344Z" stroke="#F5F5F5" stroke-width="3" stroke-linecap="round" stroke-linejoin="round"/>
<path fill-rule="evenodd" clip-rule="evenodd" d="M69.5584 96.7202C77.6382 104.8 90.7382 104.8 98.818 96.7202C106.898 88.6404 106.898 75.5404 98.818 67.4606C90.7382 59.3808 77.6382 59.3808 69.5584 67.4606C61.4786 75.5404 61.4786 88.6404 69.5584 96.7202Z" stroke="#F5F5F5" stroke-width="3" stroke-linecap="round" stroke-linejoin="round"/>
<path fill-rule="evenodd" clip-rule="evenodd" d="M380.442 96.7202C388.521 88.6404 388.521 75.5404 380.442 67.4606C372.362 59.3808 359.262 59.3808 351.182 67.4606C343.102 75.5404 343.102 88.6404 351.182 96.7202C359.262 104.8 372.362 104.8 380.442 96.7202Z" stroke="#F5F5F5" stroke-width="3" stroke-linecap="round" stroke-linejoin="round"/>
<path fill-rule="evenodd" clip-rule="evenodd" d="M98.818 378.344C106.898 370.264 106.898 357.164 98.818 349.084C90.7382 341.004 77.6382 341.004 69.5584 349.084C61.4786 357.164 61.4786 370.264 69.5584 378.344C77.6382 386.424 90.7382 386.424 98.818 378.344Z" stroke="#F5F5F5" stroke-width="3" stroke-linecap="round" stroke-linejoin="round"/>
<path d="M226.951 340.515C263.736 340.515 293.557 287.464 293.557 222.023C293.557 156.581 263.736 103.53 226.951 103.53C190.165 103.53 160.345 156.581 160.345 222.023C160.345 287.464 190.165 340.515 226.951 340.515Z" stroke="#F5F5F5" stroke-width="3" stroke-linecap="round" stroke-linejoin="round"/>
<path fill-rule="evenodd" clip-rule="evenodd" d="M108.458 222.023C108.458 258.808 161.509 288.628 226.951 288.628C292.392 288.628 345.443 258.808 345.443 222.023C345.443 185.237 292.392 155.417 226.951 155.417C161.509 155.417 108.458 185.237 108.458 222.023Z" stroke="#F5F5F5" stroke-width="3" stroke-linecap="round" stroke-linejoin="round"/>
<path d="M225 46.5517V403.448" stroke="#F5F5F5" stroke-width="3" stroke-linecap="round" stroke-linejoin="round"/>
<path d="M351.544 97.5609L311.623 138.459" stroke="#F5F5F5" stroke-width="3" stroke-linecap="round" stroke-linejoin="round"/>
<path d="M143.845 306.362L99.9073 349.594" stroke="#F5F5F5" stroke-width="3" stroke-linecap="round" stroke-linejoin="round"/>
<path d="M351.055 348.16L309.41 307.651" stroke="#F5F5F5" stroke-width="3" stroke-linecap="round" stroke-linejoin="round"/>
<path d="M140.944 140.684L98.175 98.0062" stroke="#F5F5F5" stroke-width="3" stroke-linecap="round" stroke-linejoin="round"/>
<path d="M403.448 225.082H46.5517" stroke="#F5F5F5" stroke-width="3" stroke-linecap="round" stroke-linejoin="round"/>
<path d="M245.55 25.8621L345.606 72.4135" stroke="#F5F5F5" stroke-width="3" stroke-linecap="round" stroke-linejoin="round"/>
<path d="M380.442 96.7202L418.921 202.213" stroke="#F5F5F5" stroke-width="3" stroke-linecap="round" stroke-linejoin="round"/>
<path d="M418.921 243.592L375.31 344.606" stroke="#F5F5F5" stroke-width="3" stroke-linecap="round" stroke-linejoin="round"/>
<path d="M346.836 373.225L245.55 416.533" stroke="#F5F5F5" stroke-width="3" stroke-linecap="round" stroke-linejoin="round"/>
<path d="M204.17 416.533L103.081 373.769" stroke="#F5F5F5" stroke-width="3" stroke-linecap="round" stroke-linejoin="round"/>
<path d="M75.1178 344.606L33.925 243.592" stroke="#F5F5F5" stroke-width="3" stroke-linecap="round" stroke-linejoin="round"/>
<path d="M33.925 202.213L75.1178 101.4" stroke="#F5F5F5" stroke-width="3" stroke-linecap="round" stroke-linejoin="round"/>
<path d="M98.175 66.1336L204.17 25.8621" stroke="#F5F5F5" stroke-width="3" stroke-linecap="round" stroke-linejoin="round"/>
<path d="M182.328 165.517C182.328 159.09 177.117 153.879 170.69 153.879C164.262 153.879 159.052 159.09 159.052 165.517C159.052 171.945 164.262 177.155 170.69 177.155C177.117 177.155 182.328 171.945 182.328 165.517Z" fill="#281F2C" stroke="white" stroke-width="3"/>
<path d="M186.207 165.517C186.207 156.947 179.26 150 170.69 150C162.12 150 155.172 156.947 155.172 165.517C155.172 174.087 162.12 181.034 170.69 181.034C179.26 181.034 186.207 174.087 186.207 165.517Z" stroke="white" stroke-width="3"/>
<path d="M296.121 165.517C296.121 159.09 290.91 153.879 284.483 153.879C278.055 153.879 272.845 159.09 272.845 165.517C272.845 171.945 278.055 177.155 284.483 177.155C290.91 177.155 296.121 171.945 296.121 165.517Z" fill="#281F2C" stroke="white" stroke-width="3"/>
<path d="M300 165.517C300 156.947 293.053 150 284.483 150C275.913 150 268.966 156.947 268.966 165.517C268.966 174.087 275.913 181.034 284.483 181.034C293.053 181.034 300 174.087 300 165.517Z" stroke="white" stroke-width="3"/>
<path d="M182.328 279.31C182.328 272.883 177.117 267.672 170.69 267.672C164.262 267.672 159.052 272.883 159.052 279.31C159.052 285.738 164.262 290.948 170.69 290.948C177.117 290.948 182.328 285.738 182.328 279.31Z" fill="#281F2C" stroke="white" stroke-width="3"/>
<path d="M186.207 279.31C186.207 270.74 179.26 263.793 170.69 263.793C162.12 263.793 155.172 270.74 155.172 279.31C155.172 287.88 162.12 294.828 170.69 294.828C179.26 294.828 186.207 287.88 186.207 279.31Z" stroke="white" stroke-width="3"/>
<path d="M296.121 279.31C296.121 272.883 290.91 267.672 284.483 267.672C278.055 267.672 272.845 272.883 272.845 279.31C272.845 285.738 278.055 290.948 284.483 290.948C290.91 290.948 296.121 285.738 296.121 279.31Z" fill="#281F2C" stroke="white" stroke-width="3"/>
<path d="M300 279.31C300 270.74 293.053 263.793 284.483 263.793C275.913 263.793 268.966 270.74 268.966 279.31C268.966 287.88 275.913 294.828 284.483 294.828C293.053 294.828 300 287.88 300 279.31Z" stroke="white" stroke-width="3"/>
<path d="M236.946 224.288C236.946 217.861 231.736 212.65 225.308 212.65C218.881 212.65 213.67 217.861 213.67 224.288C213.67 230.716 218.881 235.926 225.308 235.926C231.736 235.926 236.946 230.716 236.946 224.288Z" fill="#281F2C" stroke="white" stroke-width="3"/>
<path d="M240.826 224.288C240.826 215.718 233.878 208.771 225.308 208.771C216.738 208.771 209.791 215.718 209.791 224.288C209.791 232.858 216.738 239.806 225.308 239.806C233.878 239.806 240.826 232.858 240.826 224.288Z" stroke="white" stroke-width="3"/>
</svg>
