<svg width="430" height="450" viewBox="0 0 430 450" fill="none" xmlns="http://www.w3.org/2000/svg">
<path fill-rule="evenodd" clip-rule="evenodd" d="M247.625 147.72C262.951 156.922 282.84 151.967 292.049 136.651C301.258 121.335 296.299 101.459 280.973 92.2569C265.647 83.0544 245.757 88.01 236.548 103.326C227.34 118.641 232.299 138.517 247.625 147.72Z" stroke="#F5F5F5" stroke-width="3" stroke-linecap="round" stroke-linejoin="round"/>
<path fill-rule="evenodd" clip-rule="evenodd" d="M258.226 275.355C256.037 276.67 253.196 275.962 251.88 273.774C250.565 271.587 251.273 268.748 253.462 267.433C255.651 266.119 258.492 266.827 259.808 269.014C261.123 271.202 260.415 274.041 258.226 275.355Z" stroke="#F5F5F5" stroke-width="3" stroke-linecap="round" stroke-linejoin="round"/>
<path fill-rule="evenodd" clip-rule="evenodd" d="M240.479 159.605C262.373 172.751 290.787 165.672 303.942 143.792C317.098 121.913 310.014 93.5185 288.119 80.372C266.225 67.2255 237.811 74.305 224.655 96.1844C211.5 118.064 218.584 146.458 240.479 159.605Z" stroke="#F5F5F5" stroke-width="3" stroke-linecap="round" stroke-linejoin="round"/>
<path d="M303.942 143.792C275.63 213.927 262.294 250.737 263.934 254.222C266.393 259.45 281.453 261.347 269.085 290.954C256.718 320.561 202.401 432.134 198.676 439.413C194.951 446.692 191.799 447.876 189.502 446.497C187.204 445.117 186.371 443.405 187.963 435.082C189.024 429.533 200.401 391.072 222.094 319.698C248.013 245.063 262.149 203.681 264.502 195.551C268.033 183.358 266.041 173.132 252.865 165.22" stroke="#F5F5F5" stroke-width="3" stroke-linecap="round" stroke-linejoin="round"/>
<path d="M222.094 319.698C227.962 320.149 230.437 323.402 229.52 329.458C228.607 335.485 217.409 373.563 195.926 443.69" stroke="#F5F5F5" stroke-width="3" stroke-linecap="round" stroke-linejoin="round"/>
<path fill-rule="evenodd" clip-rule="evenodd" d="M360.424 215.45C345.097 206.247 340.138 186.371 349.347 171.056C358.556 155.74 378.446 150.784 393.772 159.987C409.098 169.189 414.057 189.065 404.848 204.381C395.639 219.697 375.75 224.652 360.424 215.45Z" stroke="#F5F5F5" stroke-width="3" stroke-linecap="round" stroke-linejoin="round"/>
<path fill-rule="evenodd" clip-rule="evenodd" d="M353.277 227.335C331.383 214.188 324.299 185.794 337.454 163.914C350.61 142.035 379.023 134.955 400.918 148.102C422.812 161.249 429.897 189.643 416.741 211.522C403.586 233.402 375.172 240.481 353.277 227.335Z" stroke="#F5F5F5" stroke-width="3" stroke-linecap="round" stroke-linejoin="round"/>
<path d="M337.454 163.914C309.529 197.135 288.981 220.858 275.809 235.083L265.233 246.582" stroke="#F5F5F5" stroke-width="3" stroke-linecap="round" stroke-linejoin="round"/>
<path d="M246.654 248.211C241.207 248.265 233.943 251.385 223.793 263.758C203.44 288.57 130.36 388.877 125.677 395.581C120.994 402.284 121.428 405.621 123.725 407.001C126.023 408.381 127.927 408.312 134.533 403C138.938 399.459 167.579 371.364 220.458 318.715C221.497 317.595 222.528 316.485 223.55 315.385" stroke="#F5F5F5" stroke-width="3" stroke-linecap="round" stroke-linejoin="round"/>
<path d="M273.473 261.781C294.332 239.476 306.587 226.553 310.238 223.013C319.355 214.174 329.325 211.13 342.501 219.042" stroke="#F5F5F5" stroke-width="3" stroke-linecap="round" stroke-linejoin="round"/>
<path d="M282.708 197.725L293.089 215.694" stroke="#F5F5F5" stroke-width="3" stroke-linecap="round" stroke-linejoin="round"/>
<path d="M151.867 358.162L5.29785 105.293V420.869H188.213L162.604 376.686" stroke="#F5F5F5" stroke-width="3" stroke-linecap="round" stroke-linejoin="round"/>
<path fill-rule="evenodd" clip-rule="evenodd" d="M45.9175 254.075V382.457H117.861L45.9175 254.075Z" stroke="#F5F5F5" stroke-width="3" stroke-linecap="round" stroke-linejoin="round"/>
<path d="M5.29785 145.327H15.7696" stroke="#F5F5F5" stroke-width="3" stroke-linecap="round" stroke-linejoin="round"/>
<path d="M5.29785 172.715H15.7696" stroke="#F5F5F5" stroke-width="3" stroke-linecap="round" stroke-linejoin="round"/>
<path d="M5.29785 200.103H15.7696" stroke="#F5F5F5" stroke-width="3" stroke-linecap="round" stroke-linejoin="round"/>
<path d="M5.29785 227.491H15.7696" stroke="#F5F5F5" stroke-width="3" stroke-linecap="round" stroke-linejoin="round"/>
<path d="M5.29785 254.88H15.7696" stroke="#F5F5F5" stroke-width="3" stroke-linecap="round" stroke-linejoin="round"/>
<path d="M5.29785 282.268H15.7696" stroke="#F5F5F5" stroke-width="3" stroke-linecap="round" stroke-linejoin="round"/>
<path d="M5.29785 309.656H15.7696" stroke="#F5F5F5" stroke-width="3" stroke-linecap="round" stroke-linejoin="round"/>
<path d="M5.29785 337.044H15.7696" stroke="#F5F5F5" stroke-width="3" stroke-linecap="round" stroke-linejoin="round"/>
<path d="M5.29785 364.433H15.7696" stroke="#F5F5F5" stroke-width="3" stroke-linecap="round" stroke-linejoin="round"/>
<path d="M5.29785 391.821H15.7696" stroke="#F5F5F5" stroke-width="3" stroke-linecap="round" stroke-linejoin="round"/>
<path fill-rule="evenodd" clip-rule="evenodd" d="M107.915 25.3007L134.358 276.717L152.57 315.677L163.379 273.669L136.936 22.2526C135.648 10.0087 130.167 4.3948 120.494 5.41085C110.82 6.42689 106.627 13.0568 107.915 25.3007Z" stroke="#F5F5F5" stroke-width="3" stroke-linecap="round" stroke-linejoin="round"/>
<path d="M134.358 276.717L163.273 272.653" stroke="#F5F5F5" stroke-width="3" stroke-linecap="round" stroke-linejoin="round"/>
<path d="M149.662 63.5294C149.662 56.9507 144.325 51.6176 137.742 51.6176C131.159 51.6176 125.822 56.9507 125.822 63.5294C125.822 70.1081 131.159 75.4412 137.742 75.4412C144.325 75.4412 149.662 70.1081 149.662 63.5294Z" fill="#281F2C" stroke="white" stroke-width="1.5"/>
<path d="M153.635 63.5294C153.635 54.7578 146.52 47.647 137.742 47.647C128.964 47.647 121.849 54.7578 121.849 63.5294C121.849 72.301 128.964 79.4117 137.742 79.4117C146.52 79.4117 153.635 72.301 153.635 63.5294Z" stroke="white"/>
<path d="M80.7906 211.765C80.7906 205.186 75.4538 199.853 68.8706 199.853C62.2874 199.853 56.9507 205.186 56.9507 211.765C56.9507 218.343 62.2874 223.677 68.8706 223.677C75.4538 223.677 80.7906 218.343 80.7906 211.765Z" fill="#281F2C" stroke="white" stroke-width="1.5"/>
<path d="M84.7641 211.765C84.7641 202.993 77.6484 195.882 68.8708 195.882C60.0932 195.882 52.9775 202.993 52.9775 211.765C52.9775 220.536 60.0932 227.647 68.8708 227.647C77.6484 227.647 84.7641 220.536 84.7641 211.765Z" stroke="white"/>
<path d="M160.257 354.706C160.257 348.127 154.92 342.794 148.337 342.794C141.754 342.794 136.417 348.127 136.417 354.706C136.417 361.285 141.754 366.618 148.337 366.618C154.92 366.618 160.257 361.285 160.257 354.706Z" fill="#281F2C" stroke="white" stroke-width="1.5"/>
<path d="M164.23 354.706C164.23 345.934 157.115 338.824 148.337 338.824C139.56 338.824 132.444 345.934 132.444 354.706C132.444 363.477 139.56 370.588 148.337 370.588C157.115 370.588 164.23 363.477 164.23 354.706Z" stroke="white"/>
</svg>
