<svg width="300" height="450" viewBox="0 0 300 450" fill="none" xmlns="http://www.w3.org/2000/svg">
<path d="M257.41 341.546C257.41 357.955 257.41 382.015 257.41 417.456C257.41 435.867 243.344 444.442 231.169 444.442H69.2517C53.6562 444.442 42.8574 430.681 42.8574 415.098C42.8574 382.434 42.8574 356.768 42.8574 341.546" stroke="#F5F5F5" stroke-width="3" stroke-linecap="round" stroke-linejoin="round"/>
<path d="M42.8574 97.1015C42.8574 83.7775 42.8574 63.7915 42.8574 37.1435C42.8574 18.6765 54.3691 5.35718 71.3027 5.35718H228.174C244.781 5.35718 257.41 19.5723 257.41 37.1435C257.41 64.7743 257.41 83.2861 257.41 97.1015" stroke="#F5F5F5" stroke-width="3" stroke-linecap="round" stroke-linejoin="round"/>
<path d="M240.201 341.546C240.201 356.115 240.201 376.537 240.201 407.767C240.835 420.679 234.633 427.365 221.593 427.826L220.117 427.852H77.9551C63.9078 427.852 57.2129 421.157 57.8703 407.767C57.8703 378.336 57.8703 356.262 57.8703 341.546" stroke="#F5F5F5" stroke-width="3" stroke-linecap="round" stroke-linejoin="round"/>
<path d="M57.8701 97.2393C57.8701 83.7653 57.8701 65.1051 57.8701 38.157C57.8701 27.3486 63.8138 21.4049 75.7012 20.3259H101.557C101.773 28.6701 105.945 32.8422 114.073 32.8422H183.998C191.72 32.8422 195.872 29.0769 196.453 21.5463L196.515 20.3259H222.37C233.762 21.3599 239.696 26.8617 240.17 36.8313L240.201 38.157C240.201 65.4617 240.201 83.587 240.201 97.2393" stroke="#F5F5F5" stroke-width="3" stroke-linecap="round" stroke-linejoin="round"/>
<path d="M21.4287 171.429V112.5H80.3573" stroke="#F5F5F5" stroke-width="3" stroke-linecap="round" stroke-linejoin="round"/>
<path d="M278.571 171.429V112.5H219.643" stroke="#F5F5F5" stroke-width="3" stroke-linecap="round" stroke-linejoin="round"/>
<path d="M21.4287 267.857V326.786H80.3573" stroke="#F5F5F5" stroke-width="3" stroke-linecap="round" stroke-linejoin="round"/>
<path d="M278.571 267.857V326.786H219.643" stroke="#F5F5F5" stroke-width="3" stroke-linecap="round" stroke-linejoin="round"/>
<path d="M156.566 210.884V178.557C156.566 177.579 157.359 176.786 158.338 176.786C158.613 176.786 158.884 176.85 159.13 176.973L234.792 220.161C235.667 220.598 236.021 221.662 235.584 222.537C235.413 222.88 235.135 223.158 234.792 223.329L159.13 266.517C158.255 266.955 157.191 266.6 156.753 265.725C156.63 265.479 156.566 265.208 156.566 264.933V233.005" stroke="#F5F5F5" stroke-width="3" stroke-linecap="round" stroke-linejoin="round"/>
<path d="M156.594 232.359L88.2773 266.517C87.4023 266.955 86.3384 266.6 85.9009 265.725C85.7779 265.479 85.7139 265.208 85.7139 264.933V178.557C85.7139 177.579 86.5069 176.786 87.4852 176.786C87.7602 176.786 88.0314 176.85 88.2773 176.973L155.992 210.83" stroke="#F5F5F5" stroke-width="3" stroke-linecap="round" stroke-linejoin="round"/>
<path d="M97.7673 219.643C97.7673 212.986 92.3707 207.589 85.7137 207.589C79.0567 207.589 73.6602 212.986 73.6602 219.643C73.6602 226.3 79.0567 231.697 85.7137 231.697C92.3707 231.697 97.7673 226.3 97.7673 219.643Z" fill="#281F2C" stroke="white" stroke-width="1.5"/>
<path d="M101.785 219.643C101.785 210.767 94.59 203.572 85.714 203.572C76.838 203.572 69.6426 210.767 69.6426 219.643C69.6426 228.519 76.838 235.714 85.714 235.714C94.59 235.714 101.785 228.519 101.785 219.643Z" stroke="white"/>
<path d="M33.4821 112.5C33.4821 105.843 28.0856 100.447 21.4286 100.447C14.7716 100.447 9.375 105.843 9.375 112.5C9.375 119.157 14.7716 124.554 21.4286 124.554C28.0856 124.554 33.4821 119.157 33.4821 112.5Z" fill="#281F2C" stroke="white" stroke-width="1.5"/>
<path d="M37.5003 112.5C37.5003 103.624 30.3049 96.4287 21.4289 96.4287C12.5528 96.4287 5.35742 103.624 5.35742 112.5C5.35742 121.376 12.5528 128.572 21.4289 128.572C30.3049 128.572 37.5003 121.376 37.5003 112.5Z" stroke="white"/>
<path d="M290.625 326.786C290.625 320.129 285.228 314.732 278.571 314.732C271.914 314.732 266.518 320.129 266.518 326.786C266.518 333.443 271.914 338.839 278.571 338.839C285.228 338.839 290.625 333.443 290.625 326.786Z" fill="#281F2C" stroke="white" stroke-width="1.5"/>
<path d="M294.643 326.786C294.643 317.91 287.447 310.714 278.571 310.714C269.695 310.714 262.5 317.91 262.5 326.786C262.5 335.662 269.695 342.857 278.571 342.857C287.447 342.857 294.643 335.662 294.643 326.786Z" stroke="white"/>
</svg>
