<svg width="411" height="450" viewBox="0 0 411 450" fill="none" xmlns="http://www.w3.org/2000/svg">
<path d="M304.053 329.772C304.053 342.637 304.053 361.499 304.053 389.285C304.053 403.72 293.001 410.442 283.436 410.442C254.466 410.442 232.738 410.442 218.253 410.442" stroke="#F5F5F5" stroke-width="3" stroke-linecap="round" stroke-linejoin="round"/>
<path fill-rule="evenodd" clip-rule="evenodd" d="M135.487 359.852C135.487 347.124 135.487 337.038 135.487 329.772V359.852Z" stroke="#F5F5F5" stroke-width="3" stroke-linecap="round" stroke-linejoin="round"/>
<path d="M135.487 93.4829C135.487 92.703 135.487 91.9155 135.487 91.1204C135.487 76.6423 144.531 66.2 157.835 66.2C174.121 66.2 186.335 66.2 194.477 66.2" stroke="#F5F5F5" stroke-width="3" stroke-linecap="round" stroke-linejoin="round"/>
<path d="M290.533 329.772C290.533 341.194 290.533 357.205 290.533 381.689C291.031 391.812 286.157 397.054 275.913 397.416L274.753 397.436C249.66 397.436 230.841 397.436 218.294 397.436" stroke="#F5F5F5" stroke-width="3" stroke-linecap="round" stroke-linejoin="round"/>
<path d="M147.282 359.852C147.282 347.352 147.282 337.326 147.282 329.772" stroke="#F5F5F5" stroke-width="3" stroke-linecap="round" stroke-linejoin="round"/>
<path d="M304.053 103.047C304.053 118.324 304.053 129.417 304.053 138.127" stroke="#F5F5F5" stroke-width="3" stroke-linecap="round" stroke-linejoin="round"/>
<path d="M147.282 93.3646C147.282 92.8849 147.282 92.4017 147.282 91.9151C147.282 83.4413 151.952 78.7815 161.291 77.9355H181.605C181.774 84.4774 185.052 87.7483 191.438 87.7483C193.142 87.7483 194.419 87.7483 195.271 87.7483" stroke="#F5F5F5" stroke-width="3" stroke-linecap="round" stroke-linejoin="round"/>
<path d="M290.533 103.113C290.533 118.475 290.533 129.518 290.533 138.236" stroke="#F5F5F5" stroke-width="3" stroke-linecap="round" stroke-linejoin="round"/>
<path fill-rule="evenodd" clip-rule="evenodd" d="M220.98 167L277.012 199.281V263.844L220.98 296.125L164.949 263.844V199.281L220.98 167Z" stroke="#F5F5F5" stroke-width="3" stroke-linecap="round" stroke-linejoin="round"/>
<path d="M277.012 200.34L220.98 232.621L164.949 200.34" stroke="#F5F5F5" stroke-width="3" stroke-linecap="round" stroke-linejoin="round"/>
<path d="M220.98 233.679V296.125" stroke="#F5F5F5" stroke-width="3" stroke-linecap="round" stroke-linejoin="round"/>
<path d="M118.651 196.4V185.512" stroke="#F5F5F5" stroke-width="3" stroke-linecap="round" stroke-linejoin="round"/>
<path d="M320.679 196.4V150.2H274.381" stroke="#F5F5F5" stroke-width="3" stroke-linecap="round" stroke-linejoin="round"/>
<path d="M118.651 272V318.2H164.949" stroke="#F5F5F5" stroke-width="3" stroke-linecap="round" stroke-linejoin="round"/>
<path d="M320.679 272V318.2H274.381" stroke="#F5F5F5" stroke-width="3" stroke-linecap="round" stroke-linejoin="round"/>
<path fill-rule="evenodd" clip-rule="evenodd" d="M385.47 20C397.733 20 407.674 29.9203 407.674 42.1575V80.5695C407.674 92.8067 397.733 102.727 385.47 102.727H264.245L230.876 127.705L230.871 102.727H216.616C204.353 102.727 194.411 92.8067 194.411 80.5695V42.1575C194.411 29.9203 204.353 20 216.616 20H385.47Z" stroke="#F5F5F5" stroke-width="3" stroke-linecap="round" stroke-linejoin="round"/>
<path fill-rule="evenodd" clip-rule="evenodd" d="M69.3042 442.705C57.041 442.705 47.0997 432.785 47.0997 420.547V382.135C47.0997 369.898 57.041 359.978 69.3042 359.978H147.282L181.808 335L181.814 359.978H196.069C208.332 359.978 218.273 369.898 218.273 382.135V420.547C218.273 432.785 208.332 442.705 196.069 442.705H69.3042Z" stroke="#F5F5F5" stroke-width="3" stroke-linecap="round" stroke-linejoin="round"/>
<path fill-rule="evenodd" clip-rule="evenodd" d="M27.2151 93.5C14.9519 93.5 5.01057 103.42 5.01057 115.658V154.069C5.01057 166.307 14.9519 176.227 27.2151 176.227H106.351L139.719 201.205L139.725 176.227H153.98C166.243 176.227 176.184 166.307 176.184 154.069V115.658C176.184 103.42 166.243 93.5 153.98 93.5H27.2151Z" stroke="#F5F5F5" stroke-width="3" stroke-linecap="round" stroke-linejoin="round"/>
<path d="M241.762 83C253.384 83 262.806 73.598 262.806 62C262.806 50.402 253.384 41 241.762 41C230.139 41 220.717 50.402 220.717 62C220.717 73.598 230.139 83 241.762 83Z" stroke="#F5F5F5" stroke-width="3" stroke-linecap="round" stroke-linejoin="round"/>
<path d="M278.59 48.9871H373.29" stroke="#F5F5F5" stroke-width="3" stroke-linecap="round" stroke-linejoin="round"/>
<path d="M278.59 69.9871H331.201" stroke="#F5F5F5" stroke-width="3" stroke-linecap="round" stroke-linejoin="round"/>
<path d="M73.4054 390.237H189.15" stroke="#F5F5F5" stroke-width="3" stroke-linecap="round" stroke-linejoin="round"/>
<path d="M73.4054 411.237H147.061" stroke="#F5F5F5" stroke-width="3" stroke-linecap="round" stroke-linejoin="round"/>
<path d="M52.3608 156.5C63.9834 156.5 73.4054 147.098 73.4054 135.5C73.4054 123.902 63.9834 114.5 52.3608 114.5C40.7382 114.5 31.3163 123.902 31.3163 135.5C31.3163 147.098 40.7382 156.5 52.3608 156.5Z" stroke="#F5F5F5" stroke-width="3" stroke-linecap="round" stroke-linejoin="round"/>
<path d="M89.1888 122.487H141.8" stroke="#F5F5F5" stroke-width="3" stroke-linecap="round" stroke-linejoin="round"/>
<path d="M89.1888 143.487H141.8" stroke="#F5F5F5" stroke-width="3" stroke-linecap="round" stroke-linejoin="round"/>
<path d="M106.475 360C106.475 353.787 101.428 348.75 95.2015 348.75C88.9751 348.75 83.9276 353.787 83.9276 360C83.9276 366.213 88.9751 371.25 95.2015 371.25C101.428 371.25 106.475 366.213 106.475 360Z" fill="#281F2C" stroke="white" stroke-width="3"/>
<path d="M110.233 360C110.233 351.716 103.503 345 95.2015 345C86.8997 345 80.1697 351.716 80.1697 360C80.1697 368.284 86.8997 375 95.2015 375C103.503 375 110.233 368.284 110.233 360Z" stroke="white" stroke-width="3"/>
<path d="M331.953 315C331.953 308.787 326.905 303.75 320.679 303.75C314.452 303.75 309.405 308.787 309.405 315C309.405 321.213 314.452 326.25 320.679 326.25C326.905 326.25 331.953 321.213 331.953 315Z" fill="#281F2C" stroke="white" stroke-width="3"/>
<path d="M335.71 315C335.71 306.716 328.981 300 320.679 300C312.377 300 305.647 306.716 305.647 315C305.647 323.284 312.377 330 320.679 330C328.981 330 335.71 323.284 335.71 315Z" stroke="white" stroke-width="3"/>
<path d="M231.74 235C231.74 228.787 226.693 223.75 220.467 223.75C214.24 223.75 209.193 228.787 209.193 235C209.193 241.213 214.24 246.25 220.467 246.25C226.693 246.25 231.74 241.213 231.74 235Z" fill="#281F2C" stroke="white" stroke-width="3"/>
<path d="M235.498 235C235.498 226.716 228.768 220 220.467 220C212.165 220 205.435 226.716 205.435 235C205.435 243.284 212.165 250 220.467 250C228.768 250 235.498 243.284 235.498 235Z" stroke="white" stroke-width="3"/>
<path d="M51.3587 95C51.3587 88.7868 46.3112 83.75 40.0848 83.75C33.8585 83.75 28.811 88.7868 28.811 95C28.811 101.213 33.8585 106.25 40.0848 106.25C46.3112 106.25 51.3587 101.213 51.3587 95Z" fill="#281F2C" stroke="white" stroke-width="3"/>
<path d="M55.1166 95C55.1166 86.7157 48.3867 80 40.0848 80C31.783 80 25.053 86.7157 25.053 95C25.053 103.284 31.783 110 40.0848 110C48.3867 110 55.1166 103.284 55.1166 95Z" stroke="white" stroke-width="3"/>
<path d="M357.006 20C357.006 13.7868 351.958 8.75 345.732 8.75C339.505 8.75 334.458 13.7868 334.458 20C334.458 26.2132 339.505 31.25 345.732 31.25C351.958 31.25 357.006 26.2132 357.006 20Z" fill="#281F2C" stroke="white" stroke-width="3"/>
<path d="M360.764 20C360.764 11.7157 354.034 5 345.732 5C337.43 5 330.7 11.7157 330.7 20C330.7 28.2843 337.43 35 345.732 35C354.034 35 360.764 28.2843 360.764 20Z" stroke="white" stroke-width="3"/>
</svg>
