<svg width="438" height="450" viewBox="0 0 438 450" fill="none" xmlns="http://www.w3.org/2000/svg">
<path fill-rule="evenodd" clip-rule="evenodd" d="M23.0526 42.5974V327.517L176.093 283.958V5.76929L23.0526 42.5974Z" stroke="#F5F5F5" stroke-width="3" stroke-linecap="round" stroke-linejoin="round"/>
<path fill-rule="evenodd" clip-rule="evenodd" d="M259.99 144.61V429.53L413.03 385.97V107.781L259.99 144.61Z" stroke="#F5F5F5" stroke-width="3" stroke-linecap="round" stroke-linejoin="round"/>
<path d="M413.03 107.782L176.093 5.76929" stroke="#F5F5F5" stroke-width="3" stroke-linecap="round" stroke-linejoin="round"/>
<path d="M23.0526 42.5974L259.99 144.61" stroke="#F5F5F5" stroke-width="3" stroke-linecap="round" stroke-linejoin="round"/>
<path d="M413.03 385.97L176.093 283.958" stroke="#F5F5F5" stroke-width="3" stroke-linecap="round" stroke-linejoin="round"/>
<path d="M259.99 429.53L23.0526 327.517" stroke="#F5F5F5" stroke-width="3" stroke-linecap="round" stroke-linejoin="round"/>
<path d="M332.894 222.012C338.146 222.012 342.403 217.75 342.403 212.493C342.403 207.236 338.146 202.974 332.894 202.974C327.642 202.974 323.385 207.236 323.385 212.493C323.385 217.75 327.642 222.012 332.894 222.012Z" stroke="#F5F5F5" stroke-width="3" stroke-linecap="round" stroke-linejoin="round"/>
<path d="M294.857 241.051C300.109 241.051 304.366 236.789 304.366 231.531C304.366 226.274 300.109 222.012 294.857 222.012C289.605 222.012 285.348 226.274 285.348 231.531C285.348 236.789 289.605 241.051 294.857 241.051Z" stroke="#F5F5F5" stroke-linecap="round" stroke-linejoin="round"/>
<path d="M307.536 380.666C312.788 380.666 317.045 376.404 317.045 371.147C317.045 365.89 312.788 361.628 307.536 361.628C302.284 361.628 298.027 365.89 298.027 371.147C298.027 376.404 302.284 380.666 307.536 380.666Z" stroke="#F5F5F5" stroke-width="3" stroke-linecap="round" stroke-linejoin="round"/>
<path d="M180.747 323.551C185.998 323.551 190.256 319.289 190.256 314.031C190.256 308.774 185.998 304.512 180.747 304.512C175.495 304.512 171.237 308.774 171.237 314.031C171.237 319.289 175.495 323.551 180.747 323.551Z" stroke="#F5F5F5" stroke-width="3" stroke-linecap="round" stroke-linejoin="round"/>
<path d="M79.3151 222.012C84.5668 222.012 88.8243 217.75 88.8243 212.493C88.8243 207.236 84.5668 202.974 79.3151 202.974C74.0633 202.974 69.8058 207.236 69.8058 212.493C69.8058 217.75 74.0633 222.012 79.3151 222.012Z" stroke="#F5F5F5" stroke-width="3" stroke-linecap="round" stroke-linejoin="round"/>
<path d="M123.691 247.397C128.943 247.397 133.201 243.135 133.201 237.878C133.201 232.62 128.943 228.358 123.691 228.358C118.44 228.358 114.182 232.62 114.182 237.878C114.182 243.135 118.44 247.397 123.691 247.397Z" stroke="#F5F5F5" stroke-width="3" stroke-linecap="round" stroke-linejoin="round"/>
<path d="M199.765 367.974C205.017 367.974 209.274 363.712 209.274 358.455C209.274 353.197 205.017 348.935 199.765 348.935C194.513 348.935 190.256 353.197 190.256 358.455C190.256 363.712 194.513 367.974 199.765 367.974Z" stroke="#F5F5F5" stroke-width="3" stroke-linecap="round" stroke-linejoin="round"/>
<path d="M231.462 348.935C236.714 348.935 240.972 344.674 240.972 339.416C240.972 334.159 236.714 329.897 231.462 329.897C226.211 329.897 221.953 334.159 221.953 339.416C221.953 344.674 226.211 348.935 231.462 348.935Z" stroke="#F5F5F5" stroke-width="3" stroke-linecap="round" stroke-linejoin="round"/>
<path d="M218.783 228.359C224.035 228.359 228.293 224.097 228.293 218.839C228.293 213.582 224.035 209.32 218.783 209.32C213.532 209.32 209.274 213.582 209.274 218.839C209.274 224.097 213.532 228.359 218.783 228.359Z" stroke="#F5F5F5" stroke-width="3" stroke-linecap="round" stroke-linejoin="round"/>
<path d="M130.031 164.897C135.283 164.897 139.54 160.635 139.54 155.378C139.54 150.12 135.283 145.858 130.031 145.858C124.779 145.858 120.522 150.12 120.522 155.378C120.522 160.635 124.779 164.897 130.031 164.897Z" stroke="#F5F5F5" stroke-linecap="round" stroke-linejoin="round"/>
<path d="M123.691 202.974C128.943 202.974 133.201 198.712 133.201 193.455C133.201 188.197 128.943 183.935 123.691 183.935C118.44 183.935 114.182 188.197 114.182 193.455C114.182 198.712 118.44 202.974 123.691 202.974Z" stroke="#F5F5F5" stroke-width="3" stroke-linecap="round" stroke-linejoin="round"/>
<path d="M139.757 150C139.757 142.831 133.951 137.019 126.789 137.019C119.628 137.019 113.822 142.831 113.822 150C113.822 157.169 119.628 162.981 126.789 162.981C133.951 162.981 139.757 157.169 139.757 150Z" fill="#281F2C" stroke="white" stroke-width="3"/>
<path d="M144.079 150C144.079 140.441 136.338 132.692 126.789 132.692C117.241 132.692 109.5 140.441 109.5 150C109.5 159.559 117.241 167.308 126.789 167.308C136.338 167.308 144.079 159.559 144.079 150Z" stroke="white" stroke-width="3"/>
<path d="M306.888 230.769C306.888 223.6 301.083 217.788 293.921 217.788C286.76 217.788 280.954 223.6 280.954 230.769C280.954 237.938 286.76 243.75 293.921 243.75C301.083 243.75 306.888 237.938 306.888 230.769Z" fill="#281F2C" stroke="white" stroke-width="3"/>
<path d="M311.211 230.769C311.211 221.21 303.47 213.462 293.921 213.462C284.372 213.462 276.632 221.21 276.632 230.769C276.632 240.328 284.372 248.077 293.921 248.077C303.47 248.077 311.211 240.328 311.211 230.769Z" stroke="white" stroke-width="3"/>
<path d="M272.309 426.923C272.309 419.754 266.504 413.942 259.342 413.942C252.181 413.942 246.375 419.754 246.375 426.923C246.375 434.092 252.181 439.904 259.342 439.904C266.504 439.904 272.309 434.092 272.309 426.923Z" fill="#281F2C" stroke="white" stroke-width="3"/>
<path d="M276.632 426.923C276.632 417.364 268.891 409.616 259.342 409.616C249.793 409.616 242.053 417.364 242.053 426.923C242.053 436.482 249.793 444.231 259.342 444.231C268.891 444.231 276.632 436.482 276.632 426.923Z" stroke="white" stroke-width="3"/>
<path d="M427.914 109.615C427.914 102.446 422.109 96.6347 414.947 96.6347C407.786 96.6347 401.98 102.446 401.98 109.615C401.98 116.785 407.786 122.596 414.947 122.596C422.109 122.596 427.914 116.785 427.914 109.615Z" fill="#281F2C" stroke="white" stroke-width="3"/>
<path d="M432.237 109.615C432.237 100.057 424.496 92.3077 414.947 92.3077C405.399 92.3077 397.658 100.057 397.658 109.615C397.658 119.174 405.399 126.923 414.947 126.923C424.496 126.923 432.237 119.174 432.237 109.615Z" stroke="white" stroke-width="3"/>
<path d="M36.0197 46.1538C36.0197 38.9847 30.2142 33.173 23.0526 33.173C15.8911 33.173 10.0855 38.9847 10.0855 46.1538C10.0855 53.3228 15.8911 59.1345 23.0526 59.1345C30.2142 59.1345 36.0197 53.3228 36.0197 46.1538Z" fill="#281F2C" stroke="white" stroke-width="3"/>
<path d="M40.3421 46.1537C40.3421 36.595 32.6013 28.846 23.0526 28.846C13.5039 28.846 5.76315 36.595 5.76315 46.1537C5.76315 55.7125 13.5039 63.4614 23.0526 63.4614C32.6013 63.4614 40.3421 55.7125 40.3421 46.1537Z" stroke="white" stroke-width="3"/>
</svg>
