<svg width="368" height="450" viewBox="0 0 368 450" fill="none" xmlns="http://www.w3.org/2000/svg">
<path d="M72.7284 399.31C58.0592 399.159 49.0279 397.754 45.6344 395.095C42.6143 392.729 41.7138 388.681 40.6135 383.531" stroke="#F5F5F5" stroke-width="3" stroke-linecap="round" stroke-linejoin="round"/>
<path d="M40.6134 383.531C38.9776 377.241 37.4157 372.227 35.9278 368.488C33.6959 362.879 17.9287 343.811 13.7025 330.632C12.7033 327.517 11.9124 324.303 11.3337 321.063" stroke="#F5F5F5" stroke-width="3" stroke-linecap="round" stroke-linejoin="round"/>
<path d="M11.3337 321.112C10.6192 317.099 10.2471 311.805 10.2173 305.232C10.4759 298.902 11.6264 292.936 13.7024 287.916C18.4932 276.333 30.187 250.568 72.7282 250.568" stroke="#F5F5F5" stroke-width="3" stroke-linecap="round" stroke-linejoin="round"/>
<path d="M73.0479 399.348C87.717 399.197 96.7483 397.792 100.142 395.133C103.162 392.767 104.062 388.719 105.163 383.569" stroke="#F5F5F5" stroke-width="3" stroke-linecap="round" stroke-linejoin="round"/>
<path d="M105.163 383.569C106.798 377.279 108.36 372.265 109.848 368.526C112.08 362.917 127.847 343.849 132.074 330.67C133.073 327.555 133.864 324.341 134.442 321.101" stroke="#F5F5F5" stroke-width="3" stroke-linecap="round" stroke-linejoin="round"/>
<path d="M134.442 321.15C135.157 317.137 135.529 311.843 135.559 305.27C135.3 298.94 134.15 292.974 132.074 287.954C127.283 276.371 115.589 250.606 73.0479 250.606" stroke="#F5F5F5" stroke-width="3" stroke-linecap="round" stroke-linejoin="round"/>
<path d="M101.405 394.653V403.816C101.405 407.045 97.9033 409.664 93.5839 409.664H51.8724C47.5531 409.664 44.0515 407.045 44.0515 403.816V397.968V394.007" stroke="#F5F5F5" stroke-width="3" stroke-linecap="round" stroke-linejoin="round"/>
<path d="M101.405 405.091V414.254C101.405 417.483 97.9033 420.102 93.5839 420.102H51.8724C47.5531 420.102 44.0515 417.483 44.0515 414.254V408.406V404.445" stroke="#F5F5F5" stroke-width="3" stroke-linecap="round" stroke-linejoin="round"/>
<path d="M101.405 415.529V424.692C101.405 427.921 97.9033 430.54 93.5839 430.54H51.8724C47.5531 430.54 44.0515 427.921 44.0515 424.692V418.844V414.883" stroke="#F5F5F5" stroke-width="3" stroke-linecap="round" stroke-linejoin="round"/>
<path d="M52.3167 430.623C55.5596 439.321 62.3953 443.67 72.8238 443.67C83.2524 443.67 90.3205 439.321 94.0281 430.623" stroke="#F5F5F5" stroke-width="3" stroke-linecap="round" stroke-linejoin="round"/>
<path d="M183.143 158.969C168.474 158.818 159.443 157.413 156.049 154.754C153.029 152.388 152.129 148.341 151.029 143.19" stroke="#F5F5F5" stroke-width="3" stroke-linecap="round" stroke-linejoin="round"/>
<path d="M151.029 143.19C149.393 136.9 147.831 131.886 146.343 128.147C144.111 122.538 128.344 103.47 124.118 90.2913C123.119 87.1757 122.328 83.9625 121.749 80.7225" stroke="#F5F5F5" stroke-width="3" stroke-linecap="round" stroke-linejoin="round"/>
<path d="M121.749 80.7714C121.035 76.7578 120.662 71.4644 120.633 64.8912C120.891 58.5609 122.042 52.5947 124.118 47.5752C128.908 35.9917 140.602 10.2273 183.143 10.2273" stroke="#F5F5F5" stroke-width="3" stroke-linecap="round" stroke-linejoin="round"/>
<path d="M183.463 159.007C198.132 158.856 207.164 157.451 210.557 154.792C213.577 152.426 214.478 148.379 215.578 143.228" stroke="#F5F5F5" stroke-width="3" stroke-linecap="round" stroke-linejoin="round"/>
<path d="M215.578 143.228C217.214 136.938 218.776 131.924 220.263 128.185C222.495 122.576 238.263 103.508 242.489 90.3292C243.488 87.2136 244.279 84.0004 244.858 80.7605" stroke="#F5F5F5" stroke-width="3" stroke-linecap="round" stroke-linejoin="round"/>
<path d="M244.858 80.8094C245.572 76.7957 245.944 71.5023 245.974 64.9292C245.715 58.5988 244.565 52.6327 242.489 47.6131C237.698 36.0297 226.004 10.2653 183.463 10.2653" stroke="#F5F5F5" stroke-width="3" stroke-linecap="round" stroke-linejoin="round"/>
<path d="M211.82 154.312V163.475C211.82 166.705 208.319 169.323 203.999 169.323H162.288C157.968 169.323 154.467 166.705 154.467 163.475V157.627V153.666" stroke="#F5F5F5" stroke-width="3" stroke-linecap="round" stroke-linejoin="round"/>
<path d="M211.82 164.75V173.913C211.82 177.142 208.319 179.761 203.999 179.761H162.288C157.968 179.761 154.467 177.142 154.467 173.913V168.065V164.104" stroke="#F5F5F5" stroke-width="3" stroke-linecap="round" stroke-linejoin="round"/>
<path d="M211.82 175.188V184.351C211.82 187.58 208.319 190.199 203.999 190.199H162.288C157.968 190.199 154.467 187.58 154.467 184.351V178.503V174.542" stroke="#F5F5F5" stroke-width="3" stroke-linecap="round" stroke-linejoin="round"/>
<path d="M162.732 190.282C165.975 198.98 172.81 203.329 183.239 203.329C193.667 203.329 200.735 198.98 204.443 190.282" stroke="#F5F5F5" stroke-width="3" stroke-linecap="round" stroke-linejoin="round"/>
<path d="M297.511 394.197C282.842 394.045 273.81 392.64 270.417 389.981C267.397 387.615 266.496 383.568 265.396 378.417" stroke="#F5F5F5" stroke-width="3" stroke-linecap="round" stroke-linejoin="round"/>
<path d="M265.396 378.417C263.76 372.128 262.198 367.113 260.71 363.374C258.479 357.766 242.711 338.697 238.485 325.519C237.486 322.403 236.695 319.19 236.116 315.95" stroke="#F5F5F5" stroke-width="3" stroke-linecap="round" stroke-linejoin="round"/>
<path d="M236.116 315.999C235.402 311.985 235.03 306.692 235 300.118C235.259 293.788 236.409 287.822 238.485 282.802C243.276 271.219 254.97 245.455 297.511 245.455" stroke="#F5F5F5" stroke-width="3" stroke-linecap="round" stroke-linejoin="round"/>
<path d="M297.831 394.235C312.5 394.083 321.531 392.678 324.925 390.019C327.945 387.653 328.845 383.606 329.945 378.455" stroke="#F5F5F5" stroke-width="3" stroke-linecap="round" stroke-linejoin="round"/>
<path d="M329.945 378.455C331.581 372.166 333.143 367.151 334.631 363.412C336.863 357.804 352.63 338.735 356.856 325.557C357.855 322.441 358.646 319.228 359.225 315.988" stroke="#F5F5F5" stroke-width="3" stroke-linecap="round" stroke-linejoin="round"/>
<path d="M359.225 316.037C359.939 312.023 360.312 306.73 360.341 300.156C360.083 293.826 358.932 287.86 356.856 282.84C352.066 271.257 340.372 245.492 297.831 245.492" stroke="#F5F5F5" stroke-width="3" stroke-linecap="round" stroke-linejoin="round"/>
<path d="M326.188 389.54V398.702C326.188 401.932 322.686 404.55 318.367 404.55H276.655C272.336 404.55 268.834 401.932 268.834 398.702V392.854V388.893" stroke="#F5F5F5" stroke-width="3" stroke-linecap="round" stroke-linejoin="round"/>
<path d="M326.188 399.978V409.14C326.188 412.37 322.686 414.988 318.367 414.988H276.655C272.336 414.988 268.834 412.37 268.834 409.14V403.292V399.331" stroke="#F5F5F5" stroke-width="3" stroke-linecap="round" stroke-linejoin="round"/>
<path d="M326.188 410.415V419.578C326.188 422.808 322.686 425.426 318.367 425.426H276.655C272.336 425.426 268.834 422.808 268.834 419.578V413.73V409.769" stroke="#F5F5F5" stroke-width="3" stroke-linecap="round" stroke-linejoin="round"/>
<path d="M277.099 425.509C280.342 434.208 287.178 438.557 297.606 438.557C308.035 438.557 315.103 434.208 318.811 425.509" stroke="#F5F5F5" stroke-width="3" stroke-linecap="round" stroke-linejoin="round"/>
<path d="M183.913 245.492V203.329" stroke="#F5F5F5" stroke-width="3" stroke-linecap="round" stroke-linejoin="round"/>
<path d="M199.33 264.977L240.017 275.89" stroke="#F5F5F5" stroke-width="3" stroke-linecap="round" stroke-linejoin="round"/>
<path d="M168.496 264.977L127.809 275.89" stroke="#F5F5F5" stroke-width="3" stroke-linecap="round" stroke-linejoin="round"/>
<path d="M348.669 357.955C348.669 351.6 343.522 346.449 337.174 346.449C330.826 346.449 325.679 351.6 325.679 357.955C325.679 364.309 330.826 369.46 337.174 369.46C343.522 369.46 348.669 364.309 348.669 357.955Z" fill="#281F2C" stroke="white" stroke-width="3"/>
<path d="M352.5 357.955C352.5 349.482 345.638 342.614 337.174 342.614C328.71 342.614 321.848 349.482 321.848 357.955C321.848 366.427 328.71 373.295 337.174 373.295C345.638 373.295 352.5 366.427 352.5 357.955Z" stroke="white" stroke-width="3"/>
<path d="M231.169 20.4546C231.169 14.1002 226.022 8.9489 219.674 8.9489C213.326 8.9489 208.179 14.1002 208.179 20.4546C208.179 26.809 213.326 31.9603 219.674 31.9603C226.022 31.9603 231.169 26.809 231.169 20.4546Z" fill="#281F2C" stroke="white" stroke-width="3"/>
<path d="M235 20.4546C235 11.982 228.138 5.11365 219.674 5.11365C211.21 5.11365 204.348 11.982 204.348 20.4546C204.348 28.9271 211.21 35.7955 219.674 35.7955C228.138 35.7955 235 28.9271 235 20.4546Z" stroke="white" stroke-width="3"/>
<path d="M195.408 260.795C195.408 254.441 190.261 249.29 183.913 249.29C177.565 249.29 172.418 254.441 172.418 260.795C172.418 267.15 177.565 272.301 183.913 272.301C190.261 272.301 195.408 267.15 195.408 260.795Z" fill="#281F2C" stroke="white" stroke-width="3"/>
<path d="M199.239 260.795C199.239 252.323 192.377 245.455 183.913 245.455C175.449 245.455 168.587 252.323 168.587 260.795C168.587 269.268 175.449 276.136 183.913 276.136C192.377 276.136 199.239 269.268 199.239 260.795Z" stroke="white" stroke-width="3"/>
<path d="M31.9293 271.023C31.9293 264.668 26.783 259.517 20.4348 259.517C14.0865 259.517 8.94019 264.668 8.94019 271.023C8.94019 277.377 14.0865 282.528 20.4348 282.528C26.783 282.528 31.9293 277.377 31.9293 271.023Z" fill="#281F2C" stroke="white" stroke-width="3"/>
<path d="M35.7608 271.023C35.7608 262.55 28.8991 255.682 20.4347 255.682C11.9704 255.682 5.10864 262.55 5.10864 271.023C5.10864 279.495 11.9704 286.364 20.4347 286.364C28.8991 286.364 35.7608 279.495 35.7608 271.023Z" stroke="white" stroke-width="3"/>
</svg>
