<svg width="574" height="450" viewBox="0 0 574 450" fill="none" xmlns="http://www.w3.org/2000/svg">
<path d="M569.623 386.361C559.423 363.823 553.023 349.668 550.422 343.899C546.522 335.244 513.06 307.132 500.539 291.062C490.799 278.56 466.869 239.107 450.976 216.655" stroke="#F5F5F5" stroke-width="3" stroke-linecap="round" stroke-linejoin="round"/>
<path d="M440.692 202.605C428.487 190.827 398.466 197.537 382.257 198.778C366.047 200.019 346.804 198.332 338.084 202.605C329.363 206.878 297.32 233.279 295.325 238.683C293.331 244.088 284.742 272.621 283.789 278.997C283.154 283.248 284.162 287.7 288.509 291.057" stroke="#F5F5F5" stroke-width="3" stroke-linecap="round" stroke-linejoin="round"/>
<path d="M569.623 386.361C563.448 410.568 553.929 426.616 541.064 434.505C521.767 446.338 499.603 445.623 499.603 445.623C499.603 445.623 480.156 389.445 473.302 382.831C466.448 376.216 449.859 370.221 427.501 363.958C405.143 357.695 393.434 347.004 383.416 340.573C373.398 334.141 332.495 331.296 318.485 327.503C304.475 323.709 293.748 315.461 292.467 308.235C291.186 301.009 298.575 291.497 314.743 292.37C330.911 293.243 337.819 295.462 362.035 295.462C386.251 295.462 393.339 283.332 394.952 279.738C396.565 276.143 396.565 269.267 394.952 264.083C394.071 261.252 392.812 256.454 390.703 252.08" stroke="#F5F5F5" stroke-width="3" stroke-linecap="round" stroke-linejoin="round"/>
<path d="M375.53 240.368C365.918 237.243 352.496 234.105 350.527 234.105C343.322 234.105 319.409 255.477 318.485 256.433C317.561 257.389 307.179 277.253 306.558 280.821" stroke="#F5F5F5" stroke-width="3" stroke-linecap="round" stroke-linejoin="round"/>
<path d="M292.412 307.99L237.553 339.644L211.742 345.184L229.448 325.614L457.136 194.236C465.413 189.614 470.926 189.451 473.675 193.748C476.423 198.044 473.612 202.883 465.241 208.266L319.653 292.271" stroke="#F5F5F5" stroke-width="3" stroke-linecap="round" stroke-linejoin="round"/>
<path d="M247.653 333.816L239.548 319.786" stroke="#F5F5F5" stroke-linecap="round" stroke-linejoin="round"/>
<path d="M344.347 278.403C346.461 281.06 349.896 284.196 354.655 287.811C359.413 291.426 363.885 293.8 368.07 294.932" stroke="#F5F5F5" stroke-width="3" stroke-linecap="round" stroke-linejoin="round"/>
<path d="M360.602 236.642L359.863 249.946" stroke="#F5F5F5" stroke-width="3" stroke-linecap="round" stroke-linejoin="round"/>
<path d="M363.292 268.05C365.922 270.463 369.573 273.457 374.244 277.031C378.915 280.605 384.177 283.817 390.029 286.668" stroke="#F5F5F5" stroke-width="3" stroke-linecap="round" stroke-linejoin="round"/>
<path d="M5.43555 165.768C21.4567 146.913 31.5128 135.07 35.6039 130.24C41.7405 122.995 81.6587 105.19 98.1271 93.1915C110.938 83.8574 144.822 52.5246 166.292 35.3206" stroke="#F5F5F5" stroke-width="3" stroke-linecap="round" stroke-linejoin="round"/>
<path d="M180.052 24.6481C195.033 16.6875 222.04 31.4079 237.279 37.0663C252.518 42.7247 271.481 46.404 278.686 52.9139C285.89 59.4238 309.411 93.6283 309.837 99.3728C310.264 105.117 310.651 134.911 309.808 141.303C309.246 145.564 307.049 149.566 301.944 151.595" stroke="#F5F5F5" stroke-width="3" stroke-linecap="round" stroke-linejoin="round"/>
<path d="M5.43563 165.768C4.69495 190.739 9.41984 208.787 19.6103 219.914C34.896 236.605 56.3988 242.023 56.3988 242.023C56.3988 242.023 90.5866 193.379 98.9994 188.908C107.412 184.438 125.012 183.246 148.231 183.384C171.451 183.522 185.654 176.471 197.058 173.049C208.461 169.626 248.565 178.159 263.078 178.372C277.592 178.585 290.178 173.611 293.402 167.018C296.627 160.424 292.147 149.245 276.365 145.631C260.582 142.016 253.33 142.247 230.052 135.576C206.775 128.905 203.306 115.292 202.747 111.392C202.188 107.493 204.085 100.883 207.065 96.344C208.692 93.8654 211.226 89.6 214.459 85.9768" stroke="#F5F5F5" stroke-width="3" stroke-linecap="round" stroke-linejoin="round"/>
<path d="M232.275 78.898C242.377 78.5419 256.144 79.2233 258.037 79.7658C264.963 81.7506 282.055 108.882 282.679 110.055C283.304 111.229 287.805 133.184 287.418 136.784" stroke="#F5F5F5" stroke-width="3" stroke-linecap="round" stroke-linejoin="round"/>
<path d="M293.523 166.797L329.515 204.046L348.705 200.241L166.553 12.0728C159.871 5.34978 154.617 3.67457 150.79 7.04721C146.963 10.4199 148.331 15.8462 154.893 23.3264L271.672 144.184" stroke="#F5F5F5" stroke-width="3" stroke-linecap="round" stroke-linejoin="round"/>
<path d="M329.425 203.952L341.085 192.699" stroke="#F5F5F5" stroke-width="3" stroke-linecap="round" stroke-linejoin="round"/>
<path d="M268.335 89.9338L262.703 109.564" stroke="#F5F5F5" stroke-width="3" stroke-linecap="round" stroke-linejoin="round"/>
<path d="M251.76 124.05C248.995 126.022 244.828 128.09 239.257 130.254C233.686 132.418 228.733 133.468 224.396 133.404" stroke="#F5F5F5" stroke-width="3" stroke-linecap="round" stroke-linejoin="round"/>
<path d="M247.652 79.4285L244.694 92.4209" stroke="#F5F5F5" stroke-width="3" stroke-linecap="round" stroke-linejoin="round"/>
<path d="M236.404 108.879C233.21 110.474 228.875 112.346 223.399 114.495C217.924 116.644 211.98 118.282 205.568 119.41" stroke="#F5F5F5" stroke-width="3" stroke-linecap="round" stroke-linejoin="round"/>
<path d="M337.823 241.043V261.464" stroke="#F5F5F5" stroke-width="3" stroke-linecap="round" stroke-linejoin="round"/>
<path d="M359.272 183.782C363.845 174.815 385.033 124.05 405.504 128.728C425.975 133.407 423.834 156.561 407.744 164C391.654 171.438 367.023 132.136 396.036 97.6748" stroke="#F5F5F5" stroke-width="3" stroke-linecap="round" stroke-linejoin="round"/>
<path d="M201.347 342.406C180.942 335.85 161.786 325.278 151.598 308.344C119.102 254.331 194.613 241.043 179.539 279.009C163.253 320.027 77.9968 216.815 180.942 234.538C199.461 237.727 214.495 255.458 233.287 255.46C243.874 255.462 255.69 245.022 257.179 234.547C260.886 208.474 236.121 190.138 220.986 198.326C196.376 211.64 203.629 270.087 293.752 211.64" stroke="#F5F5F5" stroke-width="3" stroke-linecap="round" stroke-linejoin="round"/>
<path d="M403.365 96.4286C403.365 89.7716 397.965 84.375 391.304 84.375C384.643 84.375 379.243 89.7716 379.243 96.4286C379.243 103.086 384.643 108.482 391.304 108.482C397.965 108.482 403.365 103.086 403.365 96.4286Z" fill="#281F2C" stroke="white" stroke-width="3"/>
<path d="M407.385 96.4286C407.385 87.5526 400.185 80.3571 391.304 80.3571C382.423 80.3571 375.223 87.5526 375.223 96.4286C375.223 105.305 382.423 112.5 391.304 112.5C400.185 112.5 407.385 105.305 407.385 96.4286Z" stroke="white" stroke-width="3"/>
<path d="M172.87 230.357C172.87 223.7 167.471 218.303 160.81 218.303C154.149 218.303 148.749 223.7 148.749 230.357C148.749 237.014 154.149 242.411 160.81 242.411C167.471 242.411 172.87 237.014 172.87 230.357Z" fill="#281F2C" stroke="white" stroke-width="3"/>
<path d="M176.891 230.357C176.891 221.481 169.691 214.286 160.81 214.286C151.928 214.286 144.729 221.481 144.729 230.357C144.729 239.233 151.928 246.428 160.81 246.428C169.691 246.428 176.891 239.233 176.891 230.357Z" stroke="white" stroke-width="3"/>
<path d="M301.518 208.929C301.518 202.272 296.119 196.875 289.458 196.875C282.797 196.875 277.397 202.272 277.397 208.929C277.397 215.586 282.797 220.982 289.458 220.982C296.119 220.982 301.518 215.586 301.518 208.929Z" fill="#281F2C" stroke="white" stroke-width="3"/>
<path d="M305.539 208.929C305.539 200.053 298.339 192.857 289.458 192.857C280.576 192.857 273.377 200.053 273.377 208.929C273.377 217.805 280.576 225 289.458 225C298.339 225 305.539 217.805 305.539 208.929Z" stroke="white" stroke-width="3"/>
<path d="M188.952 332.143C188.952 325.486 183.552 320.089 176.891 320.089C170.23 320.089 164.83 325.486 164.83 332.143C164.83 338.8 170.23 344.197 176.891 344.197C183.552 344.197 188.952 338.8 188.952 332.143Z" fill="#281F2C" stroke="white" stroke-width="3"/>
<path d="M192.972 332.143C192.972 323.267 185.772 316.072 176.891 316.072C168.01 316.072 160.81 323.267 160.81 332.143C160.81 341.019 168.01 348.214 176.891 348.214C185.772 348.214 192.972 341.019 192.972 332.143Z" stroke="white" stroke-width="3"/>
</svg>
