<svg width="564" height="450" viewBox="0 0 564 450" fill="none" xmlns="http://www.w3.org/2000/svg">
<path d="M33.3047 274.602C48.8685 274.602 61.4854 262.01 61.4854 246.477C61.4854 230.944 48.8685 218.352 33.3047 218.352C17.7409 218.352 5.12402 230.944 5.12402 246.477C5.12402 262.01 17.7409 274.602 33.3047 274.602Z" stroke="#C0C0C0" stroke-width="3" stroke-linecap="round" stroke-linejoin="round"/>
<path d="M117.847 274.602C133.41 274.602 146.027 262.01 146.027 246.477C146.027 230.944 133.41 218.352 117.847 218.352C102.283 218.352 89.666 230.944 89.666 246.477C89.666 262.01 102.283 274.602 117.847 274.602Z" stroke="#C0C0C0" stroke-width="3" stroke-linecap="round" stroke-linejoin="round"/>
<path d="M117.847 162.102C133.41 162.102 146.027 149.51 146.027 133.977C146.027 118.444 133.41 105.852 117.847 105.852C102.283 105.852 89.666 118.444 89.666 133.977C89.666 149.51 102.283 162.102 117.847 162.102Z" stroke="#C0C0C0" stroke-width="3" stroke-linecap="round" stroke-linejoin="round"/>
<path d="M117.847 387.102C133.41 387.102 146.027 374.51 146.027 358.977C146.027 343.444 133.41 330.852 117.847 330.852C102.283 330.852 89.666 343.444 89.666 358.977C89.666 374.51 102.283 387.102 117.847 387.102Z" stroke="#C0C0C0" stroke-width="3" stroke-linecap="round" stroke-linejoin="round"/>
<path d="M230.569 330.852C246.133 330.852 258.75 318.26 258.75 302.727C258.75 287.194 246.133 274.602 230.569 274.602C215.006 274.602 202.389 287.194 202.389 302.727C202.389 318.26 215.006 330.852 230.569 330.852Z" stroke="#C0C0C0" stroke-width="3" stroke-linecap="round" stroke-linejoin="round"/>
<path d="M230.569 218.352C246.133 218.352 258.75 205.76 258.75 190.227C258.75 174.694 246.133 162.102 230.569 162.102C215.006 162.102 202.389 174.694 202.389 190.227C202.389 205.76 215.006 218.352 230.569 218.352Z" stroke="#C0C0C0" stroke-width="3" stroke-linecap="round" stroke-linejoin="round"/>
<path d="M230.569 105.852C246.133 105.852 258.75 93.2603 258.75 77.7273C258.75 62.1943 246.133 49.6023 230.569 49.6023C215.006 49.6023 202.389 62.1943 202.389 77.7273C202.389 93.2603 215.006 105.852 230.569 105.852Z" stroke="#C0C0C0" stroke-width="3" stroke-linecap="round" stroke-linejoin="round"/>
<path d="M230.569 443.352C246.133 443.352 258.75 430.76 258.75 415.227C258.75 399.694 246.133 387.102 230.569 387.102C215.006 387.102 202.389 399.694 202.389 415.227C202.389 430.76 215.006 443.352 230.569 443.352Z" stroke="#C0C0C0" stroke-width="3" stroke-linecap="round" stroke-linejoin="round"/>
<path d="M49.6162 223.081L97.7653 154.019" stroke="#C0C0C0" stroke-width="3" stroke-linecap="round" stroke-linejoin="round"/>
<path d="M61.4854 246.477H89.8065" stroke="#C0C0C0" stroke-width="3" stroke-linecap="round" stroke-linejoin="round"/>
<path d="M49.6152 269.86L97.8776 339.048" stroke="#C0C0C0" stroke-width="3" stroke-linecap="round" stroke-linejoin="round"/>
<path d="M143.275 121.288L205.2 90.3867" stroke="#C0C0C0" stroke-width="3" stroke-linecap="round" stroke-linejoin="round"/>
<path d="M214.871 101.228L133.53 222.998" stroke="#C0C0C0" stroke-width="3" stroke-linecap="round" stroke-linejoin="round"/>
<path d="M220.087 103.881L128.429 332.574" stroke="#C0C0C0" stroke-width="3" stroke-linecap="round" stroke-linejoin="round"/>
<path d="M205.359 177.647L143.184 146.621" stroke="#C0C0C0" stroke-width="3" stroke-linecap="round" stroke-linejoin="round"/>
<path d="M205.277 202.848L143.15 233.85" stroke="#C0C0C0" stroke-width="3" stroke-linecap="round" stroke-linejoin="round"/>
<path d="M214.888 213.704L133.607 335.384" stroke="#C0C0C0" stroke-width="3" stroke-linecap="round" stroke-linejoin="round"/>
<path d="M214.874 279.23L133.553 157.489" stroke="#C0C0C0" stroke-width="3" stroke-linecap="round" stroke-linejoin="round"/>
<path d="M205.308 290.121L143.229 259.144" stroke="#C0C0C0" stroke-width="3" stroke-linecap="round" stroke-linejoin="round"/>
<path d="M205.33 315.322L143.126 346.363" stroke="#C0C0C0" stroke-width="3" stroke-linecap="round" stroke-linejoin="round"/>
<path d="M205.363 402.649L143.189 371.624" stroke="#C0C0C0" stroke-width="3" stroke-linecap="round" stroke-linejoin="round"/>
<path d="M214.87 391.724L133.554 269.991" stroke="#C0C0C0" stroke-width="3" stroke-linecap="round" stroke-linejoin="round"/>
<path d="M220.061 389.008L128.349 160.18" stroke="#C0C0C0" stroke-width="3" stroke-linecap="round" stroke-linejoin="round"/>
<path fill-rule="evenodd" clip-rule="evenodd" d="M529.284 274.602C513.72 274.602 501.104 262.01 501.104 246.477C501.104 230.944 513.72 218.352 529.284 218.352C544.848 218.352 557.465 230.944 557.465 246.477C557.465 262.01 544.848 274.602 529.284 274.602Z" stroke="#C0C0C0" stroke-width="3" stroke-linecap="round" stroke-linejoin="round"/>
<path fill-rule="evenodd" clip-rule="evenodd" d="M444.742 274.602C429.178 274.602 416.562 262.01 416.562 246.477C416.562 230.944 429.178 218.352 444.742 218.352C460.306 218.352 472.923 230.944 472.923 246.477C472.923 262.01 460.306 274.602 444.742 274.602Z" stroke="#C0C0C0" stroke-width="3" stroke-linecap="round" stroke-linejoin="round"/>
<path fill-rule="evenodd" clip-rule="evenodd" d="M444.742 162.102C429.178 162.102 416.562 149.51 416.562 133.977C416.562 118.444 429.178 105.852 444.742 105.852C460.306 105.852 472.923 118.444 472.923 133.977C472.923 149.51 460.306 162.102 444.742 162.102Z" stroke="#C0C0C0" stroke-width="3" stroke-linecap="round" stroke-linejoin="round"/>
<path fill-rule="evenodd" clip-rule="evenodd" d="M444.742 387.102C429.178 387.102 416.562 374.51 416.562 358.977C416.562 343.444 429.178 330.852 444.742 330.852C460.306 330.852 472.923 343.444 472.923 358.977C472.923 374.51 460.306 387.102 444.742 387.102Z" stroke="#C0C0C0" stroke-width="3" stroke-linecap="round" stroke-linejoin="round"/>
<path fill-rule="evenodd" clip-rule="evenodd" d="M332.02 330.852C316.456 330.852 303.839 318.26 303.839 302.727C303.839 287.194 316.456 274.602 332.02 274.602C347.583 274.602 360.2 287.194 360.2 302.727C360.2 318.26 347.583 330.852 332.02 330.852Z" stroke="#C0C0C0" stroke-width="3" stroke-linecap="round" stroke-linejoin="round"/>
<path fill-rule="evenodd" clip-rule="evenodd" d="M332.02 218.352C316.456 218.352 303.839 205.76 303.839 190.227C303.839 174.694 316.456 162.102 332.02 162.102C347.583 162.102 360.2 174.694 360.2 190.227C360.2 205.76 347.583 218.352 332.02 218.352Z" stroke="#C0C0C0" stroke-width="3" stroke-linecap="round" stroke-linejoin="round"/>
<path fill-rule="evenodd" clip-rule="evenodd" d="M332.02 105.852C316.456 105.852 303.839 93.2603 303.839 77.7273C303.839 62.1943 316.456 49.6023 332.02 49.6023C347.583 49.6023 360.2 62.1943 360.2 77.7273C360.2 93.2603 347.583 105.852 332.02 105.852Z" stroke="#C0C0C0" stroke-width="3" stroke-linecap="round" stroke-linejoin="round"/>
<path fill-rule="evenodd" clip-rule="evenodd" d="M332.02 443.352C316.456 443.352 303.839 430.76 303.839 415.227C303.839 399.694 316.456 387.102 332.02 387.102C347.583 387.102 360.2 399.694 360.2 415.227C360.2 430.76 347.583 443.352 332.02 443.352Z" stroke="#C0C0C0" stroke-width="3" stroke-linecap="round" stroke-linejoin="round"/>
<path d="M512.758 222.773L464.824 154.019" stroke="#C0C0C0" stroke-width="3" stroke-linecap="round" stroke-linejoin="round"/>
<path d="M501.104 246.477H472.923" stroke="#C0C0C0" stroke-width="3" stroke-linecap="round" stroke-linejoin="round"/>
<path d="M512.898 269.969L464.712 339.048" stroke="#C0C0C0" stroke-width="3" stroke-linecap="round" stroke-linejoin="round"/>
<path d="M419.314 121.288L357.389 90.3867" stroke="#C0C0C0" stroke-width="3" stroke-linecap="round" stroke-linejoin="round"/>
<path d="M347.718 101.228L429.059 222.998" stroke="#C0C0C0" stroke-width="3" stroke-linecap="round" stroke-linejoin="round"/>
<path d="M342.502 103.881L434.16 332.574" stroke="#C0C0C0" stroke-width="3" stroke-linecap="round" stroke-linejoin="round"/>
<path d="M357.23 177.647L419.406 146.621" stroke="#C0C0C0" stroke-width="3" stroke-linecap="round" stroke-linejoin="round"/>
<path d="M357.312 202.848L419.438 233.85" stroke="#C0C0C0" stroke-width="3" stroke-linecap="round" stroke-linejoin="round"/>
<path d="M347.702 213.704L428.983 335.384" stroke="#C0C0C0" stroke-width="3" stroke-linecap="round" stroke-linejoin="round"/>
<path d="M347.716 279.23L429.037 157.489" stroke="#C0C0C0" stroke-width="3" stroke-linecap="round" stroke-linejoin="round"/>
<path d="M357.281 290.121L419.36 259.144" stroke="#C0C0C0" stroke-width="3" stroke-linecap="round" stroke-linejoin="round"/>
<path d="M357.26 315.322L419.463 346.363" stroke="#C0C0C0" stroke-width="3" stroke-linecap="round" stroke-linejoin="round"/>
<path d="M357.226 402.649L419.4 371.624" stroke="#C0C0C0" stroke-width="3" stroke-linecap="round" stroke-linejoin="round"/>
<path d="M347.72 391.724L429.036 269.991" stroke="#C0C0C0" stroke-width="3" stroke-linecap="round" stroke-linejoin="round"/>
<path d="M342.528 389.008L434.241 160.18" stroke="#C0C0C0" stroke-width="3" stroke-linecap="round" stroke-linejoin="round"/>
<path d="M262.593 20.4545C262.593 14.1001 257.432 8.94884 251.065 8.94884C244.698 8.94884 239.536 14.1001 239.536 20.4545C239.536 26.8089 244.698 31.9602 251.065 31.9602C257.432 31.9602 262.593 26.8089 262.593 20.4545Z" fill="#292929" stroke="white" stroke-width="1.5"/>
<path d="M266.436 20.4545C266.436 11.982 259.554 5.11359 251.065 5.11359C242.575 5.11359 235.693 11.982 235.693 20.4545C235.693 28.9271 242.575 35.7954 251.065 35.7954C259.554 35.7954 266.436 28.9271 266.436 20.4545Z" stroke="white"/>
<path d="M293.335 20.4545C293.335 14.1001 288.174 8.94884 281.807 8.94884C275.44 8.94884 270.278 14.1001 270.278 20.4545C270.278 26.8089 275.44 31.9602 281.807 31.9602C288.174 31.9602 293.335 26.8089 293.335 20.4545Z" fill="#292929" stroke="white" stroke-width="1.5"/>
<path d="M297.178 20.4545C297.178 11.982 290.296 5.11359 281.807 5.11359C273.318 5.11359 266.436 11.982 266.436 20.4545C266.436 28.9271 273.318 35.7954 281.807 35.7954C290.296 35.7954 297.178 28.9271 297.178 20.4545Z" stroke="white"/>
<path d="M324.077 20.4545C324.077 14.1001 318.916 8.94884 312.549 8.94884C306.182 8.94884 301.021 14.1001 301.021 20.4545C301.021 26.8089 306.182 31.9602 312.549 31.9602C318.916 31.9602 324.077 26.8089 324.077 20.4545Z" fill="#292929" stroke="white" stroke-width="1.5"/>
<path d="M327.92 20.4545C327.92 11.982 321.038 5.11359 312.549 5.11359C304.06 5.11359 297.178 11.982 297.178 20.4545C297.178 28.9271 304.06 35.7954 312.549 35.7954C321.038 35.7954 327.92 28.9271 327.92 20.4545Z" stroke="white"/>
</svg>
