<svg width="450" height="450" viewBox="0 0 450 450" fill="none" xmlns="http://www.w3.org/2000/svg">
<path d="M100.175 121.152C81.0338 121.152 65.5168 105.635 65.5168 86.4938C65.5168 67.3526 81.0338 51.8357 100.175 51.8357C119.316 51.8357 134.833 67.3526 134.833 86.4938C134.833 105.635 119.316 121.152 100.175 121.152Z" stroke="#F5F5F5" stroke-width="3" stroke-linecap="round" stroke-linejoin="round"/>
<path fill-rule="evenodd" clip-rule="evenodd" d="M101.933 144.825C80.408 144.405 69.2459 149.76 58.2901 161.633C47.3342 173.507 7.06369 256.124 6.0114 261.568C4.87816 267.431 4.89946 278.363 13.3091 281.668C21.7188 284.973 30.9257 277.585 33.9047 271.777L54.8973 225.931L54.873 226.372L54.6483 431.011C54.6393 439.288 61.0929 446.062 69.2459 446.561L70.211 446.591C78.987 446.591 86.2686 439.804 86.8851 431.049L95.5463 308.042H105.773L115.697 431.061C116.405 439.833 123.73 446.591 132.53 446.591C141.135 446.591 148.11 439.615 148.11 431.011L148.107 224.209C160.565 252.253 167.735 268.109 169.617 271.777C172.596 277.585 181.803 284.973 190.212 281.668C198.299 278.49 199.447 270.816 197.635 262.267C195.824 253.717 159.745 176.921 148.107 163.383C136.47 149.845 123.459 145.244 101.933 144.825Z" stroke="#F5F5F5" stroke-width="3" stroke-linecap="round" stroke-linejoin="round"/>
<path d="M128.417 41.4287H150.198V63.2098" stroke="#F5F5F5" stroke-width="3" stroke-linecap="round" stroke-linejoin="round"/>
<path d="M48.5527 63.2098V41.4287H70.3338" stroke="#F5F5F5" stroke-width="3" stroke-linecap="round" stroke-linejoin="round"/>
<path d="M127.789 133.494H149.57V111.713" stroke="#F5F5F5" stroke-width="3" stroke-linecap="round" stroke-linejoin="round"/>
<path d="M47.9248 111.713V133.494H69.7059" stroke="#F5F5F5" stroke-width="3" stroke-linecap="round" stroke-linejoin="round"/>
<path d="M252.34 32.7567C258.354 32.7567 263.23 27.8808 263.23 21.8661C263.23 15.8515 258.354 10.9756 252.34 10.9756C246.325 10.9756 241.449 15.8515 241.449 21.8661C241.449 27.8808 246.325 32.7567 252.34 32.7567Z" stroke="#F5F5F5" stroke-width="3" stroke-linecap="round" stroke-linejoin="round"/>
<path d="M252.34 352.213C258.354 352.213 263.23 347.337 263.23 341.322C263.23 335.308 258.354 330.432 252.34 330.432C246.325 330.432 241.449 335.308 241.449 341.322C241.449 347.337 246.325 352.213 252.34 352.213Z" stroke="#F5F5F5" stroke-linecap="round" stroke-linejoin="round"/>
<path d="M176.079 96.5572L155.713 83.4169L176.079 70.8401" stroke="#F5F5F5" stroke-width="3" stroke-linecap="round" stroke-linejoin="round"/>
<path d="M427.799 32.7567C433.813 32.7567 438.689 27.8808 438.689 21.8661C438.689 15.8515 433.813 10.9756 427.799 10.9756C421.784 10.9756 416.908 15.8515 416.908 21.8661C416.908 27.8808 421.784 32.7567 427.799 32.7567Z" stroke="#F5F5F5" stroke-linecap="round" stroke-linejoin="round"/>
<path d="M427.799 352.213C433.813 352.213 438.689 347.337 438.689 341.322C438.689 335.308 433.813 330.432 427.799 330.432C421.784 330.432 416.908 335.308 416.908 341.322C416.908 347.337 421.784 352.213 427.799 352.213Z" stroke="#F5F5F5" stroke-width="3" stroke-linecap="round" stroke-linejoin="round"/>
<path d="M156.745 83.5793H206.81V21.8662H241.449" stroke="#F5F5F5" stroke-width="3" stroke-linecap="round" stroke-linejoin="round"/>
<path d="M252.34 32.7566V330.432" stroke="#F5F5F5" stroke-width="3" stroke-linecap="round" stroke-linejoin="round"/>
<path d="M427.799 32.7566V330.432" stroke="#F5F5F5" stroke-width="3" stroke-linecap="round" stroke-linejoin="round"/>
<path d="M263.23 21.8662H416.908" stroke="#F5F5F5" stroke-width="3" stroke-linecap="round" stroke-linejoin="round"/>
<path d="M263.23 340.634H416.908" stroke="#F5F5F5" stroke-width="3" stroke-linecap="round" stroke-linejoin="round"/>
<path d="M298.764 165.258H381.728" stroke="#F5F5F5" stroke-width="3" stroke-linecap="round" stroke-linejoin="round"/>
<path fill-rule="evenodd" clip-rule="evenodd" d="M295.902 53.3276H380.607V131.982H295.902V53.3276Z" stroke="#F5F5F5" stroke-width="3" stroke-linecap="round" stroke-linejoin="round"/>
<path d="M298.764 195.51H381.728" stroke="#F5F5F5" stroke-width="3" stroke-linecap="round" stroke-linejoin="round"/>
<path d="M298.764 225.761H381.728" stroke="#F5F5F5" stroke-width="3" stroke-linecap="round" stroke-linejoin="round"/>
<path d="M298.764 256.013H381.728" stroke="#F5F5F5" stroke-width="3" stroke-linecap="round" stroke-linejoin="round"/>
<path d="M298.764 286.264H359.267" stroke="#F5F5F5" stroke-width="3" stroke-linecap="round" stroke-linejoin="round"/>
<path d="M295.902 53.3276L380.607 131.982" stroke="#F5F5F5" stroke-width="3" stroke-linecap="round" stroke-linejoin="round"/>
<path d="M380.607 53.3276L295.902 131.982" stroke="#F5F5F5" stroke-width="3" stroke-linecap="round" stroke-linejoin="round"/>
<path d="M160.518 417.073C160.518 410.254 154.99 404.726 148.171 404.726C141.351 404.726 135.823 410.254 135.823 417.073C135.823 423.893 141.351 429.421 148.171 429.421C154.99 429.421 160.518 423.893 160.518 417.073Z" fill="#281F2C" stroke="white" stroke-width="1.5"/>
<path d="M164.634 417.073C164.634 407.981 157.263 400.61 148.17 400.61C139.078 400.61 131.707 407.981 131.707 417.073C131.707 426.166 139.078 433.537 148.17 433.537C157.263 433.537 164.634 426.166 164.634 417.073Z" stroke="white"/>
<path d="M67.2264 170.122C67.2264 163.303 61.6982 157.774 54.8788 157.774C48.0594 157.774 42.5312 163.303 42.5312 170.122C42.5312 176.941 48.0594 182.469 54.8788 182.469C61.6982 182.469 67.2264 176.941 67.2264 170.122Z" fill="#281F2C" stroke="white" stroke-width="1.5"/>
<path d="M71.3419 170.122C71.3419 161.03 63.9709 153.659 54.8785 153.659C45.786 153.659 38.415 161.03 38.415 170.122C38.415 179.215 45.786 186.585 54.8785 186.585C63.9709 186.585 71.3419 179.215 71.3419 170.122Z" stroke="white"/>
<path d="M440.396 21.951C440.396 15.1317 434.868 9.60346 428.049 9.60346C421.229 9.60346 415.701 15.1317 415.701 21.951C415.701 28.7704 421.229 34.2986 428.049 34.2986C434.868 34.2986 440.396 28.7704 440.396 21.951Z" fill="#281F2C" stroke="white" stroke-width="1.5"/>
<path d="M444.512 21.9511C444.512 12.8586 437.141 5.48772 428.048 5.48772C418.956 5.48772 411.585 12.8586 411.585 21.9511C411.585 31.0436 418.956 38.4146 428.048 38.4146C437.141 38.4146 444.512 31.0436 444.512 21.9511Z" stroke="white"/>
<path d="M264.787 340.244C264.787 333.424 259.259 327.896 252.439 327.896C245.62 327.896 240.092 333.424 240.092 340.244C240.092 347.063 245.62 352.591 252.439 352.591C259.259 352.591 264.787 347.063 264.787 340.244Z" fill="#281F2C" stroke="white" stroke-width="1.5"/>
<path d="M268.902 340.244C268.902 331.151 261.531 323.78 252.439 323.78C243.347 323.78 235.976 331.151 235.976 340.244C235.976 349.336 243.347 356.707 252.439 356.707C261.531 356.707 268.902 349.336 268.902 340.244Z" stroke="white"/>
</svg>
