<svg width="529" height="450" viewBox="0 0 529 450" fill="none" xmlns="http://www.w3.org/2000/svg">
<path d="M303.43 317.854C286.121 329.549 272.735 335.396 263.27 335.396C253.805 335.396 239.85 329.549 221.405 317.854" stroke="#F5F5F5" stroke-width="3" stroke-linecap="round" stroke-linejoin="round"/>
<path d="M221.405 317.847C226.947 319.115 233.17 319.115 240.074 317.847C246.978 316.58 254.572 316.597 262.858 317.9" stroke="#F5F5F5" stroke-width="3" stroke-linecap="round" stroke-linejoin="round"/>
<path d="M303.43 317.847C297.888 319.115 291.665 319.115 284.761 317.847C277.857 316.58 270.556 316.597 262.858 317.9" stroke="#F5F5F5" stroke-width="3" stroke-linecap="round" stroke-linejoin="round"/>
<path d="M221.405 317.854C233.23 309.674 239.142 305.585 239.142 305.585C239.142 305.585 246.724 299.16 258.806 305.585C258.806 305.585 261.957 307.012 265.043 305.585" stroke="#F5F5F5" stroke-width="3" stroke-linecap="round" stroke-linejoin="round"/>
<path d="M303.43 317.854C291.386 309.674 285.363 305.585 285.363 305.585C285.363 305.585 277.125 299.16 265.043 305.585" stroke="#F5F5F5" stroke-width="3" stroke-linecap="round" stroke-linejoin="round"/>
<path d="M408.65 199.095C409.661 199.82 410.646 200.648 411.593 201.556C419.845 210.324 415.147 231.535 413.037 238.301C410.928 245.068 404.16 252.877 400.739 257.432C397.319 261.988 397.319 275.66 390.836 277.786C386.514 279.204 382.495 278.803 378.779 276.585C371.609 307.743 357.799 332.699 337.347 351.451C306.669 379.581 299.04 387.653 262.858 387.653" stroke="#F5F5F5" stroke-width="3" stroke-linecap="round" stroke-linejoin="round"/>
<path d="M401.538 148.843C401.823 140.595 401.374 132.57 400.191 124.769C395.592 94.4411 389.733 75.2258 366.059 46.3359C346.469 22.4306 317.555 5.55566 262.858 5.55566" stroke="#F5F5F5" stroke-width="3" stroke-linecap="round" stroke-linejoin="round"/>
<path d="M117.036 201.556C108.784 210.324 113.483 231.535 115.592 238.301C117.701 245.068 124.469 252.877 127.89 257.433C131.311 261.988 131.311 275.66 137.793 277.786C142.115 279.204 146.134 278.803 149.85 276.585C157.02 307.743 170.831 332.699 191.282 351.452C221.96 379.581 226.677 387.653 262.858 387.653" stroke="#F5F5F5" stroke-width="3" stroke-linecap="round" stroke-linejoin="round"/>
<path d="M127.061 147.865C126.843 139.96 127.302 132.261 128.438 124.769C133.037 94.4411 138.896 75.2258 162.57 46.3359C182.16 22.4306 208.162 5.55566 262.858 5.55566" stroke="#F5F5F5" stroke-width="3" stroke-linecap="round" stroke-linejoin="round"/>
<path d="M332.119 234.222C355.362 234.222 374.205 217.508 374.205 196.889C374.205 176.27 355.362 159.556 332.119 159.556C308.876 159.556 290.034 176.27 290.034 196.889C290.034 217.508 308.876 234.222 332.119 234.222Z" stroke="#F5F5F5" stroke-width="3" stroke-linecap="round" stroke-linejoin="round"/>
<path d="M191.834 234.222C215.077 234.222 233.92 217.508 233.92 196.889C233.92 176.27 215.077 159.556 191.834 159.556C168.591 159.556 149.749 176.27 149.749 196.889C149.749 217.508 168.591 234.222 191.834 234.222Z" stroke="#F5F5F5" stroke-width="3" stroke-linecap="round" stroke-linejoin="round"/>
<path fill-rule="evenodd" clip-rule="evenodd" d="M252.624 168.889H271.329C276.494 168.889 280.681 173.067 280.681 178.222C280.681 183.377 276.494 187.555 271.329 187.555H252.624C247.459 187.555 243.272 183.377 243.272 178.222C243.272 173.067 247.459 168.889 252.624 168.889Z" stroke="#F5F5F5" stroke-width="3" stroke-linecap="round" stroke-linejoin="round"/>
<path d="M388.233 182.889C393.398 182.889 397.585 178.71 397.585 173.556C397.585 168.401 393.398 164.222 388.233 164.222C383.068 164.222 378.881 168.401 378.881 173.556C378.881 178.71 383.068 182.889 388.233 182.889Z" stroke="#F5F5F5" stroke-width="3" stroke-linecap="round" stroke-linejoin="round"/>
<path d="M135.72 182.889C140.885 182.889 145.072 178.71 145.072 173.556C145.072 168.401 140.885 164.222 135.72 164.222C130.555 164.222 126.368 168.401 126.368 173.556C126.368 178.71 130.555 182.889 135.72 182.889Z" stroke="#F5F5F5" stroke-width="3" stroke-linecap="round" stroke-linejoin="round"/>
<path d="M133.382 206.222C137.256 206.222 140.396 203.088 140.396 199.222C140.396 195.356 137.256 192.222 133.382 192.222C129.508 192.222 126.368 195.356 126.368 199.222C126.368 203.088 129.508 206.222 133.382 206.222Z" stroke="#F5F5F5" stroke-width="3" stroke-linecap="round" stroke-linejoin="round"/>
<path d="M390.571 206.222C394.445 206.222 397.585 203.088 397.585 199.222C397.585 195.356 394.445 192.222 390.571 192.222C386.697 192.222 383.557 195.356 383.557 199.222C383.557 203.088 386.697 206.222 390.571 206.222Z" stroke="#F5F5F5" stroke-width="3" stroke-linecap="round" stroke-linejoin="round"/>
<path d="M117.015 151.029C111.659 162.936 108.981 172 108.981 178.222C108.981 187.555 127.086 245.247 194.933 245.247C206.199 245.247 236.21 242.017 246.696 200.212C248.191 195.553 251.111 194.014 261.977 194.014" stroke="#F5F5F5" stroke-width="3" stroke-linecap="round" stroke-linejoin="round"/>
<path d="M117.015 151.03C166.895 134.013 216.48 125.504 265.771 125.504C315.062 125.504 362.118 134.013 406.938 151.03C412.294 162.936 414.972 172 414.972 178.222C414.972 187.556 396.868 245.247 329.02 245.247C317.755 245.247 287.743 242.017 277.257 200.213C275.762 195.553 272.842 194.014 261.977 194.014" stroke="#F5F5F5" stroke-width="3" stroke-linecap="round" stroke-linejoin="round"/>
<path d="M406.938 151.029C414.405 153.146 418.579 155.159 419.458 157.069C420.776 159.934 425.642 173.555 416.29 178.222" stroke="#F5F5F5" stroke-width="3" stroke-linecap="round" stroke-linejoin="round"/>
<path d="M117.015 151.029C110.17 153.146 106.308 155.159 105.429 157.069C104.111 159.934 99.2443 173.555 108.597 178.222" stroke="#F5F5F5" stroke-width="3" stroke-linecap="round" stroke-linejoin="round"/>
<path d="M85.3965 12.0332C34.5467 20.1411 2.78342 31.6626 2.78342 44.4443C2.78342 68.9903 119.925 88.8888 264.426 88.8888C408.927 88.8888 526.068 68.9903 526.068 44.4443C526.068 32.0093 496.005 20.7671 447.551 12.7005" stroke="#F5F5F5" stroke-width="3" stroke-linecap="round" stroke-linejoin="round"/>
<path d="M85.1125 350.968C34.4285 359.073 2.78342 370.576 2.78342 383.334C2.78342 407.88 119.925 427.778 264.426 427.778C408.927 427.778 526.068 407.88 526.068 383.334C526.068 370.863 495.832 359.592 447.133 351.52" stroke="#F5F5F5" stroke-width="3" stroke-linecap="round" stroke-linejoin="round"/>
<path d="M85.1125 183.333C34.4285 191.439 2.78342 202.941 2.78342 215.699C2.78342 240.245 119.925 260.144 264.426 260.144C408.927 260.144 526.068 240.245 526.068 215.699C526.068 203.229 495.832 191.957 447.133 183.886" stroke="#F5F5F5" stroke-width="3" stroke-linecap="round" stroke-linejoin="round"/>
<path d="M526.069 44.4443V383.333" stroke="#F5F5F5" stroke-linecap="round" stroke-linejoin="round"/>
<path d="M2.78342 44.4443V383.333" stroke="#F5F5F5" stroke-linecap="round" stroke-linejoin="round"/>
<path d="M447.23 14.2959V350.968" stroke="#F5F5F5" stroke-width="3" stroke-linecap="round" stroke-linejoin="round"/>
<path d="M85.3836 14.2959V350.968" stroke="#F5F5F5" stroke-width="3" stroke-linecap="round" stroke-linejoin="round"/>
<path d="M457.874 250C457.874 243.096 452.267 237.5 445.349 237.5C438.431 237.5 432.824 243.096 432.824 250C432.824 256.904 438.431 262.5 445.349 262.5C452.267 262.5 457.874 256.904 457.874 250Z" fill="#281F2C" stroke="white" stroke-width="3"/>
<path d="M462.05 250C462.05 240.795 454.572 233.333 445.349 233.333C436.126 233.333 428.648 240.795 428.648 250C428.648 259.205 436.126 266.667 445.349 266.667C454.572 266.667 462.05 259.205 462.05 250Z" stroke="white" stroke-width="3"/>
<path d="M173.964 44.4448C173.964 37.5413 168.357 31.9448 161.439 31.9448C154.521 31.9448 148.914 37.5413 148.914 44.4448C148.914 51.3484 154.521 56.9448 161.439 56.9448C168.357 56.9448 173.964 51.3484 173.964 44.4448Z" fill="#281F2C" stroke="white" stroke-width="3"/>
<path d="M178.14 44.4447C178.14 35.2399 170.663 27.778 161.439 27.778C152.216 27.778 144.738 35.2399 144.738 44.4447C144.738 53.6494 152.216 61.1113 161.439 61.1113C170.663 61.1113 178.14 53.6494 178.14 44.4447Z" stroke="white" stroke-width="3"/>
<path d="M357.671 427.778C357.671 420.874 352.063 415.278 345.146 415.278C338.228 415.278 332.62 420.874 332.62 427.778C332.62 434.681 338.228 440.278 345.146 440.278C352.063 440.278 357.671 434.681 357.671 427.778Z" fill="#281F2C" stroke="white" stroke-width="3"/>
<path d="M361.846 427.778C361.846 418.573 354.369 411.111 345.146 411.111C335.922 411.111 328.445 418.573 328.445 427.778C328.445 436.982 335.922 444.444 345.146 444.444C354.369 444.444 361.846 436.982 361.846 427.778Z" stroke="white" stroke-width="3"/>
<path d="M96.0284 250C96.0284 243.096 90.4206 237.5 83.503 237.5C76.5853 237.5 70.9775 243.096 70.9775 250C70.9775 256.904 76.5853 262.5 83.503 262.5C90.4206 262.5 96.0284 256.904 96.0284 250Z" fill="#281F2C" stroke="white" stroke-width="3"/>
<path d="M100.204 250C100.204 240.795 92.7264 233.333 83.503 233.333C74.2795 233.333 66.8024 240.795 66.8024 250C66.8024 259.205 74.2795 266.667 83.503 266.667C92.7264 266.667 100.204 259.205 100.204 250Z" stroke="white" stroke-width="3"/>
</svg>
