<svg width="308" height="450" viewBox="0 0 308 450" fill="none" xmlns="http://www.w3.org/2000/svg">
<path d="M247.62 415.405C246.998 402.804 246.954 389.431 249.233 379.485C253.244 361.981 255.331 327.902 254.893 317.423C254.454 306.945 255.932 281.673 254.46 274.114C251.122 256.964 249.09 244.21 240.35 242.721C234.523 241.728 229.758 243.245 226.053 247.273" stroke="#F5F5F5" stroke-width="3" stroke-linecap="round" stroke-linejoin="round"/>
<path d="M247.628 79.1209C264.04 79.1209 277.344 65.8371 277.344 49.4506C277.344 33.0641 264.04 19.7803 247.628 19.7803C231.217 19.7803 217.913 33.0641 217.913 49.4506C217.913 65.8371 231.217 79.1209 247.628 79.1209Z" stroke="#F5F5F5" stroke-width="3" stroke-linecap="round" stroke-linejoin="round"/>
<path d="M34.6675 158.242C51.0789 158.242 64.3829 144.958 64.3829 128.571C64.3829 112.185 51.0789 98.9011 34.6675 98.9011C18.2562 98.9011 4.95215 112.185 4.95215 128.571C4.95215 144.958 18.2562 158.242 34.6675 158.242Z" stroke="#F5F5F5" stroke-width="3" stroke-linecap="round" stroke-linejoin="round"/>
<path d="M272.391 187.912C288.802 187.912 302.107 174.628 302.107 158.242C302.107 141.855 288.802 128.571 272.391 128.571C255.98 128.571 242.676 141.855 242.676 158.242C242.676 174.628 255.98 187.912 272.391 187.912Z" stroke="#F5F5F5" stroke-width="3" stroke-linecap="round" stroke-linejoin="round"/>
<path d="M118.862 79.1209C135.273 79.1209 148.577 65.8371 148.577 49.4506C148.577 33.0641 135.273 19.7803 118.862 19.7803C102.451 19.7803 89.1465 33.0641 89.1465 49.4506C89.1465 65.8371 102.451 79.1209 118.862 79.1209Z" stroke="#F5F5F5" stroke-width="3" stroke-linecap="round" stroke-linejoin="round"/>
<path d="M226.029 247.263C226.029 247.263 221.946 238.575 212.977 238.009C206.997 237.631 201.957 239.593 197.856 243.894C194.483 239.774 190.357 237.71 185.478 237.702C180.598 237.694 176.357 240.159 172.753 245.097" stroke="#F5F5F5" stroke-width="3" stroke-linecap="round" stroke-linejoin="round"/>
<path d="M172.753 245.097C166.708 176.964 162.666 140.273 160.627 135.023C157.57 127.148 146.552 127.473 143.844 136.488C141.135 145.503 139.523 170.617 138.736 195.074C137.949 219.531 141.435 256.848 137.366 268.425C133.297 280.002 128.839 287.909 126.69 292.572" stroke="#F5F5F5" stroke-width="3" stroke-linecap="round" stroke-linejoin="round"/>
<path d="M131.42 281.982C120.1 258.813 111.282 244.785 104.966 239.895C95.4912 232.561 81.0151 230.517 79.3594 237.852C77.7038 245.186 93.9569 271.032 95.6659 279.811C97.3749 288.59 105.748 333.724 117.466 349.013C129.185 364.302 149.414 380.568 151.675 386.031C153.937 391.493 159.478 408.211 156.247 424.253C153.016 440.295 193.514 446.314 208.832 443.341C219.044 441.359 242.455 426.405 244.974 423.079C246.653 420.862 247.535 418.304 247.62 415.405" stroke="#F5F5F5" stroke-width="3" stroke-linecap="round" stroke-linejoin="round"/>
<path d="M163.664 152.125C170.918 148.246 175.852 140.606 175.852 131.815C175.852 119.1 165.528 108.791 152.793 108.791C140.057 108.791 129.733 119.1 129.733 131.815C129.733 140.331 134.363 147.766 141.246 151.75" stroke="#F5F5F5" stroke-width="3" stroke-linecap="round" stroke-linejoin="round"/>
<path fill-rule="evenodd" clip-rule="evenodd" d="M225.184 68.1757L169.005 115.045L225.184 68.1757Z" stroke="#F5F5F5" stroke-width="3" stroke-linecap="round" stroke-linejoin="round"/>
<path fill-rule="evenodd" clip-rule="evenodd" d="M243.352 151.038L175.646 134.241L243.352 151.038Z" stroke="#F5F5F5" stroke-width="3" stroke-linecap="round" stroke-linejoin="round"/>
<path fill-rule="evenodd" clip-rule="evenodd" d="M130.691 77.3252L144.307 109.408L130.691 77.3252Z" stroke="#F5F5F5" stroke-width="3" stroke-linecap="round" stroke-linejoin="round"/>
<path fill-rule="evenodd" clip-rule="evenodd" d="M64.3721 128.571H129.502H64.3721Z" stroke="#F5F5F5" stroke-width="3" stroke-linecap="round" stroke-linejoin="round"/>
<path d="M283.535 187.912C283.535 181.767 278.546 176.786 272.391 176.786C266.237 176.786 261.248 181.767 261.248 187.912C261.248 194.057 266.237 199.039 272.391 199.039C278.546 199.039 283.535 194.057 283.535 187.912Z" fill="#292929" stroke="white" stroke-width="1.5"/>
<path d="M287.249 187.912C287.249 179.719 280.597 173.077 272.391 173.077C264.185 173.077 257.533 179.719 257.533 187.912C257.533 196.105 264.185 202.747 272.391 202.747C280.597 202.747 287.249 196.105 287.249 187.912Z" stroke="white"/>
<path d="M164.416 131.676C164.416 125.531 159.427 120.55 153.273 120.55C147.119 120.55 142.13 125.531 142.13 131.676C142.13 137.821 147.119 142.802 153.273 142.802C159.427 142.802 164.416 137.821 164.416 131.676Z" fill="#292929" stroke="white" stroke-width="1.5"/>
<path d="M168.13 131.676C168.13 123.483 161.478 116.841 153.273 116.841C145.067 116.841 138.415 123.483 138.415 131.676C138.415 139.869 145.067 146.511 153.273 146.511C161.478 146.511 168.13 139.869 168.13 131.676Z" stroke="white"/>
<path d="M263.724 19.7802C263.724 13.6353 258.735 8.65387 252.581 8.65387C246.427 8.65387 241.438 13.6353 241.438 19.7802C241.438 25.9252 246.427 30.9066 252.581 30.9066C258.735 30.9066 263.724 25.9252 263.724 19.7802Z" fill="#292929" stroke="white" stroke-width="1.5"/>
<path d="M267.438 19.7802C267.438 11.587 260.786 4.94503 252.58 4.94503C244.375 4.94503 237.723 11.587 237.723 19.7802C237.723 27.9734 244.375 34.6154 252.58 34.6154C260.786 34.6154 267.438 27.9734 267.438 19.7802Z" stroke="white"/>
<path d="M35.9066 98.9012C35.9066 92.7563 30.9176 87.7748 24.7634 87.7748C18.6091 87.7748 13.6201 92.7563 13.6201 98.9012C13.6201 105.046 18.6091 110.028 24.7634 110.028C30.9176 110.028 35.9066 105.046 35.9066 98.9012Z" fill="#292929" stroke="white" stroke-width="1.5"/>
<path d="M39.6206 98.9012C39.6206 90.7079 32.9686 84.066 24.763 84.066C16.5573 84.066 9.90527 90.7079 9.90527 98.9012C9.90527 107.094 16.5573 113.736 24.763 113.736C32.9686 113.736 39.6206 107.094 39.6206 98.9012Z" stroke="white"/>
<path d="M154.768 54.3956C154.768 48.2507 149.779 43.2692 143.625 43.2692C137.47 43.2692 132.481 48.2507 132.481 54.3956C132.481 60.5405 137.47 65.522 143.625 65.522C149.779 65.522 154.768 60.5405 154.768 54.3956Z" fill="#292929" stroke="white" stroke-width="1.5"/>
<path d="M158.482 54.3955C158.482 46.2023 151.83 39.5604 143.624 39.5604C135.419 39.5604 128.767 46.2023 128.767 54.3955C128.767 62.5888 135.419 69.2307 143.624 69.2307C151.83 69.2307 158.482 62.5888 158.482 54.3955Z" stroke="white"/>
</svg>
