<svg width="426" height="450" viewBox="0 0 426 450" fill="none" xmlns="http://www.w3.org/2000/svg">
<path fill-rule="evenodd" clip-rule="evenodd" d="M5.91602 5.92105H421.77V445.559H5.91602V5.92105Z" stroke="#F5F5F5" stroke-width="3" stroke-linecap="round" stroke-linejoin="round"/>
<path fill-rule="evenodd" clip-rule="evenodd" d="M41.0586 58.6776H128.915V146.605H41.0586V58.6776Z" stroke="#F5F5F5" stroke-width="3" stroke-linecap="round" stroke-linejoin="round"/>
<path fill-rule="evenodd" clip-rule="evenodd" d="M111.344 76.2632V93.8487H76.2012V129.02H58.6299V76.2632H111.344Z" stroke="#F5F5F5" stroke-width="3" stroke-linecap="round" stroke-linejoin="round"/>
<path fill-rule="evenodd" clip-rule="evenodd" d="M205.058 76.2632V129.02H187.486V76.2632H205.058Z" stroke="#F5F5F5" stroke-width="3" stroke-linecap="round" stroke-linejoin="round"/>
<path fill-rule="evenodd" clip-rule="evenodd" d="M240.2 87.9868V117.296H222.629V87.9868H240.2Z" stroke="#F5F5F5" stroke-width="3" stroke-linecap="round" stroke-linejoin="round"/>
<path fill-rule="evenodd" clip-rule="evenodd" d="M316.343 76.2632H369.057V93.8487H345.628V105.572H316.343V76.2632Z" stroke="#F5F5F5" stroke-width="3" stroke-linecap="round" stroke-linejoin="round"/>
<path fill-rule="evenodd" clip-rule="evenodd" d="M369.056 134.882H345.628V117.296H369.056V134.882Z" stroke="#F5F5F5" stroke-width="3" stroke-linecap="round" stroke-linejoin="round"/>
<path fill-rule="evenodd" clip-rule="evenodd" d="M169.915 58.6776H257.772V146.605H169.915V58.6776Z" stroke="#F5F5F5" stroke-width="3" stroke-linecap="round" stroke-linejoin="round"/>
<path fill-rule="evenodd" clip-rule="evenodd" d="M298.771 58.6776H386.628V146.605H298.771V58.6776Z" stroke="#F5F5F5" stroke-width="3" stroke-linecap="round" stroke-linejoin="round"/>
<path fill-rule="evenodd" clip-rule="evenodd" d="M257.772 275.566H169.915V187.638H257.772V275.566Z" stroke="#F5F5F5" stroke-width="3" stroke-linecap="round" stroke-linejoin="round"/>
<path fill-rule="evenodd" clip-rule="evenodd" d="M187.486 257.98V240.395H222.629V205.224H240.2V257.98H187.486Z" stroke="#F5F5F5" stroke-width="3" stroke-linecap="round" stroke-linejoin="round"/>
<path fill-rule="evenodd" clip-rule="evenodd" d="M351.485 257.98V205.224H369.057V257.98H351.485Z" stroke="#F5F5F5" stroke-width="3" stroke-linecap="round" stroke-linejoin="round"/>
<path fill-rule="evenodd" clip-rule="evenodd" d="M316.343 246.257V216.947H333.914V246.257H316.343Z" stroke="#F5F5F5" stroke-linecap="round" stroke-linejoin="round"/>
<path fill-rule="evenodd" clip-rule="evenodd" d="M111.344 257.98H58.6299V240.395H82.0583V228.671H111.344V257.98Z" stroke="#F5F5F5" stroke-width="3" stroke-linecap="round" stroke-linejoin="round"/>
<path fill-rule="evenodd" clip-rule="evenodd" d="M58.6299 199.362H82.0583V216.947H58.6299V199.362Z" stroke="#F5F5F5" stroke-width="3" stroke-linecap="round" stroke-linejoin="round"/>
<path fill-rule="evenodd" clip-rule="evenodd" d="M386.628 275.566H298.771V187.638H386.628V275.566Z" stroke="#F5F5F5" stroke-width="3" stroke-linecap="round" stroke-linejoin="round"/>
<path fill-rule="evenodd" clip-rule="evenodd" d="M128.915 275.566H41.0586V187.638H128.915V275.566Z" stroke="#F5F5F5" stroke-width="3" stroke-linecap="round" stroke-linejoin="round"/>
<path fill-rule="evenodd" clip-rule="evenodd" d="M41.0586 392.803V304.875H128.915V392.803H41.0586Z" stroke="#F5F5F5" stroke-width="3" stroke-linecap="round" stroke-linejoin="round"/>
<path fill-rule="evenodd" clip-rule="evenodd" d="M58.6299 322.461H76.2012V357.632H111.344V375.217H58.6299V322.461Z" stroke="#F5F5F5" stroke-width="3" stroke-linecap="round" stroke-linejoin="round"/>
<path fill-rule="evenodd" clip-rule="evenodd" d="M240.2 340.046H187.486V322.461H240.2V340.046Z" stroke="#F5F5F5" stroke-width="3" stroke-linecap="round" stroke-linejoin="round"/>
<path fill-rule="evenodd" clip-rule="evenodd" d="M228.486 375.217H199.2V357.632H228.486V375.217Z" stroke="#F5F5F5" stroke-linecap="round" stroke-linejoin="round"/>
<path fill-rule="evenodd" clip-rule="evenodd" d="M316.343 375.217V322.461H333.914V345.908H345.628V375.217H316.343Z" stroke="#F5F5F5" stroke-width="3" stroke-linecap="round" stroke-linejoin="round"/>
<path fill-rule="evenodd" clip-rule="evenodd" d="M374.913 322.461V345.908H357.342V322.461H374.913Z" stroke="#F5F5F5" stroke-width="3" stroke-linecap="round" stroke-linejoin="round"/>
<path fill-rule="evenodd" clip-rule="evenodd" d="M257.772 304.875V392.803H169.915V304.875H257.772Z" stroke="#F5F5F5" stroke-width="3" stroke-linecap="round" stroke-linejoin="round"/>
<path fill-rule="evenodd" clip-rule="evenodd" d="M298.771 392.803V304.875H386.628V392.803H298.771Z" stroke="#F5F5F5" stroke-width="3" stroke-linecap="round" stroke-linejoin="round"/>
<path d="M208.549 213.158C208.549 205.8 202.589 199.836 195.237 199.836C187.886 199.836 181.926 205.8 181.926 213.158C181.926 220.516 187.886 226.48 195.237 226.48C202.589 226.48 208.549 220.516 208.549 213.158Z" fill="#281F2C" stroke="white" stroke-width="1.5"/>
<path d="M212.986 213.158C212.986 203.348 205.039 195.395 195.237 195.395C185.435 195.395 177.488 203.348 177.488 213.158C177.488 222.968 185.435 230.921 195.237 230.921C205.039 230.921 212.986 222.968 212.986 213.158Z" stroke="white"/>
<path d="M113.889 331.579C113.889 324.221 107.929 318.257 100.577 318.257C93.2254 318.257 87.2656 324.221 87.2656 331.579C87.2656 338.937 93.2254 344.901 100.577 344.901C107.929 344.901 113.889 338.937 113.889 331.579Z" fill="#281F2C" stroke="white" stroke-width="1.5"/>
<path d="M118.326 331.579C118.326 321.769 110.379 313.816 100.577 313.816C90.7745 313.816 82.8281 321.769 82.8281 331.579C82.8281 341.389 90.7745 349.342 100.577 349.342C110.379 349.342 118.326 341.389 118.326 331.579Z" stroke="white"/>
<path d="M226.297 367.105C226.297 359.747 220.337 353.783 212.985 353.783C205.634 353.783 199.674 359.747 199.674 367.105C199.674 374.463 205.634 380.428 212.985 380.428C220.337 380.428 226.297 374.463 226.297 367.105Z" fill="#281F2C" stroke="white" stroke-width="1.5"/>
<path d="M230.734 367.105C230.734 357.295 222.787 349.342 212.985 349.342C203.183 349.342 195.236 357.295 195.236 367.105C195.236 376.916 203.183 384.868 212.985 384.868C222.787 384.868 230.734 376.916 230.734 367.105Z" stroke="white"/>
<path d="M113.889 118.421C113.889 111.063 107.929 105.099 100.577 105.099C93.2254 105.099 87.2656 111.063 87.2656 118.421C87.2656 125.779 93.2254 131.743 100.577 131.743C107.929 131.743 113.889 125.779 113.889 118.421Z" fill="#281F2C" stroke="white" stroke-width="1.5"/>
<path d="M118.326 118.421C118.326 108.611 110.379 100.658 100.577 100.658C90.7745 100.658 82.8281 108.611 82.8281 118.421C82.8281 128.231 90.7745 136.184 100.577 136.184C110.379 136.184 118.326 128.231 118.326 118.421Z" stroke="white"/>
<path d="M338.706 230.921C338.706 223.563 332.746 217.599 325.395 217.599C318.043 217.599 312.083 223.563 312.083 230.921C312.083 238.279 318.043 244.243 325.395 244.243C332.746 244.243 338.706 238.279 338.706 230.921Z" fill="#281F2C" stroke="white" stroke-width="1.5"/>
<path d="M343.143 230.921C343.143 221.111 335.197 213.158 325.394 213.158C315.592 213.158 307.646 221.111 307.646 230.921C307.646 240.731 315.592 248.684 325.394 248.684C335.197 248.684 343.143 240.731 343.143 230.921Z" stroke="white"/>
</svg>
