<svg width="481" height="450" viewBox="0 0 481 450" fill="none" xmlns="http://www.w3.org/2000/svg">
<path fill-rule="evenodd" clip-rule="evenodd" d="M171.37 147.173L244.45 189.565V274.347L171.37 316.739L98.2891 274.347V189.565L171.37 147.173Z" stroke="#F5F5F5" stroke-width="3" stroke-linecap="round" stroke-linejoin="round"/>
<path fill-rule="evenodd" clip-rule="evenodd" d="M317.566 147.697L390.646 190.089V274.871L317.566 317.263L244.485 274.871V190.089L317.566 147.697Z" stroke="#F5F5F5" stroke-width="3" stroke-linecap="round" stroke-linejoin="round"/>
<path fill-rule="evenodd" clip-rule="evenodd" d="M98.8862 19.5654L171.967 61.9567V146.739L98.8862 189.131L25.8057 146.739V61.9567L98.8862 19.5654Z" stroke="#F5F5F5" stroke-width="3" stroke-linecap="round" stroke-linejoin="round"/>
<path fill-rule="evenodd" clip-rule="evenodd" d="M245.083 20.0894L318.163 62.4807V147.263L245.083 189.655L172.002 147.263V62.4807L245.083 20.0894Z" stroke="#F5F5F5" stroke-width="3" stroke-linecap="round" stroke-linejoin="round"/>
<path fill-rule="evenodd" clip-rule="evenodd" d="M97.3686 274.361L170.449 316.753V401.535L97.3686 443.926L24.2881 401.535V316.753L97.3686 274.361Z" stroke="#F5F5F5" stroke-width="3" stroke-linecap="round" stroke-linejoin="round"/>
<path fill-rule="evenodd" clip-rule="evenodd" d="M243.564 274.885L316.644 317.277V402.059L243.564 444.451L170.483 402.059V317.277L243.564 274.885Z" stroke="#F5F5F5" stroke-width="3" stroke-linecap="round" stroke-linejoin="round"/>
<path d="M25.8057 61.9567L171.37 147.173" stroke="#F5F5F5" stroke-width="3" stroke-linecap="round" stroke-linejoin="round"/>
<path d="M171.707 62.5419L25.4697 146.588" stroke="#F5F5F5" stroke-width="3" stroke-linecap="round" stroke-linejoin="round"/>
<path d="M98.9246 19.9336L98.252 189.196" stroke="#F5F5F5" stroke-width="3" stroke-linecap="round" stroke-linejoin="round"/>
<path d="M171.706 61.9567L317.27 147.173" stroke="#F5F5F5" stroke-width="3" stroke-linecap="round" stroke-linejoin="round"/>
<path d="M317.607 62.5419L171.37 146.588" stroke="#F5F5F5" stroke-width="3" stroke-linecap="round" stroke-linejoin="round"/>
<path d="M244.825 19.9336L244.152 189.196" stroke="#F5F5F5" stroke-width="3" stroke-linecap="round" stroke-linejoin="round"/>
<path fill-rule="evenodd" clip-rule="evenodd" d="M392.072 20.0894L465.152 62.4807V147.263L392.072 189.655L318.991 147.263V62.4807L392.072 20.0894Z" stroke="#F5F5F5" stroke-width="3" stroke-linecap="round" stroke-linejoin="round"/>
<path d="M318.696 61.9567L464.26 147.173" stroke="#F5F5F5" stroke-width="3" stroke-linecap="round" stroke-linejoin="round"/>
<path d="M464.597 62.5419L318.36 146.588" stroke="#F5F5F5" stroke-width="3" stroke-linecap="round" stroke-linejoin="round"/>
<path d="M391.815 19.9336L391.143 189.196" stroke="#F5F5F5" stroke-width="3" stroke-linecap="round" stroke-linejoin="round"/>
<path fill-rule="evenodd" clip-rule="evenodd" d="M389.996 276.209L463.076 318.6V403.383L389.996 445.774L316.915 403.383V318.6L389.996 276.209Z" stroke="#F5F5F5" stroke-width="3" stroke-linecap="round" stroke-linejoin="round"/>
<path d="M316.62 318.076L462.184 403.293" stroke="#F5F5F5" stroke-width="3" stroke-linecap="round" stroke-linejoin="round"/>
<path d="M462.52 318.661L316.283 402.707" stroke="#F5F5F5" stroke-width="3" stroke-linecap="round" stroke-linejoin="round"/>
<path d="M389.738 276.053L389.065 445.316" stroke="#F5F5F5" stroke-width="3" stroke-linecap="round" stroke-linejoin="round"/>
<path d="M98.0117 189.796L243.576 275.013" stroke="#F5F5F5" stroke-width="3" stroke-linecap="round" stroke-linejoin="round"/>
<path d="M243.912 190.381L97.6748 274.428" stroke="#F5F5F5" stroke-width="3" stroke-linecap="round" stroke-linejoin="round"/>
<path d="M171.13 147.773L170.457 317.036" stroke="#F5F5F5" stroke-linecap="round" stroke-linejoin="round"/>
<path d="M243.912 189.796L389.476 275.013" stroke="#F5F5F5" stroke-linecap="round" stroke-linejoin="round"/>
<path d="M389.812 190.381L243.575 274.428" stroke="#F5F5F5" stroke-width="3" stroke-linecap="round" stroke-linejoin="round"/>
<path d="M317.03 147.773L316.357 317.036" stroke="#F5F5F5" stroke-width="3" stroke-linecap="round" stroke-linejoin="round"/>
<path d="M24.9961 317.068L170.56 402.285" stroke="#F5F5F5" stroke-width="3" stroke-linecap="round" stroke-linejoin="round"/>
<path d="M170.896 317.653L24.6592 401.7" stroke="#F5F5F5" stroke-width="3" stroke-linecap="round" stroke-linejoin="round"/>
<path d="M98.1141 275.045L97.4414 444.308" stroke="#F5F5F5" stroke-width="3" stroke-linecap="round" stroke-linejoin="round"/>
<path d="M170.896 317.068L316.461 402.285" stroke="#F5F5F5" stroke-width="3" stroke-linecap="round" stroke-linejoin="round"/>
<path d="M316.796 317.653L170.56 401.7" stroke="#F5F5F5" stroke-width="3" stroke-linecap="round" stroke-linejoin="round"/>
<path d="M244.014 275.045L243.342 444.308" stroke="#F5F5F5" stroke-width="3" stroke-linecap="round" stroke-linejoin="round"/>
<path d="M330.371 403.322C330.371 395.218 323.832 388.648 315.765 388.648C307.699 388.648 301.16 395.218 301.16 403.322C301.16 411.426 307.699 417.996 315.765 417.996C323.832 417.996 330.371 411.426 330.371 403.322Z" fill="#281F2C" stroke="white" stroke-width="1.5"/>
<path d="M335.239 403.322C335.239 392.516 326.521 383.757 315.766 383.757C305.011 383.757 296.292 392.516 296.292 403.322C296.292 414.128 305.011 422.887 315.766 422.887C326.521 422.887 335.239 414.128 335.239 403.322Z" stroke="white"/>
<path d="M405.794 22.8651C405.794 14.7609 399.255 8.19118 391.188 8.19118C383.122 8.19118 376.583 14.7609 376.583 22.8651C376.583 30.9693 383.122 37.539 391.188 37.539C399.255 37.539 405.794 30.9693 405.794 22.8651Z" fill="#281F2C" stroke="white" stroke-width="1.5"/>
<path d="M410.662 22.8651C410.662 12.0595 401.944 3.29987 391.189 3.29987C380.434 3.29987 371.715 12.0595 371.715 22.8651C371.715 33.6707 380.434 42.4303 391.189 42.4303C401.944 42.4303 410.662 33.6707 410.662 22.8651Z" stroke="white"/>
<path d="M39.5895 402.398C39.5895 394.294 33.0505 387.724 24.9842 387.724C16.9179 387.724 10.3789 394.294 10.3789 402.398C10.3789 410.502 16.9179 417.072 24.9842 417.072C33.0505 417.072 39.5895 410.502 39.5895 402.398Z" fill="#281F2C" stroke="white" stroke-width="1.5"/>
<path d="M44.4582 402.398C44.4582 391.593 35.7395 382.833 24.9845 382.833C14.2294 382.833 5.51074 391.593 5.51074 402.398C5.51074 413.204 14.2294 421.963 24.9845 421.963C35.7395 421.963 44.4582 413.204 44.4582 402.398Z" stroke="white"/>
<path d="M111.973 273.913C111.973 265.809 105.434 259.239 97.368 259.239C89.3017 259.239 82.7627 265.809 82.7627 273.913C82.7627 282.017 89.3017 288.587 97.368 288.587C105.434 288.587 111.973 282.017 111.973 273.913Z" fill="#281F2C" stroke="white" stroke-width="1.5"/>
<path d="M116.842 273.913C116.842 263.108 108.123 254.348 97.3683 254.348C86.6132 254.348 77.8945 263.108 77.8945 273.913C77.8945 284.719 86.6132 293.478 97.3683 293.478C108.123 293.478 116.842 284.719 116.842 273.913Z" stroke="white"/>
<path d="M186.376 145.2C186.376 137.096 179.837 130.526 171.77 130.526C163.704 130.526 157.165 137.096 157.165 145.2C157.165 153.304 163.704 159.874 171.77 159.874C179.837 159.874 186.376 153.304 186.376 145.2Z" fill="#281F2C" stroke="white" stroke-width="1.5"/>
<path d="M191.244 145.2C191.244 134.394 182.526 125.635 171.771 125.635C161.016 125.635 152.297 134.394 152.297 145.2C152.297 156.006 161.016 164.765 171.771 164.765C182.526 164.765 191.244 156.006 191.244 145.2Z" stroke="white"/>
<path d="M331.003 232.144C331.003 224.04 324.464 217.47 316.397 217.47C308.331 217.47 301.792 224.04 301.792 232.144C301.792 240.249 308.331 246.818 316.397 246.818C324.464 246.818 331.003 240.249 331.003 232.144Z" fill="#281F2C" stroke="white" stroke-width="1.5"/>
<path d="M335.871 232.144C335.871 221.339 327.153 212.579 316.398 212.579C305.643 212.579 296.924 221.339 296.924 232.144C296.924 242.95 305.643 251.71 316.398 251.71C327.153 251.71 335.871 242.95 335.871 232.144Z" stroke="white"/>
</svg>
