<svg width="336" height="450" viewBox="0 0 336 450" fill="none" xmlns="http://www.w3.org/2000/svg">
<path d="M211.427 354.828C192.898 367.359 178.567 373.624 168.435 373.624C158.303 373.624 143.363 367.359 123.618 354.828" stroke="#F5F5F5" stroke-width="3" stroke-linecap="round" stroke-linejoin="round"/>
<path d="M123.618 354.821C129.551 356.179 136.213 356.179 143.603 354.821C150.994 353.463 159.124 353.482 167.994 354.878" stroke="#F5F5F5" stroke-width="3" stroke-linecap="round" stroke-linejoin="round"/>
<path d="M211.427 354.821C205.494 356.179 198.832 356.179 191.442 354.821C184.051 353.463 176.235 353.482 167.994 354.878" stroke="#F5F5F5" stroke-width="3" stroke-linecap="round" stroke-linejoin="round"/>
<path d="M123.618 354.828C136.276 346.065 142.606 341.683 142.606 341.683C142.606 341.683 150.722 334.8 163.657 341.683C163.657 341.683 167.03 343.213 170.333 341.683" stroke="#F5F5F5" stroke-width="3" stroke-linecap="round" stroke-linejoin="round"/>
<path d="M211.427 354.828C198.533 346.065 192.087 341.683 192.087 341.683C192.087 341.683 183.267 334.8 170.333 341.683" stroke="#F5F5F5" stroke-width="3" stroke-linecap="round" stroke-linejoin="round"/>
<path d="M303.142 230C309.348 220.638 318.355 223.275 325.363 230C334.197 239.394 329.167 262.12 326.909 269.37C324.652 276.62 317.406 284.987 313.744 289.868C310.082 294.748 310.082 309.397 303.142 311.675C298.516 313.194 294.214 312.765 290.235 310.388C282.56 343.772 267.775 370.51 245.881 390.602C213.04 420.741 205.448 429.389 166.715 429.389" stroke="#F5F5F5" stroke-width="3" stroke-linecap="round" stroke-linejoin="round"/>
<path d="M303.142 230C313.642 200.389 316.98 172.965 313.157 147.728C308.234 115.234 301.962 94.6464 276.618 63.6929C255.647 38.08 224.693 19.9998 166.139 19.9998" stroke="#F5F5F5" stroke-width="3" stroke-linecap="round" stroke-linejoin="round"/>
<path d="M32.2548 230C26.0497 220.638 17.0424 223.275 10.0341 230C1.20011 239.394 6.22998 262.12 8.48784 269.37C10.7457 276.62 17.9913 284.987 21.6532 289.868C25.3151 294.748 25.3151 309.397 32.2548 311.675C36.8812 313.194 41.1837 312.765 45.1622 310.388C52.8375 343.772 67.6221 370.51 89.5161 390.602C122.357 420.741 127.407 429.389 166.139 429.389" stroke="#F5F5F5" stroke-width="3" stroke-linecap="round" stroke-linejoin="round"/>
<path d="M32.2548 230C21.7548 200.389 18.4166 172.965 22.2403 147.728C27.1636 115.234 33.4354 94.6464 58.7793 63.6929C79.7504 38.08 107.586 19.9998 166.14 19.9998" stroke="#F5F5F5" stroke-width="3" stroke-linecap="round" stroke-linejoin="round"/>
<path d="M167.698 429.198V19.9998" stroke="#F5F5F5" stroke-width="3" stroke-linecap="round" stroke-linejoin="round"/>
<path fill-rule="evenodd" clip-rule="evenodd" d="M167.994 429.198L289.493 310H46.3154L167.994 429.198Z" stroke="#F5F5F5" stroke-width="3" stroke-linecap="round" stroke-linejoin="round"/>
<path fill-rule="evenodd" clip-rule="evenodd" d="M167.994 259.198L289.493 309.198H46.3154L167.994 259.198Z" stroke="#F5F5F5" stroke-width="3" stroke-linecap="round" stroke-linejoin="round"/>
<path fill-rule="evenodd" clip-rule="evenodd" d="M167.904 19.9997L289.493 309.198H46.3154L167.904 19.9997Z" stroke="#F5F5F5" stroke-width="3" stroke-linecap="round" stroke-linejoin="round"/>
<path fill-rule="evenodd" clip-rule="evenodd" d="M303.142 230L168.671 309.198L32.2549 230H303.142Z" stroke="#F5F5F5" stroke-width="3" stroke-linecap="round" stroke-linejoin="round"/>
<path fill-rule="evenodd" clip-rule="evenodd" d="M300.684 104.198L168.671 309.198L34.8977 104.198L167.994 171.34L300.684 104.198Z" stroke="#F5F5F5" stroke-width="3" stroke-linecap="round" stroke-linejoin="round"/>
<path d="M34.8977 104.198H300.684" stroke="#F5F5F5" stroke-width="3" stroke-linecap="round" stroke-linejoin="round"/>
<path fill-rule="evenodd" clip-rule="evenodd" d="M46.3155 310L32.2549 230L34.8978 104.198L167.994 19.9998L300.684 104.198L303.142 230L289.493 310L232.01 401.97H102.022L46.3155 310Z" stroke="#F5F5F5" stroke-width="3" stroke-linecap="round" stroke-linejoin="round"/>
<path d="M289.493 310L211.427 354.828" stroke="#F5F5F5" stroke-width="3" stroke-linecap="round" stroke-linejoin="round"/>
<path d="M123.618 354.828L46.3154 310" stroke="#F5F5F5" stroke-width="3" stroke-linecap="round" stroke-linejoin="round"/>
<path d="M177.956 431.056C177.956 424.843 172.914 419.806 166.693 419.806C160.472 419.806 155.43 424.843 155.43 431.056C155.43 437.269 160.472 442.306 166.693 442.306C172.914 442.306 177.956 437.269 177.956 431.056Z" fill="#281F2C" stroke="white" stroke-width="3"/>
<path d="M181.711 431.056C181.711 422.771 174.987 416.056 166.693 416.056C158.399 416.056 151.675 422.771 151.675 431.056C151.675 439.34 158.399 446.056 166.693 446.056C174.987 446.056 181.711 439.34 181.711 431.056Z" stroke="white" stroke-width="3"/>
<path d="M179.375 170.147C179.375 163.934 174.332 158.897 168.112 158.897C161.891 158.897 156.848 163.934 156.848 170.147C156.848 176.36 161.891 181.397 168.112 181.397C174.332 181.397 179.375 176.36 179.375 170.147Z" fill="#281F2C" stroke="white" stroke-width="3"/>
<path d="M183.13 170.147C183.13 161.863 176.406 155.147 168.112 155.147C159.818 155.147 153.094 161.863 153.094 170.147C153.094 178.431 159.818 185.147 168.112 185.147C176.406 185.147 183.13 178.431 183.13 170.147Z" stroke="white" stroke-width="3"/>
<path d="M46.3048 105C46.3048 98.7866 41.262 93.7498 35.0414 93.7498C28.8208 93.7498 23.7781 98.7866 23.7781 105C23.7781 111.213 28.8208 116.25 35.0414 116.25C41.262 116.25 46.3048 111.213 46.3048 105Z" fill="#281F2C" stroke="white" stroke-width="3"/>
<path d="M50.0592 105C50.0592 96.7155 43.3356 89.9998 35.0415 89.9998C26.7474 89.9998 20.0237 96.7155 20.0237 105C20.0237 113.284 26.7474 120 35.0415 120C43.3356 120 50.0592 113.284 50.0592 105Z" stroke="white" stroke-width="3"/>
<path d="M311.619 105C311.619 98.7866 306.576 93.7498 300.356 93.7498C294.135 93.7498 289.092 98.7866 289.092 105C289.092 111.213 294.135 116.25 300.356 116.25C306.576 116.25 311.619 111.213 311.619 105Z" fill="#281F2C" stroke="white" stroke-width="3"/>
<path d="M315.373 105C315.373 96.7155 308.65 89.9998 300.356 89.9998C292.062 89.9998 285.338 96.7155 285.338 105C285.338 113.284 292.062 120 300.356 120C308.65 120 315.373 113.284 315.373 105Z" stroke="white" stroke-width="3"/>
<path d="M178.595 18.8647C178.595 12.6515 173.552 7.61475 167.331 7.61475C161.111 7.61475 156.068 12.6515 156.068 18.8647C156.068 25.0779 161.111 30.1147 167.331 30.1147C173.552 30.1147 178.595 25.0779 178.595 18.8647Z" fill="#281F2C" stroke="white" stroke-width="3"/>
<path d="M182.349 18.8647C182.349 10.5805 175.625 3.86475 167.331 3.86475C159.037 3.86475 152.313 10.5805 152.313 18.8647C152.313 27.149 159.037 33.8647 167.331 33.8647C175.625 33.8647 182.349 27.149 182.349 18.8647Z" stroke="white" stroke-width="3"/>
</svg>
