<svg width="450" height="450" viewBox="0 0 450 450" fill="none" xmlns="http://www.w3.org/2000/svg">
<path d="M141.428 25.7143H25.7139V141.429H141.428V25.7143Z" stroke="#281F2C" stroke-width="3" stroke-linecap="round" stroke-linejoin="round"/>
<path d="M141.428 167.143H25.7139V424.286H141.428V167.143Z" stroke="#281F2C" stroke-width="3" stroke-linecap="round" stroke-linejoin="round"/>
<path d="M282.857 308.571H167.143V424.286H282.857V308.571Z" stroke="#281F2C" stroke-width="3" stroke-linecap="round" stroke-linejoin="round"/>
<path d="M424.286 308.571H308.571V424.286H424.286V308.571Z" stroke="#281F2C" stroke-width="3" stroke-linecap="round" stroke-linejoin="round"/>
<path d="M424.285 25.7143H167.143V141.429H424.285V25.7143Z" stroke="#281F2C" stroke-width="3" stroke-linecap="round" stroke-linejoin="round"/>
<path d="M424.286 167.143H308.571V282.857H424.286V167.143Z" stroke="#281F2C" stroke-width="3" stroke-linecap="round" stroke-linejoin="round"/>
<path fill-rule="evenodd" clip-rule="evenodd" d="M228.597 260.357L194.589 278.236L201.084 240.368L173.571 213.55L211.593 208.025L228.597 173.571L245.6 208.025L283.622 213.55L256.109 240.368L262.604 278.236L228.597 260.357Z" stroke="#281F2C" stroke-width="3" stroke-linecap="round" stroke-linejoin="round"/>
<path d="M438.75 25.7143C438.75 17.7259 432.274 11.25 424.286 11.25C416.297 11.25 409.821 17.7259 409.821 25.7143C409.821 33.7027 416.297 40.1786 424.286 40.1786C432.274 40.1786 438.75 33.7027 438.75 25.7143Z" fill="#F5F5F5" stroke="#281F2C" stroke-width="1.5"/>
<path d="M443.571 25.7143C443.571 15.0631 434.937 6.42857 424.286 6.42857C413.635 6.42857 405 15.0631 405 25.7143C405 36.3655 413.635 45 424.286 45C434.937 45 443.571 36.3655 443.571 25.7143Z" stroke="#281F2C"/>
<path d="M438.75 424.286C438.75 416.297 432.274 409.821 424.286 409.821C416.297 409.821 409.821 416.297 409.821 424.286C409.821 432.274 416.297 438.75 424.286 438.75C432.274 438.75 438.75 432.274 438.75 424.286Z" fill="#F5F5F5" stroke="#281F2C" stroke-width="1.5"/>
<path d="M443.571 424.286C443.571 413.634 434.937 405 424.286 405C413.635 405 405 413.634 405 424.286C405 434.937 413.635 443.571 424.286 443.571C434.937 443.571 443.571 434.937 443.571 424.286Z" stroke="#281F2C"/>
<path d="M242.679 231.429C242.679 223.44 236.203 216.964 228.214 216.964C220.226 216.964 213.75 223.44 213.75 231.429C213.75 239.417 220.226 245.893 228.214 245.893C236.203 245.893 242.679 239.417 242.679 231.429Z" fill="#F5F5F5" stroke="#281F2C" stroke-width="1.5"/>
<path d="M247.5 231.429C247.5 220.777 238.866 212.143 228.214 212.143C217.563 212.143 208.929 220.777 208.929 231.429C208.929 242.08 217.563 250.714 228.214 250.714C238.866 250.714 247.5 242.08 247.5 231.429Z" stroke="#281F2C"/>
<path d="M40.1786 424.286C40.1786 416.297 33.7027 409.821 25.7143 409.821C17.7259 409.821 11.25 416.297 11.25 424.286C11.25 432.274 17.7259 438.75 25.7143 438.75C33.7027 438.75 40.1786 432.274 40.1786 424.286Z" fill="#F5F5F5" stroke="#281F2C" stroke-width="1.5"/>
<path d="M45.0001 424.286C45.0001 413.634 36.3656 405 25.7144 405C15.0632 405 6.42871 413.634 6.42871 424.286C6.42871 434.937 15.0632 443.571 25.7144 443.571C36.3656 443.571 45.0001 434.937 45.0001 424.286Z" stroke="#281F2C"/>
<path d="M40.1786 25.7143C40.1786 17.7259 33.7027 11.25 25.7143 11.25C17.7259 11.25 11.25 17.7259 11.25 25.7143C11.25 33.7027 17.7259 40.1786 25.7143 40.1786C33.7027 40.1786 40.1786 33.7027 40.1786 25.7143Z" fill="#F5F5F5" stroke="#281F2C" stroke-width="1.5"/>
<path d="M45.0001 25.7143C45.0001 15.0631 36.3656 6.42857 25.7144 6.42857C15.0632 6.42857 6.42871 15.0631 6.42871 25.7143C6.42871 36.3655 15.0632 45 25.7144 45C36.3656 45 45.0001 36.3655 45.0001 25.7143Z" stroke="#281F2C"/>
</svg>
