<svg width="416" height="450" viewBox="0 0 416 450" fill="none" xmlns="http://www.w3.org/2000/svg">
<path fill-rule="evenodd" clip-rule="evenodd" d="M108.219 194.545C203.642 222.5 325.659 205.911 380.752 157.492C435.845 109.073 403.15 47.1593 307.727 19.2046C212.304 -8.75018 90.2862 7.83941 35.1935 56.2585C-19.8992 104.677 12.7953 166.591 108.219 194.545Z" stroke="#F5F5F5" stroke-width="3" stroke-linecap="round" stroke-linejoin="round"/>
<path fill-rule="evenodd" clip-rule="evenodd" d="M146.154 160.451C205.289 177.535 280.906 167.397 315.048 137.807C349.19 108.218 328.928 70.3821 269.793 53.2986C210.657 36.2152 135.041 46.3532 100.899 75.9427C66.7566 105.532 87.018 143.368 146.154 160.451Z" stroke="#F5F5F5" stroke-width="3" stroke-linecap="round" stroke-linejoin="round"/>
<path fill-rule="evenodd" clip-rule="evenodd" d="M146.154 396.701C205.289 413.785 280.906 403.647 315.048 374.057C349.19 344.468 328.928 306.632 269.793 289.549C210.657 272.465 135.041 282.603 100.899 312.193C66.7566 341.782 87.018 379.618 146.154 396.701Z" stroke="#F5F5F5" stroke-width="3" stroke-linecap="round" stroke-linejoin="round"/>
<path fill-rule="evenodd" clip-rule="evenodd" d="M108.219 430.795C203.642 458.75 325.659 442.161 380.752 393.742C435.845 345.322 403.15 283.409 307.727 255.455C212.304 227.5 90.2862 244.089 35.1935 292.508C-19.8992 340.927 12.7953 402.841 108.219 430.795Z" stroke="#F5F5F5" stroke-width="3" stroke-linecap="round" stroke-linejoin="round"/>
<path d="M407.515 106.875V343.125" stroke="#F5F5F5" stroke-linecap="round" stroke-linejoin="round"/>
<path d="M8.43115 106.875V343.125" stroke="#F5F5F5" stroke-linecap="round" stroke-linejoin="round"/>
<path d="M331.633 106.875V343.125" stroke="#F5F5F5" stroke-width="3" stroke-linecap="round" stroke-linejoin="round"/>
<path d="M84.3135 106.875V343.125" stroke="#F5F5F5" stroke-width="3" stroke-linecap="round" stroke-linejoin="round"/>
<path d="M207.973 106.875V347.869" stroke="#F5F5F5" stroke-width="3" stroke-linecap="round" stroke-linejoin="round"/>
<path d="M220.62 106.875C220.62 99.8851 214.958 94.2188 207.973 94.2188C200.988 94.2188 195.326 99.8851 195.326 106.875C195.326 113.865 200.988 119.531 207.973 119.531C214.958 119.531 220.62 113.865 220.62 106.875Z" fill="#281F2C" stroke="white" stroke-width="1.5"/>
<path d="M224.836 106.875C224.836 97.5552 217.286 90 207.973 90C198.66 90 191.11 97.5552 191.11 106.875C191.11 116.195 198.66 123.75 207.973 123.75C217.286 123.75 224.836 116.195 224.836 106.875Z" stroke="white"/>
<path d="M220.62 354.375C220.62 347.385 214.958 341.719 207.973 341.719C200.988 341.719 195.326 347.385 195.326 354.375C195.326 361.365 200.988 367.031 207.973 367.031C214.958 367.031 220.62 361.365 220.62 354.375Z" fill="#281F2C" stroke="white" stroke-width="1.5"/>
<path d="M224.836 354.375C224.836 345.055 217.286 337.5 207.973 337.5C198.66 337.5 191.11 345.055 191.11 354.375C191.11 363.695 198.66 371.25 207.973 371.25C217.286 371.25 224.836 363.695 224.836 354.375Z" stroke="white"/>
</svg>
