<svg width="492" height="450" viewBox="0 0 492 450" fill="none" xmlns="http://www.w3.org/2000/svg">
<path d="M245.987 108.667C274.336 108.667 297.318 85.684 297.318 57.3333C297.318 28.9827 274.336 6 245.987 6C217.638 6 194.656 28.9827 194.656 57.3333C194.656 85.684 217.638 108.667 245.987 108.667Z" stroke="#281F2C" stroke-width="3" stroke-linecap="round" stroke-linejoin="round"/>
<path d="M278.652 99.3335C296.141 110.022 325.034 137.413 324.982 189.011" stroke="#281F2C" stroke-width="3" stroke-linecap="round" stroke-linejoin="round"/>
<path d="M323.176 190.895C291.436 217.172 203.216 212.92 170.33 196.639C158.793 190.927 173.556 117.298 212.945 99.3335" stroke="#281F2C" stroke-width="3" stroke-linecap="round" stroke-linejoin="round"/>
<path d="M65.9965 302.667C88.2708 302.667 106.328 284.609 106.328 262.333C106.328 240.058 88.2708 222 65.9965 222C43.7222 222 25.6653 240.058 25.6653 262.333C25.6653 284.609 43.7222 302.667 65.9965 302.667Z" stroke="#281F2C" stroke-width="3" stroke-linecap="round" stroke-linejoin="round"/>
<path d="M91.6619 295.333C105.403 303.732 128.105 325.253 128.064 365.795" stroke="#281F2C" stroke-width="3" stroke-linecap="round" stroke-linejoin="round"/>
<path d="M126.645 367.274C101.706 387.921 32.3905 384.58 6.55197 371.788C-2.51316 367.3 9.08624 309.448 40.0351 295.333" stroke="#281F2C" stroke-width="3" stroke-linecap="round" stroke-linejoin="round"/>
<path d="M245.987 362.667C268.261 362.667 286.318 344.609 286.318 322.333C286.318 300.058 268.261 282 245.987 282C223.713 282 205.656 300.058 205.656 322.333C205.656 344.609 223.713 362.667 245.987 362.667Z" stroke="#281F2C" stroke-width="3" stroke-linecap="round" stroke-linejoin="round"/>
<path d="M271.652 355.333C285.394 363.732 308.096 385.253 308.054 425.795" stroke="#281F2C" stroke-width="3" stroke-linecap="round" stroke-linejoin="round"/>
<path d="M306.635 427.274C281.697 447.921 212.381 444.58 186.542 431.788C177.477 427.3 189.077 369.448 220.026 355.333" stroke="#281F2C" stroke-width="3" stroke-linecap="round" stroke-linejoin="round"/>
<path d="M425.977 302.667C448.252 302.667 466.309 284.609 466.309 262.333C466.309 240.058 448.252 222 425.977 222C403.703 222 385.646 240.058 385.646 262.333C385.646 284.609 403.703 302.667 425.977 302.667Z" stroke="#281F2C" stroke-width="3" stroke-linecap="round" stroke-linejoin="round"/>
<path d="M451.643 295.333C465.384 303.732 488.086 325.253 488.045 365.795" stroke="#281F2C" stroke-width="3" stroke-linecap="round" stroke-linejoin="round"/>
<path d="M486.626 367.274C461.687 387.921 392.372 384.58 366.533 371.788C357.468 367.3 369.067 309.448 400.016 295.333" stroke="#281F2C" stroke-width="3" stroke-linecap="round" stroke-linejoin="round"/>
<path d="M125.993 198C125.993 224.51 178.373 246 242.987 246C307.601 246 359.981 224.51 359.981 198" stroke="#281F2C" stroke-width="3" stroke-linecap="round" stroke-linejoin="round"/>
<path d="M259.486 246C259.486 238.544 253.442 232.5 245.987 232.5C238.531 232.5 232.488 238.544 232.488 246C232.488 253.456 238.531 259.5 245.987 259.5C253.442 259.5 259.486 253.456 259.486 246Z" fill="#F5F5F5" stroke="#281F2C" stroke-width="1.5"/>
<path d="M263.986 246C263.986 236.059 255.927 228 245.987 228C236.046 228 227.988 236.059 227.988 246C227.988 255.941 236.046 264 245.987 264C255.927 264 263.986 255.941 263.986 246Z" stroke="#281F2C"/>
<path d="M343.482 228C343.482 220.544 337.438 214.5 329.982 214.5C322.527 214.5 316.483 220.544 316.483 228C316.483 235.456 322.527 241.5 329.982 241.5C337.438 241.5 343.482 235.456 343.482 228Z" fill="#F5F5F5" stroke="#281F2C" stroke-width="1.5"/>
<path d="M347.982 228C347.982 218.059 339.923 210 329.982 210C320.042 210 311.983 218.059 311.983 228C311.983 237.941 320.042 246 329.982 246C339.923 246 347.982 237.941 347.982 228Z" stroke="#281F2C"/>
<path d="M169.491 228C169.491 220.544 163.447 214.5 155.992 214.5C148.536 214.5 142.492 220.544 142.492 228C142.492 235.456 148.536 241.5 155.992 241.5C163.447 241.5 169.491 235.456 169.491 228Z" fill="#F5F5F5" stroke="#281F2C" stroke-width="1.5"/>
<path d="M173.991 228C173.991 218.059 165.932 210 155.992 210C146.051 210 137.993 218.059 137.993 228C137.993 237.941 146.051 246 155.992 246C165.932 246 173.991 237.941 173.991 228Z" stroke="#281F2C"/>
</svg>
