<svg width="465" height="450" viewBox="0 0 465 450" fill="none" xmlns="http://www.w3.org/2000/svg">
<path d="M175.143 128.564L173.775 152.43L152.794 140.94" stroke="white" stroke-width="3" stroke-linecap="round" stroke-linejoin="round"/>
<path d="M172.828 150.249L124.752 66.4005" stroke="white" stroke-width="3" stroke-linecap="round" stroke-linejoin="round"/>
<path d="M272.167 170.884L264.677 193.582L247.381 177.047" stroke="white" stroke-width="3" stroke-linecap="round" stroke-linejoin="round"/>
<path d="M264.323 190.966L222.261 35.3629" stroke="white" stroke-width="3" stroke-linecap="round" stroke-linejoin="round"/>
<path d="M339.965 267.012L316.676 272.275L321.923 248.913" stroke="white" stroke-width="3" stroke-linecap="round" stroke-linejoin="round"/>
<path d="M318.733 270.623L430.275 154.381" stroke="white" stroke-width="3" stroke-linecap="round" stroke-linejoin="round"/>
<path d="M123.222 245.617L143.181 258.736L122.753 271.185" stroke="white" stroke-width="3" stroke-linecap="round" stroke-linejoin="round"/>
<path d="M140.277 258.544L35.7492 258.809" stroke="white" stroke-width="3" stroke-linecap="round" stroke-linejoin="round"/>
<path d="M342.058 323.912L318.73 328.998L333.346 347.951" stroke="white" stroke-width="3" stroke-linecap="round" stroke-linejoin="round"/>
<path d="M321.509 329.861L419 367.617" stroke="white" stroke-width="3" stroke-linecap="round" stroke-linejoin="round"/>
<path fill-rule="evenodd" clip-rule="evenodd" d="M49.4236 249.647C49.4236 358.408 137.458 446.522 246.043 446.522C354.646 446.522 442.663 358.408 442.663 249.647C442.663 140.938 354.646 52.7723 246.043 52.7723C137.458 52.7723 49.4236 140.938 49.4236 249.647Z" stroke="white" stroke-width="3" stroke-linecap="round" stroke-linejoin="round"/>
<path d="M295.787 302.416V333.098" stroke="white" stroke-width="3" stroke-linecap="round" stroke-linejoin="round"/>
<path d="M311.108 317.757H280.466" stroke="white" stroke-width="3" stroke-linecap="round" stroke-linejoin="round"/>
<path d="M289.453 359.59V390.272" stroke="white" stroke-width="3" stroke-linecap="round" stroke-linejoin="round"/>
<path d="M304.774 374.931H274.132" stroke="white" stroke-width="3" stroke-linecap="round" stroke-linejoin="round"/>
<path fill-rule="evenodd" clip-rule="evenodd" d="M174.545 241.795L192.601 259.875L174.545 277.954L156.489 259.875L174.545 241.795Z" stroke="white" stroke-width="3" stroke-linecap="round" stroke-linejoin="round"/>
<path d="M168.958 163.92V190.966" stroke="white" stroke-width="3" stroke-linecap="round" stroke-linejoin="round"/>
<path d="M184.279 163.92V190.966" stroke="white" stroke-width="3" stroke-linecap="round" stroke-linejoin="round"/>
<path d="M199.6 163.92V190.966" stroke="white" stroke-width="3" stroke-linecap="round" stroke-linejoin="round"/>
<path d="M385.714 113.165L339.964 131.857" stroke="white" stroke-width="3" stroke-linecap="round" stroke-linejoin="round"/>
<path d="M320.095 131.857L159.869 72.7925" stroke="white" stroke-width="3" stroke-linecap="round" stroke-linejoin="round"/>
<path d="M77.9576 150.249L132.967 410.905L354.54 413.564L439.144 215.378" stroke="white" stroke-width="3" stroke-linecap="round" stroke-linejoin="round"/>
<path d="M118.738 199.432C118.738 193.077 113.594 187.926 107.247 187.926C100.901 187.926 95.7566 193.077 95.7566 199.432C95.7566 205.786 100.901 210.938 107.247 210.938C113.594 210.938 118.738 205.786 118.738 199.432Z" fill="#281F2C" stroke="white" stroke-width="3"/>
<path d="M122.568 199.432C122.568 190.959 115.709 184.091 107.247 184.091C98.7858 184.091 91.9263 190.959 91.9263 199.432C91.9263 207.904 98.7858 214.773 107.247 214.773C115.709 214.773 122.568 207.904 122.568 199.432Z" stroke="white" stroke-width="3"/>
<path d="M343.447 132.955C343.447 126.6 338.302 121.449 331.956 121.449C325.61 121.449 320.465 126.6 320.465 132.955C320.465 139.309 325.61 144.46 331.956 144.46C338.302 144.46 343.447 139.309 343.447 132.955Z" fill="#281F2C" stroke="white" stroke-width="3"/>
<path d="M347.277 132.955C347.277 124.482 340.417 117.614 331.956 117.614C323.494 117.614 316.635 124.482 316.635 132.955C316.635 141.427 323.494 148.295 331.956 148.295C340.417 148.295 347.277 141.427 347.277 132.955Z" stroke="white" stroke-width="3"/>
<path d="M455.801 138.068C455.801 131.714 450.656 126.562 444.31 126.562C437.964 126.562 432.819 131.714 432.819 138.068C432.819 144.423 437.964 149.574 444.31 149.574C450.656 149.574 455.801 144.423 455.801 138.068Z" fill="#281F2C" stroke="white" stroke-width="3"/>
<path d="M459.631 138.068C459.631 129.596 452.772 122.727 444.31 122.727C435.848 122.727 428.989 129.596 428.989 138.068C428.989 146.541 435.848 153.409 444.31 153.409C452.772 153.409 459.631 146.541 459.631 138.068Z" stroke="white" stroke-width="3"/>
<path d="M130.066 55.2889C130.066 48.9345 124.921 43.7832 118.575 43.7832C112.229 43.7832 107.084 48.9345 107.084 55.2889C107.084 61.6433 112.229 66.7946 118.575 66.7946C124.921 66.7946 130.066 61.6433 130.066 55.2889Z" fill="#281F2C" stroke="white" stroke-width="3"/>
<path d="M133.896 55.2889C133.896 46.8163 127.036 39.9479 118.575 39.9479C110.113 39.9479 103.254 46.8163 103.254 55.2889C103.254 63.7614 110.113 70.6298 118.575 70.6298C127.036 70.6298 133.896 63.7614 133.896 55.2889Z" stroke="white" stroke-width="3"/>
<path d="M33.6373 258.503C33.6373 252.149 28.4927 246.998 22.1465 246.998C15.8003 246.998 10.6557 252.149 10.6557 258.503C10.6557 264.858 15.8003 270.009 22.1465 270.009C28.4927 270.009 33.6373 264.858 33.6373 258.503Z" fill="#281F2C" stroke="white" stroke-width="3"/>
<path d="M37.4675 258.503C37.4675 250.031 30.608 243.162 22.1465 243.162C13.6849 243.162 6.82544 250.031 6.82544 258.503C6.82544 266.976 13.6849 273.844 22.1465 273.844C30.608 273.844 37.4675 266.976 37.4675 258.503Z" stroke="white" stroke-width="3"/>
<path d="M231.092 20.4546C231.092 14.1002 225.948 8.9489 219.602 8.9489C213.255 8.9489 208.111 14.1002 208.111 20.4546C208.111 26.809 213.255 31.9603 219.602 31.9603C225.948 31.9603 231.092 26.809 231.092 20.4546Z" fill="#281F2C" stroke="white" stroke-width="3"/>
<path d="M234.923 20.4546C234.923 11.982 228.063 5.11365 219.602 5.11365C211.14 5.11365 204.281 11.982 204.281 20.4546C204.281 28.9271 211.14 35.7955 219.602 35.7955C228.063 35.7955 234.923 28.9271 234.923 20.4546Z" stroke="white" stroke-width="3"/>
<path d="M200.45 327.273C200.45 320.918 195.306 315.767 188.96 315.767C182.613 315.767 177.469 320.918 177.469 327.273C177.469 333.627 182.613 338.778 188.96 338.778C195.306 338.778 200.45 333.627 200.45 327.273Z" fill="#281F2C" stroke="white" stroke-width="3"/>
<path d="M204.281 327.273C204.281 318.8 197.421 311.932 188.96 311.932C180.498 311.932 173.638 318.8 173.638 327.273C173.638 335.745 180.498 342.614 188.96 342.614C197.421 342.614 204.281 335.745 204.281 327.273Z" stroke="white" stroke-width="3"/>
<path d="M440.48 373.295C440.48 366.941 435.335 361.79 428.989 361.79C422.643 361.79 417.498 366.941 417.498 373.295C417.498 379.65 422.643 384.801 428.989 384.801C435.335 384.801 440.48 379.65 440.48 373.295Z" fill="#281F2C" stroke="white" stroke-width="3"/>
<path d="M444.31 373.295C444.31 364.823 437.451 357.955 428.989 357.955C420.527 357.955 413.668 364.823 413.668 373.295C413.668 381.768 420.527 388.636 428.989 388.636C437.451 388.636 444.31 381.768 444.31 373.295Z" stroke="white" stroke-width="3"/>
</svg>
