<svg width="450" height="277" viewBox="0 0 450 277" fill="none" xmlns="http://www.w3.org/2000/svg">
<path d="M54.5459 142.227C62.8241 147.794 68.2799 150.876 70.9134 151.47C101.788 153.574 129.24 154.626 153.268 154.626C189.31 154.626 282.241 151.504 336.676 147.775C372.967 145.288 398.987 141.838 414.737 137.423L372.525 123.493C353.932 114.211 340.187 108.412 331.291 106.098C317.947 102.627 295.495 100.517 279.228 102.21C262.961 103.902 227.278 110.848 218.28 111.818C214.383 112.238 192.284 114.669 151.982 119.11" stroke="#F5F5F5" stroke-width="3" stroke-linecap="round" stroke-linejoin="round"/>
<path d="M84.5716 126.542C80.1291 127.032 75.5763 127.534 70.9134 128.048L54.5459 134.123V142.227" stroke="#F5F5F5" stroke-width="3" stroke-linecap="round" stroke-linejoin="round"/>
<path d="M369.866 122.695L341.617 125.43L273.451 115.865L267.799 104.166" stroke="#F5F5F5" stroke-width="3" stroke-linecap="round" stroke-linejoin="round"/>
<path d="M306.687 102.419L317.462 121.666" stroke="#F5F5F5" stroke-width="3" stroke-linecap="round" stroke-linejoin="round"/>
<path d="M343.448 111.011L341.617 125.43" stroke="#F5F5F5" stroke-width="3" stroke-linecap="round" stroke-linejoin="round"/>
<path fill-rule="evenodd" clip-rule="evenodd" d="M273.452 115.865C203.645 122.687 161.874 126.772 148.14 128.12C134.406 129.468 109.479 131.99 73.3594 135.687L273.452 115.865Z" stroke="#F5F5F5" stroke-width="3" stroke-linecap="round" stroke-linejoin="round"/>
<path d="M255.765 118.22L249.397 141.842H187.256L176.8 125.776" stroke="#F5F5F5" stroke-width="3" stroke-linecap="round" stroke-linejoin="round"/>
<path d="M158.194 126.527L107.268 73.9806H84.5996V134.185" stroke="#F5F5F5" stroke-width="3" stroke-linecap="round" stroke-linejoin="round"/>
<path d="M384.959 151.264C390.099 161.903 401.009 169.245 413.636 169.245C431.209 169.245 445.454 155.027 445.454 137.49C445.454 119.952 431.209 105.735 413.636 105.735C407.327 105.735 401.446 107.568 396.5 110.729" stroke="#F5F5F5" stroke-width="3" stroke-linecap="round" stroke-linejoin="round"/>
<path d="M392.972 121.919C386.417 101.985 367.62 87.5897 345.454 87.5897C335.495 87.5897 326.215 90.4959 318.421 95.5049" stroke="#F5F5F5" stroke-width="3" stroke-linecap="round" stroke-linejoin="round"/>
<path d="M299.936 158.167C307.811 175.407 325.23 187.39 345.454 187.39C368.848 187.39 388.49 171.356 393.947 149.699" stroke="#F5F5F5" stroke-width="3" stroke-linecap="round" stroke-linejoin="round"/>
<path d="M311.618 88.8952C298.077 73.4031 278.151 63.6139 255.934 63.6139C226.42 63.6139 200.95 80.8892 189.12 105.86" stroke="#F5F5F5" stroke-width="3" stroke-linecap="round" stroke-linejoin="round"/>
<path d="M186.822 163.399C197.374 191.246 224.337 211.046 255.934 211.046C289.926 211.046 318.555 188.13 327.157 156.934" stroke="#F5F5F5" stroke-width="3" stroke-linecap="round" stroke-linejoin="round"/>
<path d="M229.673 99.862C214.325 58.2758 174.269 28.6168 127.273 28.6168C67.0233 28.6168 18.1816 77.361 18.1816 137.49C18.1816 197.619 67.0233 246.363 127.273 246.363C178.833 246.363 222.039 210.664 233.428 162.681" stroke="#F5F5F5" stroke-width="3" stroke-linecap="round" stroke-linejoin="round"/>
<path d="M419.265 106.164L54.5459 4.53638" stroke="#F5F5F5" stroke-width="3" stroke-linecap="round" stroke-linejoin="round"/>
<path d="M420.482 168.517L54.5459 270.443" stroke="#F5F5F5" stroke-width="3" stroke-linecap="round" stroke-linejoin="round"/>
<path d="M282.955 208.673C282.955 203.036 278.376 198.466 272.727 198.466C267.079 198.466 262.5 203.036 262.5 208.673C262.5 214.31 267.079 218.88 272.727 218.88C278.376 218.88 282.955 214.31 282.955 208.673Z" fill="#281F2C" stroke="white" stroke-width="1.5"/>
<path d="M286.364 208.673C286.364 201.157 280.258 195.064 272.727 195.064C265.196 195.064 259.091 201.157 259.091 208.673C259.091 216.189 265.196 222.282 272.727 222.282C280.258 222.282 286.364 216.189 286.364 208.673Z" stroke="white"/>
<path d="M282.955 68.0456C282.955 62.4085 278.376 57.8387 272.727 57.8387C267.079 57.8387 262.5 62.4085 262.5 68.0456C262.5 73.6827 267.079 78.2524 272.727 78.2524C278.376 78.2524 282.955 73.6827 282.955 68.0456Z" fill="#281F2C" stroke="white" stroke-width="1.5"/>
<path d="M286.364 68.0457C286.364 60.5295 280.258 54.4365 272.727 54.4365C265.196 54.4365 259.091 60.5295 259.091 68.0457C259.091 75.5618 265.196 81.6548 272.727 81.6548C280.258 81.6548 286.364 75.5618 286.364 68.0457Z" stroke="white"/>
<path d="M428.41 108.873C428.41 103.236 423.831 98.6661 418.182 98.6661C412.534 98.6661 407.955 103.236 407.955 108.873C407.955 114.51 412.534 119.08 418.182 119.08C423.831 119.08 428.41 114.51 428.41 108.873Z" fill="#281F2C" stroke="white" stroke-width="1.5"/>
<path d="M431.819 108.873C431.819 101.357 425.713 95.2639 418.182 95.2639C410.651 95.2639 404.546 101.357 404.546 108.873C404.546 116.389 410.651 122.482 418.182 122.482C425.713 122.482 431.819 116.389 431.819 108.873Z" stroke="white"/>
<path d="M364.773 185.991C364.773 180.354 360.194 175.785 354.546 175.785C348.897 175.785 344.318 180.354 344.318 185.991C344.318 191.628 348.897 196.198 354.546 196.198C360.194 196.198 364.773 191.628 364.773 185.991Z" fill="#281F2C" stroke="white" stroke-width="1.5"/>
<path d="M368.182 185.991C368.182 178.475 362.077 172.382 354.546 172.382C347.014 172.382 340.909 178.475 340.909 185.991C340.909 193.508 347.014 199.601 354.546 199.601C362.077 199.601 368.182 193.508 368.182 185.991Z" stroke="white"/>
<path d="M364.773 86.1911C364.773 80.554 360.194 75.9842 354.546 75.9842C348.897 75.9842 344.318 80.554 344.318 86.1911C344.318 91.8282 348.897 96.3979 354.546 96.3979C360.194 96.3979 364.773 91.8282 364.773 86.1911Z" fill="#281F2C" stroke="white" stroke-width="1.5"/>
<path d="M368.182 86.1912C368.182 78.675 362.077 72.582 354.546 72.582C347.014 72.582 340.909 78.675 340.909 86.1912C340.909 93.7073 347.014 99.8003 354.546 99.8003C362.077 99.8003 368.182 93.7073 368.182 86.1912Z" stroke="white"/>
<path d="M428.41 167.846C428.41 162.209 423.831 157.639 418.182 157.639C412.534 157.639 407.955 162.209 407.955 167.846C407.955 173.483 412.534 178.053 418.182 178.053C423.831 178.053 428.41 173.483 428.41 167.846Z" fill="#281F2C" stroke="white" stroke-width="1.5"/>
<path d="M431.819 167.846C431.819 160.33 425.713 154.237 418.182 154.237C410.651 154.237 404.546 160.33 404.546 167.846C404.546 175.362 410.651 181.455 418.182 181.455C425.713 181.455 431.819 175.362 431.819 167.846Z" stroke="white"/>
<path d="M28.4096 140.628C28.4096 134.991 23.8307 130.421 18.1824 130.421C12.534 130.421 7.95508 134.991 7.95508 140.628C7.95508 146.265 12.534 150.834 18.1824 150.834C23.8307 150.834 28.4096 146.265 28.4096 140.628Z" fill="#281F2C" stroke="white" stroke-width="1.5"/>
<path d="M31.8186 140.628C31.8186 133.112 25.7134 127.019 18.1823 127.019C10.6511 127.019 4.5459 133.112 4.5459 140.628C4.5459 148.144 10.6511 154.237 18.1823 154.237C25.7134 154.237 31.8186 148.144 31.8186 140.628Z" stroke="white"/>
<path d="M160.227 244.964C160.227 239.327 155.648 234.757 150 234.757C144.351 234.757 139.772 239.327 139.772 244.964C139.772 250.601 144.351 255.171 150 255.171C155.648 255.171 160.227 250.601 160.227 244.964Z" fill="#281F2C" stroke="white" stroke-width="1.5"/>
<path d="M163.636 244.964C163.636 237.448 157.531 231.355 150 231.355C142.468 231.355 136.363 237.448 136.363 244.964C136.363 252.48 142.468 258.573 150 258.573C157.531 258.573 163.636 252.48 163.636 244.964Z" stroke="white"/>
<path d="M160.227 31.7546C160.227 26.1175 155.648 21.5477 150 21.5477C144.351 21.5477 139.772 26.1175 139.772 31.7546C139.772 37.3917 144.351 41.9614 150 41.9614C155.648 41.9614 160.227 37.3917 160.227 31.7546Z" fill="#281F2C" stroke="white" stroke-width="1.5"/>
<path d="M163.636 31.7546C163.636 24.2385 157.531 18.1455 150 18.1455C142.468 18.1455 136.363 24.2385 136.363 31.7546C136.363 39.2708 142.468 45.3638 150 45.3638C157.531 45.3638 163.636 39.2708 163.636 31.7546Z" stroke="white"/>
</svg>
